0
SECTION
2
HEADER
9
$INSUNITS
70
4
9
$ACADVER
1
AC1014
9
$HANDSEED
5
FFFF
0
ENDSEC
0
SECTION
2
TABLES
0
TABLE
2
VPORT
5
8
100
AcDbSymbolTable
0
ENDTAB
0
TABLE
2
LTYPE
5
5
100
AcDbSymbolTable
0
LTYPE
5
14
100
AcDbSymbolTableRecord
100
AcDbLinetypeTableRecord
2
BYBLOCK
70
0
0
LTYPE
5
15
100
AcDbSymbolTableRecord
100
AcDbLinetypeTableRecord
2
BYLAYER
70
0
0
ENDTAB
0
TABLE
2
LAYER
5
2
100
AcDbSymbolTable
70
2
0
LAYER
5
50
100
AcDbSymbolTableRecord
100
AcDbLayerTableRecord
2
0
70
0
6
CONTINUOUS
0
ENDTAB
0
TABLE
2
STYLE
5
3
100
AcDbSymbolTable
70
1
0
STYLE
5
11
100
AcDbSymbolTableRecord
100
AcDbTextStyleTableRecord
2
STANDARD
70
0
0
ENDTAB
0
TABLE
2
VIEW
5
6
100
AcDbSymbolTable
70
0
0
ENDTAB
0
TABLE
2
UCS
5
7
100
AcDbSymbolTable
70
0
0
ENDTAB
0
TABLE
2
APPID
5
9
100
AcDbSymbolTable
70
2
0
APPID
5
12
100
AcDbSymbolTableRecord
100
AcDbRegAppTableRecord
2
ACAD
70
0
0
ENDTAB
0
TABLE
2
DIMSTYLE
5
A
100
AcDbSymbolTable
70
1
0
ENDTAB
0
TABLE
2
BLOCK_RECORD
5
1
100
AcDbSymbolTable
70
1
0
BLOCK_RECORD
5
1F
100
AcDbSymbolTableRecord
100
AcDbBlockTableRecord
2
*MODEL_SPACE
0
BLOCK_RECORD
5
1B
100
AcDbSymbolTableRecord
100
AcDbBlockTableRecord
2
*PAPER_SPACE
0
ENDTAB
0
ENDSEC
0
SECTION
2
BLOCKS
0
BLOCK
5
20
100
AcDbEntity
100
AcDbBlockBegin
2
*MODEL_SPACE
0
ENDBLK
5
21
100
AcDbEntity
100
AcDbBlockEnd
0
BLOCK
5
1C
100
AcDbEntity
100
AcDbBlockBegin
2
*PAPER_SPACE
0
ENDBLK
5
1D
100
AcDbEntity
100
AcDbBlockEnd
0
ENDSEC
0
SECTION
2
ENTITIES
0
LWPOLYLINE
5
100
100
AcDbEntity
8
0
100
AcDbPolyline
90
12
70
1
43
0.0
10
705.32399009843516
20
-489.44189115082787
42
-0.10510423526567279
10
718.21451492913582
20
-489.44189115082787
10
808.44374637492263
20
-508.62070634907218
10
890.63800251378609
20
-508.62070634907241
42
-0.41421356237309503
10
899.63800251378586
20
-517.62070634907218
10
899.63800251378586
20
-633.9607063490721
42
-0.41421356237309503
10
890.63800251378598
20
-642.9607063490721
10
533.39925251378577
20
-642.9607063490721
42
-0.41421356237309503
10
524.39925251378577
20
-633.9607063490721
10
524.39925251378577
20
-517.62070634907207
42
-0.41421356237309503
10
533.39925251378577
20
-508.62070634907207
10
615.09475865264892
20
-508.62070634907207
0
CIRCLE
5
101
100
AcDbEntity
8
0
100
AcDbCircle
10
-664.91596025747128
20
-632.4607063490721
30
0
40
1.5500000000000114
210
0
220
0
230
-1
0
CIRCLE
5
102
100
AcDbEntity
8
0
100
AcDbCircle
10
-758.62254477009833
20
-632.4607063490721
30
0
40
1.5500000000000114
210
0
220
0
230
-1
0
CIRCLE
5
103
100
AcDbEntity
8
0
100
AcDbCircle
10
-534.89925251378577
20
-632.4607063490721
30
0
40
1.5500000000000114
210
0
220
0
230
-1
0
CIRCLE
5
104
100
AcDbEntity
8
0
100
AcDbCircle
10
-889.13800251378575
20
-632.46070634907187
30
0
40
1.5500000000000114
210
0
220
0
230
-1
0
CIRCLE
5
105
100
AcDbEntity
8
0
100
AcDbCircle
10
-534.89925251378565
20
-519.12070634907207
30
0
40
1.7499999999999716
210
0
220
0
230
-1
0
CIRCLE
5
106
100
AcDbEntity
8
0
100
AcDbCircle
10
-664.91596025747083
20
-508.76545928376521
30
0
40
1.7499999999999716
210
0
220
0
230
-1
0
CIRCLE
5
107
100
AcDbEntity
8
0
100
AcDbCircle
10
-889.13800251378575
20
-519.12070634907207
30
0
40
1.7499999999999716
210
0
220
0
230
-1
0
CIRCLE
5
108
100
AcDbEntity
8
0
100
AcDbCircle
10
-758.62254477009833
20
-508.76545928376521
30
0
40
1.7499999999999716
210
0
220
0
230
-1
0
CIRCLE
5
109
100
AcDbEntity
8
0
100
AcDbCircle
10
534.89925251378565
20
-519.12070634907207
30
0
40
1.5500000000000114
210
0
220
0
230
1
0
CIRCLE
5
110
100
AcDbEntity
8
0
100
AcDbCircle
10
664.91596025747083
20
-508.76545928376521
30
0
40
1.5500000000000367
210
0
220
0
230
1
0
CIRCLE
5
111
100
AcDbEntity
8
0
100
AcDbCircle
10
758.62254477009833
20
-508.76545928376521
30
0
40
1.5499999999999445
210
0
220
0
230
1
0
CIRCLE
5
112
100
AcDbEntity
8
0
100
AcDbCircle
10
889.13800251378575
20
-519.12070634907207
30
0
40
1.5500000000000489
210
0
220
0
230
1
0
LWPOLYLINE
5
113
100
AcDbEntity
8
0
100
AcDbPolyline
90
4
70
1
43
0.0
10
527.03529148310679
20
-511.25674531839309
10
897.00196354446484
20
-511.25674531839309
10
897.00196354446484
20
-640.32466737975096
10
527.03529148310679
20
-640.32466737975096
0
SPLINE
5
114
100
AcDbEntity
8
0
100
AcDbSpline
70
0
71
2
72
6
73
3
74
0
42
0.000000001
43
0.0000000001
44
0.0000000001
40
0
40
0
40
0
40
1
40
1
40
1
10
801.62743634340836
20
-588.4359106277368
30
0
10
801.62743634340836
20
-589.07310812224364
30
0
10
801.73363751528336
20
-589.52823965300536
30
0
0
SPLINE
5
115
100
AcDbEntity
8
0
100
AcDbSpline
70
0
71
2
72
6
73
3
74
0
42
0.000000001
43
0.0000000001
44
0.0000000001
40
0
40
0
40
0
40
1
40
1
40
1
10
801.73363751528336
20
-589.52823965300536
30
0
10
801.83983868715836
20
-589.98338072051024
30
0
10
802.1053320801027
20
-590.27162878264403
30
0
0
SPLINE
5
116
100
AcDbEntity
8
0
100
AcDbSpline
70
0
71
2
72
6
73
3
74
0
42
0.000000001
43
0.0000000001
44
0.0000000001
40
0
40
0
40
0
40
1
40
1
40
1
10
802.1053320801027
20
-590.27162878264403
30
0
10
802.37082547304703
20
-590.55988638152098
30
0
10
802.84112996218278
20
-590.69642393340087
30
0
0
SPLINE
5
117
100
AcDbEntity
8
0
100
AcDbSpline
70
0
71
2
72
6
73
3
74
0
42
0.000000001
43
0.0000000001
44
0.0000000001
40
0
40
0
40
0
40
1
40
1
40
1
10
802.84112996218278
20
-590.69642393340087
30
0
10
803.31144398806168
20
-590.83297102202391
30
0
10
804.03966015932633
20
-590.83297102202391
30
0
0
SPLINE
5
118
100
AcDbEntity
8
0
100
AcDbSpline
70
0
71
2
72
6
73
3
74
0
42
0.000000001
43
0.0000000001
44
0.0000000001
40
0
40
0
40
0
40
1
40
1
40
1
10
804.03966015932633
20
-590.83297102202391
30
0
10
805.04096097109391
20
-590.83297102202391
30
0
10
806.60359448549821
20
-590.60539571989989
30
0
0
LINE
5
119
100
AcDbEntity
8
0
100
AcDbLine
10
806.60359448549821
20
-590.60539571989989
30
0
11
806.78565091250016
21
-591.95563642729735
31
0
0
SPLINE
5
120
100
AcDbEntity
8
0
100
AcDbSpline
70
0
71
2
72
6
73
3
74
0
42
0.000000001
43
0.0000000001
44
0.0000000001
40
0
40
0
40
0
40
1
40
1
40
1
10
806.78565091250016
20
-591.95563642729735
30
0
10
805.35955494997575
20
-592.21354810942626
30
0
10
803.667965594507
20
-592.48663274992919
30
0
0
SPLINE
5
121
100
AcDbEntity
8
0
100
AcDbSpline
70
0
71
2
72
6
73
3
74
0
42
0.000000001
43
0.0000000001
44
0.0000000001
40
0
40
0
40
0
40
1
40
1
40
1
10
803.667965594507
20
-592.48663274992919
30
0
10
801.97637623903825
20
-592.75971739043212
30
0
10
800.19375867006852
20
-592.98728315581297
30
0
0
SPLINE
5
122
100
AcDbEntity
8
0
100
AcDbSpline
70
0
71
2
72
6
73
3
74
0
42
0.000000001
43
0.0000000001
44
0.0000000001
40
0
40
0
40
0
40
1
40
1
40
1
10
800.19375867006852
20
-592.98728315581297
30
0
10
798.41114110109879
20
-593.21484892119383
30
0
10
796.61335057375504
20
-593.35897772063231
30
0
0
SPLINE
5
123
100
AcDbEntity
8
0
100
AcDbSpline
70
0
71
2
72
6
73
3
74
0
42
0.000000001
43
0.0000000001
44
0.0000000001
40
0
40
0
40
0
40
1
40
1
40
1
10
796.61335057375504
20
-593.35897772063231
30
0
10
794.81556004641129
20
-593.50310652007079
30
0
10
793.16189831850602
20
-593.50310652007079
30
0
0
SPLINE
5
124
100
AcDbEntity
8
0
100
AcDbSpline
70
0
71
2
72
6
73
3
74
0
42
0.000000001
43
0.0000000001
44
0.0000000001
40
0
40
0
40
0
40
1
40
1
40
1
10
793.16189831850602
20
-593.50310652007079
30
0
10
790.97724026796891
20
-593.50310652007079
30
0
10
789.0580851471193
20
-593.10864774931883
30
0
0
SPLINE
5
125
100
AcDbEntity
8
0
100
AcDbSpline
70
0
71
2
72
6
73
3
74
0
42
0.000000001
43
0.0000000001
44
0.0000000001
40
0
40
0
40
0
40
1
40
1
40
1
10
789.0580851471193
20
-593.10864774931883
30
0
10
787.13892048952653
20
-592.71419851531004
30
0
10
785.70524281618668
20
-591.76599828947997
30
0
0
SPLINE
5
126
100
AcDbEntity
8
0
100
AcDbSpline
70
0
71
2
72
6
73
3
74
0
42
0.000000001
43
0.0000000001
44
0.0000000001
40
0
40
0
40
0
40
1
40
1
40
1
10
785.70524281618668
20
-591.76599828947997
30
0
10
784.27156514284684
20
-590.81779806364989
30
0
10
783.43714779970719
20
-589.22481863249754
30
0
0
SPLINE
5
127
100
AcDbEntity
8
0
100
AcDbSpline
70
0
71
2
72
6
73
3
74
0
42
0.000000001
43
0.0000000001
44
0.0000000001
40
0
40
0
40
0
40
1
40
1
40
1
10
783.43714779970719
20
-589.22481863249754
30
0
10
782.60273045656754
20
-587.6318392013452
30
0
10
782.60273045656754
20
-585.24996130217528
30
0
0
SPLINE
5
128
100
AcDbEntity
8
0
100
AcDbSpline
70
0
71
2
72
6
73
3
74
0
42
0.000000001
43
0.0000000001
44
0.0000000001
40
0
40
0
40
0
40
1
40
1
40
1
10
782.60273045656754
20
-585.24996130217528
30
0
10
782.60273045656754
20
-582.4736246322534
30
0
10
783.5357577240236
20
-580.26621191252684
30
0
0
SPLINE
5
129
100
AcDbEntity
8
0
100
AcDbSpline
70
0
71
2
72
6
73
3
74
0
42
0.000000001
43
0.0000000001
44
0.0000000001
40
0
40
0
40
0
40
1
40
1
40
1
10
783.5357577240236
20
-580.26621191252684
30
0
10
784.46879452822282
20
-578.05879919280028
30
0
10
786.15279263613297
20
-576.52651159514403
30
0
0
SPLINE
5
130
100
AcDbEntity
8
0
100
AcDbSpline
70
0
71
2
72
6
73
3
74
0
42
0.000000001
43
0.0000000001
44
0.0000000001
40
0
40
0
40
0
40
1
40
1
40
1
10
786.15279263613297
20
-576.52651159514403
30
0
10
787.83680028078629
20
-574.99421446074462
30
0
10
790.19592351076676
20
-574.18255178679442
30
0
0
SPLINE
5
131
100
AcDbEntity
8
0
100
AcDbSpline
70
0
71
2
72
6
73
3
74
0
42
0.000000001
43
0.0000000001
44
0.0000000001
40
0
40
0
40
0
40
1
40
1
40
1
10
790.19592351076676
20
-574.18255178679442
30
0
10
792.55504674074723
20
-573.37089864958739
30
0
10
795.40723866579606
20
-573.37089864958739
30
0
0
SPLINE
5
132
100
AcDbEntity
8
0
100
AcDbSpline
70
0
71
2
72
6
73
3
74
0
42
0.000000001
43
0.0000000001
44
0.0000000001
40
0
40
0
40
0
40
1
40
1
40
1
10
795.40723866579606
20
-573.37089864958739
30
0
10
796.04442662355973
20
-573.37089864958739
30
0
10
796.30233830568864
20
-573.5681184982202
30
0
0
SPLINE
5
133
100
AcDbEntity
8
0
100
AcDbSpline
70
0
71
2
72
6
73
3
74
0
42
0.000000001
43
0.0000000001
44
0.0000000001
40
0
40
0
40
0
40
1
40
1
40
1
10
796.30233830568864
20
-573.5681184982202
30
0
10
796.56024998781754
20
-573.76534788359618
30
0
10
796.56024998781754
20
-574.41770879973387
30
0
0
LINE
5
134
100
AcDbEntity
8
0
100
AcDbLine
10
796.56024998781754
20
-574.41770879973387
30
0
11
796.56024998781754
21
-574.61493818510985
31
0
0
SPLINE
5
135
100
AcDbEntity
8
0
100
AcDbSpline
70
0
71
2
72
6
73
3
74
0
42
0.000000001
43
0.0000000001
44
0.0000000001
40
0
40
0
40
0
40
1
40
1
40
1
10
796.56024998781754
20
-574.61493818510985
30
0
10
796.56024998781754
20
-574.76664869536376
30
0
10
796.54507702944352
20
-574.84250395049071
30
0
0
SPLINE
5
136
100
AcDbEntity
8
0
100
AcDbSpline
70
0
71
2
72
6
73
3
74
0
42
0.000000001
43
0.0000000001
44
0.0000000001
40
0
40
0
40
0
40
1
40
1
40
1
10
796.54507702944352
20
-574.84250395049071
30
0
10
794.3149096405275
20
-574.84250395049071
30
0
10
792.71434849855973
20
-575.30522672881102
30
0
0
SPLINE
5
137
100
AcDbEntity
8
0
100
AcDbSpline
70
0
71
2
72
6
73
3
74
0
42
0.000000001
43
0.0000000001
44
0.0000000001
40
0
40
0
40
0
40
1
40
1
40
1
10
792.71434849855973
20
-575.30522672881102
30
0
10
791.11378735659196
20
-575.76794950713133
30
0
10
790.0214583313234
20
-576.53409330595946
30
0
0
SPLINE
5
138
100
AcDbEntity
8
0
100
AcDbSpline
70
0
71
2
72
6
73
3
74
0
42
0.000000001
43
0.0000000001
44
0.0000000001
40
0
40
0
40
0
40
1
40
1
40
1
10
790.0214583313234
20
-576.53409330595946
30
0
10
788.92912930605485
20
-577.30023710478758
30
0
10
788.27676838991715
20
-578.27878324736571
30
0
0
SPLINE
5
139
100
AcDbEntity
8
0
100
AcDbSpline
70
0
71
2
72
6
73
3
74
0
42
0.000000001
43
0.0000000001
44
0.0000000001
40
0
40
0
40
0
40
1
40
1
40
1
10
788.27676838991715
20
-578.27878324736571
30
0
10
787.62440747377946
20
-579.25732938994383
30
0
10
787.27546757814957
20
-580.29655782927489
30
0
0
SPLINE
5
140
100
AcDbEntity
8
0
100
AcDbSpline
70
0
71
2
72
6
73
3
74
0
42
0.000000001
43
0.0000000001
44
0.0000000001
40
0
40
0
40
0
40
1
40
1
40
1
10
787.27546757814957
20
-580.29655782927489
30
0
10
786.92652768251969
20
-581.33578626860594
30
0
10
786.82033604738785
20
-582.35225050200438
30
0
0
SPLINE
5
141
100
AcDbEntity
8
0
100
AcDbSpline
70
0
71
2
72
6
73
3
74
0
42
0.000000001
43
0.0000000001
44
0.0000000001
40
0
40
0
40
0
40
1
40
1
40
1
10
786.82033604738785
20
-582.35225050200438
30
0
10
786.71413487551285
20
-583.36872427214598
30
0
10
786.71413487551285
20
-584.18797819365477
30
0
0
SPLINE
5
142
100
AcDbEntity
8
0
100
AcDbSpline
70
0
71
2
72
6
73
3
74
0
42
0.000000001
43
0.0000000001
44
0.0000000001
40
0
40
0
40
0
40
1
40
1
40
1
10
786.71413487551285
20
-584.18797819365477
30
0
10
786.71413487551285
20
-586.38779966582274
30
0
10
787.32856816408707
20
-587.85182325591063
30
0
0
SPLINE
5
143
100
AcDbEntity
8
0
100
AcDbSpline
70
0
71
2
72
6
73
3
74
0
42
0.000000001
43
0.0000000001
44
0.0000000001
40
0
40
0
40
0
40
1
40
1
40
1
10
787.32856816408707
20
-587.85182325591063
30
0
10
787.94300145266129
20
-589.31584684599852
30
0
10
788.99740285036637
20
-590.18060056914305
30
0
0
SPLINE
5
144
100
AcDbEntity
8
0
100
AcDbSpline
70
0
71
2
72
6
73
3
74
0
42
0.000000001
43
0.0000000001
44
0.0000000001
40
0
40
0
40
0
40
1
40
1
40
1
10
788.99740285036637
20
-590.18060056914305
30
0
10
790.05179471132828
20
-591.04536382903075
30
0
10
791.46272725222184
20
-591.40188543547606
30
0
0
SPLINE
5
145
100
AcDbEntity
8
0
100
AcDbSpline
70
0
71
2
72
6
73
3
74
0
42
0.000000001
43
0.0000000001
44
0.0000000001
40
0
40
0
40
0
40
1
40
1
40
1
10
791.46272725222184
20
-591.40188543547606
30
0
10
792.87365025637223
20
-591.75841657866454
30
0
10
794.46662015078141
20
-591.75841657866454
30
0
0
SPLINE
5
146
100
AcDbEntity
8
0
100
AcDbSpline
70
0
71
2
72
6
73
3
74
0
42
0.000000001
43
0.0000000001
44
0.0000000001
40
0
40
0
40
0
40
1
40
1
40
1
10
794.46662015078141
20
-591.75841657866454
30
0
10
795.27070111391618
20
-591.75841657866454
30
0
10
796.00649899599625
20
-591.69772474516844
30
0
0
SPLINE
5
147
100
AcDbEntity
8
0
100
AcDbSpline
70
0
71
2
72
6
73
3
74
0
42
0.000000001
43
0.0000000001
44
0.0000000001
40
0
40
0
40
0
40
1
40
1
40
1
10
796.00649899599625
20
-591.69772474516844
30
0
10
796.7423064148195
20
-591.63704244841551
30
0
10
797.60706013796403
20
-591.53084127654051
30
0
0
SPLINE
5
148
100
AcDbEntity
8
0
100
AcDbSpline
70
0
71
2
72
6
73
3
74
0
42
0.000000001
43
0.0000000001
44
0.0000000001
40
0
40
0
40
0
40
1
40
1
40
1
10
797.60706013796403
20
-591.53084127654051
30
0
10
797.63740605471207
20
-590.36265699614501
30
0
10
797.69050664064957
20
-588.40557424773192
30
0
0
SPLINE
5
149
100
AcDbEntity
8
0
100
AcDbSpline
70
0
71
2
72
6
73
3
74
0
42
0.000000001
43
0.0000000001
44
0.0000000001
40
0
40
0
40
0
40
1
40
1
40
1
10
797.69050664064957
20
-588.40557424773192
30
0
10
797.74360722658707
20
-586.44848196257567
30
0
10
797.81187123415543
20
-583.90731184233641
30
0
0
SPLINE
5
150
100
AcDbEntity
8
0
100
AcDbSpline
70
0
71
2
72
6
73
3
74
0
42
0.000000001
43
0.0000000001
44
0.0000000001
40
0
40
0
40
0
40
1
40
1
40
1
10
797.81187123415543
20
-583.90731184233641
30
0
10
797.88014477846696
20
-581.36613218535399
30
0
10
797.97117299196793
20
-578.33946554411864
30
0
0
SPLINE
5
151
100
AcDbEntity
8
0
100
AcDbSpline
70
0
71
2
72
6
73
3
74
0
42
0.000000001
43
0.0000000001
44
0.0000000001
40
0
40
0
40
0
40
1
40
1
40
1
10
797.97117299196793
20
-578.33946554411864
30
0
10
798.06220120546891
20
-575.31280843962645
30
0
10
798.15322941896989
20
-572.01306669463133
30
0
0
SPLINE
5
152
100
AcDbEntity
8
0
100
AcDbSpline
70
0
71
2
72
6
73
3
74
0
42
0.000000001
43
0.0000000001
44
0.0000000001
40
0
40
0
40
0
40
1
40
1
40
1
10
798.15322941896989
20
-572.01306669463133
30
0
10
798.24425763247086
20
-568.71333448637938
30
0
10
798.35045880434586
20
-565.23153631438231
30
0
0
SPLINE
5
153
100
AcDbEntity
8
0
100
AcDbSpline
70
0
71
2
72
6
73
3
74
0
42
0.000000001
43
0.0000000001
44
0.0000000001
40
0
40
0
40
0
40
1
40
1
40
1
10
798.35045880434586
20
-565.23153631438231
30
0
10
798.4566504394777
20
-561.74973814238524
30
0
10
798.5628516113527
20
-558.29070417632079
30
0
0
LINE
5
154
100
AcDbEntity
8
0
100
AcDbLine
10
798.56285161135258
20
-558.29070417632079
30
0
11
802.1584326660402
21
-557.8355631088159
31
0
0
LINE
5
155
100
AcDbEntity
8
0
100
AcDbLine
10
802.1584326660402
20
-557.8355631088159
30
0
11
802.43150776979996
21
-557.86590902556395
31
0
0
SPLINE
5
156
100
AcDbEntity
8
0
100
AcDbSpline
70
0
71
2
72
6
73
3
74
0
42
0.000000001
43
0.0000000001
44
0.0000000001
40
0
40
0
40
0
40
1
40
1
40
1
10
802.43150776979996
20
-557.86590902556395
30
0
10
802.24946087954118
20
-562.22005216826415
30
0
10
802.0977408325441
20
-566.11905424345946
30
0
0
SPLINE
5
157
100
AcDbEntity
8
0
100
AcDbSpline
70
0
71
2
72
6
73
3
74
0
42
0.000000001
43
0.0000000001
44
0.0000000001
40
0
40
0
40
0
40
1
40
1
40
1
10
802.0977408325441
20
-566.11905424345946
30
0
10
801.9460303222902
20
-570.01805631865477
30
0
10
801.84742039797379
20
-573.71224729765868
30
0
0
SPLINE
5
158
100
AcDbEntity
8
0
100
AcDbSpline
70
0
71
2
72
6
73
3
74
0
42
0.000000001
43
0.0000000001
44
0.0000000001
40
0
40
0
40
0
40
1
40
1
40
1
10
801.84742039797379
20
-573.71224729765868
30
0
10
801.74881047365739
20
-577.40643827666258
30
0
10
801.68811864016129
20
-581.02477400053954
30
0
0
SPLINE
5
159
100
AcDbEntity
8
0
100
AcDbSpline
70
0
71
2
72
6
73
3
74
0
42
0.000000001
43
0.0000000001
44
0.0000000001
40
0
40
0
40
0
40
1
40
1
40
1
10
801.68811864016129
20
-581.02477400053954
30
0
10
801.62743634340836
20
-584.64310972441649
30
0
10
801.62743634340836
20
-588.4359106277368
30
0
0
SPLINE
5
160
100
AcDbEntity
8
0
100
AcDbSpline
70
0
71
2
72
6
73
3
74
0
42
0.000000001
43
0.0000000001
44
0.0000000001
40
0
40
0
40
0
40
1
40
1
40
1
10
764.29106778261735
20
-562.9937776779077
30
0
10
764.20003956911637
20
-562.94826833952879
30
0
10
764.05592030642106
20
-562.86482183684325
30
0
0
SPLINE
5
161
100
AcDbEntity
8
0
100
AcDbSpline
70
0
71
2
72
6
73
3
74
0
42
0.000000001
43
0.0000000001
44
0.0000000001
40
0
40
0
40
0
40
1
40
1
40
1
10
764.05592030642106
20
-562.86482183684325
30
0
10
763.91179150698258
20
-562.78138487090087
30
0
10
763.79041737673356
20
-562.68277494658446
30
0
0
SPLINE
5
162
100
AcDbEntity
8
0
100
AcDbSpline
70
0
71
2
72
6
73
3
74
0
42
0.000000001
43
0.0000000001
44
0.0000000001
40
0
40
0
40
0
40
1
40
1
40
1
10
763.79041737673356
20
-562.68277494658446
30
0
10
763.6690527832277
20
-562.58415548552489
30
0
10
763.57802456972672
20
-562.47037260283446
30
0
0
SPLINE
5
163
100
AcDbEntity
8
0
100
AcDbSpline
70
0
71
2
72
6
73
3
74
0
42
0.000000001
43
0.0000000001
44
0.0000000001
40
0
40
0
40
0
40
1
40
1
40
1
10
763.57802456972672
20
-562.47037260283446
30
0
10
763.48699635622575
20
-562.35658972014403
30
0
10
763.48699635622575
20
-562.25038854826903
30
0
0
SPLINE
5
164
100
AcDbEntity
8
0
100
AcDbSpline
70
0
71
2
72
6
73
3
74
0
42
0.000000001
43
0.0000000001
44
0.0000000001
40
0
40
0
40
0
40
1
40
1
40
1
10
763.48699635622575
20
-562.25038854826903
30
0
10
763.48699635622575
20
-562.1897062515161
30
0
10
763.53250569460465
20
-562.12902395476317
30
0
0
SPLINE
5
165
100
AcDbEntity
8
0
100
AcDbSpline
70
0
71
2
72
6
73
3
74
0
42
0.000000001
43
0.0000000001
44
0.0000000001
40
0
40
0
40
0
40
1
40
1
40
1
10
763.53250569460465
20
-562.12902395476317
30
0
10
764.38209599611832
20
-560.94566671599364
30
0
10
765.36064213869645
20
-560.07332174529051
30
0
0
SPLINE
5
166
100
AcDbEntity
8
0
100
AcDbSpline
70
0
71
2
72
6
73
3
74
0
42
0.000000001
43
0.0000000001
44
0.0000000001
40
0
40
0
40
0
40
1
40
1
40
1
10
765.36064213869645
20
-560.07332174529051
30
0
10
766.33918828127457
20
-559.20097677458739
30
0
10
767.39358967897965
20
-558.61688940276122
30
0
0
SPLINE
5
167
100
AcDbEntity
8
0
100
AcDbSpline
70
0
71
2
72
6
73
3
74
0
42
0.000000001
43
0.0000000001
44
0.0000000001
40
0
40
0
40
0
40
1
40
1
40
1
10
767.39358967897965
20
-558.61688940276122
30
0
10
768.44798153994157
20
-558.03279249419188
30
0
10
769.54031056521012
20
-557.75212614287352
30
0
0
SPLINE
5
168
100
AcDbEntity
8
0
100
AcDbSpline
70
0
71
2
72
6
73
3
74
0
42
0.000000001
43
0.0000000001
44
0.0000000001
40
0
40
0
40
0
40
1
40
1
40
1
10
769.54031056521012
20
-557.75212614287352
30
0
10
770.63263959047868
20
-557.47145979155516
30
0
10
771.69462269899918
20
-557.47145979155516
30
0
0
SPLINE
5
169
100
AcDbEntity
8
0
100
AcDbSpline
70
0
71
2
72
6
73
3
74
0
42
0.000000001
43
0.0000000001
44
0.0000000001
40
0
40
0
40
0
40
1
40
1
40
1
10
771.69462269899918
20
-557.47145979155516
30
0
10
773.51516789553239
20
-557.47145979155516
30
0
10
775.03229207155778
20
-558.21484892119383
30
0
0
SPLINE
5
170
100
AcDbEntity
8
0
100
AcDbSpline
70
0
71
2
72
6
73
3
74
0
42
0.000000001
43
0.0000000001
44
0.0000000001
40
0
40
0
40
0
40
1
40
1
40
1
10
775.03229207155778
20
-558.21484892119383
30
0
10
776.54941624758317
20
-558.95823805083251
30
0
10
777.64174527285172
20
-560.24778692473387
30
0
0
SPLINE
5
171
100
AcDbEntity
8
0
100
AcDbSpline
70
0
71
2
72
6
73
3
74
0
42
0.000000001
43
0.0000000001
44
0.0000000001
40
0
40
0
40
0
40
1
40
1
40
1
10
777.64174527285172
20
-560.24778692473387
30
0
10
778.73407429812028
20
-561.5373453353784
30
0
10
779.3485075866945
20
-563.27445356596922
30
0
0
SPLINE
5
172
100
AcDbEntity
8
0
100
AcDbSpline
70
0
71
2
72
6
73
3
74
0
42
0.000000001
43
0.0000000001
44
0.0000000001
40
0
40
0
40
0
40
1
40
1
40
1
10
779.3485075866945
20
-563.27445356596922
30
0
10
779.96294087526871
20
-565.01155225981688
30
0
10
779.96294087526871
20
-566.99898092497801
30
0
0
SPLINE
5
173
100
AcDbEntity
8
0
100
AcDbSpline
70
0
71
2
72
6
73
3
74
0
42
0.000000001
43
0.0000000001
44
0.0000000001
40
0
40
0
40
0
40
1
40
1
40
1
10
779.96294087526871
20
-566.99898092497801
30
0
10
779.96294087526871
20
-568.6223062728784
30
0
10
779.6064192688234
20
-570.24562208403563
30
0
0
SPLINE
5
174
100
AcDbEntity
8
0
100
AcDbSpline
70
0
71
2
72
6
73
3
74
0
42
0.000000001
43
0.0000000001
44
0.0000000001
40
0
40
0
40
0
40
1
40
1
40
1
10
779.6064192688234
20
-570.24562208403563
30
0
10
779.24988812563493
20
-571.86894743193602
30
0
10
778.57477254030778
20
-573.34055273283934
30
0
0
SPLINE
5
175
100
AcDbEntity
8
0
100
AcDbSpline
70
0
71
2
72
6
73
3
74
0
42
0.000000001
43
0.0000000001
44
0.0000000001
40
0
40
0
40
0
40
1
40
1
40
1
10
778.57477254030778
20
-573.34055273283934
30
0
10
777.89964741823746
20
-574.81215803374266
30
0
10
776.92869252321793
20
-576.07896177519774
30
0
0
SPLINE
5
176
100
AcDbEntity
8
0
100
AcDbSpline
70
0
71
2
72
6
73
3
74
0
42
0.000000001
43
0.0000000001
44
0.0000000001
40
0
40
0
40
0
40
1
40
1
40
1
10
776.92869252321793
20
-576.07896177519774
30
0
10
775.9577376281984
20
-577.34575597990965
30
0
10
774.72127980349137
20
-578.27878324736571
30
0
0
SPLINE
5
177
100
AcDbEntity
8
0
100
AcDbSpline
70
0
71
2
72
6
73
3
74
0
42
0.000000001
43
0.0000000001
44
0.0000000001
40
0
40
0
40
0
40
1
40
1
40
1
10
774.72127980349137
20
-578.27878324736571
30
0
10
773.4848315155275
20
-579.21181051482176
30
0
10
772.00563496706559
20
-579.7428068374536
30
0
0
SPLINE
5
178
100
AcDbEntity
8
0
100
AcDbSpline
70
0
71
2
72
6
73
3
74
0
42
0.000000001
43
0.0000000001
44
0.0000000001
40
0
40
0
40
0
40
1
40
1
40
1
10
772.00563496706559
20
-579.7428068374536
30
0
10
770.52643841860368
20
-580.27379362334227
30
0
10
768.8272673523195
20
-580.27379362334227
30
0
0
SPLINE
5
179
100
AcDbEntity
8
0
100
AcDbSpline
70
0
71
2
72
6
73
3
74
0
42
0.000000001
43
0.0000000001
44
0.0000000001
40
0
40
0
40
0
40
1
40
1
40
1
10
768.8272673523195
20
-580.27379362334227
30
0
10
767.70459241030289
20
-580.27379362334227
30
0
10
766.68811864016129
20
-579.97037260283446
30
0
0
SPLINE
5
180
100
AcDbEntity
8
0
100
AcDbSpline
70
0
71
2
72
6
73
3
74
0
42
0.000000001
43
0.0000000001
44
0.0000000001
40
0
40
0
40
0
40
1
40
1
40
1
10
766.68811864016129
20
-579.97037260283446
30
0
10
765.67165440676285
20
-579.66695158232665
30
0
10
764.90551060793473
20
-579.09802763213133
30
0
0
SPLINE
5
181
100
AcDbEntity
8
0
100
AcDbSpline
70
0
71
2
72
6
73
3
74
0
42
0.000000001
43
0.0000000001
44
0.0000000001
40
0
40
0
40
0
40
1
40
1
40
1
10
764.90551060793473
20
-579.09802763213133
30
0
10
764.13935727236344
20
-578.52910368193602
30
0
10
763.68421620485856
20
-577.69469587553954
30
0
0
SPLINE
5
182
100
AcDbEntity
8
0
100
AcDbSpline
70
0
71
2
72
6
73
3
74
0
42
0.000000001
43
0.0000000001
44
0.0000000001
40
0
40
0
40
0
40
1
40
1
40
1
10
763.68421620485856
20
-577.69469587553954
30
0
10
763.22908467409684
20
-576.86027853239989
30
0
10
763.22908467409684
20
-575.79828588713622
30
0
0
SPLINE
5
183
100
AcDbEntity
8
0
100
AcDbSpline
70
0
71
2
72
6
73
3
74
0
42
0.000000001
43
0.0000000001
44
0.0000000001
40
0
40
0
40
0
40
1
40
1
40
1
10
763.22908467409684
20
-575.79828588713622
30
0
10
763.22908467409684
20
-574.25082533110594
30
0
10
764.23797673342301
20
-573.09781400908446
30
0
0
SPLINE
5
184
100
AcDbEntity
8
0
100
AcDbSpline
70
0
71
2
72
6
73
3
74
0
42
0.000000001
43
0.0000000001
44
0.0000000001
40
0
40
0
40
0
40
1
40
1
40
1
10
764.23797673342301
20
-573.09781400908446
30
0
10
765.24685925600602
20
-571.94480268706297
30
0
10
767.02188557741715
20
-571.14072172392821
30
0
0
SPLINE
5
185
100
AcDbEntity
8
0
100
AcDbSpline
70
0
71
2
72
6
73
3
74
0
42
0.000000001
43
0.0000000001
44
0.0000000001
40
0
40
0
40
0
40
1
40
1
40
1
10
767.02188557741715
20
-571.14072172392821
30
0
10
768.79692143557145
20
-570.33665029753661
30
0
10
771.20155400393082
20
-569.84359113921141
30
0
0
SPLINE
5
186
100
AcDbEntity
8
0
100
AcDbSpline
70
0
71
2
72
6
73
3
74
0
42
0.000000001
43
0.0000000001
44
0.0000000001
40
0
40
0
40
0
40
1
40
1
40
1
10
771.20155400393082
20
-569.84359113921141
30
0
10
773.60619610903336
20
-569.35052244414305
30
0
10
776.39770573732926
20
-569.10778372038817
30
0
0
LINE
5
187
100
AcDbEntity
8
0
100
AcDbLine
10
776.39770573732926
20
-569.10778372038817
30
0
11
776.39770573732926
21
-568.84987203825926
31
0
0
SPLINE
5
188
100
AcDbEntity
8
0
100
AcDbSpline
70
0
71
2
72
6
73
3
74
0
42
0.000000001
43
0.0000000001
44
0.0000000001
40
0
40
0
40
0
40
1
40
1
40
1
10
776.39770573732926
20
-568.84987203825926
30
0
10
776.39770573732926
20
-566.90795271147704
30
0
10
775.9046370422609
20
-565.29980985869383
30
0
0
SPLINE
5
189
100
AcDbEntity
8
0
100
AcDbSpline
70
0
71
2
72
6
73
3
74
0
42
0.000000001
43
0.0000000001
44
0.0000000001
40
0
40
0
40
0
40
1
40
1
40
1
10
775.9046370422609
20
-565.29980985869383
30
0
10
775.41156834719254
20
-563.69165746916747
30
0
10
774.54681462404801
20
-562.54622785796141
30
0
0
SPLINE
5
190
100
AcDbEntity
8
0
100
AcDbSpline
70
0
71
2
72
6
73
3
74
0
42
0.000000001
43
0.0000000001
44
0.0000000001
40
0
40
0
40
0
40
1
40
1
40
1
10
774.54681462404801
20
-562.54622785796141
30
0
10
773.68205136416032
20
-561.40080778349852
30
0
10
772.51386708376481
20
-560.76361028899169
30
0
0
SPLINE
5
191
100
AcDbEntity
8
0
100
AcDbSpline
70
0
71
2
72
6
73
3
74
0
42
0.000000001
43
0.0000000001
44
0.0000000001
40
0
40
0
40
0
40
1
40
1
40
1
10
772.51386708376481
20
-560.76361028899169
30
0
10
771.34569234011246
20
-560.12642233122801
30
0
10
769.99544209597184
20
-560.12642233122801
30
0
0
SPLINE
5
192
100
AcDbEntity
8
0
100
AcDbSpline
70
0
71
2
72
6
73
3
74
0
42
0.000000001
43
0.0000000001
44
0.0000000001
40
0
40
0
40
0
40
1
40
1
40
1
10
769.99544209597184
20
-560.12642233122801
30
0
10
768.63003796694352
20
-560.12642233122801
30
0
10
767.19636029360368
20
-560.80153791655516
30
0
0
SPLINE
5
193
100
AcDbEntity
8
0
100
AcDbSpline
70
0
71
2
72
6
73
3
74
0
42
0.000000001
43
0.0000000001
44
0.0000000001
40
0
40
0
40
0
40
1
40
1
40
1
10
767.19636029360368
20
-560.80153791655516
30
0
10
765.76267308352067
20
-561.47666303862547
30
0
10
764.29106778261735
20
-562.9937776779077
30
0
0
SPLINE
5
194
100
AcDbEntity
8
0
100
AcDbSpline
70
0
71
2
72
6
73
3
74
0
42
0.000000001
43
0.0000000001
44
0.0000000001
40
0
40
0
40
0
40
1
40
1
40
1
10
767.14325970766618
20
-575.17627088774657
30
0
10
767.14325970766618
20
-575.87415067900633
30
0
10
767.37840718386246
20
-576.48099272002196
30
0
0
SPLINE
5
195
100
AcDbEntity
8
0
100
AcDbSpline
70
0
71
2
72
6
73
3
74
0
42
0.000000001
43
0.0000000001
44
0.0000000001
40
0
40
0
40
0
40
1
40
1
40
1
10
767.37840718386246
20
-576.48099272002196
30
0
10
767.61356419680192
20
-577.08784429778075
30
0
10
768.03077763674332
20
-577.53539411772704
30
0
0
SPLINE
5
196
100
AcDbEntity
8
0
100
AcDbSpline
70
0
71
2
72
6
73
3
74
0
42
0.000000001
43
0.0000000001
44
0.0000000001
40
0
40
0
40
0
40
1
40
1
40
1
10
768.03077763674332
20
-577.53539411772704
30
0
10
768.44798153994157
20
-577.98294393767333
30
0
10
769.02448720095231
20
-578.24085561980223
30
0
0
SPLINE
5
197
100
AcDbEntity
8
0
100
AcDbSpline
70
0
71
2
72
6
73
3
74
0
42
0.000000001
43
0.0000000001
44
0.0000000001
40
0
40
0
40
0
40
1
40
1
40
1
10
769.02448720095231
20
-578.24085561980223
30
0
10
769.60100239870621
20
-578.49876730193114
30
0
10
770.26853627321793
20
-578.49876730193114
30
0
0
SPLINE
5
198
100
AcDbEntity
8
0
100
AcDbSpline
70
0
71
2
72
6
73
3
74
0
42
0.000000001
43
0.0000000001
44
0.0000000001
40
0
40
0
40
0
40
1
40
1
40
1
10
770.26853627321793
20
-578.49876730193114
30
0
10
771.25465458986832
20
-578.49876730193114
30
0
10
772.05873555300309
20
-578.14982740630126
30
0
0
SPLINE
5
199
100
AcDbEntity
8
0
100
AcDbSpline
70
0
71
2
72
6
73
3
74
0
42
0.000000001
43
0.0000000001
44
0.0000000001
40
0
40
0
40
0
40
1
40
1
40
1
10
772.05873555300309
20
-578.14982740630126
30
0
10
772.86280697939469
20
-577.80088751067137
30
0
10
773.50000447390153
20
-577.20162718047118
30
0
0
SPLINE
5
200
100
AcDbEntity
8
0
100
AcDbSpline
70
0
71
2
72
6
73
3
74
0
42
0.000000001
43
0.0000000001
44
0.0000000001
40
0
40
0
40
0
40
1
40
1
40
1
10
773.50000447390153
20
-577.20162718047118
30
0
10
774.1371924316652
20
-576.60236685027098
30
0
10
774.62266987917496
20
-575.80587713469481
30
0
0
SPLINE
5
201
100
AcDbEntity
8
0
100
AcDbSpline
70
0
71
2
72
6
73
3
74
0
42
0.000000001
43
0.0000000001
44
0.0000000001
40
0
40
0
40
0
40
1
40
1
40
1
10
774.62266987917496
20
-575.80587713469481
30
0
10
775.10814732668473
20
-575.00938741911864
30
0
10
775.44950551149918
20
-574.11428777922606
30
0
0
SPLINE
5
202
100
AcDbEntity
8
0
100
AcDbSpline
70
0
71
2
72
6
73
3
74
0
42
0.000000001
43
0.0000000001
44
0.0000000001
40
0
40
0
40
0
40
1
40
1
40
1
10
775.44950551149918
20
-574.11428777922606
30
0
10
775.79085415957047
20
-573.21917860259032
30
0
10
776.00324696657731
20
-572.27856962431883
30
0
0
SPLINE
5
203
100
AcDbEntity
8
0
100
AcDbSpline
70
0
71
2
72
6
73
3
74
0
42
0.000000001
43
0.0000000001
44
0.0000000001
40
0
40
0
40
0
40
1
40
1
40
1
10
776.00324696657731
20
-572.27856962431883
30
0
10
776.21564931032731
20
-571.33795110930419
30
0
10
776.30667752382828
20
-570.44285146941161
30
0
0
SPLINE
5
204
100
AcDbEntity
8
0
100
AcDbSpline
70
0
71
2
72
6
73
3
74
0
42
0.000000001
43
0.0000000001
44
0.0000000001
40
0
40
0
40
0
40
1
40
1
40
1
10
776.30667752382828
20
-570.44285146941161
30
0
10
774.15235585329606
20
-570.59456197966551
30
0
10
772.44560307619645
20
-570.96625654448485
30
0
0
SPLINE
5
205
100
AcDbEntity
8
0
100
AcDbSpline
70
0
71
2
72
6
73
3
74
0
42
0.000000001
43
0.0000000001
44
0.0000000001
40
0
40
0
40
0
40
1
40
1
40
1
10
772.44560307619645
20
-570.96625654448485
30
0
10
770.73884076235368
20
-571.33795110930419
30
0
10
769.56306523439957
20
-571.92204801787352
30
0
0
SPLINE
5
206
100
AcDbEntity
8
0
100
AcDbSpline
70
0
71
2
72
6
73
3
74
0
42
0.000000001
43
0.0000000001
44
0.0000000001
40
0
40
0
40
0
40
1
40
1
40
1
10
769.56306523439957
20
-571.92204801787352
30
0
10
768.38729924318864
20
-572.50613538969969
30
0
10
767.76527470705582
20
-573.31779806364989
30
0
0
SPLINE
5
207
100
AcDbEntity
8
0
100
AcDbSpline
70
0
71
2
72
6
73
3
74
0
42
0.000000001
43
0.0000000001
44
0.0000000001
40
0
40
0
40
0
40
1
40
1
40
1
10
767.76527470705582
20
-573.31779806364989
30
0
10
767.14325970766618
20
-574.12946073760008
30
0
10
767.14325970766618
20
-575.17627088774657
30
0
0
SPLINE
5
208
100
AcDbEntity
8
0
100
AcDbSpline
70
0
71
2
72
6
73
3
74
0
42
0.000000001
43
0.0000000001
44
0.0000000001
40
0
40
0
40
0
40
1
40
1
40
1
10
742.64173573610856
20
-551.38779966582274
30
0
10
742.64173573610856
20
-549.43070738066649
30
0
10
742.55829877016618
20
-548.27011434782958
30
0
0
SPLINE
5
209
100
AcDbEntity
8
0
100
AcDbSpline
70
0
71
2
72
6
73
3
74
0
42
0.000000001
43
0.0000000001
44
0.0000000001
40
0
40
0
40
0
40
1
40
1
40
1
10
742.55829877016618
20
-548.27011434782958
30
0
10
742.47486180422379
20
-547.10952131499266
30
0
10
742.24728650209977
20
-546.49507848967528
30
0
0
SPLINE
5
210
100
AcDbEntity
8
0
100
AcDbSpline
70
0
71
2
72
6
73
3
74
0
42
0.000000001
43
0.0000000001
44
0.0000000001
40
0
40
0
40
0
40
1
40
1
40
1
10
742.24728650209977
20
-546.49507848967528
30
0
10
742.01972073671891
20
-545.88064520110106
30
0
10
741.64043492434098
20
-545.69100706328368
30
0
0
SPLINE
5
211
100
AcDbEntity
8
0
100
AcDbSpline
70
0
71
2
72
6
73
3
74
0
42
0.000000001
43
0.0000000001
44
0.0000000001
40
0
40
0
40
0
40
1
40
1
40
1
10
741.64043492434098
20
-545.69100706328368
30
0
10
741.26115864870621
20
-545.50136892546629
30
0
10
740.66948002932145
20
-545.50136892546629
30
0
0
SPLINE
5
212
100
AcDbEntity
8
0
100
AcDbSpline
70
0
71
2
72
6
73
3
74
0
42
0.000000001
43
0.0000000001
44
0.0000000001
40
0
40
0
40
0
40
1
40
1
40
1
10
740.66948002932145
20
-545.50136892546629
30
0
10
739.9412638580568
20
-545.50136892546629
30
0
10
738.77307957766129
20
-545.78203527678465
30
0
0
SPLINE
5
213
100
AcDbEntity
8
0
100
AcDbSpline
70
0
71
2
72
6
73
3
74
0
42
0.000000001
43
0.0000000001
44
0.0000000001
40
0
40
0
40
0
40
1
40
1
40
1
10
738.77307957766129
20
-545.78203527678465
30
0
10
737.60489529726578
20
-546.06270162810301
30
0
10
736.14845341799332
20
-546.71506254424071
30
0
0
LINE
5
214
100
AcDbEntity
8
0
100
AcDbLine
10
736.14845341799332
20
-546.71506254424071
30
0
11
735.7995230591066
21
-545.85030882109618
31
0
0
SPLINE
5
215
100
AcDbEntity
8
0
100
AcDbSpline
70
0
71
2
72
6
73
3
74
0
42
0.000000001
43
0.0000000001
44
0.0000000001
40
0
40
0
40
0
40
1
40
1
40
1
10
735.7995230591066
20
-545.85030882109618
30
0
10
736.30018300173356
20
-545.5468782638452
30
0
10
736.96012562868668
20
-545.21311132658934
30
0
0
SPLINE
5
216
100
AcDbEntity
8
0
100
AcDbSpline
70
0
71
2
72
6
73
3
74
0
42
0.000000001
43
0.0000000001
44
0.0000000001
40
0
40
0
40
0
40
1
40
1
40
1
10
736.96012562868668
20
-545.21311132658934
30
0
10
737.62006825563981
20
-544.87934438933348
30
0
10
738.34070271608903
20
-544.55316869963622
30
0
0
SPLINE
5
217
100
AcDbEntity
8
0
100
AcDbSpline
70
0
71
2
72
6
73
3
74
0
42
0.000000001
43
0.0000000001
44
0.0000000001
40
0
40
0
40
0
40
1
40
1
40
1
10
738.34070271608903
20
-544.55316869963622
30
0
10
739.06133717653825
20
-544.22698347319579
30
0
10
739.81230801699235
20
-543.938735411062
30
0
0
SPLINE
5
218
100
AcDbEntity
8
0
100
AcDbSpline
70
0
71
2
72
6
73
3
74
0
42
0.000000001
43
0.0000000001
44
0.0000000001
40
0
40
0
40
0
40
1
40
1
40
1
10
739.81230801699235
20
-543.938735411062
30
0
10
740.56327885744645
20
-543.65047781218504
30
0
10
741.24598569033219
20
-543.42291204680419
30
0
0
SPLINE
5
219
100
AcDbEntity
8
0
100
AcDbSpline
70
0
71
2
72
6
73
3
74
0
42
0.000000001
43
0.0000000001
44
0.0000000001
40
0
40
0
40
0
40
1
40
1
40
1
10
741.24598569033219
20
-543.42291204680419
30
0
10
741.92869252321793
20
-543.19533674468016
30
0
10
742.49761647341325
20
-543.06639044035887
30
0
0
SPLINE
5
220
100
AcDbEntity
8
0
100
AcDbSpline
70
0
71
2
72
6
73
3
74
0
42
0.000000001
43
0.0000000001
44
0.0000000001
40
0
40
0
40
0
40
1
40
1
40
1
10
742.49761647341325
20
-543.06639044035887
30
0
10
743.06653088686539
20
-542.93743459929442
30
0
10
743.4306437408693
20
-542.93743459929442
30
0
0
SPLINE
5
221
100
AcDbEntity
8
0
100
AcDbSpline
70
0
71
2
72
6
73
3
74
0
42
0.000000001
43
0.0000000001
44
0.0000000001
40
0
40
0
40
0
40
1
40
1
40
1
10
743.4306437408693
20
-542.93743459929442
30
0
10
744.24988812563493
20
-542.93743459929442
30
0
10
744.72019261477067
20
-543.27878324736571
30
0
0
SPLINE
5
222
100
AcDbEntity
8
0
100
AcDbSpline
70
0
71
2
72
6
73
3
74
0
42
0.000000001
43
0.0000000001
44
0.0000000001
40
0
40
0
40
0
40
1
40
1
40
1
10
744.72019261477067
20
-543.27878324736571
30
0
10
745.19050664064957
20
-543.620131895437
30
0
10
745.44082707521989
20
-544.45454923857665
30
0
0
SPLINE
5
223
100
AcDbEntity
8
0
100
AcDbSpline
70
0
71
2
72
6
73
3
74
0
42
0.000000001
43
0.0000000001
44
0.0000000001
40
0
40
0
40
0
40
1
40
1
40
1
10
745.44082707521989
20
-544.45454923857665
30
0
10
745.69115704653336
20
-545.28896658171629
30
0
10
745.75943059084489
20
-546.68471662749266
30
0
0
SPLINE
5
224
100
AcDbEntity
8
0
100
AcDbSpline
70
0
71
2
72
6
73
3
74
0
42
0.000000001
43
0.0000000001
44
0.0000000001
40
0
40
0
40
0
40
1
40
1
40
1
10
745.75943059084489
20
-546.68471662749266
30
0
10
745.82769459841325
20
-548.08047621001219
30
0
10
745.82769459841325
20
-550.17410604704833
30
0
0
SPLINE
5
225
100
AcDbEntity
8
0
100
AcDbSpline
70
0
71
2
72
6
73
3
74
0
42
0.000000001
43
0.0000000001
44
0.0000000001
40
0
40
0
40
0
40
1
40
1
40
1
10
745.82769459841325
20
-550.17410604704833
30
0
10
745.82769459841325
20
-551.67605726469969
30
0
10
745.78218526003434
20
-553.39798300017333
30
0
0
SPLINE
5
226
100
AcDbEntity
8
0
100
AcDbSpline
70
0
71
2
72
6
73
3
74
0
42
0.000000001
43
0.0000000001
44
0.0000000001
40
0
40
0
40
0
40
1
40
1
40
1
10
745.78218526003434
20
-553.39798300017333
30
0
10
745.73666638491227
20
-555.11991827239012
30
0
10
745.65322941896989
20
-556.91770879973387
30
0
0
SPLINE
5
227
100
AcDbEntity
8
0
100
AcDbSpline
70
0
71
2
72
6
73
3
74
0
42
0.000000001
43
0.0000000001
44
0.0000000001
40
0
40
0
40
0
40
1
40
1
40
1
10
745.65322941896989
20
-556.91770879973387
30
0
10
745.56978291628434
20
-558.71549932707762
30
0
10
745.45600003359391
20
-560.5284628127954
30
0
0
SPLINE
5
228
100
AcDbEntity
8
0
100
AcDbSpline
70
0
71
2
72
6
73
3
74
0
42
0.000000001
43
0.0000000001
44
0.0000000001
40
0
40
0
40
0
40
1
40
1
40
1
10
745.45600003359391
20
-560.5284628127954
30
0
10
745.34221715090348
20
-562.34141676177001
30
0
10
745.22085255739762
20
-564.02542440642333
30
0
0
SPLINE
5
229
100
AcDbEntity
8
0
100
AcDbSpline
70
0
71
2
72
6
73
3
74
0
42
0.000000001
43
0.0000000001
44
0.0000000001
40
0
40
0
40
0
40
1
40
1
40
1
10
745.22085255739762
20
-564.02542440642333
30
0
10
745.0994784271486
20
-565.70943205107665
30
0
10
744.97052258608414
20
-567.19621031035399
30
0
0
SPLINE
5
230
100
AcDbEntity
8
0
100
AcDbSpline
70
0
71
2
72
6
73
3
74
0
42
0.000000001
43
0.0000000001
44
0.0000000001
40
0
40
0
40
0
40
1
40
1
40
1
10
744.97052258608414
20
-567.19621031035399
30
0
10
744.84156674501969
20
-568.68298856963133
30
0
10
744.72019261477067
20
-569.83599989165282
30
0
0
LINE
5
231
100
AcDbEntity
8
0
100
AcDbLine
10
744.72019261477055
20
-569.83599989165293
30
0
11
744.87190312502457
21
-569.86634580840087
31
0
0
SPLINE
5
232
100
AcDbEntity
8
0
100
AcDbSpline
70
0
71
2
72
6
73
3
74
0
42
0.000000001
43
0.0000000001
44
0.0000000001
40
0
40
0
40
0
40
1
40
1
40
1
10
744.87190312502457
20
-569.86634580840087
30
0
10
745.87320393679215
20
-566.86244337309813
30
0
10
747.16276234743668
20
-564.54882948149657
30
0
0
SPLINE
5
233
100
AcDbEntity
8
0
100
AcDbSpline
70
0
71
2
72
6
73
3
74
0
42
0.000000001
43
0.0000000001
44
0.0000000001
40
0
40
0
40
0
40
1
40
1
40
1
10
747.16276234743668
20
-564.54882948149657
30
0
10
748.45232075808121
20
-562.23521558989501
30
0
10
749.83289784548356
20
-560.66500036467528
30
0
0
SPLINE
5
234
100
AcDbEntity
8
0
100
AcDbSpline
70
0
71
2
72
6
73
3
74
0
42
0.000000001
43
0.0000000001
44
0.0000000001
40
0
40
0
40
0
40
1
40
1
40
1
10
749.83289784548356
20
-560.66500036467528
30
0
10
751.2134749328859
20
-559.09477560271239
30
0
10
752.59405202028825
20
-558.28311292876219
30
0
0
SPLINE
5
235
100
AcDbEntity
8
0
100
AcDbSpline
70
0
71
2
72
6
73
3
74
0
42
0.000000001
43
0.0000000001
44
0.0000000001
40
0
40
0
40
0
40
1
40
1
40
1
10
752.59405202028825
20
-558.28311292876219
30
0
10
753.97463864443375
20
-557.47145979155516
30
0
10
755.15799588320328
20
-557.47145979155516
30
0
0
SPLINE
5
236
100
AcDbEntity
8
0
100
AcDbSpline
70
0
71
2
72
6
73
3
74
0
42
0.000000001
43
0.0000000001
44
0.0000000001
40
0
40
0
40
0
40
1
40
1
40
1
10
755.15799588320328
20
-557.47145979155516
30
0
10
756.5840918457277
20
-557.47145979155516
30
0
10
757.60814732668473
20
-558.13899366606688
30
0
0
SPLINE
5
237
100
AcDbEntity
8
0
100
AcDbSpline
70
0
71
2
72
6
73
3
74
0
42
0.000000001
43
0.0000000001
44
0.0000000001
40
0
40
0
40
0
40
1
40
1
40
1
10
757.60814732668473
20
-558.13899366606688
30
0
10
758.63220280764176
20
-558.8065275405786
30
0
10
759.29214543459489
20
-559.90643827666258
30
0
0
SPLINE
5
238
100
AcDbEntity
8
0
100
AcDbSpline
70
0
71
2
72
6
73
3
74
0
42
0.000000001
43
0.0000000001
44
0.0000000001
40
0
40
0
40
0
40
1
40
1
40
1
10
759.29214543459489
20
-559.90643827666258
30
0
10
759.95209759829118
20
-561.00634901274657
30
0
10
760.27069157717301
20
-562.44761793364501
30
0
0
SPLINE
5
239
100
AcDbEntity
8
0
100
AcDbSpline
70
0
71
2
72
6
73
3
74
0
42
0.000000001
43
0.0000000001
44
0.0000000001
40
0
40
0
40
0
40
1
40
1
40
1
10
760.27069157717301
20
-562.44761793364501
30
0
10
760.58929509279801
20
-563.88888685454344
30
0
10
760.58929509279801
20
-565.43634741057372
30
0
0
SPLINE
5
240
100
AcDbEntity
8
0
100
AcDbSpline
70
0
71
2
72
6
73
3
74
0
42
0.000000001
43
0.0000000001
44
0.0000000001
40
0
40
0
40
0
40
1
40
1
40
1
10
760.58929509279801
20
-565.43634741057372
30
0
10
760.58929509279801
20
-567.4996313308618
30
0
10
760.13415402529313
20
-569.3808683608911
30
0
0
SPLINE
5
241
100
AcDbEntity
8
0
100
AcDbSpline
70
0
71
2
72
6
73
3
74
0
42
0.000000001
43
0.0000000001
44
0.0000000001
40
0
40
0
40
0
40
1
40
1
40
1
10
760.13415402529313
20
-569.3808683608911
30
0
10
759.67901295778825
20
-571.26209585417723
30
0
10
758.87494153139664
20
-572.87782995451903
30
0
0
SPLINE
5
242
100
AcDbEntity
8
0
100
AcDbSpline
70
0
71
2
72
6
73
3
74
0
42
0.000000001
43
0.0000000001
44
0.0000000001
40
0
40
0
40
0
40
1
40
1
40
1
10
758.87494153139664
20
-572.87782995451903
30
0
10
758.07087010500504
20
-574.49356405486083
30
0
10
756.98612279055192
20
-575.81345884551024
30
0
0
SPLINE
5
243
100
AcDbEntity
8
0
100
AcDbSpline
70
0
71
2
72
6
73
3
74
0
42
0.000000001
43
0.0000000001
44
0.0000000001
40
0
40
0
40
0
40
1
40
1
40
1
10
756.98612279055192
20
-575.81345884551024
30
0
10
755.90138501284196
20
-577.13335363615965
30
0
10
754.64217251894547
20
-578.06639044035887
30
0
0
SPLINE
5
244
100
AcDbEntity
8
0
100
AcDbSpline
70
0
71
2
72
6
73
3
74
0
42
0.000000001
43
0.0000000001
44
0.0000000001
40
0
40
0
40
0
40
1
40
1
40
1
10
754.64217251894547
20
-578.06639044035887
30
0
10
753.38296002504899
20
-578.99941770781493
30
0
10
752.00238293764664
20
-579.50764982451415
30
0
0
SPLINE
5
245
100
AcDbEntity
8
0
100
AcDbSpline
70
0
71
2
72
6
73
3
74
0
42
0.000000001
43
0.0000000001
44
0.0000000001
40
0
40
0
40
0
40
1
40
1
40
1
10
752.00238293764664
20
-579.50764982451415
30
0
10
750.62179631350114
20
-580.01588194121337
30
0
10
749.22604626772477
20
-580.01588194121337
30
0
0
SPLINE
5
246
100
AcDbEntity
8
0
100
AcDbSpline
70
0
71
2
72
6
73
3
74
0
42
0.000000001
43
0.0000000001
44
0.0000000001
40
0
40
0
40
0
40
1
40
1
40
1
10
749.22604626772477
20
-580.01588194121337
30
0
10
747.9364973938234
20
-580.01588194121337
30
0
10
746.82140416262223
20
-579.56075041045165
30
0
0
SPLINE
5
247
100
AcDbEntity
8
0
100
AcDbSpline
70
0
71
2
72
6
73
3
74
0
42
0.000000001
43
0.0000000001
44
0.0000000001
40
0
40
0
40
0
40
1
40
1
40
1
10
746.82140416262223
20
-579.56075041045165
30
0
10
745.70633000490739
20
-579.10561887968993
30
0
10
744.61399144289567
20
-578.19534628142333
30
0
0
LINE
5
248
100
AcDbEntity
8
0
100
AcDbLine
10
744.61399144289567
20
-578.19534628142333
30
0
11
744.56848210451676
21
-579.13595525969481
31
0
0
SPLINE
5
249
100
AcDbEntity
8
0
100
AcDbSpline
70
0
71
2
72
6
73
3
74
0
42
0.000000001
43
0.0000000001
44
0.0000000001
40
0
40
0
40
0
40
1
40
1
40
1
10
744.56848210451676
20
-579.13595525969481
30
0
10
744.52297276613785
20
-579.87934438933348
30
0
10
744.0299040710695
20
-580.22828428496337
30
0
0
SPLINE
5
250
100
AcDbEntity
8
0
100
AcDbSpline
70
0
71
2
72
6
73
3
74
0
42
0.000000001
43
0.0000000001
44
0.0000000001
40
0
40
0
40
0
40
1
40
1
40
1
10
744.0299040710695
20
-580.22828428496337
30
0
10
743.53683537600114
20
-580.57722418059325
30
0
10
742.6720816528566
20
-580.57722418059325
30
0
0
SPLINE
5
251
100
AcDbEntity
8
0
100
AcDbSpline
70
0
71
2
72
6
73
3
74
0
42
0.000000001
43
0.0000000001
44
0.0000000001
40
0
40
0
40
0
40
1
40
1
40
1
10
742.6720816528566
20
-580.57722418059325
30
0
10
742.18660420534684
20
-580.57722418059325
30
0
10
741.75422734377457
20
-580.47102300871825
30
0
0
SPLINE
5
252
100
AcDbEntity
8
0
100
AcDbSpline
70
0
71
2
72
6
73
3
74
0
42
0.000000001
43
0.0000000001
44
0.0000000001
40
0
40
0
40
0
40
1
40
1
40
1
10
741.75422734377457
20
-580.47102300871825
30
0
10
741.32184094545914
20
-580.36483137358641
30
0
10
740.79084462282731
20
-580.10691969145751
30
0
0
SPLINE
5
253
100
AcDbEntity
8
0
100
AcDbSpline
70
0
71
2
72
6
73
3
74
0
42
0.000000001
43
0.0000000001
44
0.0000000001
40
0
40
0
40
0
40
1
40
1
40
1
10
740.79084462282731
20
-580.10691969145751
30
0
10
740.9577376281984
20
-578.93872587431883
30
0
10
741.12461156008317
20
-577.36092893828368
30
0
0
SPLINE
5
254
100
AcDbEntity
8
0
100
AcDbSpline
70
0
71
2
72
6
73
3
74
0
42
0.000000001
43
0.0000000001
44
0.0000000001
40
0
40
0
40
0
40
1
40
1
40
1
10
741.12461156008317
20
-577.36092893828368
30
0
10
741.29150456545426
20
-575.78312246550536
30
0
10
741.4507967865236
20
-573.93981306303954
30
0
0
SPLINE
5
255
100
AcDbEntity
8
0
100
AcDbSpline
70
0
71
2
72
6
73
3
74
0
42
0.000000001
43
0.0000000001
44
0.0000000001
40
0
40
0
40
0
40
1
40
1
40
1
10
741.4507967865236
20
-573.93981306303954
30
0
10
741.6100985443361
20
-572.09651319731688
30
0
10
741.76180905459
20
-570.05598394621825
30
0
0
SPLINE
5
256
100
AcDbEntity
8
0
100
AcDbSpline
70
0
71
2
72
6
73
3
74
0
42
0.000000001
43
0.0000000001
44
0.0000000001
40
0
40
0
40
0
40
1
40
1
40
1
10
741.76180905459
20
-570.05598394621825
30
0
10
741.91351956484391
20
-568.01545469511962
30
0
10
742.04247540590836
20
-565.92182485808348
30
0
0
SPLINE
5
257
100
AcDbEntity
8
0
100
AcDbSpline
70
0
71
2
72
6
73
3
74
0
42
0.000000001
43
0.0000000001
44
0.0000000001
40
0
40
0
40
0
40
1
40
1
40
1
10
742.04247540590836
20
-565.92182485808348
30
0
10
742.17143124697282
20
-563.82819502104735
30
0
10
742.28521412966325
20
-561.76491110075926
30
0
0
SPLINE
5
258
100
AcDbEntity
8
0
100
AcDbSpline
70
0
71
2
72
6
73
3
74
0
42
0.000000001
43
0.0000000001
44
0.0000000001
40
0
40
0
40
0
40
1
40
1
40
1
10
742.28521412966325
20
-561.76491110075926
30
0
10
742.39899701235368
20
-559.70162718047118
30
0
10
742.47486180422379
20
-557.81280843962645
30
0
0
SPLINE
5
259
100
AcDbEntity
8
0
100
AcDbSpline
70
0
71
2
72
6
73
3
74
0
42
0.000000001
43
0.0000000001
44
0.0000000001
40
0
40
0
40
0
40
1
40
1
40
1
10
742.47486180422379
20
-557.81280843962645
30
0
10
742.55071705935075
20
-555.92398969878172
30
0
10
742.59622639772965
20
-554.27791921843504
30
0
0
SPLINE
5
260
100
AcDbEntity
8
0
100
AcDbSpline
70
0
71
2
72
6
73
3
74
0
42
0.000000001
43
0.0000000001
44
0.0000000001
40
0
40
0
40
0
40
1
40
1
40
1
10
742.59622639772965
20
-554.27791921843504
30
0
10
742.64173573610856
20
-552.6318392013452
30
0
10
742.64173573610856
20
-551.38779966582274
30
0
0
SPLINE
5
261
100
AcDbEntity
8
0
100
AcDbSpline
70
0
71
2
72
6
73
3
74
0
42
0.000000001
43
0.0000000001
44
0.0000000001
40
0
40
0
40
0
40
1
40
1
40
1
10
744.64433735964371
20
-576.58719389189696
30
0
10
745.23601597902848
20
-577.0574983810327
30
0
10
745.76701230166032
20
-577.36851064909911
30
0
0
SPLINE
5
262
100
AcDbEntity
8
0
100
AcDbSpline
70
0
71
2
72
6
73
3
74
0
42
0.000000001
43
0.0000000001
44
0.0000000001
40
0
40
0
40
0
40
1
40
1
40
1
10
745.76701230166032
20
-577.36851064909911
30
0
10
746.29800862429215
20
-577.67952291716551
30
0
10
746.78348607180192
20
-577.8691610549829
30
0
0
SPLINE
5
263
100
AcDbEntity
8
0
100
AcDbSpline
70
0
71
2
72
6
73
3
74
0
42
0.000000001
43
0.0000000001
44
0.0000000001
40
0
40
0
40
0
40
1
40
1
40
1
10
746.78348607180192
20
-577.8691610549829
30
0
10
747.26896351931168
20
-578.05879919280028
30
0
10
747.74684971926285
20
-578.14224569548583
30
0
0
SPLINE
5
264
100
AcDbEntity
8
0
100
AcDbSpline
70
0
71
2
72
6
73
3
74
0
42
0.000000001
43
0.0000000001
44
0.0000000001
40
0
40
0
40
0
40
1
40
1
40
1
10
747.74684971926285
20
-578.14224569548583
30
0
10
748.22474545595719
20
-578.22568266142821
30
0
10
748.69504994509293
20
-578.22568266142821
30
0
0
SPLINE
5
265
100
AcDbEntity
8
0
100
AcDbSpline
70
0
71
2
72
6
73
3
74
0
42
0.000000001
43
0.0000000001
44
0.0000000001
40
0
40
0
40
0
40
1
40
1
40
1
10
748.69504994509293
20
-578.22568266142821
30
0
10
749.92392605898453
20
-578.22568266142821
30
0
10
751.0086638366945
20
-577.80847875822997
30
0
0
SPLINE
5
266
100
AcDbEntity
8
0
100
AcDbSpline
70
0
71
2
72
6
73
3
74
0
42
0.000000001
43
0.0000000001
44
0.0000000001
40
0
40
0
40
0
40
1
40
1
40
1
10
751.0086638366945
20
-577.80847875822997
30
0
10
752.09341115114762
20
-577.39126531828856
30
0
10
753.01126546022965
20
-576.63270323027587
30
0
0
SPLINE
5
267
100
AcDbEntity
8
0
100
AcDbSpline
70
0
71
2
72
6
73
3
74
0
42
0.000000001
43
0.0000000001
44
0.0000000001
40
0
40
0
40
0
40
1
40
1
40
1
10
753.01126546022965
20
-576.63270323027587
30
0
10
753.92911976931168
20
-575.87414114226317
30
0
10
754.6497542297609
20
-574.82733099211669
30
0
0
SPLINE
5
268
100
AcDbEntity
8
0
100
AcDbSpline
70
0
71
2
72
6
73
3
74
0
42
0.000000001
43
0.0000000001
44
0.0000000001
40
0
40
0
40
0
40
1
40
1
40
1
10
754.6497542297609
20
-574.82733099211669
30
0
10
755.37038869021012
20
-573.7805208419702
30
0
10
755.87862080690934
20
-572.52889005888915
30
0
0
SPLINE
5
269
100
AcDbEntity
8
0
100
AcDbSpline
70
0
71
2
72
6
73
3
74
0
42
0.000000001
43
0.0000000001
44
0.0000000001
40
0
40
0
40
0
40
1
40
1
40
1
10
755.87862080690934
20
-572.52889005888915
30
0
10
756.38686246035172
20
-571.27726881255126
30
0
10
756.65235585329606
20
-569.85875456084227
30
0
0
SPLINE
5
270
100
AcDbEntity
8
0
100
AcDbSpline
70
0
71
2
72
6
73
3
74
0
42
0.000000001
43
0.0000000001
44
0.0000000001
40
0
40
0
40
0
40
1
40
1
40
1
10
756.65235585329606
20
-569.85875456084227
30
0
10
756.91785878298356
20
-568.44024984587645
30
0
10
756.91785878298356
20
-566.93829862822508
30
0
0
SPLINE
5
271
100
AcDbEntity
8
0
100
AcDbSpline
70
0
71
2
72
6
73
3
74
0
42
0.000000001
43
0.0000000001
44
0.0000000001
40
0
40
0
40
0
40
1
40
1
40
1
10
756.91785878298356
20
-566.93829862822508
30
0
10
756.91785878298356
20
-566.45282118071532
30
0
10
756.87233990786149
20
-565.83079664458251
30
0
0
SPLINE
5
272
100
AcDbEntity
8
0
100
AcDbSpline
70
0
71
2
72
6
73
3
74
0
42
0.000000001
43
0.0000000001
44
0.0000000001
40
0
40
0
40
0
40
1
40
1
40
1
10
756.87233990786149
20
-565.83079664458251
30
0
10
756.82683056948258
20
-565.20878164519286
30
0
10
756.69787472841813
20
-564.54882948149657
30
0
0
SPLINE
5
273
100
AcDbEntity
8
0
100
AcDbSpline
70
0
71
2
72
6
73
3
74
0
42
0.000000001
43
0.0000000001
44
0.0000000001
40
0
40
0
40
0
40
1
40
1
40
1
10
756.69787472841813
20
-564.54882948149657
30
0
10
756.56891888735368
20
-563.88888685454344
30
0
10
756.35652608034684
20
-563.2592806075952
30
0
0
SPLINE
5
274
100
AcDbEntity
8
0
100
AcDbSpline
70
0
71
2
72
6
73
3
74
0
42
0.000000001
43
0.0000000001
44
0.0000000001
40
0
40
0
40
0
40
1
40
1
40
1
10
756.35652608034684
20
-563.2592806075952
30
0
10
756.14412373659684
20
-562.62967436064696
30
0
10
755.80276555178239
20
-562.12902395476317
30
0
0
SPLINE
5
275
100
AcDbEntity
8
0
100
AcDbSpline
70
0
71
2
72
6
73
3
74
0
42
0.000000001
43
0.0000000001
44
0.0000000001
40
0
40
0
40
0
40
1
40
1
40
1
10
755.80276555178239
20
-562.12902395476317
30
0
10
755.4614169037111
20
-561.62837354887938
30
0
10
754.99111241457535
20
-561.32495252837157
30
0
0
SPLINE
5
276
100
AcDbEntity
8
0
100
AcDbSpline
70
0
71
2
72
6
73
3
74
0
42
0.000000001
43
0.0000000001
44
0.0000000001
40
0
40
0
40
0
40
1
40
1
40
1
10
754.99111241457535
20
-561.32495252837157
30
0
10
754.52079838869645
20
-561.02152197112059
30
0
10
753.86844700930192
20
-561.02152197112059
30
0
0
SPLINE
5
277
100
AcDbEntity
8
0
100
AcDbSpline
70
0
71
2
72
6
73
3
74
0
42
0.000000001
43
0.0000000001
44
0.0000000001
40
0
40
0
40
0
40
1
40
1
40
1
10
753.86844700930192
20
-561.02152197112059
30
0
10
752.7761084472902
20
-561.02152197112059
30
0
10
751.69895238039567
20
-561.77249281157469
30
0
0
SPLINE
5
278
100
AcDbEntity
8
0
100
AcDbSpline
70
0
71
2
72
6
73
3
74
0
42
0.000000001
43
0.0000000001
44
0.0000000001
40
0
40
0
40
0
40
1
40
1
40
1
10
751.69895238039567
20
-561.77249281157469
30
0
10
750.62179631350114
20
-562.52347318877196
30
0
10
749.62808674929215
20
-563.76751272429442
30
0
0
SPLINE
5
279
100
AcDbEntity
8
0
100
AcDbSpline
70
0
71
2
72
6
73
3
74
0
42
0.000000001
43
0.0000000001
44
0.0000000001
40
0
40
0
40
0
40
1
40
1
40
1
10
749.62808674929215
20
-563.76751272429442
30
0
10
748.63436764834
20
-565.01155225981688
30
0
10
747.76202267763688
20
-566.62728636015868
30
0
0
SPLINE
5
280
100
AcDbEntity
8
0
100
AcDbSpline
70
0
71
2
72
6
73
3
74
0
42
0.000000001
43
0.0000000001
44
0.0000000001
40
0
40
0
40
0
40
1
40
1
40
1
10
747.76202267763688
20
-566.62728636015868
30
0
10
746.88967770693375
20
-568.24302046050047
30
0
10
746.22973507998063
20
-569.9725374435327
30
0
0
SPLINE
5
281
100
AcDbEntity
8
0
100
AcDbSpline
70
0
71
2
72
6
73
3
74
0
42
0.000000001
43
0.0000000001
44
0.0000000001
40
0
40
0
40
0
40
1
40
1
40
1
10
746.22973507998063
20
-569.9725374435327
30
0
10
745.56978291628434
20
-571.70206396330809
30
0
10
745.1525790130861
20
-573.41640798796629
30
0
0
SPLINE
5
282
100
AcDbEntity
8
0
100
AcDbSpline
70
0
71
2
72
6
73
3
74
0
42
0.000000001
43
0.0000000001
44
0.0000000001
40
0
40
0
40
0
40
1
40
1
40
1
10
745.1525790130861
20
-573.41640798796629
30
0
10
744.73536557314469
20
-575.1307520126245
30
0
10
744.64433735964371
20
-576.58719389189696
30
0
0
SPLINE
5
283
100
AcDbEntity
8
0
100
AcDbSpline
70
0
71
2
72
6
73
3
74
0
42
0.000000001
43
0.0000000001
44
0.0000000001
40
0
40
0
40
0
40
1
40
1
40
1
10
730.019283953882
20
-577.28507368315672
30
0
10
730.019283953882
20
-576.2534269546411
30
0
10
730.08756703493668
20
-575.07766096343016
30
0
0
SPLINE
5
284
100
AcDbEntity
8
0
100
AcDbSpline
70
0
71
2
72
6
73
3
74
0
42
0.000000001
43
0.0000000001
44
0.0000000001
40
0
40
0
40
0
40
1
40
1
40
1
10
730.08756703493668
20
-575.07766096343016
30
0
10
730.15583104250504
20
-573.90188543547606
30
0
10
730.25444096682145
20
-572.68819181670165
30
0
0
SPLINE
5
285
100
AcDbEntity
8
0
100
AcDbSpline
70
0
71
2
72
6
73
3
74
0
42
0.000000001
43
0.0000000001
44
0.0000000001
40
0
40
0
40
0
40
1
40
1
40
1
10
730.25444096682145
20
-572.68819181670165
30
0
10
730.35306996462418
20
-571.47448866118407
30
0
10
730.46684331057145
20
-570.26837675322508
30
0
0
SPLINE
5
286
100
AcDbEntity
8
0
100
AcDbSpline
70
0
71
2
72
6
73
3
74
0
42
0.000000001
43
0.0000000001
44
0.0000000001
40
0
40
0
40
0
40
1
40
1
40
1
10
730.46684331057145
20
-570.26837675322508
30
0
10
730.58061665651871
20
-569.0622648452661
30
0
10
730.67924565432145
20
-567.98510877837157
30
0
0
SPLINE
5
287
100
AcDbEntity
8
0
100
AcDbSpline
70
0
71
2
72
6
73
3
74
0
42
0.000000001
43
0.0000000001
44
0.0000000001
40
0
40
0
40
0
40
1
40
1
40
1
10
730.67924565432145
20
-567.98510877837157
30
0
10
730.77785557863785
20
-566.90795271147704
30
0
10
730.84611958620621
20
-566.00527136076903
30
0
0
SPLINE
5
288
100
AcDbEntity
8
0
100
AcDbSpline
70
0
71
2
72
6
73
3
74
0
42
0.000000001
43
0.0000000001
44
0.0000000001
40
0
40
0
40
0
40
1
40
1
40
1
10
730.84611958620621
20
-566.00527136076903
30
0
10
730.9144026672609
20
-565.10258047331786
30
0
10
730.9144026672609
20
-564.49572889555907
30
0
0
SPLINE
5
289
100
AcDbEntity
8
0
100
AcDbSpline
70
0
71
2
72
6
73
3
74
0
42
0.000000001
43
0.0000000001
44
0.0000000001
40
0
40
0
40
0
40
1
40
1
40
1
10
730.9144026672609
20
-564.49572889555907
30
0
10
730.9144026672609
20
-562.69035665739989
30
0
10
730.231686297632
20
-561.85593931426024
30
0
0
SPLINE
5
290
100
AcDbEntity
8
0
100
AcDbSpline
70
0
71
2
72
6
73
3
74
0
42
0.000000001
43
0.0000000001
44
0.0000000001
40
0
40
0
40
0
40
1
40
1
40
1
10
730.231686297632
20
-561.85593931426024
30
0
10
729.54898900148942
20
-561.02152197112059
30
0
10
728.41114110109879
20
-561.02152197112059
30
0
0
SPLINE
5
291
100
AcDbEntity
8
0
100
AcDbSpline
70
0
71
2
72
6
73
3
74
0
42
0.000000001
43
0.0000000001
44
0.0000000001
40
0
40
0
40
0
40
1
40
1
40
1
10
728.41114110109879
20
-561.02152197112059
30
0
10
727.12160176394059
20
-561.02152197112059
30
0
10
725.77135151979996
20
-562.40969030608153
30
0
0
SPLINE
5
292
100
AcDbEntity
8
0
100
AcDbSpline
70
0
71
2
72
6
73
3
74
0
42
0.000000001
43
0.0000000001
44
0.0000000001
40
0
40
0
40
0
40
1
40
1
40
1
10
725.77135151979996
20
-562.40969030608153
30
0
10
724.42110127565934
20
-563.79785864104247
30
0
10
723.1922346985109
20
-566.46799413908934
30
0
0
SPLINE
5
293
100
AcDbEntity
8
0
100
AcDbSpline
70
0
71
2
72
6
73
3
74
0
42
0.000000001
43
0.0000000001
44
0.0000000001
40
0
40
0
40
0
40
1
40
1
40
1
10
723.1922346985109
20
-566.46799413908934
30
0
10
721.96336812136246
20
-569.13812010039305
30
0
10
721.09861439821793
20
-572.46820776213622
30
0
0
SPLINE
5
294
100
AcDbEntity
8
0
100
AcDbSpline
70
0
71
2
72
6
73
3
74
0
42
0.000000001
43
0.0000000001
44
0.0000000001
40
0
40
0
40
0
40
1
40
1
40
1
10
721.09861439821793
20
-572.46820776213622
30
0
10
720.2338606750734
20
-575.79828588713622
30
0
10
719.99111241457535
20
-579.65177862395262
30
0
0
LINE
5
295
100
AcDbEntity
8
0
100
AcDbLine
10
719.99111241457535
20
-579.65177862395262
30
0
11
716.77480763552262
21
-580.04622785796141
31
0
0
LINE
5
296
100
AcDbEntity
8
0
100
AcDbLine
10
716.77480763552262
20
-580.04622785796141
30
0
11
716.5320784485109
21
-580.03106443633055
31
0
0
SPLINE
5
297
100
AcDbEntity
8
0
100
AcDbSpline
70
0
71
2
72
6
73
3
74
0
42
0.000000001
43
0.0000000001
44
0.0000000001
40
0
40
0
40
0
40
1
40
1
40
1
10
716.5320784485109
20
-580.03106443633055
30
0
10
716.66862553713395
20
-578.58979551543212
30
0
10
716.78239888308121
20
-576.97406141509032
30
0
0
SPLINE
5
298
100
AcDbEntity
8
0
100
AcDbSpline
70
0
71
2
72
6
73
3
74
0
42
0.000000001
43
0.0000000001
44
0.0000000001
40
0
40
0
40
0
40
1
40
1
40
1
10
716.78239888308121
20
-576.97406141509032
30
0
10
716.89619130251481
20
-575.35832731474852
30
0
10
716.98720997927262
20
-573.74259321440672
30
0
0
SPLINE
5
299
100
AcDbEntity
8
0
100
AcDbSpline
70
0
71
2
72
6
73
3
74
0
42
0.000000001
43
0.0000000001
44
0.0000000001
40
0
40
0
40
0
40
1
40
1
40
1
10
716.98720997927262
20
-573.74259321440672
30
0
10
717.07824772951676
20
-572.12685911406493
30
0
10
717.12375706789567
20
-570.57938902129149
30
0
0
SPLINE
5
300
100
AcDbEntity
8
0
100
AcDbSpline
70
0
71
2
72
6
73
3
74
0
42
0.000000001
43
0.0000000001
44
0.0000000001
40
0
40
0
40
0
40
1
40
1
40
1
10
717.12375706789567
20
-570.57938902129149
30
0
10
717.16926640627457
20
-569.03192846526122
30
0
10
717.16926640627457
20
-567.72720663298583
30
0
0
SPLINE
5
301
100
AcDbEntity
8
0
100
AcDbSpline
70
0
71
2
72
6
73
3
74
0
42
0.000000001
43
0.0000000001
44
0.0000000001
40
0
40
0
40
0
40
1
40
1
40
1
10
717.16926640627457
20
-567.72720663298583
30
0
10
717.16926640627457
20
-565.25429098357176
30
0
10
716.88100880739762
20
-563.68407575835204
30
0
0
SPLINE
5
302
100
AcDbEntity
8
0
100
AcDbSpline
70
0
71
2
72
6
73
3
74
0
42
0.000000001
43
0.0000000001
44
0.0000000001
40
0
40
0
40
0
40
1
40
1
40
1
10
716.88100880739762
20
-563.68407575835204
30
0
10
716.592770282007
20
-562.11385099638915
30
0
10
716.13763875124528
20
-561.21116010893797
30
0
0
SPLINE
5
303
100
AcDbEntity
8
0
100
AcDbSpline
70
0
71
2
72
6
73
3
74
0
42
0.000000001
43
0.0000000001
44
0.0000000001
40
0
40
0
40
0
40
1
40
1
40
1
10
716.13763875124528
20
-561.21116010893797
30
0
10
715.68248814699723
20
-560.30847875822997
30
0
10
715.09840077517106
20
-559.96712057341551
30
0
0
SPLINE
5
304
100
AcDbEntity
8
0
100
AcDbSpline
70
0
71
2
72
6
73
3
74
0
42
0.000000001
43
0.0000000001
44
0.0000000001
40
0
40
0
40
0
40
1
40
1
40
1
10
715.09840077517106
20
-559.96712057341551
30
0
10
714.51431340334489
20
-559.62577192534422
30
0
10
713.92263478396012
20
-559.62577192534422
30
0
0
SPLINE
5
305
100
AcDbEntity
8
0
100
AcDbSpline
70
0
71
2
72
6
73
3
74
0
42
0.000000001
43
0.0000000001
44
0.0000000001
40
0
40
0
40
0
40
1
40
1
40
1
10
713.92263478396012
20
-559.62577192534422
30
0
10
713.5737044250734
20
-559.62577192534422
30
0
10
713.23232716677262
20
-559.7168001388452
30
0
0
SPLINE
5
306
100
AcDbEntity
8
0
100
AcDbSpline
70
0
71
2
72
6
73
3
74
0
42
0.000000001
43
0.0000000001
44
0.0000000001
40
0
40
0
40
0
40
1
40
1
40
1
10
713.23232716677262
20
-559.7168001388452
30
0
10
712.8909880554445
20
-559.80782835234618
30
0
10
712.58756703493668
20
-559.93678419341063
30
0
0
SPLINE
5
307
100
AcDbEntity
8
0
100
AcDbSpline
70
0
71
2
72
6
73
3
74
0
42
0.000000001
43
0.0000000001
44
0.0000000001
40
0
40
0
40
0
40
1
40
1
40
1
10
712.58756703493668
20
-559.93678419341063
30
0
10
712.28414601442887
20
-560.06574003447508
30
0
10
712.03382557985856
20
-560.21745054472899
30
0
0
SPLINE
5
308
100
AcDbEntity
8
0
100
AcDbSpline
70
0
71
2
72
6
73
3
74
0
42
0.000000001
43
0.0000000001
44
0.0000000001
40
0
40
0
40
0
40
1
40
1
40
1
10
712.03382557985856
20
-560.21745054472899
30
0
10
711.78348607180192
20
-560.3691610549829
30
0
10
711.60142964479996
20
-560.49053518523192
30
0
0
LINE
5
309
100
AcDbEntity
8
0
100
AcDbLine
10
711.60142964479996
20
-560.49053518523203
30
0
11
711.10078877565934
21
-559.79265539397215
31
0
0
SPLINE
5
310
100
AcDbEntity
8
0
100
AcDbSpline
70
0
71
2
72
6
73
3
74
0
42
0.000000001
43
0.0000000001
44
0.0000000001
40
0
40
0
40
0
40
1
40
1
40
1
10
711.10078877565934
20
-559.79265539397215
30
0
10
711.54073781130387
20
-559.33751432646727
30
0
10
712.10208958742692
20
-558.93548338164305
30
0
0
SPLINE
5
311
100
AcDbEntity
8
0
100
AcDbSpline
70
0
71
2
72
6
73
3
74
0
42
0.000000001
43
0.0000000001
44
0.0000000001
40
0
40
0
40
0
40
1
40
1
40
1
10
712.10208958742692
20
-558.93548338164305
30
0
10
712.66342229006364
20
-558.53344290007567
30
0
10
713.28542775271012
20
-558.23760359038329
30
0
0
SPLINE
5
312
100
AcDbEntity
8
0
100
AcDbSpline
70
0
71
2
72
6
73
3
74
0
42
0.000000001
43
0.0000000001
44
0.0000000001
40
0
40
0
40
0
40
1
40
1
40
1
10
713.28542775271012
20
-558.23760359038329
30
0
10
713.90745228884293
20
-557.9417642806909
30
0
10
714.59016865847184
20
-557.77488081206297
30
0
0
SPLINE
5
313
100
AcDbEntity
8
0
100
AcDbSpline
70
0
71
2
72
6
73
3
74
0
42
0.000000001
43
0.0000000001
44
0.0000000001
40
0
40
0
40
0
40
1
40
1
40
1
10
714.59016865847184
20
-557.77488081206297
30
0
10
715.27286595461442
20
-557.60799734343504
30
0
10
715.97074574587418
20
-557.60799734343504
30
0
0
SPLINE
5
314
100
AcDbEntity
8
0
100
AcDbSpline
70
0
71
2
72
6
73
3
74
0
42
0.000000001
43
0.0000000001
44
0.0000000001
40
0
40
0
40
0
40
1
40
1
40
1
10
715.97074574587418
20
-557.60799734343504
30
0
10
716.8506819641359
20
-557.60799734343504
30
0
10
717.67751759646012
20
-557.95693723906493
30
0
0
SPLINE
5
315
100
AcDbEntity
8
0
100
AcDbSpline
70
0
71
2
72
6
73
3
74
0
42
0.000000001
43
0.0000000001
44
0.0000000001
40
0
40
0
40
0
40
1
40
1
40
1
10
717.67751759646012
20
-557.95693723906493
30
0
10
718.50433415529801
20
-558.30587713469481
30
0
10
719.14152211306168
20
-559.12512151946044
30
0
0
SPLINE
5
316
100
AcDbEntity
8
0
100
AcDbSpline
70
0
71
2
72
6
73
3
74
0
42
0.000000001
43
0.0000000001
44
0.0000000001
40
0
40
0
40
0
40
1
40
1
40
1
10
719.14152211306168
20
-559.12512151946044
30
0
10
719.77872914431168
20
-559.94436590422606
30
0
10
720.16557759401871
20
-561.30977956999754
30
0
0
SPLINE
5
317
100
AcDbEntity
8
0
100
AcDbSpline
70
0
71
2
72
6
73
3
74
0
42
0.000000001
43
0.0000000001
44
0.0000000001
40
0
40
0
40
0
40
1
40
1
40
1
10
720.16557759401871
20
-561.30977956999754
30
0
10
720.5524641906984
20
-562.67518369902587
30
0
10
720.5524641906984
20
-564.70813123930907
30
0
0
SPLINE
5
318
100
AcDbEntity
8
0
100
AcDbSpline
70
0
71
2
72
6
73
3
74
0
42
0.000000001
43
0.0000000001
44
0.0000000001
40
0
40
0
40
0
40
1
40
1
40
1
10
720.5524641906984
20
-564.70813123930907
30
0
10
720.5524641906984
20
-565.36049215544676
30
0
10
720.52209920046403
20
-566.02802602995848
30
0
0
SPLINE
5
319
100
AcDbEntity
8
0
100
AcDbSpline
70
0
71
2
72
6
73
3
74
0
42
0.000000001
43
0.0000000001
44
0.0000000001
40
0
40
0
40
0
40
1
40
1
40
1
10
720.52209920046403
20
-566.02802602995848
30
0
10
720.49177235720231
20
-566.6955599044702
30
0
10
720.43108052370621
20
-567.43894903410887
30
0
0
SPLINE
5
320
100
AcDbEntity
8
0
100
AcDbSpline
70
0
71
2
72
6
73
3
74
0
42
0.000000001
43
0.0000000001
44
0.0000000001
40
0
40
0
40
0
40
1
40
1
40
1
10
720.43108052370621
20
-567.43894903410887
30
0
10
720.37038869021012
20
-568.18233816374754
30
0
10
720.27177876589371
20
-569.03951017607665
30
0
0
SPLINE
5
321
100
AcDbEntity
8
0
100
AcDbSpline
70
0
71
2
72
6
73
3
74
0
42
0.000000001
43
0.0000000001
44
0.0000000001
40
0
40
0
40
0
40
1
40
1
40
1
10
720.27177876589371
20
-569.03951017607665
30
0
10
720.17316884157731
20
-569.89668218840575
30
0
10
720.03664082644059
20
-570.92832891692137
30
0
0
LINE
5
322
100
AcDbEntity
8
0
100
AcDbLine
10
720.03664082644059
20
-570.92832891692137
30
0
11
720.20351475832535
21
-570.95867483366942
31
0
0
SPLINE
5
323
100
AcDbEntity
8
0
100
AcDbSpline
70
0
71
2
72
6
73
3
74
0
42
0.000000001
43
0.0000000001
44
0.0000000001
40
0
40
0
40
0
40
1
40
1
40
1
10
720.20351475832535
20
-570.95867483366942
30
0
10
721.23516148684098
20
-567.15069143523192
30
0
10
722.44127339479996
20
-564.57158415068602
30
0
0
SPLINE
5
324
100
AcDbEntity
8
0
100
AcDbSpline
70
0
71
2
72
6
73
3
74
0
42
0.000000001
43
0.0000000001
44
0.0000000001
40
0
40
0
40
0
40
1
40
1
40
1
10
722.44127339479996
20
-564.57158415068602
30
0
10
723.64738530275895
20
-561.99248640288329
30
0
10
724.91418904421403
20
-560.4146703933618
30
0
0
SPLINE
5
325
100
AcDbEntity
8
0
100
AcDbSpline
70
0
71
2
72
6
73
3
74
0
42
0.000000001
43
0.0000000001
44
0.0000000001
40
0
40
0
40
0
40
1
40
1
40
1
10
724.91418904421403
20
-560.4146703933618
30
0
10
726.18097371218278
20
-558.83686392058348
30
0
10
727.45534962771012
20
-558.16174833525633
30
0
0
SPLINE
5
326
100
AcDbEntity
8
0
100
AcDbSpline
70
0
71
2
72
6
73
3
74
0
42
0.000000001
43
0.0000000001
44
0.0000000001
40
0
40
0
40
0
40
1
40
1
40
1
10
727.45534962771012
20
-558.16174833525633
30
0
10
728.72974461672379
20
-557.48663274992919
30
0
10
729.88275593874528
20
-557.48663274992919
30
0
0
SPLINE
5
327
100
AcDbEntity
8
0
100
AcDbSpline
70
0
71
2
72
6
73
3
74
0
42
0.000000001
43
0.0000000001
44
0.0000000001
40
0
40
0
40
0
40
1
40
1
40
1
10
729.88275593874528
20
-557.48663274992919
30
0
10
730.74750966188981
20
-557.48663274992919
30
0
10
731.54399937746598
20
-557.78247205962157
30
0
0
SPLINE
5
328
100
AcDbEntity
8
0
100
AcDbSpline
70
0
71
2
72
6
73
3
74
0
42
0.000000001
43
0.0000000001
44
0.0000000001
40
0
40
0
40
0
40
1
40
1
40
1
10
731.54399937746598
20
-557.78247205962157
30
0
10
732.34048909304215
20
-558.07831136931395
30
0
10
732.96251362917496
20
-558.7534269546411
30
0
0
SPLINE
5
329
100
AcDbEntity
8
0
100
AcDbSpline
70
0
71
2
72
6
73
3
74
0
42
0.000000001
43
0.0000000001
44
0.0000000001
40
0
40
0
40
0
40
1
40
1
40
1
10
732.96251362917496
20
-558.7534269546411
30
0
10
733.58453816530778
20
-559.42854253996825
30
0
10
733.95622319338395
20
-560.53604452361083
30
0
0
SPLINE
5
330
100
AcDbEntity
8
0
100
AcDbSpline
70
0
71
2
72
6
73
3
74
0
42
0.000000001
43
0.0000000001
44
0.0000000001
40
0
40
0
40
0
40
1
40
1
40
1
10
733.95622319338395
20
-560.53604452361083
30
0
10
734.32790822146012
20
-561.6435465072534
30
0
10
734.32790822146012
20
-563.26686231841063
30
0
0
SPLINE
5
331
100
AcDbEntity
8
0
100
AcDbSpline
70
0
71
2
72
6
73
3
74
0
42
0.000000001
43
0.0000000001
44
0.0000000001
40
0
40
0
40
0
40
1
40
1
40
1
10
734.32790822146012
20
-563.26686231841063
30
0
10
734.32790822146012
20
-564.32884542693114
30
0
10
734.20654362795426
20
-565.7321867202661
30
0
0
SPLINE
5
332
100
AcDbEntity
8
0
100
AcDbSpline
70
0
71
2
72
6
73
3
74
0
42
0.000000001
43
0.0000000001
44
0.0000000001
40
0
40
0
40
0
40
1
40
1
40
1
10
734.20654362795426
20
-565.7321867202661
30
0
10
734.0851790344484
20
-567.13552801360106
30
0
10
733.94105977175309
20
-568.72091619719481
30
0
0
SPLINE
5
333
100
AcDbEntity
8
0
100
AcDbSpline
70
0
71
2
72
6
73
3
74
0
42
0.000000001
43
0.0000000001
44
0.0000000001
40
0
40
0
40
0
40
1
40
1
40
1
10
733.94105977175309
20
-568.72091619719481
30
0
10
733.79692143557145
20
-570.30630438078856
30
0
10
733.67555684206559
20
-571.99790327300047
30
0
0
SPLINE
5
334
100
AcDbEntity
8
0
100
AcDbSpline
70
0
71
2
72
6
73
3
74
0
42
0.000000001
43
0.0000000001
44
0.0000000001
40
0
40
0
40
0
40
1
40
1
40
1
10
733.67555684206559
20
-571.99790327300047
30
0
10
733.55419224855973
20
-573.68949262846922
30
0
10
733.55419224855973
20
-575.3431543563745
30
0
0
SPLINE
5
335
100
AcDbEntity
8
0
100
AcDbSpline
70
0
71
2
72
6
73
3
74
0
42
0.000000001
43
0.0000000001
44
0.0000000001
40
0
40
0
40
0
40
1
40
1
40
1
10
733.55419224855973
20
-575.3431543563745
30
0
10
733.55419224855973
20
-576.01068823088622
30
0
10
733.59970158693864
20
-576.49616567839598
30
0
0
SPLINE
5
336
100
AcDbEntity
8
0
100
AcDbSpline
70
0
71
2
72
6
73
3
74
0
42
0.000000001
43
0.0000000001
44
0.0000000001
40
0
40
0
40
0
40
1
40
1
40
1
10
733.59970158693864
20
-576.49616567839598
30
0
10
733.64521092531754
20
-576.98164312590575
30
0
10
733.79692143557145
20
-577.30023710478758
30
0
0
SPLINE
5
337
100
AcDbEntity
8
0
100
AcDbSpline
70
0
71
2
72
6
73
3
74
0
42
0.000000001
43
0.0000000001
44
0.0000000001
40
0
40
0
40
0
40
1
40
1
40
1
10
733.79692143557145
20
-577.30023710478758
30
0
10
733.94863194582535
20
-577.61883108366942
30
0
10
734.2444807922609
20
-577.77055113066649
30
0
0
SPLINE
5
338
100
AcDbEntity
8
0
100
AcDbSpline
70
0
71
2
72
6
73
3
74
0
42
0.000000001
43
0.0000000001
44
0.0000000001
40
0
40
0
40
0
40
1
40
1
40
1
10
734.2444807922609
20
-577.77055113066649
30
0
10
734.54031056521012
20
-577.9222616409204
30
0
10
735.05613392946793
20
-577.9222616409204
30
0
0
SPLINE
5
339
100
AcDbEntity
8
0
100
AcDbSpline
70
0
71
2
72
6
73
3
74
0
42
0.000000001
43
0.0000000001
44
0.0000000001
40
0
40
0
40
0
40
1
40
1
40
1
10
735.05613392946793
20
-577.9222616409204
30
0
10
735.57195729372575
20
-577.9222616409204
30
0
10
736.39879292604996
20
-577.77055113066649
30
0
0
SPLINE
5
340
100
AcDbEntity
8
0
100
AcDbSpline
70
0
71
2
72
6
73
3
74
0
42
0.000000001
43
0.0000000001
44
0.0000000001
40
0
40
0
40
0
40
1
40
1
40
1
10
736.39879292604996
20
-577.77055113066649
30
0
10
737.22562855837418
20
-577.61883108366942
30
0
10
738.13589161989762
20
-577.36092893828368
30
0
0
LINE
5
341
100
AcDbEntity
8
0
100
AcDbLine
10
738.13589161989762
20
-577.36092893828368
30
0
11
738.36345738527848
21
-578.45324842680907
31
0
0
SPLINE
5
342
100
AcDbEntity
8
0
100
AcDbSpline
70
0
71
2
72
6
73
3
74
0
42
0.000000001
43
0.0000000001
44
0.0000000001
40
0
40
0
40
0
40
1
40
1
40
1
10
738.36345738527848
20
-578.45324842680907
30
0
10
737.11942738649918
20
-578.89321653593993
30
0
10
736.04986256716325
20
-579.21940176238036
30
0
0
SPLINE
5
343
100
AcDbEntity
8
0
100
AcDbSpline
70
0
71
2
72
6
73
3
74
0
42
0.000000001
43
0.0000000001
44
0.0000000001
40
0
40
0
40
0
40
1
40
1
40
1
10
736.04986256716325
20
-579.21940176238036
30
0
10
734.98027867434098
20
-579.54558698882079
30
0
10
734.1382796203859
20
-579.75797979582762
30
0
0
SPLINE
5
344
100
AcDbEntity
8
0
100
AcDbSpline
70
0
71
2
72
6
73
3
74
0
42
0.000000001
43
0.0000000001
44
0.0000000001
40
0
40
0
40
0
40
1
40
1
40
1
10
734.1382796203859
20
-579.75797979582762
30
0
10
733.29628056643082
20
-579.97037260283446
30
0
10
732.71219319460465
20
-580.07657377470946
30
0
0
SPLINE
5
345
100
AcDbEntity
8
0
100
AcDbSpline
70
0
71
2
72
6
73
3
74
0
42
0.000000001
43
0.0000000001
44
0.0000000001
40
0
40
0
40
0
40
1
40
1
40
1
10
732.71219319460465
20
-580.07657377470946
30
0
10
732.12808674929215
20
-580.18277494658446
30
0
10
731.85501164553239
20
-580.18277494658446
30
0
0
SPLINE
5
346
100
AcDbEntity
8
0
100
AcDbSpline
70
0
71
2
72
6
73
3
74
0
42
0.000000001
43
0.0000000001
44
0.0000000001
40
0
40
0
40
0
40
1
40
1
40
1
10
731.85501164553239
20
-580.18277494658446
30
0
10
731.30884236452653
20
-580.18277494658446
30
0
10
730.95991200563981
20
-579.98554556120848
30
0
0
SPLINE
5
347
100
AcDbEntity
8
0
100
AcDbSpline
70
0
71
2
72
6
73
3
74
0
42
0.000000001
43
0.0000000001
44
0.0000000001
40
0
40
0
40
0
40
1
40
1
40
1
10
730.95991200563981
20
-579.98554556120848
30
0
10
730.61098164675309
20
-579.78831617583251
30
0
10
730.39857930300309
20
-579.40903990019774
30
0
0
SPLINE
5
348
100
AcDbEntity
8
0
100
AcDbSpline
70
0
71
2
72
6
73
3
74
0
42
0.000000001
43
0.0000000001
44
0.0000000001
40
0
40
0
40
0
40
1
40
1
40
1
10
730.39857930300309
20
-579.40903990019774
30
0
10
730.18617695925309
20
-579.02976362456297
30
0
10
730.10273045656754
20
-578.49876730193114
30
0
0
SPLINE
5
349
100
AcDbEntity
8
0
100
AcDbSpline
70
0
71
2
72
6
73
3
74
0
42
0.000000001
43
0.0000000001
44
0.0000000001
40
0
40
0
40
0
40
1
40
1
40
1
10
730.10273045656754
20
-578.49876730193114
30
0
10
730.019283953882
20
-577.9677709792993
30
0
10
730.019283953882
20
-577.28507368315672
30
0
0
SPLINE
5
350
100
AcDbEntity
8
0
100
AcDbSpline
70
0
71
2
72
6
73
3
74
0
42
0.000000001
43
0.0000000001
44
0.0000000001
40
0
40
0
40
0
40
1
40
1
40
1
10
695.04962987063004
20
-562.9937776779077
30
0
10
694.95861119387223
20
-562.94826833952879
30
0
10
694.81447285769059
20
-562.86482183684325
30
0
0
SPLINE
5
351
100
AcDbEntity
8
0
100
AcDbSpline
70
0
71
2
72
6
73
3
74
0
42
0.000000001
43
0.0000000001
44
0.0000000001
40
0
40
0
40
0
40
1
40
1
40
1
10
694.81447285769059
20
-562.86482183684325
30
0
10
694.67035359499528
20
-562.78138487090087
30
0
10
694.54898900148942
20
-562.68277494658446
30
0
0
SPLINE
5
352
100
AcDbEntity
8
0
100
AcDbSpline
70
0
71
2
72
6
73
3
74
0
42
0.000000001
43
0.0000000001
44
0.0000000001
40
0
40
0
40
0
40
1
40
1
40
1
10
694.54898900148942
20
-562.68277494658446
30
0
10
694.42762440798356
20
-562.58415548552489
30
0
10
694.33658665773942
20
-562.47037260283446
30
0
0
SPLINE
5
353
100
AcDbEntity
8
0
100
AcDbSpline
70
0
71
2
72
6
73
3
74
0
42
0.000000001
43
0.0000000001
44
0.0000000001
40
0
40
0
40
0
40
1
40
1
40
1
10
694.33658665773942
20
-562.47037260283446
30
0
10
694.24554890749528
20
-562.35658972014403
30
0
10
694.24554890749528
20
-562.25038854826903
30
0
0
SPLINE
5
354
100
AcDbEntity
8
0
100
AcDbSpline
70
0
71
2
72
6
73
3
74
0
42
0.000000001
43
0.0000000001
44
0.0000000001
40
0
40
0
40
0
40
1
40
1
40
1
10
694.24554890749528
20
-562.25038854826903
30
0
10
694.24554890749528
20
-562.1897062515161
30
0
10
694.29107731936051
20
-562.12902395476317
30
0
0
SPLINE
5
355
100
AcDbEntity
8
0
100
AcDbSpline
70
0
71
2
72
6
73
3
74
0
42
0.000000001
43
0.0000000001
44
0.0000000001
40
0
40
0
40
0
40
1
40
1
40
1
10
694.29107731936051
20
-562.12902395476317
30
0
10
695.14066762087418
20
-560.94566671599364
30
0
10
696.11921376345231
20
-560.07332174529051
30
0
0
SPLINE
5
356
100
AcDbEntity
8
0
100
AcDbSpline
70
0
71
2
72
6
73
3
74
0
42
0.000000001
43
0.0000000001
44
0.0000000001
40
0
40
0
40
0
40
1
40
1
40
1
10
696.11921376345231
20
-560.07332174529051
30
0
10
697.09775990603043
20
-559.20097677458739
30
0
10
698.15214223024918
20
-558.61688940276122
30
0
0
SPLINE
5
357
100
AcDbEntity
8
0
100
AcDbSpline
70
0
71
2
72
6
73
3
74
0
42
0.000000001
43
0.0000000001
44
0.0000000001
40
0
40
0
40
0
40
1
40
1
40
1
10
698.15214223024918
20
-558.61688940276122
30
0
10
699.20654362795426
20
-558.03279249419188
30
0
10
700.29886311647965
20
-557.75212614287352
30
0
0
SPLINE
5
358
100
AcDbEntity
8
0
100
AcDbSpline
70
0
71
2
72
6
73
3
74
0
42
0.000000001
43
0.0000000001
44
0.0000000001
40
0
40
0
40
0
40
1
40
1
40
1
10
700.29886311647965
20
-557.75212614287352
30
0
10
701.39120167849137
20
-557.47145979155516
30
0
10
702.45317525026871
20
-557.47145979155516
30
0
0
SPLINE
5
359
100
AcDbEntity
8
0
100
AcDbSpline
70
0
71
2
72
6
73
3
74
0
42
0.000000001
43
0.0000000001
44
0.0000000001
40
0
40
0
40
0
40
1
40
1
40
1
10
702.45317525026871
20
-557.47145979155516
30
0
10
704.27373952028825
20
-557.47145979155516
30
0
10
705.79084462282731
20
-558.21484892119383
30
0
0
SPLINE
5
360
100
AcDbEntity
8
0
100
AcDbSpline
70
0
71
2
72
6
73
3
74
0
42
0.000000001
43
0.0000000001
44
0.0000000001
40
0
40
0
40
0
40
1
40
1
40
1
10
705.79084462282731
20
-558.21484892119383
30
0
10
707.30798787233903
20
-558.95823805083251
30
0
10
708.40030736086442
20
-560.24778692473387
30
0
0
SPLINE
5
361
100
AcDbEntity
8
0
100
AcDbSpline
70
0
71
2
72
6
73
3
74
0
42
0.000000001
43
0.0000000001
44
0.0000000001
40
0
40
0
40
0
40
1
40
1
40
1
10
708.40030736086442
20
-560.24778692473387
30
0
10
709.49262684938981
20
-561.5373453353784
30
0
10
710.10706013796403
20
-563.27445356596922
30
0
0
SPLINE
5
362
100
AcDbEntity
8
0
100
AcDbSpline
70
0
71
2
72
6
73
3
74
0
42
0.000000001
43
0.0000000001
44
0.0000000001
40
0
40
0
40
0
40
1
40
1
40
1
10
710.10706013796403
20
-563.27445356596922
30
0
10
710.72149342653825
20
-565.01155225981688
30
0
10
710.72149342653825
20
-566.99898092497801
30
0
0
SPLINE
5
363
100
AcDbEntity
8
0
100
AcDbSpline
70
0
71
2
72
6
73
3
74
0
42
0.000000001
43
0.0000000001
44
0.0000000001
40
0
40
0
40
0
40
1
40
1
40
1
10
710.72149342653825
20
-566.99898092497801
30
0
10
710.72149342653825
20
-568.6223062728784
30
0
10
710.36497182009293
20
-570.24562208403563
30
0
0
SPLINE
5
364
100
AcDbEntity
8
0
100
AcDbSpline
70
0
71
2
72
6
73
3
74
0
42
0.000000001
43
0.0000000001
44
0.0000000001
40
0
40
0
40
0
40
1
40
1
40
1
10
710.36497182009293
20
-570.24562208403563
30
0
10
710.00845021364762
20
-571.86894743193602
30
0
10
709.33332509157731
20
-573.34055273283934
30
0
0
SPLINE
5
365
100
AcDbEntity
8
0
100
AcDbSpline
70
0
71
2
72
6
73
3
74
0
42
0.000000001
43
0.0000000001
44
0.0000000001
40
0
40
0
40
0
40
1
40
1
40
1
10
709.33332509157731
20
-573.34055273283934
30
0
10
708.65821904299332
20
-574.81215803374266
30
0
10
707.68726414797379
20
-576.07896177519774
30
0
0
SPLINE
5
366
100
AcDbEntity
8
0
100
AcDbSpline
70
0
71
2
72
6
73
3
74
0
42
0.000000001
43
0.0000000001
44
0.0000000001
40
0
40
0
40
0
40
1
40
1
40
1
10
707.68726414797379
20
-576.07896177519774
30
0
10
706.71629017946793
20
-577.34575597990965
30
0
10
705.47985142824723
20
-578.27878324736571
30
0
0
SPLINE
5
367
100
AcDbEntity
8
0
100
AcDbSpline
70
0
71
2
72
6
73
3
74
0
42
0.000000001
43
0.0000000001
44
0.0000000001
40
0
40
0
40
0
40
1
40
1
40
1
10
705.47985142824723
20
-578.27878324736571
30
0
10
704.2433936035402
20
-579.21181051482176
30
0
10
702.76418751833512
20
-579.7428068374536
30
0
0
SPLINE
5
368
100
AcDbEntity
8
0
100
AcDbSpline
70
0
71
2
72
6
73
3
74
0
42
0.000000001
43
0.0000000001
44
0.0000000001
40
0
40
0
40
0
40
1
40
1
40
1
10
702.76418751833512
20
-579.7428068374536
30
0
10
701.28500050661637
20
-580.27379362334227
30
0
10
699.58581990358903
20
-580.27379362334227
30
0
0
SPLINE
5
369
100
AcDbEntity
8
0
100
AcDbSpline
70
0
71
2
72
6
73
3
74
0
42
0.000000001
43
0.0000000001
44
0.0000000001
40
0
40
0
40
0
40
1
40
1
40
1
10
699.58581990358903
20
-580.27379362334227
30
0
10
698.46315449831559
20
-580.27379362334227
30
0
10
697.44669026491715
20
-579.97037260283446
30
0
0
SPLINE
5
370
100
AcDbEntity
8
0
100
AcDbSpline
70
0
71
2
72
6
73
3
74
0
42
0.000000001
43
0.0000000001
44
0.0000000001
40
0
40
0
40
0
40
1
40
1
40
1
10
697.44669026491715
20
-579.97037260283446
30
0
10
696.43022603151871
20
-579.66695158232665
30
0
10
695.66408223269059
20
-579.09802763213133
30
0
0
SPLINE
5
371
100
AcDbEntity
8
0
100
AcDbSpline
70
0
71
2
72
6
73
3
74
0
42
0.000000001
43
0.0000000001
44
0.0000000001
40
0
40
0
40
0
40
1
40
1
40
1
10
695.66408223269059
20
-579.09802763213133
30
0
10
694.89791936037614
20
-578.52910368193602
30
0
10
694.44278782961442
20
-577.69469587553954
30
0
0
SPLINE
5
372
100
AcDbEntity
8
0
100
AcDbSpline
70
0
71
2
72
6
73
3
74
0
42
0.000000001
43
0.0000000001
44
0.0000000001
40
0
40
0
40
0
40
1
40
1
40
1
10
694.44278782961442
20
-577.69469587553954
30
0
10
693.98763722536637
20
-576.86027853239989
30
0
10
693.98763722536637
20
-575.79828588713622
30
0
0
SPLINE
5
373
100
AcDbEntity
8
0
100
AcDbSpline
70
0
71
2
72
6
73
3
74
0
42
0.000000001
43
0.0000000001
44
0.0000000001
40
0
40
0
40
0
40
1
40
1
40
1
10
693.98763722536637
20
-575.79828588713622
30
0
10
693.98763722536637
20
-574.25082533110594
30
0
10
694.99654835817887
20
-573.09781400908446
30
0
0
SPLINE
5
374
100
AcDbEntity
8
0
100
AcDbSpline
70
0
71
2
72
6
73
3
74
0
42
0.000000001
43
0.0000000001
44
0.0000000001
40
0
40
0
40
0
40
1
40
1
40
1
10
694.99654835817887
20
-573.09781400908446
30
0
10
696.00542134401871
20
-571.94480268706297
30
0
10
697.78045720217301
20
-571.14072172392821
30
0
0
SPLINE
5
375
100
AcDbEntity
8
0
100
AcDbSpline
70
0
71
2
72
6
73
3
74
0
42
0.000000001
43
0.0000000001
44
0.0000000001
40
0
40
0
40
0
40
1
40
1
40
1
10
697.78045720217301
20
-571.14072172392821
30
0
10
699.55549306032731
20
-570.33665029753661
30
0
10
701.96012562868668
20
-569.84359113921141
30
0
0
SPLINE
5
376
100
AcDbEntity
8
0
100
AcDbSpline
70
0
71
2
72
6
73
3
74
0
42
0.000000001
43
0.0000000001
44
0.0000000001
40
0
40
0
40
0
40
1
40
1
40
1
10
701.96012562868668
20
-569.84359113921141
30
0
10
704.36475819704606
20
-569.35052244414305
30
0
10
707.15627736208512
20
-569.10778372038817
30
0
0
LINE
5
377
100
AcDbEntity
8
0
100
AcDbLine
10
707.15627736208512
20
-569.10778372038817
30
0
11
707.15627736208512
21
-568.84987203825926
31
0
0
SPLINE
5
378
100
AcDbEntity
8
0
100
AcDbSpline
70
0
71
2
72
6
73
3
74
0
42
0.000000001
43
0.0000000001
44
0.0000000001
40
0
40
0
40
0
40
1
40
1
40
1
10
707.15627736208512
20
-568.84987203825926
30
0
10
707.15627736208512
20
-566.90795271147704
30
0
10
706.66318959353043
20
-565.29980985869383
30
0
0
SPLINE
5
379
100
AcDbEntity
8
0
100
AcDbSpline
70
0
71
2
72
6
73
3
74
0
42
0.000000001
43
0.0000000001
44
0.0000000001
40
0
40
0
40
0
40
1
40
1
40
1
10
706.66318959353043
20
-565.29980985869383
30
0
10
706.1701399719484
20
-563.69165746916747
30
0
10
705.30538624880387
20
-562.54622785796141
30
0
0
SPLINE
5
380
100
AcDbEntity
8
0
100
AcDbSpline
70
0
71
2
72
6
73
3
74
0
42
0.000000001
43
0.0000000001
44
0.0000000001
40
0
40
0
40
0
40
1
40
1
40
1
10
705.30538624880387
20
-562.54622785796141
30
0
10
704.44063252565934
20
-561.40080778349852
30
0
10
703.27243870852067
20
-560.76361028899169
30
0
0
SPLINE
5
381
100
AcDbEntity
8
0
100
AcDbSpline
70
0
71
2
72
6
73
3
74
0
42
0.000000001
43
0.0000000001
44
0.0000000001
40
0
40
0
40
0
40
1
40
1
40
1
10
703.27243870852067
20
-560.76361028899169
30
0
10
702.104244891382
20
-560.12642233122801
30
0
10
700.7540137207277
20
-560.12642233122801
30
0
0
SPLINE
5
382
100
AcDbEntity
8
0
100
AcDbSpline
70
0
71
2
72
6
73
3
74
0
42
0.000000001
43
0.0000000001
44
0.0000000001
40
0
40
0
40
0
40
1
40
1
40
1
10
700.7540137207277
20
-560.12642233122801
30
0
10
699.38860005495621
20
-560.12642233122801
30
0
10
697.95492238161637
20
-560.80153791655516
30
0
0
SPLINE
5
383
100
AcDbEntity
8
0
100
AcDbSpline
70
0
71
2
72
6
73
3
74
0
42
0.000000001
43
0.0000000001
44
0.0000000001
40
0
40
0
40
0
40
1
40
1
40
1
10
697.95492238161637
20
-560.80153791655516
30
0
10
696.52124470827653
20
-561.47666303862547
30
0
10
695.04962987063004
20
-562.9937776779077
30
0
0
SPLINE
5
384
100
AcDbEntity
8
0
100
AcDbSpline
70
0
71
2
72
6
73
3
74
0
42
0.000000001
43
0.0000000001
44
0.0000000001
40
0
40
0
40
0
40
1
40
1
40
1
10
697.90182179567887
20
-575.17627088774657
30
0
10
697.90182179567887
20
-575.87415067900633
30
0
10
698.13697880861832
20
-576.48099272002196
30
0
0
SPLINE
5
385
100
AcDbEntity
8
0
100
AcDbSpline
70
0
71
2
72
6
73
3
74
0
42
0.000000001
43
0.0000000001
44
0.0000000001
40
0
40
0
40
0
40
1
40
1
40
1
10
698.13697880861832
20
-576.48099272002196
30
0
10
698.37213582155778
20
-577.08784429778075
30
0
10
698.78934926149918
20
-577.53539411772704
30
0
0
SPLINE
5
386
100
AcDbEntity
8
0
100
AcDbSpline
70
0
71
2
72
6
73
3
74
0
42
0.000000001
43
0.0000000001
44
0.0000000001
40
0
40
0
40
0
40
1
40
1
40
1
10
698.78934926149918
20
-577.53539411772704
30
0
10
699.20654362795426
20
-577.98294393767333
30
0
10
699.78305882570817
20
-578.24085561980223
30
0
0
SPLINE
5
387
100
AcDbEntity
8
0
100
AcDbSpline
70
0
71
2
72
6
73
3
74
0
42
0.000000001
43
0.0000000001
44
0.0000000001
40
0
40
0
40
0
40
1
40
1
40
1
10
699.78305882570817
20
-578.24085561980223
30
0
10
700.35955494997575
20
-578.49876730193114
30
0
10
701.02708882448746
20
-578.49876730193114
30
0
0
SPLINE
5
388
100
AcDbEntity
8
0
100
AcDbSpline
70
0
71
2
72
6
73
3
74
0
42
0.000000001
43
0.0000000001
44
0.0000000001
40
0
40
0
40
0
40
1
40
1
40
1
10
701.02708882448746
20
-578.49876730193114
30
0
10
702.01322621462418
20
-578.49876730193114
30
0
10
702.81728810427262
20
-578.14982740630126
30
0
0
SPLINE
5
389
100
AcDbEntity
8
0
100
AcDbSpline
70
0
71
2
72
6
73
3
74
0
42
0.000000001
43
0.0000000001
44
0.0000000001
40
0
40
0
40
0
40
1
40
1
40
1
10
702.81728810427262
20
-578.14982740630126
30
0
10
703.62136906740739
20
-577.80088751067137
30
0
10
704.25855702517106
20
-577.20162718047118
30
0
0
SPLINE
5
390
100
AcDbEntity
8
0
100
AcDbSpline
70
0
71
2
72
6
73
3
74
0
42
0.000000001
43
0.0000000001
44
0.0000000001
40
0
40
0
40
0
40
1
40
1
40
1
10
704.25855702517106
20
-577.20162718047118
30
0
10
704.89576405642106
20
-576.60236685027098
30
0
10
705.3812224304445
20
-575.80587713469481
30
0
0
SPLINE
5
391
100
AcDbEntity
8
0
100
AcDbSpline
70
0
71
2
72
6
73
3
74
0
42
0.000000001
43
0.0000000001
44
0.0000000001
40
0
40
0
40
0
40
1
40
1
40
1
10
705.3812224304445
20
-575.80587713469481
30
0
10
705.86671895144059
20
-575.00938741911864
30
0
10
706.20805806276871
20
-574.11428777922606
30
0
0
SPLINE
5
392
100
AcDbEntity
8
0
100
AcDbSpline
70
0
71
2
72
6
73
3
74
0
42
0.000000001
43
0.0000000001
44
0.0000000001
40
0
40
0
40
0
40
1
40
1
40
1
10
706.20805806276871
20
-574.11428777922606
30
0
10
706.54941624758317
20
-573.21917860259032
30
0
10
706.76181859133317
20
-572.27856962431883
30
0
0
SPLINE
5
393
100
AcDbEntity
8
0
100
AcDbSpline
70
0
71
2
72
6
73
3
74
0
42
0.000000001
43
0.0000000001
44
0.0000000001
40
0
40
0
40
0
40
1
40
1
40
1
10
706.76181859133317
20
-572.27856962431883
30
0
10
706.97420186159684
20
-571.33795110930419
30
0
10
707.06523961184098
20
-570.44285146941161
30
0
0
SPLINE
5
394
100
AcDbEntity
8
0
100
AcDbSpline
70
0
71
2
72
6
73
3
74
0
42
0.000000001
43
0.0000000001
44
0.0000000001
40
0
40
0
40
0
40
1
40
1
40
1
10
707.06523961184098
20
-570.44285146941161
30
0
10
704.91092747805192
20
-570.59456197966551
30
0
10
703.20417470095231
20
-570.96625654448485
30
0
0
SPLINE
5
395
100
AcDbEntity
8
0
100
AcDbSpline
70
0
71
2
72
6
73
3
74
0
42
0.000000001
43
0.0000000001
44
0.0000000001
40
0
40
0
40
0
40
1
40
1
40
1
10
703.20417470095231
20
-570.96625654448485
30
0
10
701.49740285036637
20
-571.33795110930419
30
0
10
700.32163685915543
20
-571.92204801787352
30
0
0
SPLINE
5
396
100
AcDbEntity
8
0
100
AcDbSpline
70
0
71
2
72
6
73
3
74
0
42
0.000000001
43
0.0000000001
44
0.0000000001
40
0
40
0
40
0
40
1
40
1
40
1
10
700.32163685915543
20
-571.92204801787352
30
0
10
699.1458708679445
20
-572.50613538969969
30
0
10
698.52384633181168
20
-573.31779806364989
30
0
0
SPLINE
5
397
100
AcDbEntity
8
0
100
AcDbSpline
70
0
71
2
72
6
73
3
74
0
42
0.000000001
43
0.0000000001
44
0.0000000001
40
0
40
0
40
0
40
1
40
1
40
1
10
698.52384633181168
20
-573.31779806364989
30
0
10
697.90182179567887
20
-574.12946073760008
30
0
10
697.90182179567887
20
-575.17627088774657
30
0
0
SPLINE
5
398
100
AcDbEntity
8
0
100
AcDbSpline
70
0
71
2
72
6
73
3
74
0
42
0.000000001
43
0.0000000001
44
0.0000000001
40
0
40
0
40
0
40
1
40
1
40
1
10
688.43498295900895
20
-575.73760359038329
30
0
10
688.43498295900895
20
-576.3596281265161
30
0
10
688.52602070925309
20
-576.78441374052977
30
0
0
SPLINE
5
399
100
AcDbEntity
8
0
100
AcDbSpline
70
0
71
2
72
6
73
3
74
0
42
0.000000001
43
0.0000000001
44
0.0000000001
40
0
40
0
40
0
40
1
40
1
40
1
10
688.52602070925309
20
-576.78441374052977
30
0
10
688.6170393860109
20
-577.20920889128661
30
0
10
688.80666798708512
20
-577.45953886260008
30
0
0
SPLINE
5
400
100
AcDbEntity
8
0
100
AcDbSpline
70
0
71
2
72
6
73
3
74
0
42
0.000000001
43
0.0000000001
44
0.0000000001
40
0
40
0
40
0
40
1
40
1
40
1
10
688.80666798708512
20
-577.45953886260008
30
0
10
688.99631566164567
20
-577.7098592971704
30
0
10
689.28457326052262
20
-577.8160604690454
30
0
0
SPLINE
5
401
100
AcDbEntity
8
0
100
AcDbSpline
70
0
71
2
72
6
73
3
74
0
42
0.000000001
43
0.0000000001
44
0.0000000001
40
0
40
0
40
0
40
1
40
1
40
1
10
689.28457326052262
20
-577.8160604690454
30
0
10
689.57281178591325
20
-577.9222616409204
30
0
10
689.9672705566652
20
-577.9222616409204
30
0
0
SPLINE
5
402
100
AcDbEntity
8
0
100
AcDbSpline
70
0
71
2
72
6
73
3
74
0
42
0.000000001
43
0.0000000001
44
0.0000000001
40
0
40
0
40
0
40
1
40
1
40
1
10
689.9672705566652
20
-577.9222616409204
30
0
10
690.51343983767106
20
-577.9222616409204
30
0
10
691.27199238894059
20
-577.77055113066649
30
0
0
SPLINE
5
403
100
AcDbEntity
8
0
100
AcDbSpline
70
0
71
2
72
6
73
3
74
0
42
0.000000001
43
0.0000000001
44
0.0000000001
40
0
40
0
40
0
40
1
40
1
40
1
10
691.27199238894059
20
-577.77055113066649
30
0
10
692.03054494021012
20
-577.61884062041258
30
0
10
693.00151890871598
20
-577.36092893828368
30
0
0
LINE
5
404
100
AcDbEntity
8
0
100
AcDbLine
10
693.00151890871598
20
-577.36092893828368
30
0
11
693.22908467409684
21
-578.45324842680907
31
0
0
SPLINE
5
405
100
AcDbEntity
8
0
100
AcDbSpline
70
0
71
2
72
6
73
3
74
0
42
0.000000001
43
0.0000000001
44
0.0000000001
40
0
40
0
40
0
40
1
40
1
40
1
10
693.22908467409684
20
-578.45324842680907
30
0
10
692.15192860720231
20
-578.832534239187
30
0
10
691.158199969507
20
-579.1435465072534
30
0
0
SPLINE
5
406
100
AcDbEntity
8
0
100
AcDbSpline
70
0
71
2
72
6
73
3
74
0
42
0.000000001
43
0.0000000001
44
0.0000000001
40
0
40
0
40
0
40
1
40
1
40
1
10
691.158199969507
20
-579.1435465072534
30
0
10
690.16450947878434
20
-579.45454923857665
30
0
10
689.33008259890153
20
-579.68212454070067
30
0
0
SPLINE
5
407
100
AcDbEntity
8
0
100
AcDbSpline
70
0
71
2
72
6
73
3
74
0
42
0.000000001
43
0.0000000001
44
0.0000000001
40
0
40
0
40
0
40
1
40
1
40
1
10
689.33008259890153
20
-579.68212454070067
30
0
10
688.49565571901871
20
-579.90969030608153
30
0
10
687.85848683474137
20
-580.03106443633055
30
0
0
SPLINE
5
408
100
AcDbEntity
8
0
100
AcDbSpline
70
0
71
2
72
6
73
3
74
0
42
0.000000001
43
0.0000000001
44
0.0000000001
40
0
40
0
40
0
40
1
40
1
40
1
10
687.85848683474137
20
-580.03106443633055
30
0
10
687.22127980349137
20
-580.15242902983641
30
0
10
686.85716694948746
20
-580.15242902983641
30
0
0
SPLINE
5
409
100
AcDbEntity
8
0
100
AcDbSpline
70
0
71
2
72
6
73
3
74
0
42
0.000000001
43
0.0000000001
44
0.0000000001
40
0
40
0
40
0
40
1
40
1
40
1
10
686.85716694948746
20
-580.15242902983641
30
0
10
685.97723073122575
20
-580.15242902983641
30
0
10
685.48418110964371
20
-579.62902395476317
30
0
0
SPLINE
5
410
100
AcDbEntity
8
0
100
AcDbSpline
70
0
71
2
72
6
73
3
74
0
42
0.000000001
43
0.0000000001
44
0.0000000001
40
0
40
0
40
0
40
1
40
1
40
1
10
685.48418110964371
20
-579.62902395476317
30
0
10
684.99111241457535
20
-579.10561887968993
30
0
10
684.99111241457535
20
-577.83123342741942
30
0
0
SPLINE
5
411
100
AcDbEntity
8
0
100
AcDbSpline
70
0
71
2
72
6
73
3
74
0
42
0.000000001
43
0.0000000001
44
0.0000000001
40
0
40
0
40
0
40
1
40
1
40
1
10
684.99111241457535
20
-577.83123342741942
30
0
10
684.99111241457535
20
-577.67952291716551
30
0
10
685.0214583313234
20
-577.12577192534422
30
0
0
SPLINE
5
412
100
AcDbEntity
8
0
100
AcDbSpline
70
0
71
2
72
6
73
3
74
0
42
0.000000001
43
0.0000000001
44
0.0000000001
40
0
40
0
40
0
40
1
40
1
40
1
10
685.0214583313234
20
-577.12577192534422
30
0
10
685.05178517458512
20
-576.57202093352294
30
0
10
685.10488576052262
20
-575.72243063200926
30
0
0
SPLINE
5
413
100
AcDbEntity
8
0
100
AcDbSpline
70
0
71
2
72
6
73
3
74
0
42
0.000000001
43
0.0000000001
44
0.0000000001
40
0
40
0
40
0
40
1
40
1
40
1
10
685.10488576052262
20
-575.72243063200926
30
0
10
685.15798634646012
20
-574.87284986723876
30
0
10
685.2338606750734
20
-573.77292959441161
30
0
0
SPLINE
5
414
100
AcDbEntity
8
0
100
AcDbSpline
70
0
71
2
72
6
73
3
74
0
42
0.000000001
43
0.0000000001
44
0.0000000001
40
0
40
0
40
0
40
1
40
1
40
1
10
685.2338606750734
20
-573.77292959441161
30
0
10
685.30969685671403
20
-572.67301885832762
30
0
10
685.40832585451676
20
-571.42897932280516
30
0
0
SPLINE
5
415
100
AcDbEntity
8
0
100
AcDbSpline
70
0
71
2
72
6
73
3
74
0
42
0.000000001
43
0.0000000001
44
0.0000000001
40
0
40
0
40
0
40
1
40
1
40
1
10
685.40832585451676
20
-571.42897932280516
30
0
10
685.50693577883317
20
-570.1849397872827
30
0
10
685.62830037233903
20
-568.85745374907469
30
0
0
SPLINE
5
416
100
AcDbEntity
8
0
100
AcDbSpline
70
0
71
2
72
6
73
3
74
0
42
0.000000001
43
0.0000000001
44
0.0000000001
40
0
40
0
40
0
40
1
40
1
40
1
10
685.62830037233903
20
-568.85745374907469
30
0
10
685.74968403933121
20
-567.52997724760985
30
0
10
685.88621205446793
20
-566.21008245696044
30
0
0
LINE
5
417
100
AcDbEntity
8
0
100
AcDbLine
10
685.88621205446793
20
-566.21008245696055
30
0
11
685.79519337771012
21
-566.19490949858641
31
0
0
SPLINE
5
418
100
AcDbEntity
8
0
100
AcDbSpline
70
0
71
2
72
6
73
3
74
0
42
0.000000001
43
0.0000000001
44
0.0000000001
40
0
40
0
40
0
40
1
40
1
40
1
10
685.79519337771012
20
-566.19490949858641
30
0
10
684.64216298220231
20
-570.10908453215575
30
0
10
683.32227772829606
20
-572.80197469939208
30
0
0
SPLINE
5
419
100
AcDbEntity
8
0
100
AcDbSpline
70
0
71
2
72
6
73
3
74
0
42
0.000000001
43
0.0000000001
44
0.0000000001
40
0
40
0
40
0
40
1
40
1
40
1
10
683.32227772829606
20
-572.80197469939208
30
0
10
682.00239247438981
20
-575.4948648666284
30
0
10
680.63697880861832
20
-577.17128126372313
30
0
0
SPLINE
5
420
100
AcDbEntity
8
0
100
AcDbSpline
70
0
71
2
72
6
73
3
74
0
42
0.000000001
43
0.0000000001
44
0.0000000001
40
0
40
0
40
0
40
1
40
1
40
1
10
680.63697880861832
20
-577.17128126372313
30
0
10
679.27156514284684
20
-578.84770719756102
30
0
10
677.92131489870621
20
-579.59109632719969
30
0
0
SPLINE
5
421
100
AcDbEntity
8
0
100
AcDbSpline
70
0
71
2
72
6
73
3
74
0
42
0.000000001
43
0.0000000001
44
0.0000000001
40
0
40
0
40
0
40
1
40
1
40
1
10
677.92131489870621
20
-579.59109632719969
30
0
10
676.57108372805192
20
-580.33448545683837
30
0
10
675.34221715090348
20
-580.33448545683837
30
0
0
SPLINE
5
422
100
AcDbEntity
8
0
100
AcDbSpline
70
0
71
2
72
6
73
3
74
0
42
0.000000001
43
0.0000000001
44
0.0000000001
40
0
40
0
40
0
40
1
40
1
40
1
10
675.34221715090348
20
-580.33448545683837
30
0
10
674.49262684938981
20
-580.33448545683837
30
0
10
673.70372838137223
20
-580.01589147795653
30
0
0
SPLINE
5
423
100
AcDbEntity
8
0
100
AcDbSpline
70
0
71
2
72
6
73
3
74
0
42
0.000000001
43
0.0000000001
44
0.0000000001
40
0
40
0
40
0
40
1
40
1
40
1
10
673.70372838137223
20
-580.01589147795653
30
0
10
672.91482991335465
20
-579.69729749907469
30
0
10
672.30039662478043
20
-578.99941770781493
30
0
0
SPLINE
5
424
100
AcDbEntity
8
0
100
AcDbSpline
70
0
71
2
72
6
73
3
74
0
42
0.000000001
43
0.0000000001
44
0.0000000001
40
0
40
0
40
0
40
1
40
1
40
1
10
672.30039662478043
20
-578.99941770781493
30
0
10
671.68596333620621
20
-578.30153791655516
30
0
10
671.32185048220231
20
-577.20162718047118
30
0
0
SPLINE
5
425
100
AcDbEntity
8
0
100
AcDbSpline
70
0
71
2
72
6
73
3
74
0
42
0.000000001
43
0.0000000001
44
0.0000000001
40
0
40
0
40
0
40
1
40
1
40
1
10
671.32185048220231
20
-577.20162718047118
30
0
10
670.9577376281984
20
-576.10171644438719
30
0
10
670.9577376281984
20
-574.5390829299829
30
0
0
SPLINE
5
426
100
AcDbEntity
8
0
100
AcDbSpline
70
0
71
2
72
6
73
3
74
0
42
0.000000001
43
0.0000000001
44
0.0000000001
40
0
40
0
40
0
40
1
40
1
40
1
10
670.9577376281984
20
-574.5390829299829
30
0
10
670.9577376281984
20
-574.08394186247801
30
0
10
671.0108382141359
20
-573.31779806364989
30
0
0
SPLINE
5
427
100
AcDbEntity
8
0
100
AcDbSpline
70
0
71
2
72
6
73
3
74
0
42
0.000000001
43
0.0000000001
44
0.0000000001
40
0
40
0
40
0
40
1
40
1
40
1
10
671.0108382141359
20
-573.31779806364989
30
0
10
671.0639388000734
20
-572.5516447280786
30
0
10
671.13979405520035
20
-571.61103574980712
30
0
0
SPLINE
5
428
100
AcDbEntity
8
0
100
AcDbSpline
70
0
71
2
72
6
73
3
74
0
42
0.000000001
43
0.0000000001
44
0.0000000001
40
0
40
0
40
0
40
1
40
1
40
1
10
671.13979405520035
20
-571.61103574980712
30
0
10
671.21564931032731
20
-570.67041723479247
30
0
10
671.31425923464371
20
-569.61601583708739
30
0
0
SPLINE
5
429
100
AcDbEntity
8
0
100
AcDbSpline
70
0
71
2
72
6
73
3
74
0
42
0.000000001
43
0.0000000001
44
0.0000000001
40
0
40
0
40
0
40
1
40
1
40
1
10
671.31425923464371
20
-569.61601583708739
30
0
10
671.41286915896012
20
-568.56161443938231
30
0
10
671.48872441408707
20
-567.54515020598387
30
0
0
SPLINE
5
430
100
AcDbEntity
8
0
100
AcDbSpline
70
0
71
2
72
6
73
3
74
0
42
0.000000001
43
0.0000000001
44
0.0000000001
40
0
40
0
40
0
40
1
40
1
40
1
10
671.48872441408707
20
-567.54515020598387
30
0
10
671.56457966921403
20
-566.52867643584227
30
0
10
671.61768025515153
20
-565.61082212676024
30
0
0
SPLINE
5
431
100
AcDbEntity
8
0
100
AcDbSpline
70
0
71
2
72
6
73
3
74
0
42
0.000000001
43
0.0000000001
44
0.0000000001
40
0
40
0
40
0
40
1
40
1
40
1
10
671.61768025515153
20
-565.61082212676024
30
0
10
671.67078084108903
20
-564.69295828093504
30
0
10
671.67078084108903
20
-564.0102514480493
30
0
0
SPLINE
5
432
100
AcDbEntity
8
0
100
AcDbSpline
70
0
71
2
72
6
73
3
74
0
42
0.000000001
43
0.0000000001
44
0.0000000001
40
0
40
0
40
0
40
1
40
1
40
1
10
671.67078084108903
20
-564.0102514480493
30
0
10
671.67078084108903
20
-562.82689420927977
30
0
10
671.57217091677262
20
-562.0835050796411
30
0
0
SPLINE
5
433
100
AcDbEntity
8
0
100
AcDbSpline
70
0
71
2
72
6
73
3
74
0
42
0.000000001
43
0.0000000001
44
0.0000000001
40
0
40
0
40
0
40
1
40
1
40
1
10
671.57217091677262
20
-562.0835050796411
30
0
10
671.47356099245621
20
-561.34011595000243
30
0
10
671.24599522707535
20
-560.90773908843016
30
0
0
SPLINE
5
434
100
AcDbEntity
8
0
100
AcDbSpline
70
0
71
2
72
6
73
3
74
0
42
0.000000001
43
0.0000000001
44
0.0000000001
40
0
40
0
40
0
40
1
40
1
40
1
10
671.24599522707535
20
-560.90773908843016
30
0
10
671.0184294616945
20
-560.4753622268579
30
0
10
670.6391341125734
20
-560.3160604690454
30
0
0
SPLINE
5
435
100
AcDbEntity
8
0
100
AcDbSpline
70
0
71
2
72
6
73
3
74
0
42
0.000000001
43
0.0000000001
44
0.0000000001
40
0
40
0
40
0
40
1
40
1
40
1
10
670.6391341125734
20
-560.3160604690454
30
0
10
670.25985783693864
20
-560.15676824797606
30
0
10
669.71368855593278
20
-560.15676824797606
30
0
0
SPLINE
5
436
100
AcDbEntity
8
0
100
AcDbSpline
70
0
71
2
72
6
73
3
74
0
42
0.000000001
43
0.0000000001
44
0.0000000001
40
0
40
0
40
0
40
1
40
1
40
1
10
669.71368855593278
20
-560.15676824797606
30
0
10
668.9247900879152
20
-560.15676824797606
30
0
10
668.07519978640153
20
-560.37674276579833
30
0
0
SPLINE
5
437
100
AcDbEntity
8
0
100
AcDbSpline
70
0
71
2
72
6
73
3
74
0
42
0.000000001
43
0.0000000001
44
0.0000000001
40
0
40
0
40
0
40
1
40
1
40
1
10
668.07519978640153
20
-560.37674276579833
30
0
10
667.22562855837418
20
-560.59672682036376
30
0
10
666.36085576174332
20
-560.99118559111571
30
0
0
LINE
5
438
100
AcDbEntity
8
0
100
AcDbLine
10
666.36085576174332
20
-560.99118559111571
30
0
11
666.07259816286637
21
-560.20227758635497
31
0
0
SPLINE
5
439
100
AcDbEntity
8
0
100
AcDbSpline
70
0
71
2
72
6
73
3
74
0
42
0.000000001
43
0.0000000001
44
0.0000000001
40
0
40
0
40
0
40
1
40
1
40
1
10
666.07259816286637
20
-560.20227758635497
30
0
10
666.61876744387223
20
-559.76230947722411
30
0
10
667.45317525026871
20
-559.30717794646239
30
0
0
SPLINE
5
440
100
AcDbEntity
8
0
100
AcDbSpline
70
0
71
2
72
6
73
3
74
0
42
0.000000001
43
0.0000000001
44
0.0000000001
40
0
40
0
40
0
40
1
40
1
40
1
10
667.45317525026871
20
-559.30717794646239
30
0
10
668.28760213015153
20
-558.85203687895751
30
0
10
669.20545643923356
20
-558.47276060332274
30
0
0
SPLINE
5
441
100
AcDbEntity
8
0
100
AcDbSpline
70
0
71
2
72
6
73
3
74
0
42
0.000000001
43
0.0000000001
44
0.0000000001
40
0
40
0
40
0
40
1
40
1
40
1
10
669.20545643923356
20
-558.47276060332274
30
0
10
670.12331074831559
20
-558.09347479094481
30
0
10
671.03359288332535
20
-557.85832731474852
30
0
0
SPLINE
5
442
100
AcDbEntity
8
0
100
AcDbSpline
70
0
71
2
72
6
73
3
74
0
42
0.000000001
43
0.0000000001
44
0.0000000001
40
0
40
0
40
0
40
1
40
1
40
1
10
671.03359288332535
20
-557.85832731474852
30
0
10
671.94387501833512
20
-557.62317030180907
30
0
10
672.64173573610856
20
-557.62317030180907
30
0
0
SPLINE
5
443
100
AcDbEntity
8
0
100
AcDbSpline
70
0
71
2
72
6
73
3
74
0
42
0.000000001
43
0.0000000001
44
0.0000000001
40
0
40
0
40
0
40
1
40
1
40
1
10
672.64173573610856
20
-557.62317030180907
30
0
10
673.46098012087418
20
-557.62317030180907
30
0
10
673.93129414675309
20
-558.06313841093993
30
0
0
SPLINE
5
444
100
AcDbEntity
8
0
100
AcDbSpline
70
0
71
2
72
6
73
3
74
0
42
0.000000001
43
0.0000000001
44
0.0000000001
40
0
40
0
40
0
40
1
40
1
40
1
10
673.93129414675309
20
-558.06313841093993
30
0
10
674.401608172632
20
-558.50309698332762
30
0
10
674.63674611208512
20
-559.26165907134032
30
0
0
SPLINE
5
445
100
AcDbEntity
8
0
100
AcDbSpline
70
0
71
2
72
6
73
3
74
0
42
0.000000001
43
0.0000000001
44
0.0000000001
40
0
40
0
40
0
40
1
40
1
40
1
10
674.63674611208512
20
-559.26165907134032
30
0
10
674.8719221985109
20
-560.02022115935301
30
0
10
674.94018620607926
20
-561.03669492949462
30
0
0
SPLINE
5
446
100
AcDbEntity
8
0
100
AcDbSpline
70
0
71
2
72
6
73
3
74
0
42
0.000000001
43
0.0000000001
44
0.0000000001
40
0
40
0
40
0
40
1
40
1
40
1
10
674.94018620607926
20
-561.03669492949462
30
0
10
675.00845021364762
20
-562.05316869963622
30
0
10
675.00845021364762
20
-563.22135298003172
30
0
0
SPLINE
5
447
100
AcDbEntity
8
0
100
AcDbSpline
70
0
71
2
72
6
73
3
74
0
42
0.000000001
43
0.0000000001
44
0.0000000001
40
0
40
0
40
0
40
1
40
1
40
1
10
675.00845021364762
20
-563.22135298003172
30
0
10
675.00845021364762
20
-564.64743940581297
30
0
10
674.90984028933121
20
-566.15698187102294
30
0
0
SPLINE
5
448
100
AcDbEntity
8
0
100
AcDbSpline
70
0
71
2
72
6
73
3
74
0
42
0.000000001
43
0.0000000001
44
0.0000000001
40
0
40
0
40
0
40
1
40
1
40
1
10
674.90984028933121
20
-566.15698187102294
30
0
10
674.81123036501481
20
-567.66651479948973
30
0
10
674.68984669802262
20
-569.03192846526122
30
0
0
SPLINE
5
449
100
AcDbEntity
8
0
100
AcDbSpline
70
0
71
2
72
6
73
3
74
0
42
0.000000001
43
0.0000000001
44
0.0000000001
40
0
40
0
40
0
40
1
40
1
40
1
10
674.68984669802262
20
-569.03192846526122
30
0
10
674.56848210451676
20
-570.39733259428954
30
0
10
674.46987218020035
20
-571.51241628874754
30
0
0
SPLINE
5
450
100
AcDbEntity
8
0
100
AcDbSpline
70
0
71
2
72
6
73
3
74
0
42
0.000000001
43
0.0000000001
44
0.0000000001
40
0
40
0
40
0
40
1
40
1
40
1
10
674.46987218020035
20
-571.51241628874754
30
0
10
674.37126225588395
20
-572.62749998320555
30
0
10
674.37126225588395
20
-573.29503385771727
30
0
0
SPLINE
5
451
100
AcDbEntity
8
0
100
AcDbSpline
70
0
71
2
72
6
73
3
74
0
42
0.000000001
43
0.0000000001
44
0.0000000001
40
0
40
0
40
0
40
1
40
1
40
1
10
674.37126225588395
20
-573.29503385771727
30
0
10
674.37126225588395
20
-575.07006971587157
30
0
10
675.03879613039567
20
-575.91206876982665
30
0
0
SPLINE
5
452
100
AcDbEntity
8
0
100
AcDbSpline
70
0
71
2
72
6
73
3
74
0
42
0.000000001
43
0.0000000001
44
0.0000000001
40
0
40
0
40
0
40
1
40
1
40
1
10
675.03879613039567
20
-575.91206876982665
30
0
10
675.70633000490739
20
-576.75407736052489
30
0
10
676.81383198854996
20
-576.75407736052489
30
0
0
SPLINE
5
453
100
AcDbEntity
8
0
100
AcDbSpline
70
0
71
2
72
6
73
3
74
0
42
0.000000001
43
0.0000000001
44
0.0000000001
40
0
40
0
40
0
40
1
40
1
40
1
10
676.81383198854996
20
-576.75407736052489
30
0
10
677.69376820681168
20
-576.75407736052489
30
0
10
678.66472310183121
20
-576.01068823088622
30
0
0
SPLINE
5
454
100
AcDbEntity
8
0
100
AcDbSpline
70
0
71
2
72
6
73
3
74
0
42
0.000000001
43
0.0000000001
44
0.0000000001
40
0
40
0
40
0
40
1
40
1
40
1
10
678.66472310183121
20
-576.01068823088622
30
0
10
679.63567799685075
20
-575.26729910124754
30
0
10
680.59904164431168
20
-573.97015897978758
30
0
0
SPLINE
5
455
100
AcDbEntity
8
0
100
AcDbSpline
70
0
71
2
72
6
73
3
74
0
42
0.000000001
43
0.0000000001
44
0.0000000001
40
0
40
0
40
0
40
1
40
1
40
1
10
680.59904164431168
20
-573.97015897978758
30
0
10
681.56240529177262
20
-572.67301885832762
30
0
10
682.44993275759293
20
-570.90557424773192
30
0
0
SPLINE
5
456
100
AcDbEntity
8
0
100
AcDbSpline
70
0
71
2
72
6
73
3
74
0
42
0.000000001
43
0.0000000001
44
0.0000000001
40
0
40
0
40
0
40
1
40
1
40
1
10
682.44993275759293
20
-570.90557424773192
30
0
10
683.33746022341325
20
-569.13812010039305
30
0
10
684.05050343630387
20
-567.08242742766356
30
0
0
SPLINE
5
457
100
AcDbEntity
8
0
100
AcDbSpline
70
0
71
2
72
6
73
3
74
0
42
0.000000001
43
0.0000000001
44
0.0000000001
40
0
40
0
40
0
40
1
40
1
40
1
10
684.05050343630387
20
-567.08242742766356
30
0
10
684.7635466491945
20
-565.0267252181909
30
0
10
685.2338606750734
20
-562.78138487090087
30
0
0
SPLINE
5
458
100
AcDbEntity
8
0
100
AcDbSpline
70
0
71
2
72
6
73
3
74
0
42
0.000000001
43
0.0000000001
44
0.0000000001
40
0
40
0
40
0
40
1
40
1
40
1
10
685.2338606750734
20
-562.78138487090087
30
0
10
685.70415562746598
20
-560.53604452361083
30
0
10
685.82552022097184
20
-558.29070417632079
30
0
0
LINE
5
459
100
AcDbEntity
8
0
100
AcDbLine
10
685.82552022097207
20
-558.2907041763209
30
0
11
688.99631566164567
21
-557.896254942312
31
0
0
LINE
5
460
100
AcDbEntity
8
0
100
AcDbLine
10
688.99631566164567
20
-557.896254942312
30
0
11
689.23906392214371
21
-557.91142790068602
31
0
0
SPLINE
5
461
100
AcDbEntity
8
0
100
AcDbSpline
70
0
71
2
72
6
73
3
74
0
42
0.000000001
43
0.0000000001
44
0.0000000001
40
0
40
0
40
0
40
1
40
1
40
1
10
689.23906392214371
20
-557.91142790068602
30
0
10
689.11768025515153
20
-559.35268728484129
30
0
10
689.01147908327653
20
-561.05186788786864
30
0
0
SPLINE
5
462
100
AcDbEntity
8
0
100
AcDbSpline
70
0
71
2
72
6
73
3
74
0
42
0.000000001
43
0.0000000001
44
0.0000000001
40
0
40
0
40
0
40
1
40
1
40
1
10
689.01147908327653
20
-561.05186788786864
30
0
10
688.90527791140153
20
-562.75103895415282
30
0
10
688.81425923464371
20
-564.50332014311766
30
0
0
SPLINE
5
463
100
AcDbEntity
8
0
100
AcDbSpline
70
0
71
2
72
6
73
3
74
0
42
0.000000001
43
0.0000000001
44
0.0000000001
40
0
40
0
40
0
40
1
40
1
40
1
10
688.81425923464371
20
-564.50332014311766
30
0
10
688.7232405578859
20
-566.25559179533934
30
0
10
688.65495747683121
20
-567.97752706755614
30
0
0
SPLINE
5
464
100
AcDbEntity
8
0
100
AcDbSpline
70
0
71
2
72
6
73
3
74
0
42
0.000000001
43
0.0000000001
44
0.0000000001
40
0
40
0
40
0
40
1
40
1
40
1
10
688.65495747683121
20
-567.97752706755614
30
0
10
688.58669346926285
20
-569.69946233977294
30
0
10
688.53359288332535
20
-571.19382230986571
30
0
0
SPLINE
5
465
100
AcDbEntity
8
0
100
AcDbSpline
70
0
71
2
72
6
73
3
74
0
42
0.000000001
43
0.0000000001
44
0.0000000001
40
0
40
0
40
0
40
1
40
1
40
1
10
688.53359288332535
20
-571.19382230986571
30
0
10
688.48049229738785
20
-572.68819181670165
30
0
10
688.4577376281984
20
-573.87154905547118
30
0
0
SPLINE
5
466
100
AcDbEntity
8
0
100
AcDbSpline
70
0
71
2
72
6
73
3
74
0
42
0.000000001
43
0.0000000001
44
0.0000000001
40
0
40
0
40
0
40
1
40
1
40
1
10
688.4577376281984
20
-573.87154905547118
30
0
10
688.43498295900895
20
-575.05489675749754
30
0
10
688.43498295900895
20
-575.73760359038329
30
0
0
SPLINE
5
467
100
AcDbEntity
8
0
100
AcDbSpline
70
0
71
2
72
6
73
3
74
0
42
0.000000001
43
0.0000000001
44
0.0000000001
40
0
40
0
40
0
40
1
40
1
40
1
10
659.97377461550309
20
-586.49400083769774
30
0
10
660.50478047487809
20
-586.49400083769774
30
0
10
660.9144026672609
20
-586.71397535552001
30
0
0
SPLINE
5
468
100
AcDbEntity
8
0
100
AcDbSpline
70
0
71
2
72
6
73
3
74
0
42
0.000000001
43
0.0000000001
44
0.0000000001
40
0
40
0
40
0
40
1
40
1
40
1
10
660.9144026672609
20
-586.71397535552001
30
0
10
661.32402485964371
20
-586.9339689468286
30
0
10
661.61226338503434
20
-587.29049055327391
30
0
0
SPLINE
5
469
100
AcDbEntity
8
0
100
AcDbSpline
70
0
71
2
72
6
73
3
74
0
42
0.000000001
43
0.0000000001
44
0.0000000001
40
0
40
0
40
0
40
1
40
1
40
1
10
661.61226338503434
20
-587.29049055327391
30
0
10
661.90052098391129
20
-587.64701215971922
30
0
10
662.0522314941652
20
-588.10973493803954
30
0
0
SPLINE
5
470
100
AcDbEntity
8
0
100
AcDbSpline
70
0
71
2
72
6
73
3
74
0
42
0.000000001
43
0.0000000001
44
0.0000000001
40
0
40
0
40
0
40
1
40
1
40
1
10
662.0522314941652
20
-588.10973493803954
30
0
10
662.2039420044191
20
-588.57245771635985
30
0
10
662.2039420044191
20
-589.05793516386962
30
0
0
SPLINE
5
471
100
AcDbEntity
8
0
100
AcDbSpline
70
0
71
2
72
6
73
3
74
0
42
0.000000001
43
0.0000000001
44
0.0000000001
40
0
40
0
40
0
40
1
40
1
40
1
10
662.2039420044191
20
-589.05793516386962
30
0
10
662.2039420044191
20
-589.74064199675536
30
0
10
661.97637623903825
20
-590.2640470718286
30
0
0
SPLINE
5
472
100
AcDbEntity
8
0
100
AcDbSpline
70
0
71
2
72
6
73
3
74
0
42
0.000000001
43
0.0000000001
44
0.0000000001
40
0
40
0
40
0
40
1
40
1
40
1
10
661.97637623903825
20
-590.2640470718286
30
0
10
661.74881047365739
20
-590.78745214690184
30
0
10
661.38469761965348
20
-591.14397375334715
30
0
0
SPLINE
5
473
100
AcDbEntity
8
0
100
AcDbSpline
70
0
71
2
72
6
73
3
74
0
42
0.000000001
43
0.0000000001
44
0.0000000001
40
0
40
0
40
0
40
1
40
1
40
1
10
661.38469761965348
20
-591.14397375334715
30
0
10
661.0206038391359
20
-591.50050489653563
30
0
10
660.58061665651871
20
-591.67497007597899
30
0
0
SPLINE
5
474
100
AcDbEntity
8
0
100
AcDbSpline
70
0
71
2
72
6
73
3
74
0
42
0.000000001
43
0.0000000001
44
0.0000000001
40
0
40
0
40
0
40
1
40
1
40
1
10
660.58061665651871
20
-591.67497007597899
30
0
10
660.14066762087418
20
-591.84943525542235
30
0
10
659.71586293337418
20
-591.84943525542235
30
0
0
SPLINE
5
475
100
AcDbEntity
8
0
100
AcDbSpline
70
0
71
2
72
6
73
3
74
0
42
0.000000001
43
0.0000000001
44
0.0000000001
40
0
40
0
40
0
40
1
40
1
40
1
10
659.71586293337418
20
-591.84943525542235
30
0
10
659.20003956911637
20
-591.84943525542235
30
0
10
658.79041737673356
20
-591.65979711760497
30
0
0
SPLINE
5
476
100
AcDbEntity
8
0
100
AcDbSpline
70
0
71
2
72
6
73
3
74
0
42
0.000000001
43
0.0000000001
44
0.0000000001
40
0
40
0
40
0
40
1
40
1
40
1
10
658.79041737673356
20
-591.65979711760497
30
0
10
658.38079518435075
20
-591.47015897978758
30
0
10
658.08496541140153
20
-591.13639204253172
30
0
0
SPLINE
5
477
100
AcDbEntity
8
0
100
AcDbSpline
70
0
71
2
72
6
73
3
74
0
42
0.000000001
43
0.0000000001
44
0.0000000001
40
0
40
0
40
0
40
1
40
1
40
1
10
658.08496541140153
20
-591.13639204253172
30
0
10
657.78911656496598
20
-590.80262510527587
30
0
10
657.62983388063981
20
-590.3702482437036
30
0
0
SPLINE
5
478
100
AcDbEntity
8
0
100
AcDbSpline
70
0
71
2
72
6
73
3
74
0
42
0.000000001
43
0.0000000001
44
0.0000000001
40
0
40
0
40
0
40
1
40
1
40
1
10
657.62983388063981
20
-590.3702482437036
30
0
10
657.47053212282731
20
-589.93786184538817
30
0
10
657.47053212282731
20
-589.43721143950438
30
0
0
SPLINE
5
479
100
AcDbEntity
8
0
100
AcDbSpline
70
0
71
2
72
6
73
3
74
0
42
0.000000001
43
0.0000000001
44
0.0000000001
40
0
40
0
40
0
40
1
40
1
40
1
10
657.47053212282731
20
-589.43721143950438
30
0
10
657.47053212282731
20
-588.90622465361571
30
0
10
657.65256947634293
20
-588.3828100417993
30
0
0
SPLINE
5
480
100
AcDbEntity
8
0
100
AcDbSpline
70
0
71
2
72
6
73
3
74
0
42
0.000000001
43
0.0000000001
44
0.0000000001
40
0
40
0
40
0
40
1
40
1
40
1
10
657.65256947634293
20
-588.3828100417993
30
0
10
657.83464497683121
20
-587.85940496672606
30
0
10
658.16082066652848
20
-587.43460981596922
30
0
0
SPLINE
5
481
100
AcDbEntity
8
0
100
AcDbSpline
70
0
71
2
72
6
73
3
74
0
42
0.000000001
43
0.0000000001
44
0.0000000001
40
0
40
0
40
0
40
1
40
1
40
1
10
658.16082066652848
20
-587.43460981596922
30
0
10
658.48699635622575
20
-587.00982420195555
30
0
10
658.94971913454606
20
-586.75191251982665
30
0
0
SPLINE
5
482
100
AcDbEntity
8
0
100
AcDbSpline
70
0
71
2
72
6
73
3
74
0
42
0.000000001
43
0.0000000001
44
0.0000000001
40
0
40
0
40
0
40
1
40
1
40
1
10
658.94971913454606
20
-586.75191251982665
30
0
10
659.41244191286637
20
-586.49400083769774
30
0
10
659.97377461550309
20
-586.49400083769774
30
0
0
SPLINE
5
483
100
AcDbEntity
8
0
100
AcDbSpline
70
0
71
2
72
6
73
3
74
0
42
0.000000001
43
0.0000000001
44
0.0000000001
40
0
40
0
40
0
40
1
40
1
40
1
10
658.65388936159684
20
-579.6366056655786
30
0
10
658.91180104372575
20
-577.90708868254637
30
0
10
659.09383839724137
20
-576.16998045195555
30
0
0
SPLINE
5
484
100
AcDbEntity
8
0
100
AcDbSpline
70
0
71
2
72
6
73
3
74
0
42
0.000000001
43
0.0000000001
44
0.0000000001
40
0
40
0
40
0
40
1
40
1
40
1
10
659.09383839724137
20
-576.16998045195555
30
0
10
659.27591389772965
20
-574.4328817581079
30
0
10
659.38968724367692
20
-572.80955641020751
30
0
0
SPLINE
5
485
100
AcDbEntity
8
0
100
AcDbSpline
70
0
71
2
72
6
73
3
74
0
42
0.000000001
43
0.0000000001
44
0.0000000001
40
0
40
0
40
0
40
1
40
1
40
1
10
659.38968724367692
20
-572.80955641020751
30
0
10
659.50346058962418
20
-571.18624059905028
30
0
10
659.55656117556168
20
-569.73738996733641
30
0
0
SPLINE
5
486
100
AcDbEntity
8
0
100
AcDbSpline
70
0
71
2
72
6
73
3
74
0
42
0.000000001
43
0.0000000001
44
0.0000000001
40
0
40
0
40
0
40
1
40
1
40
1
10
659.55656117556168
20
-569.73738996733641
30
0
10
659.60966176149918
20
-568.28853933562254
30
0
10
659.60966176149918
20
-567.12035505522704
30
0
0
SPLINE
5
487
100
AcDbEntity
8
0
100
AcDbSpline
70
0
71
2
72
6
73
3
74
0
42
0.000000001
43
0.0000000001
44
0.0000000001
40
0
40
0
40
0
40
1
40
1
40
1
10
659.60966176149918
20
-567.12035505522704
30
0
10
659.60966176149918
20
-565.54254858244872
30
0
10
659.56415242312028
20
-564.41229192961669
30
0
0
SPLINE
5
488
100
AcDbEntity
8
0
100
AcDbSpline
70
0
71
2
72
6
73
3
74
0
42
0.000000001
43
0.0000000001
44
0.0000000001
40
0
40
0
40
0
40
1
40
1
40
1
10
659.56415242312028
20
-564.41229192961669
30
0
10
659.51864308474137
20
-563.28203527678465
30
0
10
659.41244191286637
20
-562.50830023039794
30
0
0
SPLINE
5
489
100
AcDbEntity
8
0
100
AcDbSpline
70
0
71
2
72
6
73
3
74
0
42
0.000000001
43
0.0000000001
44
0.0000000001
40
0
40
0
40
0
40
1
40
1
40
1
10
659.41244191286637
20
-562.50830023039794
30
0
10
659.30624074099137
20
-561.73457472075438
30
0
10
659.14693898317887
20
-561.27185194243407
30
0
0
SPLINE
5
490
100
AcDbEntity
8
0
100
AcDbSpline
70
0
71
2
72
6
73
3
74
0
42
0.000000001
43
0.0000000001
44
0.0000000001
40
0
40
0
40
0
40
1
40
1
40
1
10
659.14693898317887
20
-561.27185194243407
30
0
10
658.98763722536637
20
-560.80912916411376
30
0
10
658.75249928591325
20
-560.55879919280028
30
0
0
SPLINE
5
491
100
AcDbEntity
8
0
100
AcDbSpline
70
0
71
2
72
6
73
3
74
0
42
0.000000001
43
0.0000000001
44
0.0000000001
40
0
40
0
40
0
40
1
40
1
40
1
10
658.75249928591325
20
-560.55879919280028
30
0
10
658.51734227297379
20
-560.30847875822997
30
0
10
658.20633000490739
20
-560.23262350310301
30
0
0
SPLINE
5
492
100
AcDbEntity
8
0
100
AcDbSpline
70
0
71
2
72
6
73
3
74
0
42
0.000000001
43
0.0000000001
44
0.0000000001
40
0
40
0
40
0
40
1
40
1
40
1
10
658.20633000490739
20
-560.23262350310301
30
0
10
657.89531773684098
20
-560.15676824797606
30
0
10
657.50085896608903
20
-560.15676824797606
30
0
0
SPLINE
5
493
100
AcDbEntity
8
0
100
AcDbSpline
70
0
71
2
72
6
73
3
74
0
42
0.000000001
43
0.0000000001
44
0.0000000001
40
0
40
0
40
0
40
1
40
1
40
1
10
657.50085896608903
20
-560.15676824797606
30
0
10
656.77265233156754
20
-560.15676824797606
30
0
10
655.93065327761246
20
-560.37674276579833
30
0
0
SPLINE
5
494
100
AcDbEntity
8
0
100
AcDbSpline
70
0
71
2
72
6
73
3
74
0
42
0.000000001
43
0.0000000001
44
0.0000000001
40
0
40
0
40
0
40
1
40
1
40
1
10
655.93065327761246
20
-560.37674276579833
30
0
10
655.08863515017106
20
-560.59672682036376
30
0
10
654.22388142702653
20
-560.99118559111571
30
0
0
LINE
5
495
100
AcDbEntity
8
0
100
AcDbLine
10
654.22388142702675
20
-560.99118559111571
30
0
11
653.9356429016359
21
-560.20227758635497
31
0
0
SPLINE
5
496
100
AcDbEntity
8
0
100
AcDbSpline
70
0
71
2
72
6
73
3
74
0
42
0.000000001
43
0.0000000001
44
0.0000000001
40
0
40
0
40
0
40
1
40
1
40
1
10
653.9356429016359
20
-560.20227758635497
30
0
10
654.48179310915543
20
-559.76230947722411
30
0
10
655.30862874147965
20
-559.30717794646239
30
0
0
SPLINE
5
497
100
AcDbEntity
8
0
100
AcDbSpline
70
0
71
2
72
6
73
3
74
0
42
0.000000001
43
0.0000000001
44
0.0000000001
40
0
40
0
40
0
40
1
40
1
40
1
10
655.30862874147965
20
-559.30717794646239
30
0
10
656.13546437380387
20
-558.85203687895751
30
0
10
657.04572743532731
20
-558.47276060332274
30
0
0
SPLINE
5
498
100
AcDbEntity
8
0
100
AcDbSpline
70
0
71
2
72
6
73
3
74
0
42
0.000000001
43
0.0000000001
44
0.0000000001
40
0
40
0
40
0
40
1
40
1
40
1
10
657.04572743532731
20
-558.47276060332274
30
0
10
657.95600957033707
20
-558.09347479094481
30
0
10
658.8283545410402
20
-557.85832731474852
30
0
0
SPLINE
5
499
100
AcDbEntity
8
0
100
AcDbSpline
70
0
71
2
72
6
73
3
74
0
42
0.000000001
43
0.0000000001
44
0.0000000001
40
0
40
0
40
0
40
1
40
1
40
1
10
658.8283545410402
20
-557.85832731474852
30
0
10
659.70069951174332
20
-557.62317030180907
30
0
10
660.337887469507
20
-557.62317030180907
30
0
0
SPLINE
5
500
100
AcDbEntity
8
0
100
AcDbSpline
70
0
71
2
72
6
73
3
74
0
42
0.000000001
43
0.0000000001
44
0.0000000001
40
0
40
0
40
0
40
1
40
1
40
1
10
660.337887469507
20
-557.62317030180907
30
0
10
660.762692157007
20
-557.62317030180907
30
0
10
661.11162251589371
20
-557.69144384612059
30
0
0
SPLINE
5
501
100
AcDbEntity
8
0
100
AcDbSpline
70
0
71
2
72
6
73
3
74
0
42
0.000000001
43
0.0000000001
44
0.0000000001
40
0
40
0
40
0
40
1
40
1
40
1
10
661.11162251589371
20
-557.69144384612059
30
0
10
661.46055287478043
20
-557.75970785368895
30
0
10
661.74121922609879
20
-558.03279249419188
30
0
0
SPLINE
5
502
100
AcDbEntity
8
0
100
AcDbSpline
70
0
71
2
72
6
73
3
74
0
42
0.000000001
43
0.0000000001
44
0.0000000001
40
0
40
0
40
0
40
1
40
1
40
1
10
661.74121922609879
20
-558.03279249419188
30
0
10
662.02188557741715
20
-558.30587713469481
30
0
10
662.24187916872575
20
-558.83686392058348
30
0
0
SPLINE
5
503
100
AcDbEntity
8
0
100
AcDbSpline
70
0
71
2
72
6
73
3
74
0
42
0.000000001
43
0.0000000001
44
0.0000000001
40
0
40
0
40
0
40
1
40
1
40
1
10
662.24187916872575
20
-558.83686392058348
30
0
10
662.46185368654801
20
-559.36786024321532
30
0
10
662.60599202272965
20
-560.27813284148192
30
0
0
SPLINE
5
504
100
AcDbEntity
8
0
100
AcDbSpline
70
0
71
2
72
6
73
3
74
0
42
0.000000001
43
0.0000000001
44
0.0000000001
40
0
40
0
40
0
40
1
40
1
40
1
10
662.60599202272965
20
-560.27813284148192
30
0
10
662.75011128542496
20
-561.18840543974852
30
0
10
662.82596654055192
20
-562.55381910552001
30
0
0
SPLINE
5
505
100
AcDbEntity
8
0
100
AcDbSpline
70
0
71
2
72
6
73
3
74
0
42
0.000000001
43
0.0000000001
44
0.0000000001
40
0
40
0
40
0
40
1
40
1
40
1
10
662.82596654055192
20
-562.55381910552001
30
0
10
662.90182179567887
20
-563.91922323454833
30
0
10
662.90182179567887
20
-565.86114256133055
30
0
0
SPLINE
5
506
100
AcDbEntity
8
0
100
AcDbSpline
70
0
71
2
72
6
73
3
74
0
42
0.000000001
43
0.0000000001
44
0.0000000001
40
0
40
0
40
0
40
1
40
1
40
1
10
662.90182179567887
20
-565.86114256133055
30
0
10
662.90182179567887
20
-566.99898092497801
30
0
10
662.87906712648942
20
-568.43266813506102
30
0
0
SPLINE
5
507
100
AcDbEntity
8
0
100
AcDbSpline
70
0
71
2
72
6
73
3
74
0
42
0.000000001
43
0.0000000001
44
0.0000000001
40
0
40
0
40
0
40
1
40
1
40
1
10
662.87906712648942
20
-568.43266813506102
30
0
10
662.85631245729996
20
-569.86634580840087
30
0
10
662.81080311892106
20
-571.51241628874754
30
0
0
SPLINE
5
508
100
AcDbEntity
8
0
100
AcDbSpline
70
0
71
2
72
6
73
3
74
0
42
0.000000001
43
0.0000000001
44
0.0000000001
40
0
40
0
40
0
40
1
40
1
40
1
10
662.81080311892106
20
-571.51241628874754
30
0
10
662.76529378054215
20
-573.15849630583739
30
0
10
662.68941945192887
20
-574.98663274992919
30
0
0
SPLINE
5
509
100
AcDbEntity
8
0
100
AcDbSpline
70
0
71
2
72
6
73
3
74
0
42
0.000000001
43
0.0000000001
44
0.0000000001
40
0
40
0
40
0
40
1
40
1
40
1
10
662.68941945192887
20
-574.98663274992919
30
0
10
662.61356419680192
20
-576.81475965727782
30
0
10
662.49219960329606
20
-578.75667898406004
30
0
0
SPLINE
5
510
100
AcDbEntity
8
0
100
AcDbSpline
70
0
71
2
72
6
73
3
74
0
42
0.000000001
43
0.0000000001
44
0.0000000001
40
0
40
0
40
0
40
1
40
1
40
1
10
662.49219960329606
20
-578.75667898406004
30
0
10
662.46185368654801
20
-579.18147413481688
30
0
10
662.2646338379152
20
-579.44696752776122
30
0
0
SPLINE
5
511
100
AcDbEntity
8
0
100
AcDbSpline
70
0
71
2
72
6
73
3
74
0
42
0.000000001
43
0.0000000001
44
0.0000000001
40
0
40
0
40
0
40
1
40
1
40
1
10
662.2646338379152
20
-579.44696752776122
30
0
10
662.06739491579606
20
-579.71246092070555
30
0
10
661.77915639040543
20
-579.85658972014403
30
0
0
SPLINE
5
512
100
AcDbEntity
8
0
100
AcDbSpline
70
0
71
2
72
6
73
3
74
0
42
0.000000001
43
0.0000000001
44
0.0000000001
40
0
40
0
40
0
40
1
40
1
40
1
10
661.77915639040543
20
-579.85658972014403
30
0
10
661.49089879152848
20
-580.00071851958251
30
0
10
661.16472310183121
20
-580.05381910552001
30
0
0
SPLINE
5
513
100
AcDbEntity
8
0
100
AcDbSpline
70
0
71
2
72
6
73
3
74
0
42
0.000000001
43
0.0000000001
44
0.0000000001
40
0
40
0
40
0
40
1
40
1
40
1
10
661.16472310183121
20
-580.05381910552001
30
0
10
660.83852833864762
20
-580.10691969145751
30
0
10
660.56545323488785
20
-580.10691969145751
30
0
0
SPLINE
5
514
100
AcDbEntity
8
0
100
AcDbSpline
70
0
71
2
72
6
73
3
74
0
42
0.000000001
43
0.0000000001
44
0.0000000001
40
0
40
0
40
0
40
1
40
1
40
1
10
660.56545323488785
20
-580.10691969145751
30
0
10
659.54896992800309
20
-580.10691969145751
30
0
10
658.65388936159684
20
-579.6366056655786
30
0
0
SPLINE
5
515
100
AcDbEntity
8
0
100
AcDbSpline
70
0
71
2
72
6
73
3
74
0
42
0.000000001
43
0.0000000001
44
0.0000000001
40
0
40
0
40
0
40
1
40
1
40
1
10
640.08430546877457
20
-573.87154905547118
30
0
10
639.6595198547609
20
-574.70595686186766
30
0
10
639.6595198547609
20
-575.57072012175536
30
0
0
SPLINE
5
516
100
AcDbEntity
8
0
100
AcDbSpline
70
0
71
2
72
6
73
3
74
0
42
0.000000001
43
0.0000000001
44
0.0000000001
40
0
40
0
40
0
40
1
40
1
40
1
10
639.6595198547609
20
-575.57072012175536
30
0
10
639.6595198547609
20
-576.16239874114012
30
0
10
639.86433095095231
20
-576.68580381621337
30
0
0
SPLINE
5
517
100
AcDbEntity
8
0
100
AcDbSpline
70
0
71
2
72
6
73
3
74
0
42
0.000000001
43
0.0000000001
44
0.0000000001
40
0
40
0
40
0
40
1
40
1
40
1
10
639.86433095095231
20
-576.68580381621337
30
0
10
640.06914204714371
20
-577.20920889128661
30
0
10
640.47876423952653
20
-577.61124937285399
30
0
0
SPLINE
5
518
100
AcDbEntity
8
0
100
AcDbSpline
70
0
71
2
72
6
73
3
74
0
42
0.000000001
43
0.0000000001
44
0.0000000001
40
0
40
0
40
0
40
1
40
1
40
1
10
640.47876423952653
20
-577.61124937285399
30
0
10
640.88838643190934
20
-578.01328985442137
30
0
10
641.50281972048356
20
-578.24843733061766
30
0
0
SPLINE
5
519
100
AcDbEntity
8
0
100
AcDbSpline
70
0
71
2
72
6
73
3
74
0
42
0.000000001
43
0.0000000001
44
0.0000000001
40
0
40
0
40
0
40
1
40
1
40
1
10
641.50281972048356
20
-578.24843733061766
30
0
10
642.11725300905778
20
-578.48359434355712
30
0
10
642.9364973938234
20
-578.48359434355712
30
0
0
SPLINE
5
520
100
AcDbEntity
8
0
100
AcDbSpline
70
0
71
2
72
6
73
3
74
0
42
0.000000001
43
0.0000000001
44
0.0000000001
40
0
40
0
40
0
40
1
40
1
40
1
10
642.9364973938234
20
-578.48359434355712
30
0
10
644.11985463259293
20
-578.48359434355712
30
0
10
645.06046361086442
20
-578.06639044035887
30
0
0
SPLINE
5
521
100
AcDbEntity
8
0
100
AcDbSpline
70
0
71
2
72
6
73
3
74
0
42
0.000000001
43
0.0000000001
44
0.0000000001
40
0
40
0
40
0
40
1
40
1
40
1
10
645.06046361086442
20
-578.06639044035887
30
0
10
646.0010725891359
20
-577.64917700041747
30
0
10
646.72170704958512
20
-576.92096082915282
30
0
0
SPLINE
5
522
100
AcDbEntity
8
0
100
AcDbSpline
70
0
71
2
72
6
73
3
74
0
42
0.000000001
43
0.0000000001
44
0.0000000001
40
0
40
0
40
0
40
1
40
1
40
1
10
646.72170704958512
20
-576.92096082915282
30
0
10
647.44234151003434
20
-576.19274465788817
30
0
10
647.95057362673356
20
-575.2369531844995
30
0
0
SPLINE
5
523
100
AcDbEntity
8
0
100
AcDbSpline
70
0
71
2
72
6
73
3
74
0
42
0.000000001
43
0.0000000001
44
0.0000000001
40
0
40
0
40
0
40
1
40
1
40
1
10
647.95057362673356
20
-575.2369531844995
30
0
10
648.45880574343278
20
-574.28117124785399
30
0
10
648.78500050661637
20
-573.18884222258544
30
0
0
SPLINE
5
524
100
AcDbEntity
8
0
100
AcDbSpline
70
0
71
2
72
6
73
3
74
0
42
0.000000001
43
0.0000000001
44
0.0000000001
40
0
40
0
40
0
40
1
40
1
40
1
10
648.78500050661637
20
-573.18884222258544
30
0
10
649.11119526979996
20
-572.09651319731688
30
0
10
649.26290578005387
20
-570.95108358611083
30
0
0
SPLINE
5
525
100
AcDbEntity
8
0
100
AcDbSpline
70
0
71
2
72
6
73
3
74
0
42
0.000000001
43
0.0000000001
44
0.0000000001
40
0
40
0
40
0
40
1
40
1
40
1
10
649.26290578005387
20
-570.95108358611083
30
0
10
649.41461629030778
20
-569.80565397490477
30
0
10
649.41461629030778
20
-568.71333448637938
30
0
0
SPLINE
5
526
100
AcDbEntity
8
0
100
AcDbSpline
70
0
71
2
72
6
73
3
74
0
42
0.000000001
43
0.0000000001
44
0.0000000001
40
0
40
0
40
0
40
1
40
1
40
1
10
649.41461629030778
20
-568.71333448637938
30
0
10
649.41461629030778
20
-566.75624220122313
30
0
10
648.90636510012223
20
-565.15568105925536
30
0
0
SPLINE
5
527
100
AcDbEntity
8
0
100
AcDbSpline
70
0
71
2
72
6
73
3
74
0
42
0.000000001
43
0.0000000001
44
0.0000000001
40
0
40
0
40
0
40
1
40
1
40
1
10
648.90636510012223
20
-565.15568105925536
30
0
10
648.39813298342301
20
-563.55511991728758
30
0
10
647.53337926027848
20
-562.42486326445555
30
0
0
SPLINE
5
528
100
AcDbEntity
8
0
100
AcDbSpline
70
0
71
2
72
6
73
3
74
0
42
0.000000001
43
0.0000000001
44
0.0000000001
40
0
40
0
40
0
40
1
40
1
40
1
10
647.53337926027848
20
-562.42486326445555
30
0
10
646.66860646364762
20
-561.29460661162352
30
0
10
645.51559514162614
20
-560.67258207549071
30
0
0
SPLINE
5
529
100
AcDbEntity
8
0
100
AcDbSpline
70
0
71
2
72
6
73
3
74
0
42
0.000000001
43
0.0000000001
44
0.0000000001
40
0
40
0
40
0
40
1
40
1
40
1
10
645.51559514162614
20
-560.67258207549071
30
0
10
644.36258381960465
20
-560.05056707610106
30
0
10
643.05786198732926
20
-560.05056707610106
30
0
0
SPLINE
5
530
100
AcDbEntity
8
0
100
AcDbSpline
70
0
71
2
72
6
73
3
74
0
42
0.000000001
43
0.0000000001
44
0.0000000001
40
0
40
0
40
0
40
1
40
1
40
1
10
643.05786198732926
20
-560.05056707610106
30
0
10
641.67728489992692
20
-560.05056707610106
30
0
10
640.25877064821793
20
-560.77120153655028
30
0
0
SPLINE
5
531
100
AcDbEntity
8
0
100
AcDbSpline
70
0
71
2
72
6
73
3
74
0
42
0.000000001
43
0.0000000001
44
0.0000000001
40
0
40
0
40
0
40
1
40
1
40
1
10
640.25877064821793
20
-560.77120153655028
30
0
10
638.84027546999528
20
-561.49182646025633
30
0
10
637.50520772097184
20
-563.0999788497827
30
0
0
SPLINE
5
532
100
AcDbEntity
8
0
100
AcDbSpline
70
0
71
2
72
6
73
3
74
0
42
0.000000001
43
0.0000000001
44
0.0000000001
40
0
40
0
40
0
40
1
40
1
40
1
10
637.50520772097184
20
-563.0999788497827
30
0
10
637.4141699707277
20
-563.05446951140379
30
0
10
637.27005070803239
20
-562.97102300871825
30
0
0
SPLINE
5
533
100
AcDbEntity
8
0
100
AcDbSpline
70
0
71
2
72
6
73
3
74
0
42
0.000000001
43
0.0000000001
44
0.0000000001
40
0
40
0
40
0
40
1
40
1
40
1
10
637.27005070803239
20
-562.97102300871825
30
0
10
637.12591237185075
20
-562.88758604277587
30
0
10
637.00454777834489
20
-562.78138487090087
30
0
0
SPLINE
5
534
100
AcDbEntity
8
0
100
AcDbSpline
70
0
71
2
72
6
73
3
74
0
42
0.000000001
43
0.0000000001
44
0.0000000001
40
0
40
0
40
0
40
1
40
1
40
1
10
637.00454777834489
20
-562.78138487090087
30
0
10
636.88318318483903
20
-562.67518369902587
30
0
10
636.79214543459489
20
-562.56899206389403
30
0
0
SPLINE
5
535
100
AcDbEntity
8
0
100
AcDbSpline
70
0
71
2
72
6
73
3
74
0
42
0.000000001
43
0.0000000001
44
0.0000000001
40
0
40
0
40
0
40
1
40
1
40
1
10
636.79214543459489
20
-562.56899206389403
30
0
10
636.70112675783707
20
-562.46279089201903
30
0
10
636.70112675783707
20
-562.37176267851805
30
0
0
SPLINE
5
536
100
AcDbEntity
8
0
100
AcDbSpline
70
0
71
2
72
6
73
3
74
0
42
0.000000001
43
0.0000000001
44
0.0000000001
40
0
40
0
40
0
40
1
40
1
40
1
10
636.70112675783707
20
-562.37176267851805
30
0
10
636.70112675783707
20
-562.31108038176512
30
0
10
636.71629017946793
20
-562.2959074233911
30
0
0
LINE
5
537
100
AcDbEntity
8
0
100
AcDbLine
10
636.71629017946793
20
-562.2959074233911
30
0
11
636.74663609621598
21
-562.23522512663817
31
0
0
SPLINE
5
538
100
AcDbEntity
8
0
100
AcDbSpline
70
0
71
2
72
6
73
3
74
0
42
0.000000001
43
0.0000000001
44
0.0000000001
40
0
40
0
40
0
40
1
40
1
40
1
10
636.74663609621598
20
-562.23522512663817
30
0
10
638.21825093386246
20
-559.85333769072508
30
0
10
640.28152531740739
20
-558.66998045195555
30
0
0
SPLINE
5
539
100
AcDbEntity
8
0
100
AcDbSpline
70
0
71
2
72
6
73
3
74
0
42
0.000000001
43
0.0000000001
44
0.0000000001
40
0
40
0
40
0
40
1
40
1
40
1
10
640.28152531740739
20
-558.66998045195555
30
0
10
642.34481877443864
20
-557.48663274992919
30
0
10
644.80255192873551
20
-557.48663274992919
30
0
0
SPLINE
5
540
100
AcDbEntity
8
0
100
AcDbSpline
70
0
71
2
72
6
73
3
74
0
42
0.000000001
43
0.0000000001
44
0.0000000001
40
0
40
0
40
0
40
1
40
1
40
1
10
644.80255192873551
20
-557.48663274992919
30
0
10
646.13761967775895
20
-557.48663274992919
30
0
10
647.26028508303239
20
-557.85832731474852
30
0
0
SPLINE
5
541
100
AcDbEntity
8
0
100
AcDbSpline
70
0
71
2
72
6
73
3
74
0
42
0.000000001
43
0.0000000001
44
0.0000000001
40
0
40
0
40
0
40
1
40
1
40
1
10
647.26028508303239
20
-557.85832731474852
30
0
10
648.38296956179215
20
-558.23002187956786
30
0
10
649.29323262331559
20
-558.88996450652098
30
0
0
SPLINE
5
542
100
AcDbEntity
8
0
100
AcDbSpline
70
0
71
2
72
6
73
3
74
0
42
0.000000001
43
0.0000000001
44
0.0000000001
40
0
40
0
40
0
40
1
40
1
40
1
10
649.29323262331559
20
-558.88996450652098
30
0
10
650.20349568483903
20
-559.54991667021727
30
0
10
650.89380330202653
20
-560.45259802092528
30
0
0
SPLINE
5
543
100
AcDbEntity
8
0
100
AcDbSpline
70
0
71
2
72
6
73
3
74
0
42
0.000000001
43
0.0000000001
44
0.0000000001
40
0
40
0
40
0
40
1
40
1
40
1
10
650.89380330202653
20
-560.45259802092528
30
0
10
651.5840918457277
20
-561.35528890837645
30
0
10
652.04681462404801
20
-562.40969030608153
30
0
0
SPLINE
5
544
100
AcDbEntity
8
0
100
AcDbSpline
70
0
71
2
72
6
73
3
74
0
42
0.000000001
43
0.0000000001
44
0.0000000001
40
0
40
0
40
0
40
1
40
1
40
1
10
652.04681462404801
20
-562.40969030608153
30
0
10
652.50953740236832
20
-563.46409170378661
30
0
10
652.74469441530778
20
-564.62468473662352
30
0
0
SPLINE
5
545
100
AcDbEntity
8
0
100
AcDbSpline
70
0
71
2
72
6
73
3
74
0
42
0.000000001
43
0.0000000001
44
0.0000000001
40
0
40
0
40
0
40
1
40
1
40
1
10
652.74469441530778
20
-564.62468473662352
30
0
10
652.9798323547609
20
-565.7852873062036
30
0
10
652.9798323547609
20
-566.96864454497313
30
0
0
SPLINE
5
546
100
AcDbEntity
8
0
100
AcDbSpline
70
0
71
2
72
6
73
3
74
0
42
0.000000001
43
0.0000000001
44
0.0000000001
40
0
40
0
40
0
40
1
40
1
40
1
10
652.9798323547609
20
-566.96864454497313
30
0
10
652.9798323547609
20
-568.56161443938231
30
0
10
652.63090199587418
20
-570.16218511809325
30
0
0
SPLINE
5
547
100
AcDbEntity
8
0
100
AcDbSpline
70
0
71
2
72
6
73
3
74
0
42
0.000000001
43
0.0000000001
44
0.0000000001
40
0
40
0
40
0
40
1
40
1
40
1
10
652.63090199587418
20
-570.16218511809325
30
0
10
652.28197163698746
20
-571.76274626006102
30
0
10
651.60684651491715
20
-573.24194280852294
30
0
0
SPLINE
5
548
100
AcDbEntity
8
0
100
AcDbSpline
70
0
71
2
72
6
73
3
74
0
42
0.000000001
43
0.0000000001
44
0.0000000001
40
0
40
0
40
0
40
1
40
1
40
1
10
651.60684651491715
20
-573.24194280852294
30
0
10
650.93172139284684
20
-574.72112982024169
30
0
10
649.9683577453859
20
-576.00309698332762
30
0
0
SPLINE
5
549
100
AcDbEntity
8
0
100
AcDbSpline
70
0
71
2
72
6
73
3
74
0
42
0.000000001
43
0.0000000001
44
0.0000000001
40
0
40
0
40
0
40
1
40
1
40
1
10
649.9683577453859
20
-576.00309698332762
30
0
10
649.00499409792496
20
-577.28507368315672
30
0
10
647.78369969484879
20
-578.2332739089868
30
0
0
SPLINE
5
550
100
AcDbEntity
8
0
100
AcDbSpline
70
0
71
2
72
6
73
3
74
0
42
0.000000001
43
0.0000000001
44
0.0000000001
40
0
40
0
40
0
40
1
40
1
40
1
10
647.78369969484879
20
-578.2332739089868
30
0
10
646.56242436525895
20
-579.18147413481688
30
0
10
645.09080952761246
20
-579.72005216826415
30
0
0
SPLINE
5
551
100
AcDbEntity
8
0
100
AcDbSpline
70
0
71
2
72
6
73
3
74
0
42
0.000000001
43
0.0000000001
44
0.0000000001
40
0
40
0
40
0
40
1
40
1
40
1
10
645.09080952761246
20
-579.72005216826415
30
0
10
643.61919468996598
20
-580.25863020171141
30
0
10
641.95036000368668
20
-580.25863020171141
30
0
0
SPLINE
5
552
100
AcDbEntity
8
0
100
AcDbSpline
70
0
71
2
72
6
73
3
74
0
42
0.000000001
43
0.0000000001
44
0.0000000001
40
0
40
0
40
0
40
1
40
1
40
1
10
641.95036000368668
20
-580.25863020171141
30
0
10
640.70633000490739
20
-580.25863020171141
30
0
10
639.62917393801285
20
-579.9552091812036
30
0
0
SPLINE
5
553
100
AcDbEntity
8
0
100
AcDbSpline
70
0
71
2
72
6
73
3
74
0
42
0.000000001
43
0.0000000001
44
0.0000000001
40
0
40
0
40
0
40
1
40
1
40
1
10
639.62917393801285
20
-579.9552091812036
30
0
10
638.55201787111832
20
-579.65177862395262
30
0
10
637.77069157717301
20
-579.09802763213133
30
0
0
SPLINE
5
554
100
AcDbEntity
8
0
100
AcDbSpline
70
0
71
2
72
6
73
3
74
0
42
0.000000001
43
0.0000000001
44
0.0000000001
40
0
40
0
40
0
40
1
40
1
40
1
10
637.77069157717301
20
-579.09802763213133
30
0
10
636.98938435671403
20
-578.54428617705321
30
0
10
636.54182500002457
20
-577.7629598831079
30
0
0
SPLINE
5
555
100
AcDbEntity
8
0
100
AcDbSpline
70
0
71
2
72
6
73
3
74
0
42
0.000000001
43
0.0000000001
44
0.0000000001
40
0
40
0
40
0
40
1
40
1
40
1
10
636.54182500002457
20
-577.7629598831079
30
0
10
636.09428471682145
20
-576.98164312590575
30
0
10
636.09428471682145
20
-576.02586118926024
30
0
0
SPLINE
5
556
100
AcDbEntity
8
0
100
AcDbSpline
70
0
71
2
72
6
73
3
74
0
42
0.000000001
43
0.0000000001
44
0.0000000001
40
0
40
0
40
0
40
1
40
1
40
1
10
636.09428471682145
20
-576.02586118926024
30
0
10
636.09428471682145
20
-575.40383665312743
30
0
10
636.28391331789567
20
-574.92594091643309
30
0
0
SPLINE
5
557
100
AcDbEntity
8
0
100
AcDbSpline
70
0
71
2
72
6
73
3
74
0
42
0.000000001
43
0.0000000001
44
0.0000000001
40
0
40
0
40
0
40
1
40
1
40
1
10
636.28391331789567
20
-574.92594091643309
30
0
10
636.47356099245621
20
-574.44805471648192
30
0
10
636.81491917727067
20
-574.10669653166747
30
0
0
SPLINE
5
558
100
AcDbEntity
8
0
100
AcDbSpline
70
0
71
2
72
6
73
3
74
0
42
0.000000001
43
0.0000000001
44
0.0000000001
40
0
40
0
40
0
40
1
40
1
40
1
10
636.81491917727067
20
-574.10669653166747
30
0
10
637.15625828859879
20
-573.76534788359618
30
0
10
637.6189810669191
20
-573.59087316740965
30
0
0
SPLINE
5
559
100
AcDbEntity
8
0
100
AcDbSpline
70
0
71
2
72
6
73
3
74
0
42
0.000000001
43
0.0000000001
44
0.0000000001
40
0
40
0
40
0
40
1
40
1
40
1
10
637.6189810669191
20
-573.59087316740965
30
0
10
638.08170384523942
20
-573.41640798796629
30
0
10
638.62787312624528
20
-573.41640798796629
30
0
0
SPLINE
5
560
100
AcDbEntity
8
0
100
AcDbSpline
70
0
71
2
72
6
73
3
74
0
42
0.000000001
43
0.0000000001
44
0.0000000001
40
0
40
0
40
0
40
1
40
1
40
1
10
638.62787312624528
20
-573.41640798796629
30
0
10
638.96164006350114
20
-573.41640798796629
30
0
10
639.31816166994645
20
-573.48468153227782
30
0
0
SPLINE
5
561
100
AcDbEntity
8
0
100
AcDbSpline
70
0
71
2
72
6
73
3
74
0
42
0.000000001
43
0.0000000001
44
0.0000000001
40
0
40
0
40
0
40
1
40
1
40
1
10
639.31816166994645
20
-573.48468153227782
30
0
10
639.67468327639176
20
-573.55294553984618
30
0
10
640.02361363527848
20
-573.70465605010008
30
0
0
LINE
5
562
100
AcDbEntity
8
0
100
AcDbLine
10
640.02361363527848
20
-573.7046560501002
30
0
11
640.08430546877457
21
-573.87154905547118
31
0
0
SPLINE
5
563
100
AcDbEntity
8
0
100
AcDbSpline
70
0
71
2
72
6
73
3
74
0
42
0.000000001
43
0.0000000001
44
0.0000000001
40
0
40
0
40
0
40
1
40
1
40
1
10
618.31359929201676
20
-562.9937776779077
30
0
10
618.22256154177262
20
-562.94826833952879
30
0
10
618.07844227907731
20
-562.86482183684325
30
0
0
SPLINE
5
564
100
AcDbEntity
8
0
100
AcDbSpline
70
0
71
2
72
6
73
3
74
0
42
0.000000001
43
0.0000000001
44
0.0000000001
40
0
40
0
40
0
40
1
40
1
40
1
10
618.07844227907731
20
-562.86482183684325
30
0
10
617.934323016382
20
-562.78138487090087
30
0
10
617.81293934938981
20
-562.68277494658446
30
0
0
SPLINE
5
565
100
AcDbEntity
8
0
100
AcDbSpline
70
0
71
2
72
6
73
3
74
0
42
0.000000001
43
0.0000000001
44
0.0000000001
40
0
40
0
40
0
40
1
40
1
40
1
10
617.81293934938981
20
-562.68277494658446
30
0
10
617.69157475588395
20
-562.58415548552489
30
0
10
617.60055607912614
20
-562.47037260283446
30
0
0
SPLINE
5
566
100
AcDbEntity
8
0
100
AcDbSpline
70
0
71
2
72
6
73
3
74
0
42
0.000000001
43
0.0000000001
44
0.0000000001
40
0
40
0
40
0
40
1
40
1
40
1
10
617.60055607912614
20
-562.47037260283446
30
0
10
617.509518328882
20
-562.35658972014403
30
0
10
617.509518328882
20
-562.25038854826903
30
0
0
SPLINE
5
567
100
AcDbEntity
8
0
100
AcDbSpline
70
0
71
2
72
6
73
3
74
0
42
0.000000001
43
0.0000000001
44
0.0000000001
40
0
40
0
40
0
40
1
40
1
40
1
10
617.509518328882
20
-562.25038854826903
30
0
10
617.509518328882
20
-562.1897062515161
30
0
10
617.5550276672609
20
-562.12902395476317
30
0
0
SPLINE
5
568
100
AcDbEntity
8
0
100
AcDbSpline
70
0
71
2
72
6
73
3
74
0
42
0.000000001
43
0.0000000001
44
0.0000000001
40
0
40
0
40
0
40
1
40
1
40
1
10
617.5550276672609
20
-562.12902395476317
30
0
10
618.40461796877457
20
-560.94566671599364
30
0
10
619.3831641113527
20
-560.07332174529051
30
0
0
SPLINE
5
569
100
AcDbEntity
8
0
100
AcDbSpline
70
0
71
2
72
6
73
3
74
0
42
0.000000001
43
0.0000000001
44
0.0000000001
40
0
40
0
40
0
40
1
40
1
40
1
10
619.3831641113527
20
-560.07332174529051
30
0
10
620.36171025393082
20
-559.20097677458739
30
0
10
621.4161116516359
20
-558.61688940276122
30
0
0
SPLINE
5
570
100
AcDbEntity
8
0
100
AcDbSpline
70
0
71
2
72
6
73
3
74
0
42
0.000000001
43
0.0000000001
44
0.0000000001
40
0
40
0
40
0
40
1
40
1
40
1
10
621.4161116516359
20
-558.61688940276122
30
0
10
622.47051304934098
20
-558.03279249419188
30
0
10
623.56283253786637
20
-557.75212614287352
30
0
0
SPLINE
5
571
100
AcDbEntity
8
0
100
AcDbSpline
70
0
71
2
72
6
73
3
74
0
42
0.000000001
43
0.0000000001
44
0.0000000001
40
0
40
0
40
0
40
1
40
1
40
1
10
623.56283253786637
20
-557.75212614287352
30
0
10
624.65517109987809
20
-557.47145979155516
30
0
10
625.71714467165543
20
-557.47145979155516
30
0
0
SPLINE
5
572
100
AcDbEntity
8
0
100
AcDbSpline
70
0
71
2
72
6
73
3
74
0
42
0.000000001
43
0.0000000001
44
0.0000000001
40
0
40
0
40
0
40
1
40
1
40
1
10
625.71714467165543
20
-557.47145979155516
30
0
10
627.53768986818864
20
-557.47145979155516
30
0
10
629.05481404421403
20
-558.21484892119383
30
0
0
SPLINE
5
573
100
AcDbEntity
8
0
100
AcDbSpline
70
0
71
2
72
6
73
3
74
0
42
0.000000001
43
0.0000000001
44
0.0000000001
40
0
40
0
40
0
40
1
40
1
40
1
10
629.05481404421403
20
-558.21484892119383
30
0
10
630.57193822023942
20
-558.95823805083251
30
0
10
631.66425770876481
20
-560.24778692473387
30
0
0
SPLINE
5
574
100
AcDbEntity
8
0
100
AcDbSpline
70
0
71
2
72
6
73
3
74
0
42
0.000000001
43
0.0000000001
44
0.0000000001
40
0
40
0
40
0
40
1
40
1
40
1
10
631.66425770876481
20
-560.24778692473387
30
0
10
632.75659627077653
20
-561.5373453353784
30
0
10
633.37102955935075
20
-563.27445356596922
30
0
0
SPLINE
5
575
100
AcDbEntity
8
0
100
AcDbSpline
70
0
71
2
72
6
73
3
74
0
42
0.000000001
43
0.0000000001
44
0.0000000001
40
0
40
0
40
0
40
1
40
1
40
1
10
633.37102955935075
20
-563.27445356596922
30
0
10
633.98546284792496
20
-565.01155225981688
30
0
10
633.98546284792496
20
-566.99898092497801
30
0
0
SPLINE
5
576
100
AcDbEntity
8
0
100
AcDbSpline
70
0
71
2
72
6
73
3
74
0
42
0.000000001
43
0.0000000001
44
0.0000000001
40
0
40
0
40
0
40
1
40
1
40
1
10
633.98546284792496
20
-566.99898092497801
30
0
10
633.98546284792496
20
-568.6223062728784
30
0
10
633.62894124147965
20
-570.24562208403563
30
0
0
SPLINE
5
577
100
AcDbEntity
8
0
100
AcDbSpline
70
0
71
2
72
6
73
3
74
0
42
0.000000001
43
0.0000000001
44
0.0000000001
40
0
40
0
40
0
40
1
40
1
40
1
10
633.62894124147965
20
-570.24562208403563
30
0
10
633.27241963503434
20
-571.86894743193602
30
0
10
632.59729451296403
20
-573.34055273283934
30
0
0
SPLINE
5
578
100
AcDbEntity
8
0
100
AcDbSpline
70
0
71
2
72
6
73
3
74
0
42
0.000000001
43
0.0000000001
44
0.0000000001
40
0
40
0
40
0
40
1
40
1
40
1
10
632.59729451296403
20
-573.34055273283934
30
0
10
631.92216939089371
20
-574.81215803374266
30
0
10
630.95121449587418
20
-576.07896177519774
30
0
0
SPLINE
5
579
100
AcDbEntity
8
0
100
AcDbSpline
70
0
71
2
72
6
73
3
74
0
42
0.000000001
43
0.0000000001
44
0.0000000001
40
0
40
0
40
0
40
1
40
1
40
1
10
630.95121449587418
20
-576.07896177519774
30
0
10
629.98025960085465
20
-577.34575597990965
30
0
10
628.74380177614762
20
-578.27878324736571
30
0
0
SPLINE
5
580
100
AcDbEntity
8
0
100
AcDbSpline
70
0
71
2
72
6
73
3
74
0
42
0.000000001
43
0.0000000001
44
0.0000000001
40
0
40
0
40
0
40
1
40
1
40
1
10
628.74380177614762
20
-578.27878324736571
30
0
10
627.50734395144059
20
-579.21181051482176
30
0
10
626.02815693972184
20
-579.7428068374536
30
0
0
SPLINE
5
581
100
AcDbEntity
8
0
100
AcDbSpline
70
0
71
2
72
6
73
3
74
0
42
0.000000001
43
0.0000000001
44
0.0000000001
40
0
40
0
40
0
40
1
40
1
40
1
10
626.02815693972184
20
-579.7428068374536
30
0
10
624.54896992800309
20
-580.27379362334227
30
0
10
622.84978932497575
20
-580.27379362334227
30
0
0
SPLINE
5
582
100
AcDbEntity
8
0
100
AcDbSpline
70
0
71
2
72
6
73
3
74
0
42
0.000000001
43
0.0000000001
44
0.0000000001
40
0
40
0
40
0
40
1
40
1
40
1
10
622.84978932497575
20
-580.27379362334227
30
0
10
621.72712391970231
20
-580.27379362334227
30
0
10
620.71064061281754
20
-579.97037260283446
30
0
0
SPLINE
5
583
100
AcDbEntity
8
0
100
AcDbSpline
70
0
71
2
72
6
73
3
74
0
42
0.000000001
43
0.0000000001
44
0.0000000001
40
0
40
0
40
0
40
1
40
1
40
1
10
620.71064061281754
20
-579.97037260283446
30
0
10
619.6941763794191
20
-579.66695158232665
30
0
10
618.92803258059098
20
-579.09802763213133
30
0
0
SPLINE
5
584
100
AcDbEntity
8
0
100
AcDbSpline
70
0
71
2
72
6
73
3
74
0
42
0.000000001
43
0.0000000001
44
0.0000000001
40
0
40
0
40
0
40
1
40
1
40
1
10
618.92803258059098
20
-579.09802763213133
30
0
10
618.16188878176285
20
-578.52910368193602
30
0
10
617.70673817751481
20
-577.69469587553954
30
0
0
SPLINE
5
585
100
AcDbEntity
8
0
100
AcDbSpline
70
0
71
2
72
6
73
3
74
0
42
0.000000001
43
0.0000000001
44
0.0000000001
40
0
40
0
40
0
40
1
40
1
40
1
10
617.70673817751481
20
-577.69469587553954
30
0
10
617.25160664675309
20
-576.86027853239989
30
0
10
617.25160664675309
20
-575.79828588713622
30
0
0
SPLINE
5
586
100
AcDbEntity
8
0
100
AcDbSpline
70
0
71
2
72
6
73
3
74
0
42
0.000000001
43
0.0000000001
44
0.0000000001
40
0
40
0
40
0
40
1
40
1
40
1
10
617.25160664675309
20
-575.79828588713622
30
0
10
617.25160664675309
20
-574.25082533110594
30
0
10
618.26049870607926
20
-573.09781400908446
30
0
0
SPLINE
5
587
100
AcDbEntity
8
0
100
AcDbSpline
70
0
71
2
72
6
73
3
74
0
42
0.000000001
43
0.0000000001
44
0.0000000001
40
0
40
0
40
0
40
1
40
1
40
1
10
618.26049870607926
20
-573.09781400908446
30
0
10
619.2693716919191
20
-571.94480268706297
30
0
10
621.0444075500734
20
-571.14072172392821
30
0
0
SPLINE
5
588
100
AcDbEntity
8
0
100
AcDbSpline
70
0
71
2
72
6
73
3
74
0
42
0.000000001
43
0.0000000001
44
0.0000000001
40
0
40
0
40
0
40
1
40
1
40
1
10
621.0444075500734
20
-571.14072172392821
30
0
10
622.8194434082277
20
-570.33665029753661
30
0
10
625.22407597658707
20
-569.84359113921141
30
0
0
SPLINE
5
589
100
AcDbEntity
8
0
100
AcDbSpline
70
0
71
2
72
6
73
3
74
0
42
0.000000001
43
0.0000000001
44
0.0000000001
40
0
40
0
40
0
40
1
40
1
40
1
10
625.22407597658707
20
-569.84359113921141
30
0
10
627.62872761843278
20
-569.35052244414305
30
0
10
630.42022770998551
20
-569.10778372038817
30
0
0
LINE
5
590
100
AcDbEntity
8
0
100
AcDbLine
10
630.42022770998551
20
-569.10778372038817
30
0
11
630.42022770998551
21
-568.84987203825926
31
0
0
SPLINE
5
591
100
AcDbEntity
8
0
100
AcDbSpline
70
0
71
2
72
6
73
3
74
0
42
0.000000001
43
0.0000000001
44
0.0000000001
40
0
40
0
40
0
40
1
40
1
40
1
10
630.42022770998551
20
-568.84987203825926
30
0
10
630.42022770998551
20
-566.90795271147704
30
0
10
629.92715901491715
20
-565.29980985869383
30
0
0
SPLINE
5
592
100
AcDbEntity
8
0
100
AcDbSpline
70
0
71
2
72
6
73
3
74
0
42
0.000000001
43
0.0000000001
44
0.0000000001
40
0
40
0
40
0
40
1
40
1
40
1
10
629.92715901491715
20
-565.29980985869383
30
0
10
629.43409031984879
20
-563.69165746916747
30
0
10
628.56933659670426
20
-562.54622785796141
30
0
0
SPLINE
5
593
100
AcDbEntity
8
0
100
AcDbSpline
70
0
71
2
72
6
73
3
74
0
42
0.000000001
43
0.0000000001
44
0.0000000001
40
0
40
0
40
0
40
1
40
1
40
1
10
628.56933659670426
20
-562.54622785796141
30
0
10
627.70458287355973
20
-561.40080778349852
30
0
10
626.53638905642106
20
-560.76361028899169
30
0
0
SPLINE
5
594
100
AcDbEntity
8
0
100
AcDbSpline
70
0
71
2
72
6
73
3
74
0
42
0.000000001
43
0.0000000001
44
0.0000000001
40
0
40
0
40
0
40
1
40
1
40
1
10
626.53638905642106
20
-560.76361028899169
30
0
10
625.36821431276871
20
-560.12642233122801
30
0
10
624.01796406862809
20
-560.12642233122801
30
0
0
SPLINE
5
595
100
AcDbEntity
8
0
100
AcDbSpline
70
0
71
2
72
6
73
3
74
0
42
0.000000001
43
0.0000000001
44
0.0000000001
40
0
40
0
40
0
40
1
40
1
40
1
10
624.01796406862809
20
-560.12642233122801
30
0
10
622.65256947634293
20
-560.12642233122801
30
0
10
621.21889180300309
20
-560.80153791655516
30
0
0
SPLINE
5
596
100
AcDbEntity
8
0
100
AcDbSpline
70
0
71
2
72
6
73
3
74
0
42
0.000000001
43
0.0000000001
44
0.0000000001
40
0
40
0
40
0
40
1
40
1
40
1
10
621.21889180300309
20
-560.80153791655516
30
0
10
619.78519505617692
20
-561.47666303862547
30
0
10
618.31359929201676
20
-562.9937776779077
30
0
0
SPLINE
5
597
100
AcDbEntity
8
0
100
AcDbSpline
70
0
71
2
72
6
73
3
74
0
42
0.000000001
43
0.0000000001
44
0.0000000001
40
0
40
0
40
0
40
1
40
1
40
1
10
621.16579121706559
20
-575.17627088774657
30
0
10
621.16579121706559
20
-575.87415067900633
30
0
10
621.40092915651871
20
-576.48099272002196
30
0
0
SPLINE
5
598
100
AcDbEntity
8
0
100
AcDbSpline
70
0
71
2
72
6
73
3
74
0
42
0.000000001
43
0.0000000001
44
0.0000000001
40
0
40
0
40
0
40
1
40
1
40
1
10
621.40092915651871
20
-576.48099272002196
30
0
10
621.63608616945817
20
-577.08784429778075
30
0
10
622.05329960939957
20
-577.53539411772704
30
0
0
SPLINE
5
599
100
AcDbEntity
8
0
100
AcDbSpline
70
0
71
2
72
6
73
3
74
0
42
0.000000001
43
0.0000000001
44
0.0000000001
40
0
40
0
40
0
40
1
40
1
40
1
10
622.05329960939957
20
-577.53539411772704
30
0
10
622.47051304934098
20
-577.98294393767333
30
0
10
623.04700917360856
20
-578.24085561980223
30
0
0
SPLINE
5
600
100
AcDbEntity
8
0
100
AcDbSpline
70
0
71
2
72
6
73
3
74
0
42
0.000000001
43
0.0000000001
44
0.0000000001
40
0
40
0
40
0
40
1
40
1
40
1
10
623.04700917360856
20
-578.24085561980223
30
0
10
623.62352437136246
20
-578.49876730193114
30
0
10
624.29105824587418
20
-578.49876730193114
30
0
0
SPLINE
5
601
100
AcDbEntity
8
0
100
AcDbSpline
70
0
71
2
72
6
73
3
74
0
42
0.000000001
43
0.0000000001
44
0.0000000001
40
0
40
0
40
0
40
1
40
1
40
1
10
624.29105824587418
20
-578.49876730193114
30
0
10
625.27717656252457
20
-578.49876730193114
30
0
10
626.08125752565934
20
-578.14982740630126
30
0
0
SPLINE
5
602
100
AcDbEntity
8
0
100
AcDbSpline
70
0
71
2
72
6
73
3
74
0
42
0.000000001
43
0.0000000001
44
0.0000000001
40
0
40
0
40
0
40
1
40
1
40
1
10
626.08125752565934
20
-578.14982740630126
30
0
10
626.8853384887941
20
-577.80088751067137
30
0
10
627.52252644655778
20
-577.20162718047118
30
0
0
SPLINE
5
603
100
AcDbEntity
8
0
100
AcDbSpline
70
0
71
2
72
6
73
3
74
0
42
0.000000001
43
0.0000000001
44
0.0000000001
40
0
40
0
40
0
40
1
40
1
40
1
10
627.52252644655778
20
-577.20162718047118
30
0
10
628.15971440432145
20
-576.60236685027098
30
0
10
628.64519185183121
20
-575.80587713469481
30
0
0
SPLINE
5
604
100
AcDbEntity
8
0
100
AcDbSpline
70
0
71
2
72
6
73
3
74
0
42
0.000000001
43
0.0000000001
44
0.0000000001
40
0
40
0
40
0
40
1
40
1
40
1
10
628.64519185183121
20
-575.80587713469481
30
0
10
629.13066929934098
20
-575.00938741911864
30
0
10
629.47202748415543
20
-574.11428777922606
30
0
0
SPLINE
5
605
100
AcDbEntity
8
0
100
AcDbSpline
70
0
71
2
72
6
73
3
74
0
42
0.000000001
43
0.0000000001
44
0.0000000001
40
0
40
0
40
0
40
1
40
1
40
1
10
629.47202748415543
20
-574.11428777922606
30
0
10
629.81338566896989
20
-573.21917860259032
30
0
10
630.02576893923356
20
-572.27856962431883
30
0
0
SPLINE
5
606
100
AcDbEntity
8
0
100
AcDbSpline
70
0
71
2
72
6
73
3
74
0
42
0.000000001
43
0.0000000001
44
0.0000000001
40
0
40
0
40
0
40
1
40
1
40
1
10
630.02576893923356
20
-572.27856962431883
30
0
10
630.23817128298356
20
-571.33795110930419
30
0
10
630.32918995974137
20
-570.44285146941161
30
0
0
SPLINE
5
607
100
AcDbEntity
8
0
100
AcDbSpline
70
0
71
2
72
6
73
3
74
0
42
0.000000001
43
0.0000000001
44
0.0000000001
40
0
40
0
40
0
40
1
40
1
40
1
10
630.32918995974137
20
-570.44285146941161
30
0
10
628.17487782595231
20
-570.59456197966551
30
0
10
626.4681250488527
20
-570.96625654448485
30
0
0
SPLINE
5
608
100
AcDbEntity
8
0
100
AcDbSpline
70
0
71
2
72
6
73
3
74
0
42
0.000000001
43
0.0000000001
44
0.0000000001
40
0
40
0
40
0
40
1
40
1
40
1
10
626.4681250488527
20
-570.96625654448485
30
0
10
624.76135319826676
20
-571.33795110930419
30
0
10
623.58558720705582
20
-571.92204801787352
30
0
0
SPLINE
5
609
100
AcDbEntity
8
0
100
AcDbSpline
70
0
71
2
72
6
73
3
74
0
42
0.000000001
43
0.0000000001
44
0.0000000001
40
0
40
0
40
0
40
1
40
1
40
1
10
623.58558720705582
20
-571.92204801787352
30
0
10
622.40982121584489
20
-572.50613538969969
30
0
10
621.78779667971207
20
-573.31779806364989
30
0
0
SPLINE
5
610
100
AcDbEntity
8
0
100
AcDbSpline
70
0
71
2
72
6
73
3
74
0
42
0.000000001
43
0.0000000001
44
0.0000000001
40
0
40
0
40
0
40
1
40
1
40
1
10
621.78779667971207
20
-573.31779806364989
30
0
10
621.16579121706559
20
-574.12946073760008
30
0
10
621.16579121706559
20
-575.17627088774657
30
0
0
ENDSEC
0
SECTION
2
OBJECTS
0
DICTIONARY
5
C
100
AcDbDictionary
3
ACAD_GROUP
350
D
3
ACAD_MLINESTYLE
350
17
0
DICTIONARY
5
D
100
AcDbDictionary
0
DICTIONARY
5
1A
330
C
100
AcDbDictionary
0
DICTIONARY
5
17
100
AcDbDictionary
0
ENDSEC
0
EOF
