0
SECTION
2
HEADER
9
$INSUNITS
70
4
9
$ACADVER
1
AC1014
9
$HANDSEED
5
FFFF
0
ENDSEC
0
SECTION
2
TABLES
0
TABLE
2
VPORT
5
8
100
AcDbSymbolTable
0
ENDTAB
0
TABLE
2
LTYPE
5
5
100
AcDbSymbolTable
0
LTYPE
5
14
100
AcDbSymbolTableRecord
100
AcDbLinetypeTableRecord
2
BYBLOCK
70
0
0
LTYPE
5
15
100
AcDbSymbolTableRecord
100
AcDbLinetypeTableRecord
2
BYLAYER
70
0
0
ENDTAB
0
TABLE
2
LAYER
5
2
100
AcDbSymbolTable
70
2
0
LAYER
5
50
100
AcDbSymbolTableRecord
100
AcDbLayerTableRecord
2
0
70
0
6
CONTINUOUS
0
ENDTAB
0
TABLE
2
STYLE
5
3
100
AcDbSymbolTable
70
1
0
STYLE
5
11
100
AcDbSymbolTableRecord
100
AcDbTextStyleTableRecord
2
STANDARD
70
0
0
ENDTAB
0
TABLE
2
VIEW
5
6
100
AcDbSymbolTable
70
0
0
ENDTAB
0
TABLE
2
UCS
5
7
100
AcDbSymbolTable
70
0
0
ENDTAB
0
TABLE
2
APPID
5
9
100
AcDbSymbolTable
70
2
0
APPID
5
12
100
AcDbSymbolTableRecord
100
AcDbRegAppTableRecord
2
ACAD
70
0
0
ENDTAB
0
TABLE
2
DIMSTYLE
5
A
100
AcDbSymbolTable
70
1
0
ENDTAB
0
TABLE
2
BLOCK_RECORD
5
1
100
AcDbSymbolTable
70
1
0
BLOCK_RECORD
5
1F
100
AcDbSymbolTableRecord
100
AcDbBlockTableRecord
2
*MODEL_SPACE
0
BLOCK_RECORD
5
1B
100
AcDbSymbolTableRecord
100
AcDbBlockTableRecord
2
*PAPER_SPACE
0
ENDTAB
0
ENDSEC
0
SECTION
2
BLOCKS
0
BLOCK
5
20
100
AcDbEntity
100
AcDbBlockBegin
2
*MODEL_SPACE
0
ENDBLK
5
21
100
AcDbEntity
100
AcDbBlockEnd
0
BLOCK
5
1C
100
AcDbEntity
100
AcDbBlockBegin
2
*PAPER_SPACE
0
ENDBLK
5
1D
100
AcDbEntity
100
AcDbBlockEnd
0
ENDSEC
0
SECTION
2
ENTITIES
0
LWPOLYLINE
5
100
100
AcDbEntity
8
0
100
AcDbPolyline
90
25
70
1
43
0.0
10
-697.76925456867343
20
-642.9607063490721
42
-0.41421356237309503
10
-701.76925456867355
20
-638.9607063490721
10
-701.76925456867355
20
-626.4607063490721
10
-540.89925251378565
20
-626.46070634907221
10
-540.89925251378565
20
-525.12070634907207
10
-616.82897853453244
20
-525.12070634907207
10
-711.76925251378452
20
-504.94052814803274
10
-806.70952649303683
20
-525.12070634907207
10
-883.13800251378552
20
-525.12070634907207
10
-883.13800251378575
20
-626.4607063490721
10
-721.76925456867355
20
-626.4607063490721
10
-721.76925456867366
20
-638.9607063490721
42
-0.41421356237309503
10
-725.76925456867355
20
-642.9607063490721
10
-890.63800251378598
20
-642.9607063490721
42
-0.41421356237309503
10
-899.63800251378598
20
-633.9607063490721
10
-899.6380025137862
20
-517.62070634907218
42
-0.41421356237309503
10
-890.63800251378609
20
-508.62070634907218
10
-808.44374637492228
20
-508.62070634907212
10
-718.21451492913582
20
-489.44189115082793
42
-0.1051042352656729
10
-705.32399009843516
20
-489.44189115082793
10
-615.09475865264949
20
-508.62070634907207
10
-533.39925251378577
20
-508.62070634907207
42
-0.41421356237309503
10
-524.39925251378577
20
-517.62070634907207
10
-524.39925251378577
20
-633.9607063490721
42
-0.41421356237309503
10
-533.39925251378577
20
-642.9607063490721
0
CIRCLE
5
101
100
AcDbEntity
8
0
100
AcDbCircle
10
-534.89925251378565
20
-519.12070634907207
30
2.2204460492503131e-15
40
2.5
210
0
220
0
230
1
0
CIRCLE
5
102
100
AcDbEntity
8
0
100
AcDbCircle
10
-664.91596025747128
20
-632.4607063490721
30
2.2204460492503131e-15
40
2.5
210
0
220
0
230
1
0
CIRCLE
5
103
100
AcDbEntity
8
0
100
AcDbCircle
10
-534.89925251378577
20
-632.4607063490721
30
2.2204460492503131e-15
40
2.5
210
0
220
0
230
1
0
CIRCLE
5
104
100
AcDbEntity
8
0
100
AcDbCircle
10
-889.13800251378575
20
-632.46070634907187
30
2.2204460492503131e-15
40
2.5
210
0
220
0
230
1
0
CIRCLE
5
105
100
AcDbEntity
8
0
100
AcDbCircle
10
-758.62254477009833
20
-508.76545928376521
30
2.2204460492503131e-15
40
2.5
210
0
220
0
230
1
0
CIRCLE
5
106
100
AcDbEntity
8
0
100
AcDbCircle
10
-758.62254477009833
20
-632.4607063490721
30
2.2204460492503131e-15
40
2.5
210
0
220
0
230
1
0
CIRCLE
5
107
100
AcDbEntity
8
0
100
AcDbCircle
10
-664.91596025747083
20
-508.76545928376521
30
2.2204460492503131e-15
40
2.5
210
0
220
0
230
1
0
CIRCLE
5
108
100
AcDbEntity
8
0
100
AcDbCircle
10
-889.13800251378575
20
-519.12070634907207
30
2.2204460492503131e-15
40
2.5
210
0
220
0
230
1
0
LWPOLYLINE
5
109
100
AcDbEntity
8
0
100
AcDbPolyline
90
25
70
1
43
0.0
10
-697.76925456867343
20
-642.9607063490721
42
-0.41421356237309503
10
-701.76925456867355
20
-638.9607063490721
10
-701.76925456867355
20
-626.4607063490721
10
-540.89925251378565
20
-626.46070634907221
10
-540.89925251378565
20
-525.12070634907207
10
-616.82897853453244
20
-525.12070634907207
10
-711.76925251378452
20
-504.94052814803274
10
-806.70952649303683
20
-525.12070634907207
10
-883.13800251378552
20
-525.12070634907207
10
-883.13800251378575
20
-626.4607063490721
10
-721.76925456867355
20
-626.4607063490721
10
-721.76925456867366
20
-638.9607063490721
42
-0.41421356237310025
10
-725.76925456867355
20
-642.9607063490721
10
-890.63800251378598
20
-642.96070634907232
42
-0.41421356237309964
10
-899.63800251378598
20
-633.9607063490721
10
-899.6380025137862
20
-517.62070634907218
42
-0.41421356237309503
10
-890.63800251378609
20
-508.62070634907218
10
-808.44374637492228
20
-508.62070634907212
10
-718.21451492913582
20
-489.44189115082793
42
-0.10510423526567762
10
-705.32399009843516
20
-489.44189115082793
10
-615.09475865264949
20
-508.62070634907207
10
-533.39925251378577
20
-508.62070634907207
42
-0.41421356237309043
10
-524.39925251378577
20
-517.62070634907207
10
-524.39925251378565
20
-633.9607063490721
42
-0.41421356237309276
10
-533.39925251378577
20
-642.9607063490721
0
CIRCLE
5
110
100
AcDbEntity
8
0
100
AcDbCircle
10
-889.13800251378575
20
-519.12070634907207
30
0
40
2.5
210
0
220
0
230
1
0
CIRCLE
5
111
100
AcDbEntity
8
0
100
AcDbCircle
10
-664.91596025747083
20
-508.76545928376521
30
0
40
2.5
210
0
220
0
230
1
0
CIRCLE
5
112
100
AcDbEntity
8
0
100
AcDbCircle
10
-758.62254477009833
20
-632.4607063490721
30
0
40
2.5
210
0
220
0
230
1
0
CIRCLE
5
113
100
AcDbEntity
8
0
100
AcDbCircle
10
-758.62254477009833
20
-508.76545928376521
30
0
40
2.5
210
0
220
0
230
1
0
CIRCLE
5
114
100
AcDbEntity
8
0
100
AcDbCircle
10
-889.13800251378575
20
-632.46070634907187
30
0
40
2.5
210
0
220
0
230
1
0
CIRCLE
5
115
100
AcDbEntity
8
0
100
AcDbCircle
10
-534.89925251378577
20
-632.4607063490721
30
0
40
2.5
210
0
220
0
230
1
0
CIRCLE
5
116
100
AcDbEntity
8
0
100
AcDbCircle
10
-664.91596025747128
20
-632.4607063490721
30
0
40
2.5
210
0
220
0
230
1
0
CIRCLE
5
117
100
AcDbEntity
8
0
100
AcDbCircle
10
-534.89925251378565
20
-519.12070634907207
30
0
40
2.5
210
0
220
0
230
1
0
ENDSEC
0
SECTION
2
OBJECTS
0
DICTIONARY
5
C
100
AcDbDictionary
3
ACAD_GROUP
350
D
3
ACAD_MLINESTYLE
350
17
0
DICTIONARY
5
D
100
AcDbDictionary
0
DICTIONARY
5
1A
330
C
100
AcDbDictionary
0
DICTIONARY
5
17
100
AcDbDictionary
0
ENDSEC
0
EOF
