0
SECTION
2
HEADER
9
$INSUNITS
70
4
9
$ACADVER
1
AC1014
9
$HANDSEED
5
FFFF
0
ENDSEC
0
SECTION
2
TABLES
0
TABLE
2
VPORT
5
8
100
AcDbSymbolTable
0
ENDTAB
0
TABLE
2
LTYPE
5
5
100
AcDbSymbolTable
0
LTYPE
5
14
100
AcDbSymbolTableRecord
100
AcDbLinetypeTableRecord
2
BYBLOCK
70
0
0
LTYPE
5
15
100
AcDbSymbolTableRecord
100
AcDbLinetypeTableRecord
2
BYLAYER
70
0
0
ENDTAB
0
TABLE
2
LAYER
5
2
100
AcDbSymbolTable
70
2
0
LAYER
5
50
100
AcDbSymbolTableRecord
100
AcDbLayerTableRecord
2
0
70
0
6
CONTINUOUS
0
ENDTAB
0
TABLE
2
STYLE
5
3
100
AcDbSymbolTable
70
1
0
STYLE
5
11
100
AcDbSymbolTableRecord
100
AcDbTextStyleTableRecord
2
STANDARD
70
0
0
ENDTAB
0
TABLE
2
VIEW
5
6
100
AcDbSymbolTable
70
0
0
ENDTAB
0
TABLE
2
UCS
5
7
100
AcDbSymbolTable
70
0
0
ENDTAB
0
TABLE
2
APPID
5
9
100
AcDbSymbolTable
70
2
0
APPID
5
12
100
AcDbSymbolTableRecord
100
AcDbRegAppTableRecord
2
ACAD
70
0
0
ENDTAB
0
TABLE
2
DIMSTYLE
5
A
100
AcDbSymbolTable
70
1
0
ENDTAB
0
TABLE
2
BLOCK_RECORD
5
1
100
AcDbSymbolTable
70
1
0
BLOCK_RECORD
5
1F
100
AcDbSymbolTableRecord
100
AcDbBlockTableRecord
2
*MODEL_SPACE
0
BLOCK_RECORD
5
1B
100
AcDbSymbolTableRecord
100
AcDbBlockTableRecord
2
*PAPER_SPACE
0
ENDTAB
0
ENDSEC
0
SECTION
2
BLOCKS
0
BLOCK
5
20
100
AcDbEntity
100
AcDbBlockBegin
2
*MODEL_SPACE
0
ENDBLK
5
21
100
AcDbEntity
100
AcDbBlockEnd
0
BLOCK
5
1C
100
AcDbEntity
100
AcDbBlockBegin
2
*PAPER_SPACE
0
ENDBLK
5
1D
100
AcDbEntity
100
AcDbBlockEnd
0
ENDSEC
0
SECTION
2
ENTITIES
0
LINE
5
100
100
AcDbEntity
8
0
100
AcDbLine
10
701.76929155904986
20
-638.96070634907221
30
0
11
701.76929155904986
21
-638.4607063490721
31
0
0
LINE
5
101
100
AcDbEntity
8
0
100
AcDbLine
10
725.76929155903269
20
-642.96070634907221
30
0
11
890.63800251378598
21
-642.9607063490721
31
-2.2204460492503131e-15
0
ARC
5
102
100
AcDbEntity
8
0
100
AcDbCircle
10
890.63800251378598
20
-633.9607063490721
30
-2.2204460492503131e-15
40
8.9999999999999858
210
0
220
0
230
1
100
AcDbArc
50
-90
51
0
0
LINE
5
103
100
AcDbEntity
8
0
100
AcDbLine
10
899.63800251378598
20
-633.9607063490721
30
-2.2204460492503131e-15
11
899.63800251378598
21
-517.62070634907218
31
-2.2204460492503131e-15
0
ARC
5
104
100
AcDbEntity
8
0
100
AcDbCircle
10
890.63800251378609
20
-517.62070634907218
30
-2.2204460492503131e-15
40
8.9999999999999147
210
0
220
0
230
1
100
AcDbArc
50
0
51
90
0
LINE
5
105
100
AcDbEntity
8
0
100
AcDbLine
10
890.63800251378609
20
-508.62070634907218
30
-2.2204460492503131e-15
11
808.44374637492228
21
-508.62070634907212
31
-2.2204460492503131e-15
0
LINE
5
106
100
AcDbEntity
8
0
100
AcDbLine
10
808.44374637492228
20
-508.62070634907212
30
-2.2204460492503131e-15
11
718.21451492913582
21
-489.44189115082787
31
-2.2204460492503131e-15
0
ARC
5
107
100
AcDbEntity
8
0
100
AcDbCircle
10
711.76925251378543
20
-519.76446677357592
30
-2.2204460492503131e-15
40
31.000000000000053
210
0
220
-0
230
1
100
AcDbArc
50
78.000000000000313
51
101.99999999999949
0
LINE
5
108
100
AcDbEntity
8
0
100
AcDbLine
10
705.32399009843516
20
-489.44189115082787
30
-2.2204460492503131e-15
11
615.09475865264949
21
-508.62070634907207
31
-2.2204460492503131e-15
0
LINE
5
109
100
AcDbEntity
8
0
100
AcDbLine
10
615.09475865264949
20
-508.62070634907207
30
-2.2204460492503131e-15
11
533.39925251378577
21
-508.62070634907207
31
-2.2204460492503131e-15
0
ARC
5
110
100
AcDbEntity
8
0
100
AcDbCircle
10
533.39925251378577
20
-517.62070634907207
30
-2.2204460492503131e-15
40
8.9999999999999858
210
0
220
-0
230
1
100
AcDbArc
50
90
51
180
0
LINE
5
111
100
AcDbEntity
8
0
100
AcDbLine
10
524.39925251378577
20
-517.62070634907207
30
-2.2204460492503131e-15
11
524.39925251378577
21
-633.9607063490721
31
-2.2204460492503131e-15
0
ARC
5
112
100
AcDbEntity
8
0
100
AcDbCircle
10
533.39925251378577
20
-633.9607063490721
30
-2.2204460492503131e-15
40
8.9999999999999858
210
0
220
0
230
1
100
AcDbArc
50
180
51
270
0
LINE
5
113
100
AcDbEntity
8
0
100
AcDbLine
10
533.39925251378577
20
-642.9607063490721
30
-2.2204460492503131e-15
11
697.76929155904986
21
-642.96070634907221
31
0
0
LWPOLYLINE
5
114
100
AcDbEntity
8
0
100
AcDbPolyline
90
8
70
1
43
0.0
10
753.74127327967972
20
-555.74909227383523
10
765.4790444884851
20
-558.24403256364849
42
0.4142135623730136
10
766.66510378003693
20
-557.47379665373251
10
769.16004406984996
20
-545.73602544492667
42
0.41421356237311541
10
768.38980815993386
20
-544.54996615337518
10
756.65203695112825
20
-542.05502586356215
42
0.41421356237322154
10
755.46597765957654
20
-542.82526177347802
10
752.97103736976351
20
-554.56303298228374
42
0.41421356237307466
0
LWPOLYLINE
5
115
100
AcDbEntity
8
0
100
AcDbPolyline
90
8
70
1
43
0.0
10
778.90968945355553
20
-526.79597948355638
10
776.4147491637425
20
-538.53375069236199
42
0.41421356237305001
10
777.18498507365848
20
-539.71980998391382
10
788.92275628246409
20
-542.21475027372662
42
0.41421356237317647
10
790.10881557401581
20
-541.44451436381075
10
792.60375586382906
20
-529.70674315500514
42
0.41421356237300933
10
791.83351995391331
20
-528.52068386345366
10
780.09574874510747
20
-526.02574357364051
42
0.41421356237324619
0
LWPOLYLINE
5
116
100
AcDbEntity
8
0
100
AcDbPolyline
90
8
70
1
43
0.0
10
621.1647491637425
20
-570.30674315500505
10
623.65968945355553
20
-582.04451436381078
42
0.41421356237303397
10
624.84574874510713
20
-582.81475027372676
10
636.58351995391297
20
-580.31980998391373
42
0.41421356237302964
10
637.35375586382906
20
-579.13375069236213
10
634.85881557401603
20
-567.3959794835564
42
0.41421356237303397
10
633.67275628246432
20
-566.62574357364042
10
621.93498507365848
20
-569.12068386345345
42
0.41421356237307466
0
LWPOLYLINE
5
117
100
AcDbEntity
8
0
100
AcDbPolyline
90
8
70
1
43
0.0
10
655.98746765780788
20
-575.17303298228387
42
-0.41421356237317647
10
655.2172317478919
20
-576.35909227383536
10
643.47946053908618
20
-578.8540325636485
42
-0.4142135623731808
10
642.29340124753446
20
-578.08379665373241
10
639.79846095772177
20
-566.34602544492679
42
-0.4142135623730136
10
640.56869686763764
20
-565.15996615337508
10
652.30646807644348
20
-562.66502586356205
42
-0.41421356237294826
10
653.49252736799485
20
-563.43526177347815
0
LWPOLYLINE
5
118
100
AcDbEntity
8
0
100
AcDbPolyline
90
8
70
1
43
0.0
10
753.3913919860579
20
-574.12307894365415
10
755.88633227587081
20
-562.38530773484831
42
0.41421356237311541
10
755.11609636595495
20
-561.19924844329694
10
743.37832515714922
20
-558.70430815348368
42
0.41421356237309503
10
742.19226586559773
20
-559.47454406339966
10
739.6973255757847
20
-571.21231527220539
42
0.41421356237311541
10
740.46756148570068
20
-572.39837456375699
10
752.2053326945063
20
-574.89331485357002
42
0.41421356237298895
0
LWPOLYLINE
5
119
100
AcDbEntity
8
0
100
AcDbPolyline
90
8
70
1
43
0.0
10
595.69925251378561
20
-606.82024692368361
10
595.69925251378561
20
-618.82024692368361
42
0.41421356237301177
10
596.69925251378561
20
-619.8202469236835
10
608.69925251378561
20
-619.82024692368338
42
0.41421356237311585
10
609.6992525137855
20
-618.82024692368361
10
609.69925251378561
20
-606.82024692368361
42
0.41421356237309503
10
608.69925251378561
20
-605.8202469236835
10
596.69925251378561
20
-605.8202469236835
42
0.41421356237313667
0
LWPOLYLINE
5
120
100
AcDbEntity
8
0
100
AcDbPolyline
90
8
70
1
43
0.0
10
772.37498507365888
20
-559.70980998391371
10
784.11275628246415
20
-562.20475027372663
42
0.41421356237317647
10
785.29881557401586
20
-561.43451436381065
10
787.79375586382923
20
-549.69674315500504
42
0.4142135623731808
10
787.02351995391268
20
-548.51068386345344
10
775.28574874510741
20
-546.01574357364041
42
0.41421356237307039
10
774.09968945355581
20
-546.7859794835565
10
771.60474916374255
20
-558.52375069236211
42
0.4142135623731808
0
LWPOLYLINE
5
121
100
AcDbEntity
8
0
100
AcDbPolyline
90
8
70
1
43
0.0
10
626.51474916374252
20
-549.69674315500504
10
629.00968945355555
20
-561.43451436381065
42
0.41421356237309503
10
630.19574874510693
20
-562.20475027372675
10
641.93351995391299
20
-559.70980998391371
42
0.41421356237307466
10
642.70375586382886
20
-558.52375069236211
10
640.20881557401583
20
-546.7859794835565
42
0.41421356237305429
10
639.02275628246446
20
-546.01574357364041
10
627.28498507365862
20
-548.51068386345355
42
0.41421356237298895
0
LWPOLYLINE
5
122
100
AcDbEntity
8
0
100
AcDbPolyline
90
8
70
1
43
0.0
10
705.83489124576568
20
-603.53159756212722
10
703.33995095595287
20
-591.79382635332149
42
0.41421356237314011
10
702.15389166440127
20
-591.0235904434054
10
690.41612045559555
20
-593.51853073321865
42
0.41421356237311974
10
689.64588454567979
20
-594.70459002477014
10
692.14082483549259
20
-606.44236123357587
42
0.41421356237300933
10
693.32688412704442
20
-607.21259714349196
10
705.06465533585003
20
-604.71765685367882
42
0.4142135623730383
0
LWPOLYLINE
5
123
100
AcDbEntity
8
0
100
AcDbPolyline
90
8
70
1
43
0.0
10
703.74375586382871
20
-526.07375069236218
10
701.24881557401579
20
-514.33597948355646
42
0.4142135623731808
10
700.06275628246442
20
-513.56574357364036
10
685.99699378391188
20
-516.55551368759984
42
0.41421356237301798
10
685.22675787399612
20
-517.74157297915133
10
687.72169816380926
20
-529.47934418795694
42
0.41421356237307039
10
688.90775745536064
20
-530.24958009787304
10
702.97351995391284
20
-527.25980998391367
42
0.41421356237307039
0
LWPOLYLINE
5
124
100
AcDbEntity
8
0
100
AcDbPolyline
90
8
70
1
43
0.0
10
674.69317233306526
20
-611.17331485357022
42
-0.41421356237307466
10
673.50711304151355
20
-610.40307894365412
10
671.0121727517004
20
-598.66530773484851
42
-0.4142135623730383
10
671.78240866161661
20
-597.47924844329691
10
683.52017987042234
20
-594.98430815348365
42
-0.41421356237311974
10
684.70623916197371
20
-595.75454406339975
10
687.20117945178708
20
-607.49231527220547
42
-0.41421356237317647
10
686.43094354187099
20
-608.67837456375707
0
LWPOLYLINE
5
125
100
AcDbEntity
8
0
100
AcDbPolyline
90
8
70
1
43
0.0
10
792.38351995391281
20
-569.12068386345356
10
780.64574874510754
20
-566.62574357364042
42
0.41421356237316048
10
779.4596894535556
20
-567.3959794835564
10
776.96474916374268
20
-579.13375069236213
42
0.4142135623731808
10
777.73498507365844
20
-580.31980998391373
10
789.47275628246416
20
-582.8147502737263
42
0.41421356237305429
10
790.65881557401565
20
-582.04451436381078
10
793.15375586382925
20
-570.30674315500494
42
0.41421356237319679
0
LWPOLYLINE
5
126
100
AcDbEntity
8
0
100
AcDbPolyline
90
8
70
1
43
0.0
10
693.25489124576609
20
-567.25159756212724
42
-0.41421356237302964
10
692.48465533584988
20
-568.43765685367885
10
680.74688412704427
20
-570.93259714349188
42
-0.41421356237316048
10
679.56082483549278
20
-570.16236123357589
10
677.06588454567964
20
-558.42459002477017
42
-0.41421356237307039
10
677.83612045559551
20
-557.23853073321857
10
689.57389166440123
20
-554.74359044340542
42
-0.41421356237300933
10
690.75995095595306
20
-555.51382635332152
0
LWPOLYLINE
5
127
100
AcDbEntity
8
0
100
AcDbPolyline
90
8
70
1
43
0.0
10
720.29855407161836
20
-593.7738263533214
42
-0.41421356237309503
10
721.4846133631703
20
-593.0035904434053
10
733.22238457197614
20
-595.49853073321856
42
-0.41421356237303397
10
733.99262048189189
20
-596.68459002477005
10
731.49768019207886
20
-608.42236123357577
42
-0.41421356237303397
10
730.31162090052703
20
-609.19259714349187
10
718.57384969172153
20
-606.69765685367872
42
-0.41421356237317647
10
717.80361378180555
20
-605.51159756212712
0
LWPOLYLINE
5
128
100
AcDbEntity
8
0
100
AcDbPolyline
90
8
70
1
43
0.0
10
751.85609636595495
20
-599.45924844329681
42
-0.41421356237302964
10
752.62633227587105
20
-600.64530773484853
10
750.13139198605802
20
-612.38307894365403
42
-0.41421356237305001
10
748.94533269450619
20
-613.15331485357012
10
737.20756148570058
20
-610.65837456375698
42
-0.41421356237313572
10
736.4373255757846
20
-609.47231527220538
10
738.93226586559763
20
-597.73454406339977
42
-0.41421356237294826
10
740.11832515714923
20
-596.96430815348367
0
LWPOLYLINE
5
129
100
AcDbEntity
8
0
100
AcDbPolyline
90
8
70
1
43
0.0
10
663.7821727517005
20
-541.77530773484841
42
-0.41421356237296425
10
664.5524086616166
20
-540.58924844329681
10
676.29017987042232
20
-538.09430815348367
42
-0.4142135623731808
10
677.47623916197369
20
-538.86454406339976
10
679.97117945178707
20
-550.60231527220549
42
-0.4142135623729396
10
679.20094354187086
20
-551.78837456375709
10
667.46317233306513
20
-554.28331485357023
42
-0.41421356237309503
10
666.27711304151376
20
-553.51307894365414
0
LWPOLYLINE
5
130
100
AcDbEntity
8
0
100
AcDbPolyline
90
8
70
1
43
0.0
10
733.57226586559773
20
-577.12454406339975
42
-0.41421356237309503
10
734.75832515714933
20
-576.35430815348377
10
746.49609636595528
20
-578.8492484432968
42
-0.41421356237298895
10
747.26633227587104
20
-580.0353077348484
10
744.77139198605801
20
-591.77307894365413
42
-0.4142135623730136
10
743.58533269450618
20
-592.54331485357011
10
731.84756148570045
20
-590.04837456375708
42
-0.41421356237294826
10
731.07732557578447
20
-588.86231527220525
0
LWPOLYLINE
5
131
100
AcDbEntity
8
0
100
AcDbPolyline
90
8
70
1
43
0.0
10
817.6092525137858
20
-568.72024692368359
10
817.6092525137858
20
-580.72024692368359
42
0.41421356237297013
10
818.6092525137858
20
-581.7202469236837
10
830.60925251378592
20
-581.72024692368382
42
0.41421356237309503
10
831.60925251378615
20
-580.72024692368359
10
831.60925251378569
20
-568.72024692368359
42
0.41421356237307422
10
830.60925251378592
20
-567.72024692368359
10
818.6092525137858
20
-567.72024692368336
42
0.41421356237301177
0
LWPOLYLINE
5
132
100
AcDbEntity
8
0
100
AcDbPolyline
90
29
70
1
43
0.0
10
838.44425251378595
20
-549.67024692368352
10
838.4442525137855
20
-561.67024692368364
42
0.41421356237301177
10
839.44425251378561
20
-562.67024692368364
10
839.53125179006634
20
-562.67024692368364
10
839.53125179006622
20
-563.25524416041253
42
0.41421420394514302
10
840.53125195397911
20
-564.25524618697011
10
845.53125277354297
20
-564.25524618697057
42
0.41421420394487246
10
846.53125293745586
20
-563.25524416041253
10
846.53125293745575
20
-562.67024692368364
10
860.96925251378593
20
-562.67024692368318
42
0.41421356237309503
10
861.96925251378559
20
-561.67024692368364
10
861.96925081505356
20
-548.67024835419534
10
863.40725251379183
20
-548.67024835419534
10
863.40725384845314
20
-563.25524416041253
42
0.41421365839007451
10
864.40725214972053
20
-564.25524618697045
10
869.40725110663948
20
-564.25524618697057
42
0.41421474950339798
10
870.40725313319751
20
-563.25524416041253
10
870.4072531331974
20
-562.67024692368364
10
877.63800251378598
20
-562.67024692368352
42
0.41421356237299095
10
878.63800251378564
20
-561.67024692368364
10
878.63800251378575
20
-549.67024692368364
42
0.41421356237303258
10
877.63800251378598
20
-548.67024692368341
10
870.40725251379013
20
-548.67024692368364
10
870.40725313319729
20
-546.31524648737786
42
0.41421474950314824
10
869.40725110663948
20
-545.31524446081994
10
840.53125195397899
20
-545.31524446081971
42
0.41421420394662062
10
839.53125179006565
20
-546.31524648737786
10
839.53125251379049
20
-548.67024692368364
10
839.44425251378561
20
-548.67024692368386
42
0.41421356237309503
0
LWPOLYLINE
5
133
100
AcDbEntity
8
0
100
AcDbPolyline
90
8
70
1
43
0.0
10
813.24925251378602
20
-562.67024692368364
10
825.2492525137859
20
-562.67024692368329
42
0.41421356237309503
10
826.24925251378556
20
-561.67024692368364
10
826.24925251378602
20
-549.67024692368352
42
0.4142135623730534
10
825.2492525137859
20
-548.67024692368364
10
813.24925251378602
20
-548.67024692368341
42
0.41421356237303258
10
812.2492525137859
20
-549.67024692368352
10
812.2492525137859
20
-561.67024692368364
42
0.41421356237301177
0
LWPOLYLINE
5
134
100
AcDbEntity
8
0
100
AcDbPolyline
90
8
70
1
43
0.0
10
827.92925251378563
20
-618.82024692368361
42
-0.41421356237309503
10
826.92925251378597
20
-619.82024692368327
10
814.92925251378551
20
-619.8202469236835
42
-0.41421356237297013
10
813.9292525137854
20
-618.82024692368361
10
813.92925251378585
20
-606.82024692368361
42
-0.41421356237309503
10
814.92925251378551
20
-605.82024692368395
10
826.92925251378597
20
-605.8202469236835
42
-0.41421356237311585
10
827.92925251378597
20
-606.8202469236835
0
LWPOLYLINE
5
135
100
AcDbEntity
8
0
100
AcDbPolyline
90
8
70
1
43
0.0
10
870.19485251378569
20
-542.57224692368357
10
870.19485251378626
20
-530.57224692368368
42
0.41421356237303258
10
869.19485251378592
20
-529.57224692368345
10
857.19485251378558
20
-529.57224692368368
42
0.41421356237301177
10
856.1948525137858
20
-530.57224692368345
10
856.1948525137858
20
-542.57224692368357
42
0.41421356237307422
10
857.19485251378558
20
-543.57224692368357
10
869.19485251378592
20
-543.57224692368311
42
0.4142135623731783
0
LWPOLYLINE
5
136
100
AcDbEntity
8
0
100
AcDbPolyline
90
8
70
1
43
0.0
10
796.29925251378586
20
-621.9602469236836
10
808.29925251378597
20
-621.96024692368326
42
0.41421356237307422
10
809.29925251378563
20
-620.9602469236836
10
809.29925251378575
20
-608.9602469236836
42
0.41421356237303258
10
808.29925251378597
20
-607.96024692368348
10
796.29925251378586
20
-607.9602469236836
42
0.41421356237301177
10
795.29925251378586
20
-608.9602469236836
10
795.29925251378586
20
-620.96024692368348
42
0.41421356237311585
0
LWPOLYLINE
5
137
100
AcDbEntity
8
0
100
AcDbPolyline
90
8
70
1
43
0.0
10
802.93925251378596
20
-587.8302469236836
42
-0.41421356237299095
10
803.93925251378562
20
-588.83024692368349
10
803.93925251378562
20
-600.83024692368349
42
-0.41421356237309503
10
802.93925251378596
20
-601.83024692368326
10
790.93925251378573
20
-601.8302469236836
42
-0.41421356237311585
10
789.93925251378585
20
-600.83024692368349
10
789.93925251378585
20
-588.83024692368349
42
-0.4142135623730534
10
790.93925251378573
20
-587.83024692368372
0
LWPOLYLINE
5
138
100
AcDbEntity
8
0
100
AcDbPolyline
90
20
70
1
43
0.0
10
841.1212556792691
20
-585.07524938654706
10
869.99725483192947
20
-585.07524938654717
42
0.41421420394664143
10
870.99725499584235
20
-584.07524735998936
10
870.99725499584247
20
-567.13524968695481
42
0.41421420394505976
10
869.99725483192947
20
-566.135247660397
10
864.9972540123656
20
-566.13524766039654
42
0.41421420394483083
10
863.99725384845283
20
-567.13524968695469
10
863.997252513783
20
-581.72024549317189
10
862.55925454034355
20
-581.72024549317189
10
862.55925454034582
20
-568.72024692368359
42
0.41421415593785138
10
861.55925251378562
20
-567.72024692368348
10
849.5592525137738
20
-567.72024346662045
42
0.41421254982074557
10
848.55925251378596
20
-568.72024692368359
10
848.55925597085502
20
-581.72024549317166
10
847.12125251377995
20
-581.72024549317166
10
847.12125293745555
20
-567.13524968695447
42
0.41421365839019941
10
846.12125463618804
20
-566.13524766039654
10
841.1212556792691
20
-566.13524766039632
42
0.41421474950331472
10
840.12125365271106
20
-567.13524968695447
10
840.12125365271118
20
-584.07524735998913
42
0.41421474950318987
0
LWPOLYLINE
5
139
100
AcDbEntity
8
0
100
AcDbPolyline
90
8
70
1
43
0.0
10
726.13768019207873
20
-587.81236123357576
10
728.63262048189199
20
-576.07459002477015
42
0.41421356237309503
10
727.86238457197555
20
-574.88853073321843
10
716.12461336317028
20
-572.3935904434054
42
0.4142135623731561
10
714.93855407161868
20
-573.16382635332138
10
712.44361378180554
20
-584.90159756212711
42
0.41421356237302964
10
713.21384969172175
20
-586.08765685367871
10
724.95162090052747
20
-588.58259714349174
42
0.41421356237296425
0
LWPOLYLINE
5
140
100
AcDbEntity
8
0
100
AcDbPolyline
90
8
70
1
43
0.0
10
812.55925251378596
20
-580.72024692368359
10
812.55925251378585
20
-568.72024692368359
42
0.41421356237313667
10
811.55925251378574
20
-567.72024692368359
10
799.55925251378574
20
-567.72024692368336
42
0.41421356237309503
10
798.55925251378551
20
-568.72024692368359
10
798.55925251378585
20
-580.72024692368359
42
0.41421356237307422
10
799.55925251378574
20
-581.7202469236837
10
811.55925251378574
20
-581.72024692368359
42
0.41421356237309503
0
LWPOLYLINE
5
141
100
AcDbEntity
8
0
100
AcDbPolyline
90
8
70
1
43
0.0
10
752.20597765957677
20
-581.08526177347812
10
749.71103736976363
20
-592.82303298228373
42
0.41421356237298895
10
750.48127327967961
20
-594.00909227383534
10
762.21904448848522
20
-596.50403256364848
42
0.41421356237307466
10
763.40510378003717
20
-595.7337966537325
10
765.90004406984986
20
-583.99602544492677
42
0.41421356237302964
10
765.12980815993376
20
-582.80996615337506
10
753.39203695112838
20
-580.31502586356203
42
0.41421356237305001
0
LWPOLYLINE
5
142
100
AcDbEntity
8
0
100
AcDbPolyline
90
8
70
1
43
0.0
10
773.74980815993376
20
-565.15996615337531
42
-0.41421356237313572
10
774.52004406984997
20
-566.34602544492679
10
772.02510378003694
20
-578.08379665373241
42
-0.41421356237298462
10
770.83904448848534
20
-578.85403256364827
10
759.10127327967962
20
-576.35909227383547
42
-0.41421356237295254
10
758.33103736976352
20
-575.17303298228364
10
760.82597765957667
20
-563.43526177347815
42
-0.41421356237298462
10
762.01203695112793
20
-562.66502586356205
0
LWPOLYLINE
5
143
100
AcDbEntity
8
0
100
AcDbPolyline
90
8
70
1
43
0.0
10
698.60489124576588
20
-546.64159756212712
10
696.10995095595297
20
-534.90382635332151
42
0.41421356237311974
10
694.92389166440148
20
-534.13359044340552
10
683.18612045559564
20
-536.62853073321878
42
0.41421356237309076
10
682.41588454567977
20
-537.81459002477004
10
684.9108248354928
20
-549.55236123357599
42
0.41421356237322582
10
686.09688412704418
20
-550.32259714349175
10
697.83465533585002
20
-547.82765685367872
42
0.41421356237309503
0
LWPOLYLINE
5
144
100
AcDbEntity
8
0
100
AcDbPolyline
90
8
70
1
43
0.0
10
821.5692525137855
20
-586.77024692368354
10
809.5692525137855
20
-586.77024692368389
42
0.41421356237309503
10
808.56925251378584
20
-587.77024692368354
10
808.56925251378561
20
-599.77024692368354
42
0.41421356237309503
10
809.5692525137855
20
-600.77024692368377
10
821.5692525137855
20
-600.77024692368343
42
0.41421356237294937
10
822.56925251378561
20
-599.77024692368354
10
822.56925251378573
20
-587.77024692368354
42
0.41421356237313667
0
LWPOLYLINE
5
145
100
AcDbEntity
8
0
100
AcDbPolyline
90
8
70
1
43
0.0
10
632.97275628246439
20
-586.25574357364042
42
-0.41421356237307466
10
634.15881557401565
20
-587.02597948355651
10
636.65375586382902
20
-598.76375069236212
42
-0.41421356237303397
10
635.88351995391292
20
-599.94980998391372
10
624.14574874510731
20
-602.44475027372675
42
-0.41421356237313572
10
622.9596894535556
20
-601.67451436381066
10
620.46474916374268
20
-589.93674315500516
42
-0.41421356237315182
10
621.23498507365844
20
-588.75068386345345
0
LWPOLYLINE
5
146
100
AcDbEntity
8
0
100
AcDbPolyline
90
8
70
1
43
0.0
10
649.93375586382876
20
-615.41375069236199
42
-0.41421356237303397
10
649.16351995391312
20
-616.59980998391359
10
637.42574874510728
20
-619.09475027372673
42
-0.41421356237307466
10
636.23968945355557
20
-618.32451436381075
10
633.74474916374254
20
-606.58674315500502
42
-0.41421356237311541
10
634.51498507365852
20
-605.40068386345365
10
646.25275628246413
20
-602.90574357364039
42
-0.41421356237316048
10
647.43881557401562
20
-603.67597948355638
0
LWPOLYLINE
5
147
100
AcDbEntity
8
0
100
AcDbPolyline
90
8
70
1
43
0.0
10
657.73217275170032
20
-582.01530773484842
10
660.22711304151358
20
-593.75307894365415
42
0.41421356237298895
10
661.41317233306506
20
-594.52331485357024
10
673.1509435418709
20
-592.0283745637571
42
0.41421356237296858
10
673.921179451787
20
-590.8423152722055
10
671.42623916197397
20
-579.10454406339977
42
0.41421356237313572
10
670.24017987042248
20
-578.33430815348368
10
658.50240866161641
20
-580.82924844329682
42
0.41421356237296425
0
LWPOLYLINE
5
148
100
AcDbEntity
8
0
100
AcDbPolyline
90
8
70
1
43
0.0
10
655.28746765780784
20
-594.80303298228375
10
652.79252736799481
20
-583.06526177347803
42
0.41421356237314011
10
651.60646807644343
20
-582.29502586356216
10
639.86869686763748
20
-584.7899661533753
42
0.41421356237303397
10
639.09846095772161
20
-585.97602544492679
10
641.59340124753487
20
-597.71379665373252
42
0.41421356237318513
10
642.77946053908624
20
-598.4840325636485
10
654.51723174789197
20
-595.98909227383524
42
0.41421356237307466
0
LWPOLYLINE
5
149
100
AcDbEntity
8
0
100
AcDbPolyline
90
8
70
1
43
0.0
10
769.11498507365854
20
-597.96980998391371
10
780.8527562824645
20
-600.46475027372685
42
0.41421356237294388
10
782.03881557401587
20
-599.69451436381075
10
784.53375586382936
20
-587.95674315500514
42
0.41421356237296858
10
783.76351995391303
20
-586.77068386345366
10
772.02574874510742
20
-584.27574357364051
42
0.41421356237311974
10
770.83968945355548
20
-585.04597948355638
10
768.34474916374256
20
-596.7837506923621
42
0.41421356237307466
0
LWPOLYLINE
5
150
100
AcDbEntity
8
0
100
AcDbPolyline
90
8
70
1
43
0.0
10
615.33925251378582
20
-621.9602469236836
10
627.3392525137856
20
-621.9602469236836
42
0.41421356237309503
10
628.3392525137856
20
-620.9602469236836
10
628.3392525137856
20
-608.9602469236836
42
0.41421356237307422
10
627.3392525137856
20
-607.96024692368348
10
615.33925251378582
20
-607.9602469236836
42
0.4142135623731783
10
614.33925251378582
20
-608.9602469236836
10
614.3392525137856
20
-620.9602469236836
42
0.41421356237307422
0
LWPOLYLINE
5
151
100
AcDbEntity
8
0
100
AcDbPolyline
90
8
70
1
43
0.0
10
770.48980815993389
20
-603.41996615337519
42
-0.4142135623731808
10
771.26004406984987
20
-604.60602544492667
10
768.76510378003718
20
-616.3437966537324
42
-0.41421356237307466
10
767.57904448848524
20
-617.11403256364849
10
755.84127327967951
20
-614.61909227383535
42
-0.41421356237305429
10
755.0710373697633
20
-613.43303298228375
10
757.56597765957667
20
-601.69526177347802
42
-0.41421356237326651
10
758.7520369511285
20
-600.92502586356193
0
LWPOLYLINE
5
152
100
AcDbEntity
8
0
100
AcDbPolyline
90
8
70
1
43
0.0
10
776.19968945355595
20
-605.65597948355639
10
773.7047491637428
20
-617.39375069236212
42
0.4142135623731808
10
774.47498507365844
20
-618.57980998391372
10
786.21275628246417
20
-621.07475027372686
42
0.41421356237303397
10
787.398815574016
20
-620.30451436381077
10
789.89375586382903
20
-608.56674315500504
42
0.41421356237302531
10
789.12351995391293
20
-607.38068386345344
10
777.38574874510732
20
-604.88574357364064
42
0.41421356237298895
0
LWPOLYLINE
5
153
100
AcDbEntity
8
0
100
AcDbPolyline
90
8
70
1
43
0.0
10
652.37846095772159
20
-602.62602544492677
42
-0.41421356237302964
10
653.14869686763768
20
-601.43996615337517
10
664.88646807644329
20
-598.94502586356214
42
-0.41421356237320117
10
666.07252736799478
20
-599.71526177347812
10
668.56746765780804
20
-611.45303298228396
42
-0.41421356237307905
10
667.79723174789194
20
-612.63909227383544
10
656.0594605390861
20
-615.13403256364859
42
-0.41421356237322582
10
654.87340124753462
20
-614.36379665373249
0
LWPOLYLINE
5
154
100
AcDbEntity
8
0
100
AcDbPolyline
90
8
70
1
43
0.0
10
658.43217275170048
20
-562.38530773484842
10
660.92711304151362
20
-574.12307894365404
42
0.41421356237319679
10
662.11317233306534
20
-574.89331485357025
10
673.85094354187106
20
-572.3983745637571
42
0.41421356237309503
10
674.62117945178693
20
-571.21231527220539
10
672.12623916197367
20
-559.47454406339989
42
0.41421356237305429
10
670.94017987042218
20
-558.70430815348368
10
659.20240866161646
20
-561.19924844329682
42
0.41421356237313145
0
LWPOLYLINE
5
155
100
AcDbEntity
8
0
100
AcDbPolyline
90
8
70
1
43
0.0
10
841.61925251378591
20
-599.77024692368354
10
841.6192525137858
20
-587.77024692368354
42
0.41421356237301177
10
840.61925251378568
20
-586.77024692368354
10
828.6192525137858
20
-586.77024692368354
42
0.41421356237309503
10
827.6192525137858
20
-587.77024692368354
10
827.61925251378557
20
-599.77024692368354
42
0.41421356237313667
10
828.6192525137858
20
-600.77024692368366
10
840.61925251378568
20
-600.77024692368377
42
0.41421356237309503
0
LWPOLYLINE
5
156
100
AcDbEntity
8
0
100
AcDbPolyline
90
8
70
1
43
0.0
10
851.43925251378562
20
-587.77024692368354
42
-0.41421356237309503
10
852.43925251378585
20
-586.77024692368332
10
864.43925251378573
20
-586.77024692368354
42
-0.4142135623730534
10
865.43925251378585
20
-587.77024692368343
10
865.43925251378596
20
-599.77024692368354
42
-0.41421356237309503
10
864.43925251378573
20
-600.77024692368377
10
852.43925251378585
20
-600.77024692368377
42
-0.41421356237297013
10
851.43925251378573
20
-599.77024692368354
0
LWPOLYLINE
5
157
100
AcDbEntity
8
0
100
AcDbPolyline
90
8
70
1
43
0.0
10
793.19925251378572
20
-549.67024692368352
42
-0.41421356237321988
10
794.19925251378572
20
-548.67024692368341
10
806.19925251378561
20
-548.67024692368352
42
-0.41421356237315748
10
807.19925251378584
20
-549.67024692368364
10
807.19925251378584
20
-561.67024692368364
42
-0.41421356237309503
10
806.19925251378561
20
-562.67024692368375
10
794.19925251378572
20
-562.67024692368364
42
-0.41421356237297013
10
793.19925251378572
20
-561.67024692368364
0
LWPOLYLINE
5
158
100
AcDbEntity
8
0
100
AcDbPolyline
90
8
70
1
43
0.0
10
692.5548912457657
20
-586.88159756212713
10
690.05995095595279
20
-575.14382635332151
42
0.41421356237319679
10
688.8738916644013
20
-574.37359044340542
10
677.13612045559557
20
-576.86853073321845
42
0.41421356237295998
10
676.36588454567936
20
-578.05459002477005
10
678.86082483549274
20
-589.79236123357578
42
0.41421356237317647
10
680.04688412704411
20
-590.56259714349198
10
691.78465533584972
20
-588.06765685367873
42
0.41421356237313572
0
ARC
5
159
100
AcDbEntity
8
0
100
AcDbCircle
10
833.97925251378581
20
-606.82024692368361
30
0
40
1.0000000000002274
210
0
220
-0
230
1
100
AcDbArc
50
90
51
180
0
LINE
5
160
100
AcDbEntity
8
0
100
AcDbLine
10
833.97925251378581
20
-605.82024692368338
30
0
11
834.06625251379069
21
-605.82024692368361
31
0
0
LINE
5
161
100
AcDbEntity
8
0
100
AcDbLine
10
834.06625251379069
20
-605.82024692368361
30
0
11
834.06625091089779
21
-603.46524577212176
31
0
0
ARC
5
162
100
AcDbEntity
8
0
100
AcDbCircle
10
835.06625091089813
20
-603.46524374556611
30
0
40
1.0000000000023725
210
0
220
-0
230
1
100
AcDbArc
50
89.999990608483387
51
180.00011611321588
0
LINE
5
163
100
AcDbEntity
8
0
100
AcDbLine
10
835.06625107481102
20
-602.46524374556373
30
0
11
863.94225022747139
21
-602.46524374556429
31
0
0
ARC
5
164
100
AcDbEntity
8
0
100
AcDbCircle
10
863.94225225402829
20
-603.4652437455652
30
0
40
1.0000000000029914
210
0
220
0
230
1
100
AcDbArc
50
-0.00011611321589021677
51
90.000116113157262
0
LINE
5
165
100
AcDbEntity
8
0
100
AcDbLine
10
864.94225225402931
20
-603.46524577212233
30
0
11
864.94225251378964
21
-605.82024692368361
31
0
0
LINE
5
166
100
AcDbEntity
8
0
100
AcDbLine
10
864.94225251378964
20
-605.82024692368361
30
0
11
865.02925251378565
21
-605.8202469236835
31
0
0
ARC
5
167
100
AcDbEntity
8
0
100
AcDbCircle
10
865.02925251378565
20
-606.8202469236835
30
0
40
0.99999999999994316
210
0
220
0
230
1
100
AcDbArc
50
0
51
90
0
LINE
5
168
100
AcDbEntity
8
0
100
AcDbLine
10
866.02925251378565
20
-606.8202469236835
30
0
11
866.02925251378565
21
-618.82024692368361
31
0
0
ARC
5
169
100
AcDbEntity
8
0
100
AcDbCircle
10
865.02925251378565
20
-618.82024692368361
30
0
40
0.99999999999994316
210
0
220
0
230
1
100
AcDbArc
50
-90.000000000006523
51
0
0
LINE
5
170
100
AcDbEntity
8
0
100
AcDbLine
10
865.02925251378554
20
-619.8202469236835
30
0
11
864.94225225402886
21
-619.8202469236835
31
0
0
LINE
5
171
100
AcDbEntity
8
0
100
AcDbLine
10
864.94225225402886
20
-619.8202469236835
30
0
11
864.94225225402886
21
-620.40524344515688
31
0
0
ARC
5
172
100
AcDbEntity
8
0
100
AcDbCircle
10
863.94225225402829
20
-620.40524547171458
30
0
40
1.0000000000025651
210
0
220
0
230
1
100
AcDbArc
50
-90.000116113189833
51
0.00011611321589023664
0
LINE
5
173
100
AcDbEntity
8
0
100
AcDbLine
10
863.94225022747082
20
-621.40524547171503
30
0
11
858.94225127055222
21
-621.40524547171458
31
0
0
ARC
5
174
100
AcDbEntity
8
0
100
AcDbCircle
10
858.94225296928551
20
-620.40524547171322
30
0
40
1.0000000000028493
210
0
220
0
230
1
100
AcDbArc
50
179.99988388678412
51
269.9999026697522
0
LINE
5
175
100
AcDbEntity
8
0
100
AcDbLine
10
857.94225296928471
20
-620.40524344515677
30
0
11
857.94225296928471
21
-619.8202469236835
31
0
0
LINE
5
176
100
AcDbEntity
8
0
100
AcDbLine
10
857.94225296928471
20
-619.8202469236835
30
0
11
841.0662520582872
21
-619.8202469236835
31
0
0
LINE
5
177
100
AcDbEntity
8
0
100
AcDbLine
10
841.0662520582872
20
-619.8202469236835
30
0
11
841.0662520582872
21
-620.40524344515654
31
0
0
ARC
5
178
100
AcDbEntity
8
0
100
AcDbCircle
10
840.06625205828402
20
-620.40524547170935
30
0
40
1.0000000000052147
210
0
220
0
230
1
100
AcDbArc
50
-90.000009391327723
51
0.00011611321589023664
0
LINE
5
179
100
AcDbEntity
8
0
100
AcDbLine
10
840.06625189437443
20
-621.40524547171458
30
0
11
835.06625107481057
21
-621.40524547171412
31
0
0
ARC
5
180
100
AcDbEntity
8
0
100
AcDbCircle
10
835.06625091090018
20
-620.40524547170958
30
0
40
1.0000000000045546
210
0
220
0
230
1
100
AcDbArc
50
179.99988388678412
51
270.00000939137328
0
LINE
5
181
100
AcDbEntity
8
0
100
AcDbLine
10
834.06625091089768
20
-620.40524344515643
30
0
11
834.06625091089779
21
-619.8202469236835
31
0
0
LINE
5
182
100
AcDbEntity
8
0
100
AcDbLine
10
834.06625091089779
20
-619.8202469236835
30
0
11
833.97925251378581
21
-619.8202469236835
31
0
0
ARC
5
183
100
AcDbEntity
8
0
100
AcDbCircle
10
833.97925251378592
20
-618.82024692368327
30
0
40
1.0000000000002274
210
0
220
0
230
1
100
AcDbArc
50
180
51
269.99999999999346
0
LINE
5
184
100
AcDbEntity
8
0
100
AcDbLine
10
832.9792525137857
20
-618.82024692368361
30
0
11
832.97925251378558
21
-606.82024692368361
31
0
0
LWPOLYLINE
5
185
100
AcDbEntity
8
0
100
AcDbPolyline
90
8
70
1
43
0.0
10
615.75925251378578
20
-580.72024692368359
10
615.75925251378567
20
-568.72024692368359
42
0.41421356237307422
10
614.75925251378567
20
-567.72024692368359
10
602.75925251378567
20
-567.72024692368359
42
0.41421356237309503
10
601.75925251378567
20
-568.72024692368359
10
601.75925251378567
20
-580.72024692368359
42
0.41421356237307422
10
602.75925251378567
20
-581.7202469236837
10
614.75925251378567
20
-581.7202469236837
42
0.41421356237313667
0
LWPOLYLINE
5
186
100
AcDbEntity
8
0
100
AcDbPolyline
90
8
70
1
43
0.0
10
620.1092525137858
20
-548.67024692368364
42
-0.41421356237313667
10
621.1092525137858
20
-549.67024692368364
10
621.1092525137858
20
-561.67024692368364
42
-0.41421356237303258
10
620.1092525137858
20
-562.67024692368352
10
608.10925251378558
20
-562.67024692368364
42
-0.41421356237309503
10
607.10925251378558
20
-561.67024692368364
10
607.10925251378558
20
-549.67024692368352
42
-0.41421356237303258
10
608.10925251378558
20
-548.67024692368364
0
LWPOLYLINE
5
187
100
AcDbEntity
8
0
100
AcDbPolyline
90
8
70
1
43
0.0
10
570.01925251378566
20
-543.62024692368357
42
-0.41421356237307422
10
569.01925251378566
20
-542.62024692368357
10
569.01925251378566
20
-530.62024692368357
42
-0.41421356237303258
10
570.01925251378566
20
-529.62024692368368
10
582.019252513786
20
-529.62024692368357
42
-0.41421356237309503
10
583.01925251378589
20
-530.62024692368368
10
583.01925251378566
20
-542.62024692368357
42
-0.4142135623730534
10
582.01925251378589
20
-543.62024692368345
0
LWPOLYLINE
5
188
100
AcDbEntity
8
0
100
AcDbPolyline
90
4
70
1
43
0.0
10
547.11925251378443
20
-526.84024692368348
10
543.11925251378443
20
-526.84024692368348
10
543.11925251378443
20
-540.84024692368359
10
547.11925251378443
20
-540.84024692368359
0
LINE
5
189
100
AcDbEntity
8
0
100
AcDbLine
10
570.79925251378563
20
-580.72024692368359
30
0
11
570.79925251378563
21
-568.72024692368359
31
0
0
ARC
5
190
100
AcDbEntity
8
0
100
AcDbCircle
10
571.79925251378575
20
-568.72024692368359
30
0
40
1.0000000000000853
210
0
220
-0
230
1
100
AcDbArc
50
90
51
180
0
LINE
5
191
100
AcDbEntity
8
0
100
AcDbLine
10
571.79925251378575
20
-567.72024692368348
30
0
11
583.79925251378586
21
-567.72024692368359
31
0
0
LINE
5
192
100
AcDbEntity
8
0
100
AcDbLine
10
583.79925251378586
20
-581.7202469236837
30
0
11
571.79925251378575
21
-581.72024692368359
31
0
0
ARC
5
193
100
AcDbEntity
8
0
100
AcDbCircle
10
571.79925251378575
20
-580.72024692368348
30
0
40
1.0000000000000853
210
0
220
0
230
1
100
AcDbArc
50
180
51
270
0
LWPOLYLINE
5
194
100
AcDbEntity
8
0
100
AcDbPolyline
90
20
70
1
43
0.0
10
590.15925081505225
20
-548.67024835419465
10
591.59725384845387
20
-548.67024835419465
10
591.59725384845387
20
-563.25524416041264
42
0.41421365839019941
10
592.5972521497215
20
-564.25524618697023
10
597.5972511066401
20
-564.25524618697045
42
0.41421474950302334
10
598.59725313319711
20
-563.25524416041253
10
598.59725313319723
20
-546.31524648737786
42
0.41421474950312742
10
597.59725110663931
20
-545.31524446081983
10
568.72125195397894
20
-545.31524446081983
42
0.41421420394664143
10
567.72125179006628
20
-546.31524648737786
10
567.72125179006616
20
-563.25524416041253
42
0.41421420394497654
10
568.72125195397871
20
-564.25524618697011
10
573.72125277354269
20
-564.25524618697011
42
0.41421420394497654
10
574.72125293745557
20
-563.25524416041253
10
574.72125251378952
20
-548.67024835419534
10
576.15925224556474
20
-548.67024835419534
10
576.15925251378576
20
-561.67024692368364
42
0.41421356237309503
10
577.15925251378565
20
-562.67024692368364
10
589.15925251378565
20
-562.67024692368364
42
0.41421356237309503
10
590.15925251378576
20
-561.67024692368364
0
LWPOLYLINE
5
195
100
AcDbEntity
8
0
100
AcDbPolyline
90
8
70
1
43
0.0
10
577.64925251378577
20
-619.82024692368373
10
589.64925251378588
20
-619.8202469236835
42
0.41421356237311585
10
590.64925251378577
20
-618.82024692368361
10
590.64925251378588
20
-606.82024692368361
42
0.41421356237309503
10
589.64925251378588
20
-605.8202469236835
10
577.64925251378577
20
-605.82024692368361
42
0.41421356237313667
10
576.64925251378577
20
-606.82024692368361
10
576.64925251378565
20
-618.82024692368361
42
0.41421356237307422
0
LWPOLYLINE
5
196
100
AcDbEntity
8
0
100
AcDbPolyline
90
8
70
1
43
0.0
10
716.47384969172151
20
-547.8276568536786
42
-0.41421356237322154
10
715.70361378180553
20
-546.64159756212712
10
718.19855407161867
20
-534.90382635332139
42
-0.41421356237309936
10
719.38461336317027
20
-534.13359044340541
10
731.122384571976
20
-536.62853073321867
42
-0.41421356237322582
10
731.8926204818921
20
-537.81459002477004
10
729.39768019207906
20
-549.55236123357577
42
-0.41421356237307039
10
728.21162090052724
20
-550.32259714349186
0
LWPOLYLINE
5
197
100
AcDbEntity
8
0
100
AcDbPolyline
90
8
70
1
43
0.0
10
736.83226586559783
20
-538.86454406339988
42
-0.41421356237305867
10
738.01832515714921
20
-538.09430815348378
10
749.75609636595493
20
-540.5892484432967
42
-0.41421356237305001
10
750.5263322758708
20
-541.77530773484841
10
748.03139198605788
20
-553.51307894365402
42
-0.41421356237307466
10
746.8453326945064
20
-554.28331485357023
10
735.10756148570067
20
-551.78837456375686
42
-0.41421356237311541
10
734.3373255757848
20
-550.60231527220549
0
LWPOLYLINE
5
198
100
AcDbEntity
8
0
100
AcDbPolyline
90
8
70
1
43
0.0
10
566.62925251378567
20
-607.9602469236836
42
-0.41421356237309503
10
567.62925251378567
20
-608.9602469236836
10
567.62925251378567
20
-620.9602469236836
42
-0.41421356237303258
10
566.62925251378567
20
-621.9602469236836
10
554.62925251378579
20
-621.9602469236836
42
-0.41421356237309503
10
553.62925251378579
20
-620.9602469236836
10
553.62925251378567
20
-608.9602469236836
42
-0.41421356237313667
10
554.62925251378579
20
-607.96024692368348
0
LWPOLYLINE
5
199
100
AcDbEntity
8
0
100
AcDbPolyline
90
8
70
1
43
0.0
10
559.39925251378565
20
-582.86024692368346
42
-0.41421356237299095
10
558.39925251378577
20
-583.86024692368346
10
546.39925251378577
20
-583.86024692368358
42
-0.41421356237309503
10
545.39925251378577
20
-582.86024692368358
10
545.39925251378577
20
-570.86024692368358
42
-0.41421356237307422
10
546.39925251378577
20
-569.86024692368369
10
558.39925251378588
20
-569.86024692368358
42
-0.41421356237301177
10
559.39925251378565
20
-570.86024692368369
0
LWPOLYLINE
5
200
100
AcDbEntity
8
0
100
AcDbPolyline
90
20
70
1
43
0.0
10
760.00667155316614
20
-521.66467996599465
10
755.11593274784332
20
-520.62512134150893
42
0.41421420394500069
10
753.92987287461551
20
-521.39535919961816
10
750.89748043047041
20
-535.66163757668869
10
749.49090616289095
20
-535.36266098663828
10
752.19375586382921
20
-522.64674315500554
42
0.41421356237303397
10
751.42351995391311
20
-521.46068386345382
10
739.68574874510739
20
-518.96574357364034
42
0.4142135623730136
10
738.49968945355522
20
-519.73597948355643
10
735.7968411518691
20
-532.45189761260974
10
734.39026152048382
20
-532.15291988244735
10
737.42265307354171
20
-517.88664131597045
42
0.4142136583902431
10
736.65241924658176
20
-516.70058039533262
10
731.76168226320033
20
-515.66102215811247
42
0.41421474950341858
10
730.5756205680309
20
-516.43125962895624
10
727.05359700938106
20
-533.00107770927139
42
0.41421474950311632
10
727.82383448022517
20
-534.1871394044407
10
756.06882377019076
20
-540.19079721232276
42
0.41421420394674791
10
757.25488364341845
20
-539.42055935421331
10
760.77690720206829
20
-522.85074127389839
42
0.41421420394500741
0
LWPOLYLINE
5
201
100
AcDbEntity
8
0
100
AcDbPolyline
90
8
70
1
43
0.0
10
550.46925251378582
20
-602.91024692368364
10
562.4692525137857
20
-602.91024692368353
42
0.41421356237309503
10
563.46925251378582
20
-601.91024692368364
10
563.46925251378582
20
-589.91024692368353
42
0.41421356237313667
10
562.4692525137857
20
-588.91024692368353
10
550.46925251378582
20
-588.9102469236833
42
0.41421356237311585
10
549.46925251378559
20
-589.91024692368353
10
549.46925251378593
20
-601.91024692368364
42
0.41421356237307422
0
LWPOLYLINE
5
202
100
AcDbEntity
8
0
100
AcDbPolyline
90
8
70
1
43
0.0
10
621.70474916374258
20
-529.70674315500503
42
-0.41421356237307466
10
622.47498507365867
20
-528.52068386345343
10
634.21275628246417
20
-526.02574357364028
42
-0.41421356237314011
10
635.39881557401588
20
-526.79597948355638
10
637.89375586382891
20
-538.5337506923621
42
-0.41421356237309503
10
637.12351995391271
20
-539.71980998391382
10
625.38574874510709
20
-542.21475027372674
42
-0.41421356237311541
10
624.19968945355561
20
-541.44451436381064
0
LWPOLYLINE
5
203
100
AcDbEntity
8
0
100
AcDbPolyline
90
8
70
1
43
0.0
10
601.05925251378551
20
-587.77024692368354
10
601.05925251378562
20
-599.77024692368354
42
0.4142135623730534
10
602.05925251378574
20
-600.77024692368366
10
614.05925251378574
20
-600.77024692368366
42
0.41421356237313667
10
615.05925251378585
20
-599.77024692368354
10
615.05925251378585
20
-587.77024692368354
42
0.41421356237309503
10
614.05925251378574
20
-586.77024692368354
10
602.05925251378574
20
-586.77024692368332
42
0.41421356237309503
0
LWPOLYLINE
5
204
100
AcDbEntity
8
0
100
AcDbPolyline
90
8
70
1
43
0.0
10
648.82946053908631
20
-558.24403256364849
10
660.56723174789215
20
-555.74909227383546
42
0.4142135623730383
10
661.33746765780779
20
-554.56303298228374
10
658.84252736799476
20
-542.82526177347813
42
0.41421356237303397
10
657.65646807644328
20
-542.05502586356204
10
645.91869686763744
20
-544.54996615337507
42
0.41421356237302964
10
645.14846095772123
20
-545.73602544492678
10
647.6434012475346
20
-557.47379665373251
42
0.41421356237305429
0
LWPOLYLINE
5
205
100
AcDbEntity
8
0
100
AcDbPolyline
90
8
70
1
43
0.0
10
577.2492525137859
20
-587.77024692368354
42
-0.41421356237311585
10
578.24925251378568
20
-586.77024692368366
10
590.24925251378579
20
-586.77024692368354
42
-0.41421356237311585
10
591.24925251378568
20
-587.77024692368354
10
591.24925251378568
20
-599.77024692368354
42
-0.41421356237313667
10
590.24925251378568
20
-600.77024692368366
10
578.24925251378568
20
-600.77024692368366
42
-0.41421356237307422
10
577.24925251378568
20
-599.77024692368354
0
LWPOLYLINE
5
206
100
AcDbEntity
8
0
100
AcDbPolyline
90
8
70
1
43
0.0
10
736.48238457197613
20
-557.23853073321845
42
-0.41421356237298895
10
737.25262048189211
20
-558.42459002477005
10
734.75768019207885
20
-570.16236123357567
42
-0.4142135623730136
10
733.57162090052714
20
-570.93259714349176
10
721.83384969172153
20
-568.43765685367873
42
-0.41421356237302964
10
721.06361378180554
20
-567.25159756212713
10
723.55855407161857
20
-555.51382635332141
42
-0.4142135623731561
10
724.74461336317017
20
-554.74359044340531
0
LWPOLYLINE
5
207
100
AcDbEntity
8
0
100
AcDbPolyline
90
24
70
1
43
0.0
10
649.33045854404622
20
-522.72866465300604
42
-0.023632142358916905
10
649.42183883820417
20
-522.70467882588457
10
654.31257582158548
20
-521.66512058866465
42
-0.41421365839014485
10
655.49863387287121
20
-522.43535883403922
10
655.62211766176301
20
-523.01630438529423
42
-0.023635684844520683
10
655.71351137939632
20
-522.99231397905396
10
657.91360676179329
20
-522.52466926922568
42
-0.023631635431706238
10
658.00498507365864
20
-522.50068386345345
10
669.74275628246448
20
-520.00574357364042
42
-0.023635682940383176
10
669.83600634188565
20
-519.99048656884565
10
669.71437825977091
20
-519.41827143157138
42
-0.41421420394511355
10
670.48461390867271
20
-518.23221012366787
10
672.68471085065403
20
-517.76456508233969
42
-0.023631676431466433
10
672.77608932284829
20
-517.74057964248846
10
677.66682812817169
20
-516.70102101800273
42
-0.41421420394500508
10
678.85288800139904
20
-517.47125887611207
10
682.37491156004864
20
-534.04107695642722
42
-0.41421420394644787
10
681.6046759111465
20
-535.22713826433096
10
679.40457896916769
20
-535.69478330565869
42
-0.023631676432242468
10
679.31320049697138
20
-535.71876874551026
10
651.06821120700533
20
-541.72242655339198
42
-0.41421474950307557
10
649.88214951183591
20
-540.9521890825481
10
646.36012595318664
20
-524.38237100223296
42
-0.41421474950299414
10
647.13036342402847
20
-523.19630930706398
0
CIRCLE
5
208
100
AcDbEntity
8
0
100
AcDbCircle
10
-889.13800251378575
20
-519.12070634907207
30
2.2204460492503131e-15
40
2.5
210
0
220
0
230
-1
0
CIRCLE
5
209
100
AcDbEntity
8
0
100
AcDbCircle
10
-664.91596025747083
20
-508.76545928376521
30
2.2204460492503131e-15
40
2.5
210
0
220
0
230
-1
0
CIRCLE
5
210
100
AcDbEntity
8
0
100
AcDbCircle
10
-758.62254477009833
20
-632.4607063490721
30
2.2204460492503131e-15
40
2.5
210
0
220
0
230
-1
0
CIRCLE
5
211
100
AcDbEntity
8
0
100
AcDbCircle
10
-758.62254477009833
20
-508.76545928376521
30
2.2204460492503131e-15
40
2.5
210
0
220
0
230
-1
0
CIRCLE
5
212
100
AcDbEntity
8
0
100
AcDbCircle
10
-889.13800251378575
20
-632.46070634907187
30
2.2204460492503131e-15
40
2.5
210
0
220
0
230
-1
0
CIRCLE
5
213
100
AcDbEntity
8
0
100
AcDbCircle
10
-534.89925251378577
20
-632.4607063490721
30
2.2204460492503131e-15
40
2.5
210
0
220
0
230
-1
0
CIRCLE
5
214
100
AcDbEntity
8
0
100
AcDbCircle
10
-664.91596025747128
20
-632.4607063490721
30
2.2204460492503131e-15
40
2.5
210
0
220
0
230
-1
0
CIRCLE
5
215
100
AcDbEntity
8
0
100
AcDbCircle
10
-534.89925251378565
20
-519.12070634907207
30
2.2204460492503131e-15
40
2.5
210
0
220
0
230
-1
0
LINE
5
216
100
AcDbEntity
8
0
100
AcDbLine
10
533.39925251378577
20
-642.9607063490721
30
0
11
697.76929155904986
21
-642.96070634907221
31
0
0
LWPOLYLINE
5
217
100
AcDbEntity
8
0
100
AcDbPolyline
90
8
70
1
43
0.0
10
765.4790444884851
20
-558.24403256364849
10
753.74127327967972
20
-555.74909227383523
42
-0.41421356237305429
10
752.97103736976351
20
-554.56303298228374
10
755.46597765957642
20
-542.82526177347802
42
-0.41421356237322154
10
756.65203695112825
20
-542.05502586356215
10
768.38980815993398
20
-544.54996615337518
42
-0.41421356237311541
10
769.16004406984996
20
-545.73602544492667
10
766.66510378003693
20
-557.47379665373239
42
-0.41421356237303397
0
LWPOLYLINE
5
218
100
AcDbEntity
8
0
100
AcDbPolyline
90
8
70
1
43
0.0
10
776.4147491637425
20
-538.53375069236199
10
778.90968945355553
20
-526.79597948355638
42
-0.41421356237324619
10
780.09574874510747
20
-526.02574357364051
10
791.83351995391354
20
-528.52068386345366
42
-0.41421356237302964
10
792.60375586382906
20
-529.70674315500514
10
790.10881557401581
20
-541.44451436381075
42
-0.41421356237317647
10
788.92275628246409
20
-542.21475027372662
10
777.18498507365848
20
-539.71980998391382
42
-0.41421356237305429
0
LWPOLYLINE
5
219
100
AcDbEntity
8
0
100
AcDbPolyline
90
8
70
1
43
0.0
10
623.65968945355553
20
-582.04451436381089
10
621.1647491637425
20
-570.30674315500505
42
-0.41421356237307466
10
621.93498507365848
20
-569.12068386345345
10
633.67275628246432
20
-566.62574357364042
42
-0.41421356237305001
10
634.85881557401603
20
-567.39597948355652
10
637.35375586382906
20
-579.13375069236213
42
-0.41421356237302964
10
636.58351995391297
20
-580.31980998391373
10
624.84574874510713
20
-582.81475027372687
42
-0.41421356237300933
0
LWPOLYLINE
5
220
100
AcDbEntity
8
0
100
AcDbPolyline
90
8
70
1
43
0.0
10
655.98746765780788
20
-575.17303298228387
42
-0.41421356237317647
10
655.2172317478919
20
-576.35909227383536
10
643.47946053908618
20
-578.8540325636485
42
-0.4142135623731808
10
642.29340124753446
20
-578.08379665373241
10
639.79846095772177
20
-566.34602544492679
42
-0.4142135623730136
10
640.56869686763764
20
-565.15996615337508
10
652.30646807644348
20
-562.66502586356205
42
-0.41421356237294826
10
653.49252736799485
20
-563.43526177347815
0
LWPOLYLINE
5
221
100
AcDbEntity
8
0
100
AcDbPolyline
90
8
70
1
43
0.0
10
755.88633227587081
20
-562.38530773484842
10
753.39139198605778
20
-574.12307894365415
42
-0.41421356237299323
10
752.2053326945063
20
-574.8933148535699
10
740.46756148570068
20
-572.39837456375699
42
-0.41421356237309503
10
739.6973255757847
20
-571.21231527220539
10
742.19226586559785
20
-559.47454406339978
42
-0.41421356237311974
10
743.37832515714922
20
-558.70430815348379
10
755.11609636595495
20
-561.19924844329694
42
-0.41421356237313572
0
LWPOLYLINE
5
222
100
AcDbEntity
8
0
100
AcDbPolyline
90
8
70
1
43
0.0
10
595.69925251378561
20
-618.82024692368361
10
595.69925251378572
20
-606.82024692368361
42
-0.41421356237313667
10
596.69925251378561
20
-605.8202469236835
10
608.69925251378561
20
-605.82024692368361
42
-0.41421356237309503
10
609.69925251378561
20
-606.82024692368361
10
609.6992525137855
20
-618.82024692368361
42
-0.41421356237311585
10
608.69925251378561
20
-619.82024692368338
10
596.69925251378561
20
-619.8202469236835
42
-0.41421356237301177
0
LWPOLYLINE
5
223
100
AcDbEntity
8
0
100
AcDbPolyline
90
8
70
1
43
0.0
10
784.11275628246415
20
-562.20475027372663
10
772.37498507365888
20
-559.70980998391371
42
-0.4142135623731808
10
771.60474916374255
20
-558.52375069236211
10
774.09968945355581
20
-546.78597948355639
42
-0.41421356237305429
10
775.28574874510741
20
-546.01574357364052
10
787.02351995391268
20
-548.51068386345344
42
-0.4142135623731808
10
787.79375586382923
20
-549.69674315500504
10
785.29881557401586
20
-561.43451436381065
42
-0.41421356237317647
0
LWPOLYLINE
5
224
100
AcDbEntity
8
0
100
AcDbPolyline
90
8
70
1
43
0.0
10
629.00968945355555
20
-561.43451436381065
10
626.51474916374252
20
-549.69674315500504
42
-0.41421356237298895
10
627.28498507365862
20
-548.51068386345355
10
639.02275628246446
20
-546.01574357364041
42
-0.41421356237302964
10
640.20881557401583
20
-546.7859794835565
10
642.70375586382886
20
-558.52375069236211
42
-0.41421356237307466
10
641.93351995391299
20
-559.70980998391371
10
630.19574874510693
20
-562.20475027372675
42
-0.41421356237309503
0
LWPOLYLINE
5
225
100
AcDbEntity
8
0
100
AcDbPolyline
90
8
70
1
43
0.0
10
703.33995095595287
20
-591.79382635332149
10
705.8348912457659
20
-603.53159756212722
42
-0.4142135623730383
10
705.06465533585003
20
-604.71765685367882
10
693.32688412704442
20
-607.21259714349196
42
-0.41421356237300933
10
692.14082483549259
20
-606.44236123357587
10
689.64588454567979
20
-594.70459002477014
42
-0.41421356237311974
10
690.41612045559555
20
-593.51853073321865
10
702.15389166440127
20
-591.02359044340528
42
-0.41421356237313572
0
LWPOLYLINE
5
226
100
AcDbEntity
8
0
100
AcDbPolyline
90
8
70
1
43
0.0
10
701.24881557401579
20
-514.33597948355646
10
703.74375586382871
20
-526.07375069236218
42
-0.41421356237307039
10
702.97351995391284
20
-527.25980998391367
10
688.90775745536064
20
-530.24958009787292
42
-0.41421356237305429
10
687.72169816380926
20
-529.47934418795694
10
685.22675787399612
20
-517.74157297915133
42
-0.41421356237301798
10
685.99699378391188
20
-516.55551368759984
10
700.06275628246442
20
-513.56574357364036
42
-0.4142135623731808
0
LWPOLYLINE
5
227
100
AcDbEntity
8
0
100
AcDbPolyline
90
8
70
1
43
0.0
10
674.69317233306526
20
-611.17331485357022
42
-0.41421356237307466
10
673.50711304151355
20
-610.40307894365412
10
671.0121727517004
20
-598.66530773484851
42
-0.41421356237303397
10
671.78240866161661
20
-597.4792484432968
10
683.52017987042245
20
-594.98430815348365
42
-0.41421356237313572
10
684.70623916197371
20
-595.75454406339986
10
687.20117945178697
20
-607.49231527220547
42
-0.41421356237315182
10
686.43094354187099
20
-608.67837456375707
0
LWPOLYLINE
5
228
100
AcDbEntity
8
0
100
AcDbPolyline
90
8
70
1
43
0.0
10
780.64574874510754
20
-566.62574357364042
10
792.38351995391304
20
-569.12068386345345
42
-0.41421356237319679
10
793.15375586382925
20
-570.30674315500494
10
790.65881557401576
20
-582.04451436381078
42
-0.41421356237305001
10
789.47275628246416
20
-582.81475027372642
10
777.73498507365844
20
-580.31980998391373
42
-0.41421356237320117
10
776.96474916374268
20
-579.13375069236201
10
779.4596894535556
20
-567.3959794835564
42
-0.4142135623731808
0
LWPOLYLINE
5
229
100
AcDbEntity
8
0
100
AcDbPolyline
90
8
70
1
43
0.0
10
693.25489124576609
20
-567.25159756212724
42
-0.41421356237302964
10
692.48465533584988
20
-568.43765685367885
10
680.74688412704427
20
-570.93259714349188
42
-0.41421356237316048
10
679.56082483549278
20
-570.16236123357589
10
677.06588454567964
20
-558.42459002477017
42
-0.41421356237307039
10
677.83612045559551
20
-557.23853073321857
10
689.57389166440123
20
-554.74359044340542
42
-0.41421356237300933
10
690.75995095595306
20
-555.51382635332152
0
LWPOLYLINE
5
230
100
AcDbEntity
8
0
100
AcDbPolyline
90
8
70
1
43
0.0
10
720.29855407161836
20
-593.7738263533214
42
-0.41421356237309503
10
721.4846133631703
20
-593.0035904434053
10
733.22238457197614
20
-595.49853073321856
42
-0.41421356237302964
10
733.99262048189189
20
-596.68459002477005
10
731.49768019207886
20
-608.42236123357577
42
-0.41421356237303397
10
730.31162090052703
20
-609.19259714349187
10
718.57384969172142
20
-606.69765685367872
42
-0.41421356237320117
10
717.80361378180555
20
-605.51159756212701
0
LWPOLYLINE
5
231
100
AcDbEntity
8
0
100
AcDbPolyline
90
8
70
1
43
0.0
10
751.85609636595495
20
-599.45924844329681
42
-0.41421356237302964
10
752.62633227587105
20
-600.64530773484853
10
750.13139198605791
20
-612.38307894365403
42
-0.41421356237305429
10
748.94533269450619
20
-613.15331485357001
10
737.20756148570058
20
-610.65837456375698
42
-0.41421356237313572
10
736.4373255757846
20
-609.47231527220538
10
738.93226586559774
20
-597.73454406339977
42
-0.41421356237295254
10
740.11832515714923
20
-596.96430815348378
0
LWPOLYLINE
5
232
100
AcDbEntity
8
0
100
AcDbPolyline
90
8
70
1
43
0.0
10
663.7821727517005
20
-541.77530773484841
42
-0.41421356237296425
10
664.5524086616166
20
-540.58924844329681
10
676.29017987042232
20
-538.09430815348367
42
-0.4142135623731808
10
677.47623916197369
20
-538.86454406339976
10
679.97117945178707
20
-550.60231527220549
42
-0.4142135623729396
10
679.20094354187086
20
-551.78837456375709
10
667.46317233306513
20
-554.28331485357023
42
-0.41421356237309503
10
666.27711304151376
20
-553.51307894365414
0
LWPOLYLINE
5
233
100
AcDbEntity
8
0
100
AcDbPolyline
90
8
70
1
43
0.0
10
733.57226586559773
20
-577.12454406339975
42
-0.41421356237309503
10
734.75832515714933
20
-576.35430815348377
10
746.49609636595528
20
-578.8492484432968
42
-0.41421356237298895
10
747.26633227587104
20
-580.0353077348484
10
744.77139198605801
20
-591.77307894365401
42
-0.41421356237303397
10
743.58533269450618
20
-592.54331485357011
10
731.84756148570045
20
-590.04837456375708
42
-0.41421356237294826
10
731.07732557578447
20
-588.86231527220525
0
LWPOLYLINE
5
234
100
AcDbEntity
8
0
100
AcDbPolyline
90
8
70
1
43
0.0
10
817.6092525137858
20
-580.72024692368359
10
817.6092525137858
20
-568.72024692368359
42
-0.41421356237301177
10
818.6092525137858
20
-567.72024692368336
10
830.60925251378592
20
-567.72024692368359
42
-0.41421356237307422
10
831.60925251378569
20
-568.72024692368359
10
831.60925251378615
20
-580.7202469236837
42
-0.41421356237307422
10
830.60925251378592
20
-581.72024692368382
10
818.6092525137858
20
-581.7202469236837
42
-0.41421356237297013
0
LWPOLYLINE
5
235
100
AcDbEntity
8
0
100
AcDbPolyline
90
29
70
1
43
0.0
10
838.4442525137855
20
-561.67024692368364
10
838.44425251378595
20
-549.67024692368352
42
-0.41421356237309503
10
839.44425251378561
20
-548.67024692368386
10
839.53125251379049
20
-548.67024692368364
10
839.53125179006565
20
-546.31524648737775
42
-0.4142142039465998
10
840.53125195397899
20
-545.31524446081971
10
869.40725110663948
20
-545.31524446081994
42
-0.41421474950314824
10
870.40725313319729
20
-546.31524648737786
10
870.40725251379013
20
-548.67024692368352
10
877.63800251378598
20
-548.67024692368341
42
-0.41421356237303258
10
878.63800251378575
20
-549.67024692368364
10
878.63800251378564
20
-561.67024692368364
42
-0.41421356237299095
10
877.63800251378598
20
-562.67024692368352
10
870.4072531331974
20
-562.67024692368364
10
870.40725313319751
20
-563.25524416041253
42
-0.41421474950339798
10
869.40725110663948
20
-564.25524618697068
10
864.40725214972065
20
-564.25524618697034
42
-0.41421365839007451
10
863.40725384845314
20
-563.25524416041253
10
863.40725251379183
20
-548.67024835419534
10
861.96925081505356
20
-548.67024835419534
10
861.96925251378559
20
-561.67024692368364
42
-0.41421356237309503
10
860.96925251378593
20
-562.67024692368329
10
846.53125293745575
20
-562.67024692368364
10
846.53125293745586
20
-563.25524416041253
42
-0.41421420394485164
10
845.53125277354297
20
-564.25524618697045
10
840.53125195397922
20
-564.25524618697
42
-0.41421420394514302
10
839.53125179006622
20
-563.25524416041253
10
839.53125179006634
20
-562.67024692368352
10
839.44425251378561
20
-562.67024692368364
42
-0.41421356237301177
0
LWPOLYLINE
5
236
100
AcDbEntity
8
0
100
AcDbPolyline
90
8
70
1
43
0.0
10
825.2492525137859
20
-562.67024692368318
10
813.24925251378602
20
-562.67024692368364
42
-0.41421356237301177
10
812.2492525137859
20
-561.67024692368364
10
812.24925251378613
20
-549.67024692368352
42
-0.41421356237303258
10
813.24925251378602
20
-548.67024692368341
10
825.2492525137859
20
-548.67024692368364
42
-0.4142135623730534
10
826.24925251378602
20
-549.67024692368352
10
826.24925251378556
20
-561.67024692368364
42
-0.41421356237309503
0
LWPOLYLINE
5
237
100
AcDbEntity
8
0
100
AcDbPolyline
90
8
70
1
43
0.0
10
827.92925251378563
20
-618.82024692368361
42
-0.41421356237309503
10
826.92925251378597
20
-619.82024692368327
10
814.92925251378551
20
-619.8202469236835
42
-0.41421356237297013
10
813.9292525137854
20
-618.82024692368361
10
813.92925251378585
20
-606.8202469236835
42
-0.41421356237307422
10
814.92925251378551
20
-605.82024692368395
10
826.92925251378597
20
-605.8202469236835
42
-0.41421356237309503
10
827.92925251378597
20
-606.8202469236835
0
LWPOLYLINE
5
238
100
AcDbEntity
8
0
100
AcDbPolyline
90
8
70
1
43
0.0
10
870.19485251378626
20
-530.57224692368368
10
870.19485251378569
20
-542.57224692368357
42
-0.4142135623731783
10
869.19485251378592
20
-543.57224692368311
10
857.19485251378558
20
-543.57224692368357
42
-0.41421356237307422
10
856.1948525137858
20
-542.57224692368357
10
856.1948525137858
20
-530.57224692368357
42
-0.41421356237303258
10
857.19485251378558
20
-529.57224692368368
10
869.19485251378569
20
-529.57224692368345
42
-0.41421356237303258
0
LWPOLYLINE
5
239
100
AcDbEntity
8
0
100
AcDbPolyline
90
8
70
1
43
0.0
10
808.29925251378597
20
-621.96024692368314
10
796.29925251378586
20
-621.9602469236836
42
-0.41421356237309503
10
795.29925251378586
20
-620.9602469236836
10
795.29925251378586
20
-608.9602469236836
42
-0.41421356237301177
10
796.29925251378586
20
-607.9602469236836
10
808.29925251378597
20
-607.96024692368348
42
-0.41421356237303258
10
809.29925251378575
20
-608.9602469236836
10
809.29925251378563
20
-620.9602469236836
42
-0.41421356237307422
0
LWPOLYLINE
5
240
100
AcDbEntity
8
0
100
AcDbPolyline
90
8
70
1
43
0.0
10
802.93925251378596
20
-587.8302469236836
42
-0.41421356237299095
10
803.93925251378562
20
-588.83024692368349
10
803.93925251378562
20
-600.8302469236836
42
-0.41421356237307422
10
802.93925251378596
20
-601.83024692368326
10
790.93925251378573
20
-601.8302469236836
42
-0.41421356237311585
10
789.93925251378585
20
-600.83024692368349
10
789.93925251378585
20
-588.83024692368349
42
-0.4142135623730534
10
790.93925251378573
20
-587.83024692368372
0
LWPOLYLINE
5
241
100
AcDbEntity
8
0
100
AcDbPolyline
90
20
70
1
43
0.0
10
869.99725483192947
20
-585.07524938654728
10
841.1212556792691
20
-585.07524938654706
42
-0.41421474950318987
10
840.12125365271118
20
-584.07524735998913
10
840.12125365271106
20
-567.13524968695447
42
-0.4142147495032939
10
841.1212556792691
20
-566.13524766039632
10
846.12125463618793
20
-566.13524766039666
42
-0.41421365839019941
10
847.12125293745555
20
-567.13524968695447
10
847.12125251377995
20
-581.72024549317166
10
848.55925597085502
20
-581.72024549317166
10
848.55925251378596
20
-568.72024692368359
42
-0.41421254982074557
10
849.5592525137738
20
-567.72024346662045
10
861.55925251378562
20
-567.72024692368359
42
-0.41421415593785138
10
862.55925454034582
20
-568.72024692368359
10
862.55925454034355
20
-581.72024549317189
10
863.997252513783
20
-581.72024549317177
10
863.99725384845283
20
-567.13524968695469
42
-0.41421420394483083
10
864.9972540123656
20
-566.13524766039654
10
869.99725483192947
20
-566.13524766039711
42
-0.41421420394503894
10
870.99725499584247
20
-567.13524968695469
10
870.99725499584247
20
-584.07524735998936
42
-0.41421420394662062
0
LWPOLYLINE
5
242
100
AcDbEntity
8
0
100
AcDbPolyline
90
8
70
1
43
0.0
10
728.63262048189199
20
-576.07459002477015
10
726.13768019207873
20
-587.81236123357576
42
-0.41421356237296425
10
724.95162090052747
20
-588.58259714349174
10
713.21384969172163
20
-586.08765685367871
42
-0.41421356237302964
10
712.44361378180554
20
-584.90159756212711
10
714.93855407161868
20
-573.16382635332138
42
-0.41421356237316048
10
716.12461336317028
20
-572.39359044340551
10
727.86238457197555
20
-574.88853073321843
42
-0.41421356237309503
0
LWPOLYLINE
5
243
100
AcDbEntity
8
0
100
AcDbPolyline
90
8
70
1
43
0.0
10
812.55925251378585
20
-568.72024692368359
10
812.55925251378596
20
-580.72024692368359
42
-0.41421356237309503
10
811.55925251378574
20
-581.72024692368359
10
799.55925251378574
20
-581.7202469236837
42
-0.41421356237307422
10
798.55925251378585
20
-580.72024692368359
10
798.55925251378551
20
-568.72024692368359
42
-0.41421356237309503
10
799.55925251378574
20
-567.72024692368336
10
811.55925251378574
20
-567.72024692368359
42
-0.41421356237313667
0
LWPOLYLINE
5
244
100
AcDbEntity
8
0
100
AcDbPolyline
90
8
70
1
43
0.0
10
749.71103736976363
20
-592.82303298228373
10
752.20597765957666
20
-581.08526177347812
42
-0.41421356237305001
10
753.39203695112838
20
-580.31502586356203
10
765.12980815993376
20
-582.80996615337494
42
-0.41421356237305001
10
765.90004406984986
20
-583.99602544492677
10
763.40510378003717
20
-595.7337966537325
42
-0.41421356237307466
10
762.21904448848522
20
-596.50403256364848
10
750.48127327967961
20
-594.00909227383534
42
-0.41421356237298895
0
LWPOLYLINE
5
245
100
AcDbEntity
8
0
100
AcDbPolyline
90
8
70
1
43
0.0
10
773.74980815993376
20
-565.15996615337531
42
-0.41421356237313572
10
774.52004406984997
20
-566.34602544492679
10
772.02510378003694
20
-578.08379665373241
42
-0.41421356237298029
10
770.83904448848534
20
-578.85403256364839
10
759.10127327967962
20
-576.35909227383536
42
-0.41421356237292789
10
758.33103736976352
20
-575.17303298228376
10
760.82597765957667
20
-563.43526177347803
42
-0.41421356237296425
10
762.01203695112793
20
-562.66502586356205
0
LWPOLYLINE
5
246
100
AcDbEntity
8
0
100
AcDbPolyline
90
8
70
1
43
0.0
10
696.10995095595297
20
-534.90382635332151
10
698.60489124576588
20
-546.64159756212712
42
-0.41421356237309076
10
697.83465533585002
20
-547.82765685367872
10
686.09688412704395
20
-550.32259714349186
42
-0.41421356237324186
10
684.9108248354928
20
-549.55236123357588
10
682.41588454567977
20
-537.81459002477004
42
-0.41421356237309503
10
683.18612045559564
20
-536.62853073321867
10
694.92389166440148
20
-534.13359044340541
42
-0.41421356237311541
0
LWPOLYLINE
5
247
100
AcDbEntity
8
0
100
AcDbPolyline
90
8
70
1
43
0.0
10
809.5692525137855
20
-586.77024692368389
10
821.5692525137855
20
-586.77024692368354
42
-0.41421356237313667
10
822.56925251378573
20
-587.77024692368354
10
822.56925251378561
20
-599.77024692368354
42
-0.41421356237294937
10
821.5692525137855
20
-600.77024692368343
10
809.5692525137855
20
-600.77024692368377
42
-0.41421356237309503
10
808.56925251378561
20
-599.77024692368354
10
808.56925251378584
20
-587.77024692368354
42
-0.41421356237309503
0
LWPOLYLINE
5
248
100
AcDbEntity
8
0
100
AcDbPolyline
90
8
70
1
43
0.0
10
632.97275628246439
20
-586.25574357364042
42
-0.41421356237307466
10
634.15881557401565
20
-587.02597948355651
10
636.65375586382902
20
-598.76375069236212
42
-0.41421356237302964
10
635.88351995391292
20
-599.94980998391372
10
624.14574874510731
20
-602.44475027372675
42
-0.41421356237311541
10
622.9596894535556
20
-601.67451436381077
10
620.46474916374257
20
-589.93674315500505
42
-0.41421356237313145
10
621.23498507365844
20
-588.75068386345345
0
LWPOLYLINE
5
249
100
AcDbEntity
8
0
100
AcDbPolyline
90
8
70
1
43
0.0
10
649.93375586382876
20
-615.41375069236199
42
-0.41421356237303397
10
649.16351995391312
20
-616.59980998391359
10
637.42574874510728
20
-619.09475027372673
42
-0.41421356237309503
10
636.23968945355557
20
-618.32451436381075
10
633.74474916374265
20
-606.58674315500502
42
-0.41421356237311108
10
634.51498507365852
20
-605.40068386345365
10
646.25275628246413
20
-602.90574357364039
42
-0.41421356237316048
10
647.43881557401562
20
-603.67597948355638
0
LWPOLYLINE
5
250
100
AcDbEntity
8
0
100
AcDbPolyline
90
8
70
1
43
0.0
10
660.22711304151358
20
-593.75307894365415
10
657.73217275170032
20
-582.01530773484842
42
-0.41421356237295998
10
658.50240866161641
20
-580.82924844329693
10
670.24017987042248
20
-578.33430815348368
42
-0.41421356237314011
10
671.42623916197397
20
-579.10454406339977
10
673.921179451787
20
-590.8423152722055
42
-0.41421356237296425
10
673.1509435418709
20
-592.0283745637571
10
661.41317233306518
20
-594.52331485357024
42
-0.41421356237298895
0
LWPOLYLINE
5
251
100
AcDbEntity
8
0
100
AcDbPolyline
90
8
70
1
43
0.0
10
652.79252736799481
20
-583.06526177347814
10
655.28746765780784
20
-594.80303298228375
42
-0.41421356237307466
10
654.51723174789197
20
-595.98909227383524
10
642.77946053908624
20
-598.4840325636485
42
-0.4142135623731808
10
641.59340124753487
20
-597.71379665373252
10
639.09846095772161
20
-585.9760254449269
42
-0.41421356237305429
10
639.86869686763748
20
-584.7899661533753
10
651.60646807644343
20
-582.29502586356216
42
-0.4142135623731561
0
LWPOLYLINE
5
252
100
AcDbEntity
8
0
100
AcDbPolyline
90
8
70
1
43
0.0
10
780.8527562824645
20
-600.46475027372685
10
769.11498507365854
20
-597.96980998391371
42
-0.41421356237307466
10
768.34474916374256
20
-596.7837506923621
10
770.83968945355548
20
-585.04597948355638
42
-0.41421356237311974
10
772.02574874510742
20
-584.27574357364051
10
783.76351995391303
20
-586.77068386345366
42
-0.41421356237296858
10
784.53375586382936
20
-587.95674315500514
10
782.03881557401587
20
-599.69451436381075
42
-0.4142135623729235
0
LWPOLYLINE
5
253
100
AcDbEntity
8
0
100
AcDbPolyline
90
8
70
1
43
0.0
10
627.3392525137856
20
-621.96024692368348
10
615.33925251378582
20
-621.9602469236836
42
-0.41421356237307422
10
614.3392525137856
20
-620.9602469236836
10
614.33925251378594
20
-608.96024692368348
42
-0.41421356237315748
10
615.33925251378582
20
-607.9602469236836
10
627.3392525137856
20
-607.9602469236836
42
-0.41421356237307422
10
628.3392525137856
20
-608.9602469236836
10
628.33925251378548
20
-620.9602469236836
42
-0.41421356237309503
0
LWPOLYLINE
5
254
100
AcDbEntity
8
0
100
AcDbPolyline
90
8
70
1
43
0.0
10
770.48980815993389
20
-603.41996615337519
42
-0.4142135623731808
10
771.26004406984987
20
-604.60602544492667
10
768.76510378003729
20
-616.3437966537324
42
-0.41421356237307039
10
767.57904448848524
20
-617.11403256364861
10
755.84127327967951
20
-614.61909227383535
42
-0.41421356237305429
10
755.0710373697633
20
-613.43303298228375
10
757.56597765957667
20
-601.69526177347802
42
-0.41421356237326651
10
758.7520369511285
20
-600.92502586356193
0
LWPOLYLINE
5
255
100
AcDbEntity
8
0
100
AcDbPolyline
90
8
70
1
43
0.0
10
773.7047491637428
20
-617.39375069236212
10
776.19968945355595
20
-605.65597948355639
42
-0.41421356237298895
10
777.38574874510732
20
-604.88574357364064
10
789.12351995391305
20
-607.38068386345344
42
-0.41421356237302964
10
789.89375586382903
20
-608.56674315500504
10
787.398815574016
20
-620.30451436381077
42
-0.41421356237303397
10
786.21275628246417
20
-621.07475027372686
10
774.47498507365844
20
-618.57980998391372
42
-0.41421356237316048
0
LWPOLYLINE
5
256
100
AcDbEntity
8
0
100
AcDbPolyline
90
8
70
1
43
0.0
10
652.37846095772159
20
-602.62602544492677
42
-0.41421356237302964
10
653.14869686763768
20
-601.43996615337517
10
664.88646807644329
20
-598.94502586356214
42
-0.41421356237320117
10
666.07252736799478
20
-599.71526177347812
10
668.56746765780804
20
-611.45303298228396
42
-0.41421356237307466
10
667.79723174789194
20
-612.63909227383533
10
656.0594605390861
20
-615.13403256364859
42
-0.41421356237322154
10
654.87340124753462
20
-614.36379665373249
0
LWPOLYLINE
5
257
100
AcDbEntity
8
0
100
AcDbPolyline
90
8
70
1
43
0.0
10
660.92711304151362
20
-574.12307894365404
10
658.43217275170048
20
-562.38530773484842
42
-0.41421356237313145
10
659.20240866161646
20
-561.19924844329682
10
670.94017987042218
20
-558.70430815348368
42
-0.41421356237305429
10
672.12623916197367
20
-559.47454406339989
10
674.62117945178704
20
-571.21231527220539
42
-0.41421356237309936
10
673.85094354187106
20
-572.39837456375722
10
662.11317233306534
20
-574.89331485357025
42
-0.41421356237322154
0
LWPOLYLINE
5
258
100
AcDbEntity
8
0
100
AcDbPolyline
90
8
70
1
43
0.0
10
841.6192525137858
20
-587.77024692368354
10
841.61925251378591
20
-599.77024692368354
42
-0.41421356237309503
10
840.61925251378568
20
-600.77024692368377
10
828.6192525137858
20
-600.77024692368366
42
-0.41421356237313667
10
827.61925251378557
20
-599.77024692368354
10
827.6192525137858
20
-587.77024692368354
42
-0.41421356237307422
10
828.6192525137858
20
-586.77024692368366
10
840.61925251378568
20
-586.77024692368354
42
-0.41421356237301177
0
LWPOLYLINE
5
259
100
AcDbEntity
8
0
100
AcDbPolyline
90
8
70
1
43
0.0
10
851.43925251378562
20
-587.77024692368354
42
-0.41421356237309503
10
852.43925251378585
20
-586.77024692368332
10
864.43925251378573
20
-586.77024692368354
42
-0.4142135623730534
10
865.43925251378585
20
-587.77024692368343
10
865.43925251378596
20
-599.77024692368354
42
-0.41421356237309503
10
864.43925251378573
20
-600.77024692368377
10
852.43925251378585
20
-600.77024692368377
42
-0.41421356237297013
10
851.43925251378573
20
-599.77024692368354
0
LWPOLYLINE
5
260
100
AcDbEntity
8
0
100
AcDbPolyline
90
8
70
1
43
0.0
10
793.19925251378572
20
-549.67024692368352
42
-0.41421356237321988
10
794.19925251378572
20
-548.67024692368341
10
806.19925251378561
20
-548.67024692368352
42
-0.41421356237315748
10
807.19925251378584
20
-549.67024692368364
10
807.19925251378584
20
-561.67024692368364
42
-0.41421356237309503
10
806.19925251378561
20
-562.67024692368386
10
794.19925251378572
20
-562.67024692368364
42
-0.41421356237297013
10
793.19925251378572
20
-561.67024692368364
0
LWPOLYLINE
5
261
100
AcDbEntity
8
0
100
AcDbPolyline
90
8
70
1
43
0.0
10
690.05995095595279
20
-575.14382635332151
10
692.5548912457657
20
-586.88159756212713
42
-0.41421356237314011
10
691.78465533584972
20
-588.06765685367884
10
680.04688412704411
20
-590.56259714349187
42
-0.4142135623731808
10
678.86082483549274
20
-589.79236123357578
10
676.36588454567936
20
-578.05459002477005
42
-0.4142135623729396
10
677.13612045559557
20
-576.86853073321845
10
688.8738916644013
20
-574.37359044340542
42
-0.41421356237320117
0
LWPOLYLINE
5
262
100
AcDbEntity
8
0
100
AcDbPolyline
90
26
70
1
43
0.0
10
832.97925251378558
20
-606.82024692368361
42
-0.41421356237309503
10
833.97925251378581
20
-605.82024692368338
10
834.06625251379069
20
-605.82024692368361
10
834.06625091089779
20
-603.46524577212176
42
-0.4142142039465998
10
835.06625107481102
20
-602.46524374556373
10
863.94225022747128
20
-602.46524374556429
42
-0.41421474950321069
10
864.94225225402931
20
-603.46524577212233
10
864.94225251378964
20
-605.82024692368361
10
865.02925251378565
20
-605.8202469236835
42
-0.41421356237309503
10
866.02925251378565
20
-606.8202469236835
10
866.02925251378565
20
-618.82024692368361
42
-0.41421356237313667
10
865.02925251378554
20
-619.8202469236835
10
864.94225225402886
20
-619.8202469236835
10
864.94225225402886
20
-620.405243445157
42
-0.41421474950354364
10
863.94225022747082
20
-621.40524547171503
10
858.94225127055222
20
-621.40524547171458
42
-0.41421365839026181
10
857.94225296928471
20
-620.40524344515677
10
857.94225296928471
20
-619.8202469236835
10
841.0662520582872
20
-619.8202469236835
10
841.0662520582872
20
-620.40524344515654
42
-0.41421420394481001
10
840.06625189437443
20
-621.40524547171458
10
835.06625107481057
20
-621.40524547171412
42
-0.41421420394516384
10
834.06625091089768
20
-620.40524344515643
10
834.06625091089779
20
-619.8202469236835
10
833.97925251378581
20
-619.8202469236835
42
-0.41421356237297013
10
832.9792525137857
20
-618.82024692368361
0
LWPOLYLINE
5
263
100
AcDbEntity
8
0
100
AcDbPolyline
90
8
70
1
43
0.0
10
615.75925251378567
20
-568.72024692368359
10
615.75925251378578
20
-580.72024692368359
42
-0.41421356237313667
10
614.75925251378567
20
-581.7202469236837
10
602.75925251378567
20
-581.72024692368359
42
-0.41421356237307422
10
601.75925251378567
20
-580.72024692368359
10
601.75925251378567
20
-568.72024692368359
42
-0.41421356237309503
10
602.75925251378567
20
-567.72024692368359
10
614.75925251378567
20
-567.72024692368359
42
-0.41421356237307422
0
LWPOLYLINE
5
264
100
AcDbEntity
8
0
100
AcDbPolyline
90
8
70
1
43
0.0
10
620.1092525137858
20
-548.67024692368364
42
-0.41421356237313667
10
621.1092525137858
20
-549.67024692368364
10
621.1092525137858
20
-561.67024692368364
42
-0.41421356237303258
10
620.1092525137858
20
-562.67024692368352
10
608.10925251378558
20
-562.67024692368364
42
-0.41421356237309503
10
607.10925251378558
20
-561.67024692368364
10
607.10925251378558
20
-549.67024692368352
42
-0.41421356237303258
10
608.10925251378558
20
-548.67024692368364
0
LWPOLYLINE
5
265
100
AcDbEntity
8
0
100
AcDbPolyline
90
8
70
1
43
0.0
10
570.01925251378566
20
-543.62024692368357
42
-0.41421356237307422
10
569.01925251378566
20
-542.62024692368357
10
569.01925251378577
20
-530.62024692368357
42
-0.41421356237303258
10
570.01925251378566
20
-529.62024692368368
10
582.019252513786
20
-529.62024692368357
42
-0.41421356237307422
10
583.01925251378589
20
-530.62024692368357
10
583.01925251378566
20
-542.62024692368357
42
-0.4142135623730534
10
582.01925251378589
20
-543.62024692368345
0
LWPOLYLINE
5
266
100
AcDbEntity
8
0
100
AcDbPolyline
90
4
70
1
43
0.0
10
543.11925251378443
20
-526.84024692368348
10
547.11925251378443
20
-526.84024692368348
10
547.11925251378443
20
-540.84024692368359
10
543.11925251378443
20
-540.84024692368359
0
LINE
5
267
100
AcDbEntity
8
0
100
AcDbLine
10
570.79925251378563
20
-568.72024692368359
30
0
11
570.79925251378563
21
-580.72024692368359
31
0
0
ARC
5
268
100
AcDbEntity
8
0
100
AcDbCircle
10
571.79925251378575
20
-580.72024692368348
30
0
40
1.0000000000000853
210
0
220
0
230
1
100
AcDbArc
50
180
51
270
0
LINE
5
269
100
AcDbEntity
8
0
100
AcDbLine
10
571.79925251378575
20
-581.72024692368359
30
0
11
583.79925251378586
21
-581.7202469236837
31
0
0
LINE
5
270
100
AcDbEntity
8
0
100
AcDbLine
10
583.79925251378586
20
-567.72024692368359
30
0
11
571.79925251378575
21
-567.72024692368359
31
0
0
ARC
5
271
100
AcDbEntity
8
0
100
AcDbCircle
10
571.79925251378575
20
-568.72024692368359
30
0
40
1.0000000000000142
210
0
220
-0
230
1
100
AcDbArc
50
90
51
180
0
LWPOLYLINE
5
272
100
AcDbEntity
8
0
100
AcDbPolyline
90
20
70
1
43
0.0
10
591.59725384845387
20
-548.67024835419465
10
590.15925081505225
20
-548.67024835419465
10
590.15925251378576
20
-561.67024692368364
42
-0.41421356237307422
10
589.15925251378565
20
-562.67024692368364
10
577.15925251378565
20
-562.67024692368364
42
-0.41421356237309503
10
576.15925251378576
20
-561.67024692368364
10
576.15925224556474
20
-548.67024835419534
10
574.72125251378952
20
-548.67024835419534
10
574.72125293745557
20
-563.25524416041253
42
-0.41421420394497654
10
573.72125277354269
20
-564.25524618697011
10
568.72125195397871
20
-564.25524618697
42
-0.41421420394497654
10
567.72125179006616
20
-563.25524416041253
10
567.72125179006628
20
-546.31524648737786
42
-0.41421420394664143
10
568.72125195397894
20
-545.31524446081983
10
597.59725110663931
20
-545.31524446081983
42
-0.41421474950312742
10
598.59725313319723
20
-546.31524648737786
10
598.59725313319711
20
-563.25524416041253
42
-0.41421474950302334
10
597.5972511066401
20
-564.25524618697045
10
592.5972521497215
20
-564.25524618697023
42
-0.41421365839019941
10
591.59725384845387
20
-563.25524416041264
0
LWPOLYLINE
5
273
100
AcDbEntity
8
0
100
AcDbPolyline
90
8
70
1
43
0.0
10
589.64925251378588
20
-619.82024692368361
10
577.64925251378577
20
-619.82024692368373
42
-0.41421356237307422
10
576.64925251378565
20
-618.82024692368361
10
576.64925251378577
20
-606.82024692368361
42
-0.41421356237313667
10
577.64925251378577
20
-605.82024692368361
10
589.64925251378588
20
-605.82024692368361
42
-0.41421356237309503
10
590.64925251378588
20
-606.82024692368361
10
590.64925251378577
20
-618.82024692368361
42
-0.41421356237311585
0
LWPOLYLINE
5
274
100
AcDbEntity
8
0
100
AcDbPolyline
90
8
70
1
43
0.0
10
716.47384969172151
20
-547.8276568536786
42
-0.41421356237322154
10
715.70361378180553
20
-546.64159756212712
10
718.19855407161867
20
-534.90382635332128
42
-0.41421356237307905
10
719.38461336317027
20
-534.13359044340541
10
731.122384571976
20
-536.62853073321867
42
-0.41421356237322154
10
731.8926204818921
20
-537.81459002477004
10
729.39768019207895
20
-549.55236123357577
42
-0.41421356237307466
10
728.21162090052724
20
-550.32259714349175
0
LWPOLYLINE
5
275
100
AcDbEntity
8
0
100
AcDbPolyline
90
8
70
1
43
0.0
10
736.83226586559783
20
-538.86454406339988
42
-0.41421356237305867
10
738.01832515714921
20
-538.09430815348378
10
749.75609636595493
20
-540.5892484432967
42
-0.41421356237305001
10
750.5263322758708
20
-541.77530773484841
10
748.03139198605777
20
-553.51307894365402
42
-0.41421356237305867
10
746.8453326945064
20
-554.28331485357012
10
735.10756148570067
20
-551.78837456375686
42
-0.41421356237311541
10
734.3373255757848
20
-550.60231527220549
0
LWPOLYLINE
5
276
100
AcDbEntity
8
0
100
AcDbPolyline
90
8
70
1
43
0.0
10
566.62925251378567
20
-607.9602469236836
42
-0.41421356237309503
10
567.62925251378567
20
-608.9602469236836
10
567.62925251378567
20
-620.9602469236836
42
-0.41421356237303258
10
566.62925251378567
20
-621.9602469236836
10
554.62925251378579
20
-621.9602469236836
42
-0.41421356237309503
10
553.62925251378579
20
-620.9602469236836
10
553.62925251378567
20
-608.9602469236836
42
-0.41421356237313667
10
554.62925251378579
20
-607.96024692368348
0
LWPOLYLINE
5
277
100
AcDbEntity
8
0
100
AcDbPolyline
90
8
70
1
43
0.0
10
559.39925251378565
20
-582.86024692368346
42
-0.41421356237299095
10
558.39925251378577
20
-583.86024692368346
10
546.39925251378577
20
-583.86024692368358
42
-0.41421356237311585
10
545.39925251378577
20
-582.86024692368346
10
545.39925251378577
20
-570.86024692368358
42
-0.41421356237309503
10
546.39925251378577
20
-569.86024692368369
10
558.39925251378588
20
-569.86024692368358
42
-0.41421356237301177
10
559.39925251378565
20
-570.86024692368369
0
LWPOLYLINE
5
278
100
AcDbEntity
8
0
100
AcDbPolyline
90
20
70
1
43
0.0
10
755.11593274784332
20
-520.62512134150893
10
760.00667155316614
20
-521.66467996599476
42
-0.41421420394498704
10
760.77690720206829
20
-522.85074127389828
10
757.25488364341845
20
-539.42055935421331
42
-0.41421420394674791
10
756.06882377019076
20
-540.19079721232276
10
727.82383448022517
20
-534.1871394044407
42
-0.41421474950310028
10
727.05359700938106
20
-533.00107770927139
10
730.5756205680309
20
-516.43125962895624
42
-0.41421474950341858
10
731.76168226320033
20
-515.66102215811247
10
736.65241924658176
20
-516.70058039533262
42
-0.4142136583902431
10
737.42265307354171
20
-517.88664131597045
10
734.39026152048382
20
-532.15291988244735
10
735.7968411518691
20
-532.45189761260974
10
738.49968945355522
20
-519.73597948355643
42
-0.4142135623730136
10
739.68574874510739
20
-518.96574357364034
10
751.42351995391311
20
-521.46068386345382
42
-0.41421356237300933
10
752.19375586382921
20
-522.64674315500542
10
749.49090616289095
20
-535.36266098663828
10
750.89748043047041
20
-535.66163757668869
10
753.92987287461551
20
-521.39535919961816
42
-0.41421420394500069
0
LWPOLYLINE
5
279
100
AcDbEntity
8
0
100
AcDbPolyline
90
8
70
1
43
0.0
10
562.4692525137857
20
-602.91024692368353
10
550.46925251378582
20
-602.91024692368364
42
-0.41421356237307422
10
549.46925251378593
20
-601.91024692368364
10
549.46925251378548
20
-589.91024692368353
42
-0.41421356237311585
10
550.46925251378582
20
-588.9102469236833
10
562.4692525137857
20
-588.91024692368353
42
-0.41421356237313667
10
563.46925251378582
20
-589.91024692368353
10
563.46925251378593
20
-601.91024692368364
42
-0.41421356237309503
0
LWPOLYLINE
5
280
100
AcDbEntity
8
0
100
AcDbPolyline
90
8
70
1
43
0.0
10
621.70474916374258
20
-529.70674315500503
42
-0.41421356237307466
10
622.47498507365867
20
-528.52068386345343
10
634.21275628246417
20
-526.02574357364028
42
-0.41421356237313572
10
635.39881557401588
20
-526.79597948355638
10
637.89375586382891
20
-538.5337506923621
42
-0.41421356237309503
10
637.12351995391271
20
-539.71980998391382
10
625.38574874510709
20
-542.21475027372674
42
-0.41421356237309503
10
624.19968945355561
20
-541.44451436381075
0
LWPOLYLINE
5
281
100
AcDbEntity
8
0
100
AcDbPolyline
90
8
70
1
43
0.0
10
601.05925251378562
20
-599.77024692368354
10
601.05925251378551
20
-587.77024692368354
42
-0.41421356237309503
10
602.05925251378574
20
-586.77024692368332
10
614.05925251378574
20
-586.77024692368354
42
-0.41421356237309503
10
615.05925251378585
20
-587.77024692368354
10
615.05925251378585
20
-599.77024692368354
42
-0.41421356237313667
10
614.05925251378574
20
-600.77024692368366
10
602.05925251378574
20
-600.77024692368366
42
-0.4142135623730534
0
LWPOLYLINE
5
282
100
AcDbEntity
8
0
100
AcDbPolyline
90
8
70
1
43
0.0
10
660.56723174789215
20
-555.74909227383546
10
648.82946053908631
20
-558.24403256364849
42
-0.41421356237307466
10
647.6434012475346
20
-557.47379665373239
10
645.14846095772123
20
-545.73602544492678
42
-0.41421356237302964
10
645.91869686763744
20
-544.54996615337507
10
657.65646807644328
20
-542.05502586356204
42
-0.41421356237305001
10
658.84252736799476
20
-542.82526177347813
10
661.33746765780802
20
-554.56303298228374
42
-0.41421356237302964
0
LWPOLYLINE
5
283
100
AcDbEntity
8
0
100
AcDbPolyline
90
8
70
1
43
0.0
10
577.2492525137859
20
-587.77024692368354
42
-0.41421356237311585
10
578.24925251378568
20
-586.77024692368366
10
590.24925251378579
20
-586.77024692368354
42
-0.41421356237311585
10
591.24925251378568
20
-587.77024692368354
10
591.24925251378568
20
-599.77024692368354
42
-0.41421356237313667
10
590.24925251378568
20
-600.77024692368366
10
578.24925251378568
20
-600.77024692368366
42
-0.41421356237307422
10
577.24925251378568
20
-599.77024692368354
0
LWPOLYLINE
5
284
100
AcDbEntity
8
0
100
AcDbPolyline
90
8
70
1
43
0.0
10
736.48238457197613
20
-557.23853073321845
42
-0.41421356237298895
10
737.25262048189211
20
-558.42459002477005
10
734.75768019207885
20
-570.16236123357567
42
-0.4142135623730136
10
733.57162090052714
20
-570.93259714349176
10
721.83384969172164
20
-568.43765685367885
42
-0.41421356237305001
10
721.06361378180554
20
-567.25159756212702
10
723.55855407161857
20
-555.51382635332141
42
-0.41421356237316048
10
724.74461336317017
20
-554.74359044340542
0
LWPOLYLINE
5
285
100
AcDbEntity
8
0
100
AcDbPolyline
90
24
70
1
43
0.0
10
649.33045854404622
20
-522.72866465300604
42
-0.023632142358916905
10
649.42183883820417
20
-522.70467882588457
10
654.31257582158548
20
-521.66512058866465
42
-0.41421365839014918
10
655.49863387287121
20
-522.43535883403922
10
655.62211766176301
20
-523.01630438529423
42
-0.023635684844520683
10
655.71351137939632
20
-522.99231397905396
10
657.91360676179329
20
-522.52466926922568
42
-0.023631635431702349
10
658.00498507365864
20
-522.50068386345356
10
669.74275628246448
20
-520.00574357364042
42
-0.023635682940389063
10
669.83600634188565
20
-519.99048656884554
10
669.71437825977091
20
-519.41827143157138
42
-0.41421420394511355
10
670.48461390867271
20
-518.23221012366787
10
672.68471085065403
20
-517.76456508233969
42
-0.023631676431471765
10
672.77608932284829
20
-517.74057964248846
10
677.66682812817169
20
-516.70102101800273
42
-0.41421420394500508
10
678.85288800139904
20
-517.47125887611207
10
682.37491156004864
20
-534.04107695642733
42
-0.41421420394642755
10
681.6046759111465
20
-535.22713826433096
10
679.40457896916769
20
-535.69478330565869
42
-0.023631676432242468
10
679.31320049697138
20
-535.71876874551026
10
651.06821120700533
20
-541.72242655339198
42
-0.41421474950307557
10
649.88214951183591
20
-540.9521890825481
10
646.36012595318664
20
-524.38237100223296
42
-0.41421474950301451
10
647.13036342402847
20
-523.19630930706398
0
LINE
5
286
100
AcDbEntity
8
0
100
AcDbLine
10
615.09475865264858
20
-508.62070634907212
30
0
11
533.39925251378577
21
-508.62070634907207
31
0
0
LINE
5
287
100
AcDbEntity
8
0
100
AcDbLine
10
808.44374637492228
20
-508.62070634907246
30
0
11
718.21451492913582
21
-489.44189115082787
31
0
0
LINE
5
288
100
AcDbEntity
8
0
100
AcDbLine
10
808.44374637492228
20
-508.62070634907246
30
0
11
890.63800251378609
21
-508.62070634907212
31
0
0
ARC
5
289
100
AcDbEntity
8
0
100
AcDbCircle
10
890.63800251378609
20
-517.62070634907218
30
0
40
9.0000000000000568
210
0
220
-0
230
1
100
AcDbArc
50
0
51
90
0
LINE
5
290
100
AcDbEntity
8
0
100
AcDbLine
10
899.6380025137862
20
-517.62070634907218
30
0
11
899.63800251378598
21
-633.9607063490721
31
0
0
ARC
5
291
100
AcDbEntity
8
0
100
AcDbCircle
10
890.63800251378598
20
-633.9607063490721
30
0
40
8.9999999999999858
210
-0
220
0
230
1
100
AcDbArc
50
-90
51
0
0
LINE
5
292
100
AcDbEntity
8
0
100
AcDbLine
10
725.76929155903269
20
-642.96070634907221
30
0
11
890.63800251378598
21
-642.9607063490721
31
0
0
ARC
5
293
100
AcDbEntity
8
0
100
AcDbCircle
10
533.39925251378577
20
-633.9607063490721
30
0
40
9.0000000000000568
210
0
220
0
230
1
100
AcDbArc
50
180
51
270
0
LINE
5
294
100
AcDbEntity
8
0
100
AcDbLine
10
524.39925251378577
20
-517.62070634907207
30
0
11
524.39925251378565
21
-633.9607063490721
31
0
0
ARC
5
295
100
AcDbEntity
8
0
100
AcDbCircle
10
533.39925251378577
20
-517.62070634907207
30
0
40
8.9999999999999858
210
0
220
-0
230
1
100
AcDbArc
50
90
51
180
0
LINE
5
296
100
AcDbEntity
8
0
100
AcDbLine
10
705.32399009843505
20
-489.4418911508273
30
0
11
615.09475865264858
21
-508.62070634907212
31
0
0
ARC
5
297
100
AcDbEntity
8
0
100
AcDbCircle
10
711.76925251378543
20
-519.76446677357592
30
0
40
31.000000000000053
210
0
220
-0
230
1
100
AcDbArc
50
78.000000000000313
51
101.99999999999949
0
CIRCLE
5
298
100
AcDbEntity
8
0
100
AcDbCircle
10
664.91596025747083
20
-508.76545928376515
30
0
40
2.5
210
0
220
0
230
1
0
CIRCLE
5
299
100
AcDbEntity
8
0
100
AcDbCircle
10
664.91596025747128
20
-632.4607063490721
30
0
40
2.5
210
0
220
0
230
1
0
CIRCLE
5
300
100
AcDbEntity
8
0
100
AcDbCircle
10
758.62254477009833
20
-508.76545928376515
30
0
40
2.5
210
0
220
0
230
1
0
CIRCLE
5
301
100
AcDbEntity
8
0
100
AcDbCircle
10
889.13800251378575
20
-519.12070634907218
30
0
40
2.5
210
0
220
0
230
1
0
CIRCLE
5
302
100
AcDbEntity
8
0
100
AcDbCircle
10
889.13800251378575
20
-632.46070634907187
30
0
40
2.5
210
0
220
0
230
1
0
CIRCLE
5
303
100
AcDbEntity
8
0
100
AcDbCircle
10
758.62254477009833
20
-632.4607063490721
30
0
40
2.5
210
0
220
0
230
1
0
CIRCLE
5
304
100
AcDbEntity
8
0
100
AcDbCircle
10
534.89925251378565
20
-519.12070634907207
30
0
40
2.5
210
0
220
0
230
1
0
CIRCLE
5
305
100
AcDbEntity
8
0
100
AcDbCircle
10
534.89925251378577
20
-632.46070634907221
30
0
40
2.5
210
0
220
0
230
1
0
ARC
5
306
100
AcDbEntity
8
0
100
AcDbCircle
10
588.55925251378585
20
-580.7202469236837
30
0
40
1.0000000000000142
210
0
220
0
230
1
100
AcDbArc
50
-89.999999999993491
51
0
0
LINE
5
307
100
AcDbEntity
8
0
100
AcDbLine
10
588.55925251378596
20
-581.7202469236837
30
0
11
576.55925251378585
21
-581.72024692368359
31
0
0
LINE
5
308
100
AcDbEntity
8
0
100
AcDbLine
10
576.55925251378585
20
-567.72024692368348
30
0
11
588.55925251378596
21
-567.72024692368359
31
0
0
ARC
5
309
100
AcDbEntity
8
0
100
AcDbCircle
10
588.55925251378585
20
-568.72024692368359
30
0
40
0.99999999999994316
210
0
220
0
230
1
100
AcDbArc
50
0
51
89.999999999993491
0
LINE
5
310
100
AcDbEntity
8
0
100
AcDbLine
10
589.55925251378574
20
-568.72024692368359
30
0
11
589.55925251378585
21
-580.72024692368359
31
0
0
LWPOLYLINE
5
311
100
AcDbEntity
8
0
100
AcDbPolyline
90
8
70
1
43
0.0
10
814.92925251378551
20
-605.82024692368395
10
826.92925251378597
20
-605.8202469236835
42
-0.41421356237309503
10
827.92925251378597
20
-606.8202469236835
10
827.92925251378563
20
-618.82024692368361
42
-0.41421356237309503
10
826.92925251378597
20
-619.82024692368327
10
814.92925251378551
20
-619.8202469236835
42
-0.41421356237297013
10
813.9292525137854
20
-618.82024692368361
10
813.92925251378585
20
-606.8202469236835
42
-0.41421356237307422
0
LINE
5
312
100
AcDbEntity
8
0
100
AcDbLine
10
834.06625251379069
20
-605.82024692368361
30
0
11
833.97925251378547
21
-605.82024692368395
31
0
0
ARC
5
313
100
AcDbEntity
8
0
100
AcDbCircle
10
833.97925251378547
20
-606.82024692368361
30
0
40
0.99999999999958789
210
0
220
-0
230
1
100
AcDbArc
50
90
51
180
0
LINE
5
314
100
AcDbEntity
8
0
100
AcDbLine
10
832.97925251378592
20
-606.8202469236835
30
0
11
832.97925251378547
21
-618.82024692368361
31
0
0
ARC
5
315
100
AcDbEntity
8
0
100
AcDbCircle
10
833.9792525137857
20
-618.82024692368327
30
0
40
1.0000000000002274
210
0
220
0
230
1
100
AcDbArc
50
180
51
269.99999999998698
0
LINE
5
316
100
AcDbEntity
8
0
100
AcDbLine
10
865.02925251378599
20
-605.8202469236835
30
0
11
864.94225251378964
21
-605.82024692368361
31
0
0
ARC
5
317
100
AcDbEntity
8
0
100
AcDbCircle
10
865.02925251378599
20
-618.82024692368361
30
0
40
0.99999999999965894
210
-0
220
0
230
1
100
AcDbArc
50
-90
51
0
0
LINE
5
318
100
AcDbEntity
8
0
100
AcDbLine
10
866.02925251378565
20
-618.82024692368361
30
0
11
866.02925251378588
21
-606.8202469236835
31
0
0
ARC
5
319
100
AcDbEntity
8
0
100
AcDbCircle
10
865.02925251378599
20
-606.8202469236835
30
0
40
0.99999999999994316
210
-0
220
0
230
1
100
AcDbArc
50
0
51
90
0
LINE
5
320
100
AcDbEntity
8
0
100
AcDbLine
10
853.02925251378554
20
-619.8202469236835
30
0
11
857.94225296928471
21
-619.8202469236835
31
0
0
LINE
5
321
100
AcDbEntity
8
0
100
AcDbLine
10
864.94225225402886
20
-619.8202469236835
30
0
11
865.02925251378599
21
-619.82024692368327
31
0
0
LINE
5
322
100
AcDbEntity
8
0
100
AcDbLine
10
833.97925251378547
20
-619.8202469236835
30
0
11
834.06625091089779
21
-619.8202469236835
31
0
0
LINE
5
323
100
AcDbEntity
8
0
100
AcDbLine
10
841.0662520582872
20
-619.8202469236835
30
0
11
845.97925251378592
21
-619.82024692368327
31
0
0
LINE
5
324
100
AcDbEntity
8
0
100
AcDbLine
10
725.76929155903269
20
-642.96070634907221
30
0
11
697.76929155904986
21
-642.96070634907221
31
0
0
ENDSEC
0
SECTION
2
OBJECTS
0
DICTIONARY
5
C
100
AcDbDictionary
3
ACAD_GROUP
350
D
3
ACAD_MLINESTYLE
350
17
0
DICTIONARY
5
D
100
AcDbDictionary
0
DICTIONARY
5
1A
330
C
100
AcDbDictionary
0
DICTIONARY
5
17
100
AcDbDictionary
0
ENDSEC
0
EOF
