0
SECTION
2
HEADER
9
$INSUNITS
70
4
9
$ACADVER
1
AC1014
9
$HANDSEED
5
FFFF
0
ENDSEC
0
SECTION
2
TABLES
0
TABLE
2
VPORT
5
8
100
AcDbSymbolTable
0
ENDTAB
0
TABLE
2
LTYPE
5
5
100
AcDbSymbolTable
0
LTYPE
5
14
100
AcDbSymbolTableRecord
100
AcDbLinetypeTableRecord
2
BYBLOCK
70
0
0
LTYPE
5
15
100
AcDbSymbolTableRecord
100
AcDbLinetypeTableRecord
2
BYLAYER
70
0
0
ENDTAB
0
TABLE
2
LAYER
5
2
100
AcDbSymbolTable
70
2
0
LAYER
5
50
100
AcDbSymbolTableRecord
100
AcDbLayerTableRecord
2
0
70
0
6
CONTINUOUS
0
ENDTAB
0
TABLE
2
STYLE
5
3
100
AcDbSymbolTable
70
1
0
STYLE
5
11
100
AcDbSymbolTableRecord
100
AcDbTextStyleTableRecord
2
STANDARD
70
0
0
ENDTAB
0
TABLE
2
VIEW
5
6
100
AcDbSymbolTable
70
0
0
ENDTAB
0
TABLE
2
UCS
5
7
100
AcDbSymbolTable
70
0
0
ENDTAB
0
TABLE
2
APPID
5
9
100
AcDbSymbolTable
70
2
0
APPID
5
12
100
AcDbSymbolTableRecord
100
AcDbRegAppTableRecord
2
ACAD
70
0
0
ENDTAB
0
TABLE
2
DIMSTYLE
5
A
100
AcDbSymbolTable
70
1
0
ENDTAB
0
TABLE
2
BLOCK_RECORD
5
1
100
AcDbSymbolTable
70
1
0
BLOCK_RECORD
5
1F
100
AcDbSymbolTableRecord
100
AcDbBlockTableRecord
2
*MODEL_SPACE
0
BLOCK_RECORD
5
1B
100
AcDbSymbolTableRecord
100
AcDbBlockTableRecord
2
*PAPER_SPACE
0
ENDTAB
0
ENDSEC
0
SECTION
2
BLOCKS
0
BLOCK
5
20
100
AcDbEntity
100
AcDbBlockBegin
2
*MODEL_SPACE
0
ENDBLK
5
21
100
AcDbEntity
100
AcDbBlockEnd
0
BLOCK
5
1C
100
AcDbEntity
100
AcDbBlockBegin
2
*PAPER_SPACE
0
ENDBLK
5
1D
100
AcDbEntity
100
AcDbBlockEnd
0
ENDSEC
0
SECTION
2
ENTITIES
0
LWPOLYLINE
5
100
100
AcDbEntity
8
0
100
AcDbPolyline
90
44
70
1
43
0.0
10
-614.71431664113186
20
-527.07301877096529
42
-0.41421356237303786
10
-613.55896277625789
20
-528.85210770829258
10
-617.12748670617111
20
-545.64069283535741
10
-590.8192525137863
20
-545.64069283535741
10
-590.8192525137863
20
-528.09069283535746
42
-0.41421356237310897
10
-589.3192525137863
20
-526.59069283535746
10
-562.71925251378639
20
-526.59069283535746
42
-0.41421356237313667
10
-561.21925251378627
20
-528.09069283535757
10
-561.21925251378627
20
-564.20069283535759
42
-0.4142135623730534
10
-562.71925251378639
20
-565.70069283535759
10
-565.38925251378623
20
-565.70069283535759
10
-565.38925251378623
20
-583.25069283535754
42
-0.41421356237310897
10
-566.88925251378635
20
-584.75069283535754
10
-569.4592525137864
20
-584.75069283535754
10
-569.45925251378617
20
-602.30069283535749
42
-0.41421356237309503
10
-570.95925251378605
20
-603.80069283535749
10
-573.61925251378636
20
-603.80069283535749
10
-573.61925251378636
20
-621.35069283535756
42
-0.41421356237312279
10
-575.11925251378648
20
-622.85069283535745
10
-611.30925251378608
20
-622.85069283535745
10
-611.30925251378619
20
-623.49069283535755
42
-0.41421356237309503
10
-612.80925251378619
20
-624.99069283535755
10
-629.86925251378636
20
-624.99069283535755
42
-0.4142135623730534
10
-631.36925251378648
20
-623.49069283535766
10
-631.36925251378648
20
-623.48214799989319
10
-708.16820580694798
20
-607.15802654804224
42
-0.41421356237309215
10
-709.32355967182184
20
-605.37893761071473
10
-705.77658622647107
20
-588.69173954219605
42
-0.41421356237316581
10
-703.99749728914367
20
-587.53638567732196
10
-696.14689308831873
20
-589.20508311328149
10
-692.39559982930007
20
-571.55663589741812
10
-695.5882058069476
20
-570.87802654804204
42
-0.41421356237315221
10
-696.7435596718218
20
-569.09893761071476
10
-693.09527200195828
20
-551.93509359103609
10
-700.93820580694796
20
-550.26802654804226
42
-0.41421356237311929
10
-702.09355967182205
20
-548.48893761071474
10
-698.44432900787251
20
-531.32065715266617
10
-706.07820580694806
20
-529.69802654804232
42
-0.41421356237307855
10
-707.23355967182204
20
-527.91893761071503
10
-703.68658622647092
20
-511.23173954219612
42
-0.41421356237308149
10
-701.90749728914375
20
-510.07638567732192
10
-642.49324779049221
20
-522.70527426495971
10
-642.49256880596386
20
-522.70207989390337
42
-0.41421356237306789
10
-640.71347986863645
20
-521.54672602902929
0
LWPOLYLINE
5
101
100
AcDbEntity
8
0
100
AcDbPolyline
90
20
70
1
43
0.0
10
-542.36925251378636
20
-585.39069283535753
10
-542.36925251378636
20
-568.33069283535747
42
0.41421356237312279
10
-543.86925251378648
20
-566.83069283535758
10
-560.9292525137862
20
-566.83069283535758
42
0.41421356237308116
10
-562.4292525137862
20
-568.33069283535747
10
-562.4292525137862
20
-585.88069283535765
10
-564.99925251378636
20
-585.88069283535754
42
0.41421356237308116
10
-566.49925251378613
20
-587.38069283535754
10
-566.49925251378613
20
-604.9306928353576
10
-569.15925251378644
20
-604.93069283535749
42
0.41421356237309503
10
-570.65925251378644
20
-606.43069283535749
10
-570.65925251378621
20
-623.49069283535755
42
0.41421356237308116
10
-569.15925251378644
20
-624.99069283535744
10
-552.09925251378627
20
-624.99069283535755
42
0.41421356237310897
10
-550.59925251378627
20
-623.49069283535755
10
-550.59925251378627
20
-605.94069283535759
10
-547.9392525137863
20
-605.94069283535748
42
0.41421356237306733
10
-546.4392525137863
20
-604.44069283535759
10
-546.43925251378619
20
-586.89069283535764
10
-543.86925251378648
20
-586.89069283535753
42
0.41421356237310897
0
LWPOLYLINE
5
102
100
AcDbEntity
8
0
100
AcDbPolyline
90
44
70
1
43
0.0
10
-714.28100773842925
20
-568.89638567732186
42
-0.41421356237308438
10
-712.50191880110162
20
-570.05173954219606
10
-708.95494535575062
20
-586.73893761071486
42
-0.41421356237301071
10
-710.11029922062471
20
-588.51802654804214
10
-717.95526670882964
20
-590.1855258637479
10
-714.30494535575076
20
-607.35893761071463
42
-0.41421356237309503
10
-715.46029922062485
20
-609.13802654804203
10
-789.39932082757764
20
-624.85425075406147
42
-0.042377065210120336
10
-789.65115548857614
20
-624.88582755615289
10
-792.23924810554422
20
-624.98949103854966
42
-0.010008486346783101
10
-792.2992809807721
20
-624.99069283535755
10
-810.8292525137864
20
-624.99069283535755
42
-0.41421356237312279
10
-812.32925251378663
20
-623.49069283535755
10
-812.32925251378617
20
-622.85069283535745
10
-867.55925251378642
20
-622.85069283535745
42
-0.41421356237310897
10
-869.0592525137863
20
-621.35069283535745
10
-869.0592525137863
20
-603.80069283535761
10
-871.72925251378615
20
-603.80069283535772
42
-0.41421356237297013
10
-873.22925251378649
20
-602.30069283535749
10
-873.22925251378649
20
-584.75069283535754
10
-875.98925251378648
20
-584.75069283535754
42
-0.41421356237315055
10
-877.48925251378648
20
-583.25069283535754
10
-877.48925251378637
20
-565.70069283535759
10
-880.1680025137864
20
-565.70069283535724
42
-0.4142135623730257
10
-881.66800251378618
20
-564.20069283535759
10
-881.66800251378629
20
-547.14069283535753
42
-0.41421356237308116
10
-880.1680025137864
20
-545.64069283535741
10
-877.99485251378644
20
-545.64069283535741
10
-877.99485251378644
20
-528.04269283535746
42
-0.41421356237310897
10
-876.49485251378633
20
-526.54269283535757
10
-849.89485251378653
20
-526.54269283535746
42
-0.41421356237312279
10
-848.3948525137863
20
-528.04269283535746
10
-848.3948525137863
20
-545.64069283535741
10
-797.18101832140167
20
-545.64069283535741
10
-800.74954225131501
20
-528.85210770829281
42
-0.41421356237313867
10
-799.59418838644069
20
-527.07301877096529
10
-773.59501991436173
20
-521.54672491426084
42
-0.41343065285079716
10
-771.81677007956182
20
-522.69815690067117
10
-721.50361878108686
20
-512.00376645388349
42
-0.41421356237309503
10
-719.72452984375934
20
-513.15912031875746
10
-712.21533415476972
20
-548.48710845514302
42
-0.41421356237306789
10
-713.37068801964381
20
-550.26619739247053
10
-721.22318955192156
20
-551.93529811868007
10
-717.47375006783943
20
-569.57502400915985
0
LWPOLYLINE
5
103
100
AcDbEntity
8
0
100
AcDbPolyline
90
12
70
1
43
0.0
10
-718.21451492913661
20
-490.97540204312565
42
-0.10510423526567189
10
-705.32399009843618
20
-490.97540204312565
10
-615.25241500554694
20
-510.12070634907218
10
-534.89925251378577
20
-510.12070634907224
42
-0.41421356237309503
10
-525.89925251378577
20
-519.12070634907218
10
-525.899252513786
20
-632.46070634907232
42
-0.41421356237309503
10
-534.89925251378577
20
-641.4607063490721
10
-889.13800251378575
20
-641.46070634907221
42
-0.41421356237309503
10
-898.13800251378575
20
-632.4607063490721
10
-898.13800251378575
20
-519.12070634907218
42
-0.41421356237309503
10
-889.13800251378575
20
-510.12070634907218
10
-808.2860900220237
20
-510.12070634907218
0
CIRCLE
5
104
100
AcDbEntity
8
0
100
AcDbCircle
10
-534.89925251378577
20
-632.46070634907232
30
0
40
2.5
210
0
220
0
230
1
0
CIRCLE
5
105
100
AcDbEntity
8
0
100
AcDbCircle
10
-545.11925251378443
20
-529.34024692368348
30
0
40
2.0000000000000284
210
0
220
0
230
1
0
CIRCLE
5
106
100
AcDbEntity
8
0
100
AcDbCircle
10
-758.62254477009833
20
-508.76545928376515
30
0
40
2.5
210
0
220
0
230
1
0
CIRCLE
5
107
100
AcDbEntity
8
0
100
AcDbCircle
10
-889.13800251378575
20
-519.12070634907218
30
0
40
2.5
210
0
220
0
230
1
0
CIRCLE
5
108
100
AcDbEntity
8
0
100
AcDbCircle
10
-664.91596025747128
20
-632.4607063490721
30
0
40
2.5
210
0
220
0
230
1
0
CIRCLE
5
109
100
AcDbEntity
8
0
100
AcDbCircle
10
-889.13800251378575
20
-632.4607063490721
30
0
40
2.5
210
0
220
0
230
1
0
CIRCLE
5
110
100
AcDbEntity
8
0
100
AcDbCircle
10
-545.11925251378443
20
-538.34024692368348
30
0
40
2.0000000000000284
210
0
220
0
230
1
0
CIRCLE
5
111
100
AcDbEntity
8
0
100
AcDbCircle
10
-534.89925251378577
20
-519.12070634907218
30
0
40
2.5
210
0
220
0
230
1
0
CIRCLE
5
112
100
AcDbEntity
8
0
100
AcDbCircle
10
-545.11925251378443
20
-533.84024692368359
30
0
40
2.0000000000000284
210
0
220
0
230
1
0
CIRCLE
5
113
100
AcDbEntity
8
0
100
AcDbCircle
10
-664.91596025747083
20
-508.76545928376515
30
0
40
2.5
210
0
220
0
230
1
0
CIRCLE
5
114
100
AcDbEntity
8
0
100
AcDbCircle
10
-758.62254477009833
20
-632.4607063490721
30
0
40
2.5
210
0
220
0
230
1
0
LWPOLYLINE
5
115
100
AcDbEntity
8
0
100
AcDbPolyline
90
12
70
1
43
0.0
10
-718.21451492913661
20
-490.97540204312565
42
-0.10510423526567167
10
-705.32399009843618
20
-490.9754020431256
10
-615.25241500554694
20
-510.12070634907224
10
-534.89925251378577
20
-510.12070634907218
42
-0.41421356237309503
10
-525.89925251378565
20
-519.12070634907218
10
-525.89925251378565
20
-632.46070634907232
42
-0.41421356237309503
10
-534.89925251378577
20
-641.46070634907232
10
-889.13800251378575
20
-641.46070634907221
42
-0.41421356237309503
10
-898.13800251378575
20
-632.4607063490721
10
-898.13800251378575
20
-519.12070634907218
42
-0.41421356237309503
10
-889.13800251378575
20
-510.12070634907212
10
-808.2860900220237
20
-510.12070634907218
0
LWPOLYLINE
5
116
100
AcDbEntity
8
0
100
AcDbPolyline
90
44
70
1
43
0.0
10
-614.71431664113186
20
-527.07301877096529
10
-640.71347986863645
20
-521.54672602902917
42
0.4142135623730408
10
-642.49256880596386
20
-522.70207989390337
10
-642.49324779049221
20
-522.70527426495971
10
-701.90749728914375
20
-510.07638567732187
42
0.41421356237306789
10
-703.68658622647104
20
-511.23173954219612
10
-707.23355967182204
20
-527.91893761071503
42
0.41421356237313572
10
-706.07820580694784
20
-529.69802654804221
10
-698.44432900787251
20
-531.32065715266617
10
-702.09355967182205
20
-548.48893761071463
42
0.41421356237310863
10
-700.93820580694796
20
-550.26802654804203
10
-693.09527200195828
20
-551.93509359103609
10
-696.7435596718218
20
-569.09893761071487
42
0.41421356237312507
10
-695.58820580694771
20
-570.87802654804216
10
-692.39559982930007
20
-571.55663589741812
10
-696.14689308831873
20
-589.20508311328149
10
-703.99749728914367
20
-587.53638567732196
42
0.41421356237325008
10
-705.77658622647107
20
-588.69173954219616
10
-709.32355967182173
20
-605.37893761071473
42
0.41421356237305723
10
-708.16820580694775
20
-607.15802654804202
10
-631.36925251378648
20
-623.48214799989319
10
-631.36925251378648
20
-623.49069283535755
42
0.41421356237306733
10
-629.86925251378636
20
-624.99069283535755
10
-612.80925251378619
20
-624.99069283535755
42
0.41421356237309503
10
-611.30925251378619
20
-623.49069283535755
10
-611.30925251378608
20
-622.85069283535745
10
-575.11925251378648
20
-622.85069283535745
42
0.41421356237313667
10
-573.61925251378625
20
-621.35069283535756
10
-573.61925251378636
20
-603.80069283535749
10
-570.95925251378605
20
-603.80069283535749
42
0.41421356237308116
10
-569.45925251378605
20
-602.30069283535749
10
-569.4592525137864
20
-584.75069283535754
10
-566.88925251378635
20
-584.75069283535754
42
0.41421356237310897
10
-565.38925251378623
20
-583.25069283535754
10
-565.38925251378623
20
-565.70069283535759
10
-562.71925251378639
20
-565.70069283535759
42
0.41421356237306733
10
-561.21925251378639
20
-564.20069283535759
10
-561.21925251378627
20
-528.09069283535746
42
0.41421356237315055
10
-562.71925251378639
20
-526.59069283535746
10
-589.3192525137863
20
-526.59069283535746
42
0.41421356237310897
10
-590.8192525137863
20
-528.09069283535746
10
-590.8192525137863
20
-545.64069283535741
10
-617.12748670617111
20
-545.64069283535741
10
-613.55896277625789
20
-528.85210770829258
42
0.41421356237298068
0
LWPOLYLINE
5
117
100
AcDbEntity
8
0
100
AcDbPolyline
90
20
70
1
43
0.0
10
-543.86925251378648
20
-566.8306928353577
42
-0.41421356237313667
10
-542.36925251378636
20
-568.33069283535747
10
-542.36925251378636
20
-585.39069283535753
42
-0.41421356237310897
10
-543.86925251378648
20
-586.89069283535753
10
-546.43925251378619
20
-586.89069283535753
10
-546.4392525137863
20
-604.44069283535748
42
-0.4142135623730534
10
-547.9392525137863
20
-605.94069283535748
10
-550.59925251378627
20
-605.94069283535759
10
-550.59925251378627
20
-623.49069283535766
42
-0.41421356237306733
10
-552.09925251378627
20
-624.99069283535755
10
-569.15925251378644
20
-624.99069283535732
42
-0.41421356237309503
10
-570.65925251378621
20
-623.49069283535755
10
-570.65925251378656
20
-606.43069283535749
42
-0.41421356237308116
10
-569.15925251378644
20
-604.93069283535749
10
-566.49925251378613
20
-604.9306928353576
10
-566.49925251378613
20
-587.38069283535742
42
-0.41421356237309503
10
-564.99925251378636
20
-585.88069283535754
10
-562.4292525137862
20
-585.88069283535754
10
-562.4292525137862
20
-568.33069283535758
42
-0.41421356237306733
10
-560.9292525137862
20
-566.83069283535758
0
LWPOLYLINE
5
118
100
AcDbEntity
8
0
100
AcDbPolyline
90
44
70
1
43
0.0
10
-714.28100773842914
20
-568.89638567732186
10
-717.47375006783943
20
-569.57502400915973
10
-721.22318955192156
20
-551.93529811868007
10
-713.37068801964381
20
-550.26619739247053
42
0.41421356237300783
10
-712.21533415476961
20
-548.48710845514302
10
-719.72452984375934
20
-513.15912031875757
42
0.41421356237312223
10
-721.50361878108686
20
-512.00376645388349
10
-771.81677007956182
20
-522.69815690067105
42
0.41343065285077008
10
-773.59501991436173
20
-521.54672491426084
10
-799.59418838644069
20
-527.0730187709654
42
0.41421356237311929
10
-800.74954225131501
20
-528.85210770829281
10
-797.18101832140167
20
-545.64069283535741
10
-848.3948525137863
20
-545.64069283535741
10
-848.3948525137863
20
-528.04269283535746
42
0.41421356237312279
10
-849.89485251378653
20
-526.54269283535746
10
-876.49485251378633
20
-526.54269283535757
42
0.41421356237312279
10
-877.99485251378644
20
-528.04269283535757
10
-877.99485251378644
20
-545.64069283535741
10
-880.1680025137864
20
-545.64069283535741
42
0.41421356237309503
10
-881.66800251378618
20
-547.14069283535753
10
-881.66800251378618
20
-564.20069283535759
42
0.4142135623730534
10
-880.1680025137864
20
-565.70069283535736
10
-877.48925251378637
20
-565.70069283535759
10
-877.48925251378637
20
-583.25069283535754
42
0.41421356237319218
10
-875.98925251378637
20
-584.75069283535765
10
-873.22925251378649
20
-584.75069283535754
10
-873.22925251378649
20
-602.30069283535749
42
0.41421356237297013
10
-871.72925251378626
20
-603.80069283535772
10
-869.0592525137863
20
-603.80069283535761
10
-869.0592525137863
20
-621.35069283535756
42
0.41421356237306733
10
-867.55925251378642
20
-622.85069283535768
10
-812.32925251378617
20
-622.85069283535745
10
-812.32925251378663
20
-623.49069283535755
42
0.41421356237312279
10
-810.8292525137864
20
-624.99069283535755
10
-792.2992809807721
20
-624.99069283535755
42
0.01000848634531128
10
-792.23924810554422
20
-624.98949103854966
10
-789.65115548857614
20
-624.88582755615289
42
0.04237706520979112
10
-789.39932082757764
20
-624.85425075406147
10
-715.46029922062485
20
-609.13802654804203
42
0.41421356237307855
10
-714.30494535575065
20
-607.35893761071463
10
-717.95526670882964
20
-590.18552586374801
10
-710.11029922062471
20
-588.51802654804203
42
0.41421356237298068
10
-708.95494535575097
20
-586.73893761071486
10
-712.50191880110174
20
-570.05173954219595
42
0.41421356237304569
0
CIRCLE
5
119
100
AcDbEntity
8
0
100
AcDbCircle
10
-534.89925251378577
20
-632.46070634907221
30
0
40
2.5
210
0
220
0
230
1
0
CIRCLE
5
120
100
AcDbEntity
8
0
100
AcDbCircle
10
-545.11925251378443
20
-529.34024692368348
30
0
40
2.0000000000000284
210
0
220
0
230
1
0
CIRCLE
5
121
100
AcDbEntity
8
0
100
AcDbCircle
10
-758.62254477009833
20
-508.76545928376515
30
0
40
2.5
210
0
220
0
230
1
0
CIRCLE
5
122
100
AcDbEntity
8
0
100
AcDbCircle
10
-889.13800251378575
20
-519.12070634907207
30
0
40
2.5
210
0
220
0
230
1
0
CIRCLE
5
123
100
AcDbEntity
8
0
100
AcDbCircle
10
-664.91596025747128
20
-632.4607063490721
30
0
40
2.5
210
0
220
0
230
1
0
CIRCLE
5
124
100
AcDbEntity
8
0
100
AcDbCircle
10
-889.13800251378575
20
-632.46070634907187
30
0
40
2.5
210
0
220
0
230
1
0
CIRCLE
5
125
100
AcDbEntity
8
0
100
AcDbCircle
10
-545.11925251378443
20
-538.34024692368348
30
0
40
2.0000000000000284
210
0
220
0
230
1
0
CIRCLE
5
126
100
AcDbEntity
8
0
100
AcDbCircle
10
-534.89925251378565
20
-519.12070634907207
30
0
40
2.5
210
0
220
0
230
1
0
CIRCLE
5
127
100
AcDbEntity
8
0
100
AcDbCircle
10
-545.11925251378443
20
-533.84024692368359
30
0
40
2.0000000000000284
210
0
220
0
230
1
0
CIRCLE
5
128
100
AcDbEntity
8
0
100
AcDbCircle
10
-664.91596025747083
20
-508.76545928376515
30
0
40
2.5
210
0
220
0
230
1
0
CIRCLE
5
129
100
AcDbEntity
8
0
100
AcDbCircle
10
-758.62254477009833
20
-632.4607063490721
30
0
40
2.5
210
0
220
0
230
1
0
ENDSEC
0
SECTION
2
OBJECTS
0
DICTIONARY
5
C
100
AcDbDictionary
3
ACAD_GROUP
350
D
3
ACAD_MLINESTYLE
350
17
0
DICTIONARY
5
D
100
AcDbDictionary
0
DICTIONARY
5
1A
330
C
100
AcDbDictionary
0
DICTIONARY
5
17
100
AcDbDictionary
0
ENDSEC
0
EOF
