0
SECTION
2
HEADER
9
$INSUNITS
70
4
9
$ACADVER
1
AC1014
9
$HANDSEED
5
FFFF
0
ENDSEC
0
SECTION
2
TABLES
0
TABLE
2
VPORT
5
8
100
AcDbSymbolTable
0
ENDTAB
0
TABLE
2
LTYPE
5
5
100
AcDbSymbolTable
0
LTYPE
5
14
100
AcDbSymbolTableRecord
100
AcDbLinetypeTableRecord
2
BYBLOCK
70
0
0
LTYPE
5
15
100
AcDbSymbolTableRecord
100
AcDbLinetypeTableRecord
2
BYLAYER
70
0
0
ENDTAB
0
TABLE
2
LAYER
5
2
100
AcDbSymbolTable
70
2
0
LAYER
5
50
100
AcDbSymbolTableRecord
100
AcDbLayerTableRecord
2
0
70
0
6
CONTINUOUS
0
ENDTAB
0
TABLE
2
STYLE
5
3
100
AcDbSymbolTable
70
1
0
STYLE
5
11
100
AcDbSymbolTableRecord
100
AcDbTextStyleTableRecord
2
STANDARD
70
0
0
ENDTAB
0
TABLE
2
VIEW
5
6
100
AcDbSymbolTable
70
0
0
ENDTAB
0
TABLE
2
UCS
5
7
100
AcDbSymbolTable
70
0
0
ENDTAB
0
TABLE
2
APPID
5
9
100
AcDbSymbolTable
70
2
0
APPID
5
12
100
AcDbSymbolTableRecord
100
AcDbRegAppTableRecord
2
ACAD
70
0
0
ENDTAB
0
TABLE
2
DIMSTYLE
5
A
100
AcDbSymbolTable
70
1
0
ENDTAB
0
TABLE
2
BLOCK_RECORD
5
1
100
AcDbSymbolTable
70
1
0
BLOCK_RECORD
5
1F
100
AcDbSymbolTableRecord
100
AcDbBlockTableRecord
2
*MODEL_SPACE
0
BLOCK_RECORD
5
1B
100
AcDbSymbolTableRecord
100
AcDbBlockTableRecord
2
*PAPER_SPACE
0
ENDTAB
0
ENDSEC
0
SECTION
2
BLOCKS
0
BLOCK
5
20
100
AcDbEntity
100
AcDbBlockBegin
2
*MODEL_SPACE
0
ENDBLK
5
21
100
AcDbEntity
100
AcDbBlockEnd
0
BLOCK
5
1C
100
AcDbEntity
100
AcDbBlockBegin
2
*PAPER_SPACE
0
ENDBLK
5
1D
100
AcDbEntity
100
AcDbBlockEnd
0
ENDSEC
0
SECTION
2
ENTITIES
0
LWPOLYLINE
5
100
100
AcDbEntity
8
0
100
AcDbPolyline
90
12
70
1
43
0.0
10
-718.21451492913548
20
-492.50891251983194
42
-0.10510423526567279
10
-705.32399009843493
20
-492.50891251983194
10
-615.41007135844552
20
-511.62070593348119
10
-536.39925251378577
20
-511.62070593348119
42
-0.41421356237309503
10
-527.39925251378577
20
-520.62070593348119
10
-527.39925251378554
20
-630.96070593348122
42
-0.41421356237309503
10
-536.39925251378565
20
-639.96070593348122
10
-887.63800251378586
20
-639.96070593348122
42
-0.41421356237309503
10
-896.63800251378586
20
-630.96070593348122
10
-896.63800251378598
20
-520.62070593348119
42
-0.41421356237309503
10
-887.63800251378598
20
-511.62070593348119
10
-808.128433669125
20
-511.62070593348119
0
LWPOLYLINE
5
101
100
AcDbEntity
8
0
100
AcDbPolyline
90
44
70
1
43
0.0
10
-714.28100773842925
20
-568.89638526173087
42
-0.41421356237308438
10
-712.50191880110162
20
-570.05173912660507
10
-708.95494535575062
20
-586.73893719512387
42
-0.41421356237299717
10
-710.11029922062471
20
-588.51802613245104
10
-717.95526670882964
20
-590.18552544815691
10
-714.30494535575076
20
-607.35893719512364
42
-0.41421356237309503
10
-715.46029922062485
20
-609.13802613245093
10
-789.39932082757764
20
-624.85425033847048
42
-0.042377065210120336
10
-789.65115548857614
20
-624.8858271405619
10
-792.23924810554422
20
-624.98949062295867
42
-0.010008486346783101
10
-792.2992809807721
20
-624.99069241976667
10
-810.8292525137864
20
-624.99069241976667
42
-0.41421356237312279
10
-812.32925251378663
20
-623.49069241976656
10
-812.32925251378617
20
-622.85069241976646
10
-867.55925251378642
20
-622.85069241976646
42
-0.41421356237310897
10
-869.0592525137863
20
-621.35069241976657
10
-869.0592525137863
20
-603.80069241976662
10
-871.72925251378615
20
-603.80069241976673
42
-0.41421356237297013
10
-873.22925251378649
20
-602.30069241976662
10
-873.22925251378649
20
-584.75069241976655
10
-875.98925251378648
20
-584.75069241976655
42
-0.41421356237315055
10
-877.48925251378648
20
-583.25069241976644
10
-877.48925251378637
20
-565.7006924197666
10
-880.1680025137864
20
-565.70069241976626
42
-0.4142135623730257
10
-881.66800251378618
20
-564.2006924197666
10
-881.66800251378629
20
-547.14069241976654
42
-0.41421356237308116
10
-880.1680025137864
20
-545.64069241976642
10
-877.99485251378644
20
-545.64069241976642
10
-877.99485251378644
20
-528.04269241976647
42
-0.41421356237310897
10
-876.49485251378633
20
-526.54269241976658
10
-849.89485251378653
20
-526.54269241976647
42
-0.41421356237312279
10
-848.3948525137863
20
-528.04269241976647
10
-848.3948525137863
20
-545.64069241976642
10
-797.18101832140167
20
-545.64069241976642
10
-800.74954225131501
20
-528.85210729270182
42
-0.41421356237312507
10
-799.59418838644069
20
-527.07301835537442
10
-773.59501991436173
20
-521.54672449866985
42
-0.41343065285079716
10
-771.81677007956182
20
-522.69815648508018
10
-721.50361878108686
20
-512.0037660382925
42
-0.41421356237309503
10
-719.72452984375934
20
-513.15911990316647
10
-712.21533415476972
20
-548.48710803955203
42
-0.41421356237308149
10
-713.37068801964381
20
-550.26619697687954
10
-721.22318955192156
20
-551.93529770308896
10
-717.47375006783943
20
-569.57502359356886
0
LWPOLYLINE
5
102
100
AcDbEntity
8
0
100
AcDbPolyline
90
20
70
1
43
0.0
10
-542.36925251378636
20
-585.39069241976654
10
-542.36925251378636
20
-568.33069241976648
42
0.41421356237312279
10
-543.86925251378648
20
-566.83069241976659
10
-560.9292525137862
20
-566.83069241976659
42
0.41421356237308116
10
-562.4292525137862
20
-568.33069241976648
10
-562.4292525137862
20
-585.88069241976655
10
-564.99925251378636
20
-585.88069241976643
42
0.41421356237308116
10
-566.49925251378613
20
-587.38069241976643
10
-566.49925251378613
20
-604.9306924197665
10
-569.15925251378644
20
-604.9306924197665
42
0.41421356237309503
10
-570.65925251378644
20
-606.4306924197665
10
-570.65925251378621
20
-623.49069241976656
42
0.41421356237308116
10
-569.15925251378644
20
-624.99069241976645
10
-552.09925251378627
20
-624.99069241976667
42
0.41421356237310897
10
-550.59925251378627
20
-623.49069241976656
10
-550.59925251378627
20
-605.94069241976649
10
-547.9392525137863
20
-605.94069241976649
42
0.41421356237306733
10
-546.4392525137863
20
-604.44069241976649
10
-546.43925251378619
20
-586.89069241976665
10
-543.86925251378648
20
-586.89069241976654
42
0.41421356237310897
0
LWPOLYLINE
5
103
100
AcDbEntity
8
0
100
AcDbPolyline
90
44
70
1
43
0.0
10
-614.71431664113186
20
-527.07301835537442
42
-0.41421356237303786
10
-613.55896277625789
20
-528.85210729270159
10
-617.12748670617111
20
-545.64069241976642
10
-590.8192525137863
20
-545.64069241976642
10
-590.8192525137863
20
-528.09069241976647
42
-0.41421356237310897
10
-589.3192525137863
20
-526.59069241976658
10
-562.71925251378639
20
-526.59069241976658
42
-0.41421356237313667
10
-561.21925251378627
20
-528.09069241976658
10
-561.21925251378627
20
-564.2006924197666
42
-0.4142135623730534
10
-562.71925251378639
20
-565.7006924197666
10
-565.38925251378623
20
-565.7006924197666
10
-565.38925251378623
20
-583.25069241976644
42
-0.41421356237310897
10
-566.88925251378635
20
-584.75069241976644
10
-569.4592525137864
20
-584.75069241976655
10
-569.45925251378617
20
-602.30069241976662
42
-0.41421356237309503
10
-570.95925251378605
20
-603.80069241976662
10
-573.61925251378636
20
-603.80069241976639
10
-573.61925251378636
20
-621.35069241976657
42
-0.41421356237312279
10
-575.11925251378648
20
-622.85069241976646
10
-611.30925251378608
20
-622.85069241976646
10
-611.30925251378619
20
-623.49069241976656
42
-0.41421356237309503
10
-612.80925251378619
20
-624.99069241976656
10
-629.86925251378636
20
-624.99069241976667
42
-0.4142135623730534
10
-631.36925251378648
20
-623.49069241976667
10
-631.36925251378648
20
-623.4821475843022
10
-708.16820580694798
20
-607.15802613245125
42
-0.41421356237309215
10
-709.32355967182184
20
-605.37893719512374
10
-705.77658622647107
20
-588.69173912660494
42
-0.41421356237315221
10
-703.99749728914367
20
-587.53638526173097
10
-696.14689308831873
20
-589.2050826976905
10
-692.39559982930007
20
-571.55663548182702
10
-695.5882058069476
20
-570.87802613245105
42
-0.41421356237315221
10
-696.7435596718218
20
-569.09893719512377
10
-693.09527200195828
20
-551.93509317544499
10
-700.93820580694796
20
-550.26802613245115
42
-0.41421356237312223
10
-702.09355967182205
20
-548.48893719512364
10
-698.44432900787251
20
-531.32065673707518
10
-706.07820580694806
20
-529.69802613245133
42
-0.41421356237307572
10
-707.23355967182204
20
-527.91893719512404
10
-703.68658622647092
20
-511.23173912660502
42
-0.41421356237306789
10
-701.90749728914375
20
-510.07638526173093
10
-642.49324779049221
20
-522.70527384936872
10
-642.49256880596386
20
-522.70207947831238
42
-0.41421356237306789
10
-640.71347986863645
20
-521.5467256134383
0
CIRCLE
5
104
100
AcDbEntity
8
0
100
AcDbCircle
10
-758.62254477009833
20
-632.46070593348099
30
0
40
2.5
210
0
220
0
230
1
0
CIRCLE
5
105
100
AcDbEntity
8
0
100
AcDbCircle
10
-664.91596025747083
20
-508.76545886817416
30
0
40
2.5
210
0
220
0
230
1
0
CIRCLE
5
106
100
AcDbEntity
8
0
100
AcDbCircle
10
-545.11925251378443
20
-533.84024650809249
30
0
40
2.0000000000000284
210
3.0814879110202342e-33
220
0
230
1
0
CIRCLE
5
107
100
AcDbEntity
8
0
100
AcDbCircle
10
-534.89925251378565
20
-519.12070593348108
30
-4.4408920985006262e-15
40
2.5
210
0
220
0
230
1
0
CIRCLE
5
108
100
AcDbEntity
8
0
100
AcDbCircle
10
-545.11925251378443
20
-538.3402465080926
30
-1.3322676295501878e-14
40
2.0000000000000284
210
3.0814879110202342e-33
220
0
230
1
0
CIRCLE
5
109
100
AcDbEntity
8
0
100
AcDbCircle
10
-889.13800251378575
20
-632.46070593348077
30
-8.8817841970012523e-15
40
2.5
210
0
220
0
230
1
0
CIRCLE
5
110
100
AcDbEntity
8
0
100
AcDbCircle
10
-664.91596025747128
20
-632.46070593348099
30
0
40
2.5
210
0
220
0
230
1
0
CIRCLE
5
111
100
AcDbEntity
8
0
100
AcDbCircle
10
-889.13800251378575
20
-519.12070593348108
30
-4.4408920985006262e-15
40
2.5
210
0
220
0
230
1
0
CIRCLE
5
112
100
AcDbEntity
8
0
100
AcDbCircle
10
-758.62254477009833
20
-508.76545886817416
30
0
40
2.5
210
0
220
0
230
1
0
CIRCLE
5
113
100
AcDbEntity
8
0
100
AcDbCircle
10
-545.11925251378443
20
-529.34024650809249
30
-1.3322676295501878e-14
40
2.0000000000000284
210
3.0814879110202342e-33
220
0
230
1
0
CIRCLE
5
114
100
AcDbEntity
8
0
100
AcDbCircle
10
-534.89925251378577
20
-632.46070593348111
30
0
40
2.5
210
0
220
0
230
1
0
LWPOLYLINE
5
115
100
AcDbEntity
8
0
100
AcDbPolyline
90
12
70
1
43
0.0
10
-718.21451492913548
20
-492.50891251983194
42
-0.1051042352656729
10
-705.32399009843493
20
-492.50891251983194
10
-615.41007135844552
20
-511.62070593348119
10
-536.39925251378577
20
-511.62070593348108
42
-0.41421356237309503
10
-527.39925251378565
20
-520.62070593348108
10
-527.39925251378554
20
-630.96070593348122
42
-0.41421356237309276
10
-536.39925251378565
20
-639.96070593348111
10
-887.63800251378586
20
-639.96070593348111
42
-0.41421356237309503
10
-896.63800251378586
20
-630.96070593348111
10
-896.63800251378598
20
-520.62070593348108
42
-0.41421356237309503
10
-887.63800251378598
20
-511.62070593348108
10
-808.12843366912716
20
-511.62070593347158
0
LWPOLYLINE
5
116
100
AcDbEntity
8
0
100
AcDbPolyline
90
44
70
1
43
0.0
10
-614.71431664113186
20
-527.0730183553743
42
-0.41421356237296719
10
-613.55896277625789
20
-528.85210729270148
10
-617.12748670617111
20
-545.64069241976642
10
-590.8192525137863
20
-545.64069241976642
10
-590.81925251378641
20
-528.09069241976647
42
-0.41421356237310897
10
-589.3192525137863
20
-526.59069241976636
10
-562.71925251378639
20
-526.59069241976647
42
-0.41421356237315055
10
-561.21925251378627
20
-528.09069241976647
10
-561.21925251378639
20
-564.20069241976648
42
-0.41421356237306733
10
-562.71925251378639
20
-565.70069241976648
10
-565.38925251378623
20
-565.70069241976648
10
-565.38925251378623
20
-583.25069241976644
42
-0.41421356237310897
10
-566.88925251378635
20
-584.75069241976644
10
-569.4592525137864
20
-584.75069241976655
10
-569.45925251378617
20
-602.30069241976651
42
-0.41421356237308116
10
-570.95925251378605
20
-603.80069241976639
10
-573.61925251378636
20
-603.80069241976639
10
-573.61925251378625
20
-621.35069241976657
42
-0.41421356237313667
10
-575.11925251378648
20
-622.85069241976646
10
-611.30925251378608
20
-622.85069241976646
10
-611.30925251378608
20
-623.49069241976645
42
-0.41421356237309503
10
-612.80925251378619
20
-624.99069241976656
10
-629.86925251378636
20
-624.99069241976656
42
-0.41421356237306733
10
-631.36925251378648
20
-623.49069241976645
10
-631.36925251378648
20
-623.48214758430208
10
-708.16820580694798
20
-607.15802613245103
42
-0.41421356237305723
10
-709.32355967182173
20
-605.37893719512363
10
-705.77658622647107
20
-588.69173912660517
42
-0.41421356237323365
10
-703.99749728914367
20
-587.53638526173097
10
-696.14689308831873
20
-589.20508269769039
10
-692.39559982930007
20
-571.55663548182702
10
-695.58820580694771
20
-570.87802613245105
42
-0.41421356237313867
10
-696.7435596718218
20
-569.09893719512377
10
-693.09527200195828
20
-551.93509317544499
10
-700.93820580694796
20
-550.26802613245104
42
-0.41421356237306789
10
-702.09355967182205
20
-548.48893719512364
10
-698.44432900787251
20
-531.32065673707518
10
-706.07820580694784
20
-529.69802613245122
42
-0.41421356237314932
10
-707.23355967182204
20
-527.91893719512393
10
-703.68658622647104
20
-511.23173912660502
42
-0.41421356237306789
10
-701.90749728914375
20
-510.07638526173082
10
-642.49324779049221
20
-522.70527384936861
10
-642.49256880596386
20
-522.70207947831238
42
-0.4142135623730408
10
-640.71347986863645
20
-521.54672561343818
0
LWPOLYLINE
5
117
100
AcDbEntity
8
0
100
AcDbPolyline
90
20
70
1
43
0.0
10
-542.36925251378636
20
-585.39069241976654
10
-542.36925251378636
20
-568.33069241976648
42
0.41421356237313667
10
-543.86925251378648
20
-566.83069241976659
10
-560.9292525137862
20
-566.83069241976659
42
0.41421356237306733
10
-562.4292525137862
20
-568.33069241976648
10
-562.4292525137862
20
-585.88069241976643
10
-564.99925251378636
20
-585.88069241976643
42
0.41421356237309503
10
-566.49925251378613
20
-587.38069241976643
10
-566.49925251378613
20
-604.9306924197665
10
-569.15925251378644
20
-604.93069241976639
42
0.41421356237308116
10
-570.65925251378656
20
-606.4306924197665
10
-570.65925251378621
20
-623.49069241976645
42
0.41421356237309503
10
-569.15925251378644
20
-624.99069241976622
10
-552.09925251378627
20
-624.99069241976656
42
0.41421356237306733
10
-550.59925251378627
20
-623.49069241976656
10
-550.59925251378627
20
-605.94069241976649
10
-547.9392525137863
20
-605.94069241976649
42
0.4142135623730534
10
-546.4392525137863
20
-604.44069241976638
10
-546.43925251378619
20
-586.89069241976642
10
-543.86925251378648
20
-586.89069241976642
42
0.41421356237310897
0
LWPOLYLINE
5
118
100
AcDbEntity
8
0
100
AcDbPolyline
90
44
70
1
43
0.0
10
-714.28100773842903
20
-568.89638526173087
42
-0.41421356237302426
10
-712.50191880110162
20
-570.05173912660496
10
-708.95494535575085
20
-586.73893719512375
42
-0.41421356237296425
10
-710.11029922062471
20
-588.51802613245093
10
-717.95526670882964
20
-590.18552544815702
10
-714.30494535575076
20
-607.35893719512364
42
-0.41421356237307572
10
-715.46029922062485
20
-609.13802613245093
10
-789.39932082757764
20
-624.85425033847037
42
-0.042377065209788449
10
-789.65115548857614
20
-624.88582714056179
10
-792.23924810554422
20
-624.98949062295867
42
-0.010008486345311242
10
-792.2992809807721
20
-624.99069241976656
10
-810.8292525137864
20
-624.99069241976656
42
-0.41421356237312279
10
-812.32925251378663
20
-623.49069241976645
10
-812.32925251378617
20
-622.85069241976646
10
-867.55925251378642
20
-622.85069241976657
42
-0.41421356237306733
10
-869.0592525137863
20
-621.35069241976657
10
-869.0592525137863
20
-603.80069241976662
10
-871.72925251378615
20
-603.80069241976662
42
-0.41421356237297013
10
-873.22925251378649
20
-602.30069241976651
10
-873.22925251378649
20
-584.75069241976655
10
-875.98925251378637
20
-584.75069241976644
42
-0.41421356237319218
10
-877.48925251378637
20
-583.25069241976644
10
-877.48925251378637
20
-565.70069241976648
10
-880.1680025137864
20
-565.70069241976637
42
-0.4142135623730534
10
-881.66800251378618
20
-564.20069241976648
10
-881.66800251378618
20
-547.14069241976642
42
-0.41421356237309503
10
-880.1680025137864
20
-545.64069241976631
10
-877.99485251378644
20
-545.64069241976642
10
-877.99485251378644
20
-528.04269241976647
42
-0.41421356237312279
10
-876.49485251378633
20
-526.54269241976658
10
-849.89485251378653
20
-526.54269241976635
42
-0.41421356237312279
10
-848.3948525137863
20
-528.04269241976635
10
-848.3948525137863
20
-545.64069241976642
10
-797.18101832140167
20
-545.64069241976642
10
-800.74954225131501
20
-528.85210729270182
42
-0.41421356237311929
10
-799.59418838644069
20
-527.07301835537442
10
-773.59501991436173
20
-521.54672449866985
42
-0.41343065285077008
10
-771.81677007956182
20
-522.69815648508006
10
-721.50361878108686
20
-512.00376603829238
42
-0.41421356237312223
10
-719.72452984375934
20
-513.15911990316647
10
-712.21533415476961
20
-548.48710803955203
42
-0.41421356237300783
10
-713.37068801964381
20
-550.26619697687943
10
-721.22318955192156
20
-551.93529770308896
10
-717.47375006783943
20
-569.57502359356886
0
CIRCLE
5
119
100
AcDbEntity
8
0
100
AcDbCircle
10
-534.89925251378577
20
-632.46070593348111
30
0
40
2.5
210
0
220
0
230
1
0
CIRCLE
5
120
100
AcDbEntity
8
0
100
AcDbCircle
10
-545.11925251378443
20
-529.34024650809238
30
0
40
2.0000000000000284
210
0
220
0
230
1
0
CIRCLE
5
121
100
AcDbEntity
8
0
100
AcDbCircle
10
-758.62254477009833
20
-508.76545886817411
30
0
40
2.5
210
0
220
0
230
1
0
CIRCLE
5
122
100
AcDbEntity
8
0
100
AcDbCircle
10
-889.13800251378575
20
-519.12070593348108
30
0
40
2.5
210
0
220
0
230
1
0
CIRCLE
5
123
100
AcDbEntity
8
0
100
AcDbCircle
10
-664.91596025747128
20
-632.46070593348099
30
0
40
2.5
210
0
220
0
230
1
0
CIRCLE
5
124
100
AcDbEntity
8
0
100
AcDbCircle
10
-889.13800251378575
20
-632.46070593348077
30
0
40
2.5
210
0
220
0
230
1
0
CIRCLE
5
125
100
AcDbEntity
8
0
100
AcDbCircle
10
-545.11925251378443
20
-538.34024650809249
30
-4.4408920985006262e-15
40
2.0000000000000284
210
0
220
0
230
1
0
CIRCLE
5
126
100
AcDbEntity
8
0
100
AcDbCircle
10
-534.89925251378565
20
-519.12070593348108
30
0
40
2.5
210
0
220
0
230
1
0
CIRCLE
5
127
100
AcDbEntity
8
0
100
AcDbCircle
10
-545.11925251378443
20
-533.84024650809249
30
0
40
2.0000000000000284
210
0
220
0
230
1
0
CIRCLE
5
128
100
AcDbEntity
8
0
100
AcDbCircle
10
-664.91596025747083
20
-508.76545886817411
30
0
40
2.5
210
0
220
0
230
1
0
CIRCLE
5
129
100
AcDbEntity
8
0
100
AcDbCircle
10
-758.62254477009833
20
-632.46070593348099
30
0
40
2.5
210
0
220
0
230
1
0
ENDSEC
0
SECTION
2
OBJECTS
0
DICTIONARY
5
C
100
AcDbDictionary
3
ACAD_GROUP
350
D
3
ACAD_MLINESTYLE
350
17
0
DICTIONARY
5
D
100
AcDbDictionary
0
DICTIONARY
5
1A
330
C
100
AcDbDictionary
0
DICTIONARY
5
17
100
AcDbDictionary
0
ENDSEC
0
EOF
