0
SECTION
2
HEADER
9
$INSUNITS
70
4
9
$ACADVER
1
AC1014
9
$HANDSEED
5
FFFF
0
ENDSEC
0
SECTION
2
TABLES
0
TABLE
2
VPORT
5
8
100
AcDbSymbolTable
0
ENDTAB
0
TABLE
2
LTYPE
5
5
100
AcDbSymbolTable
0
LTYPE
5
14
100
AcDbSymbolTableRecord
100
AcDbLinetypeTableRecord
2
BYBLOCK
70
0
0
LTYPE
5
15
100
AcDbSymbolTableRecord
100
AcDbLinetypeTableRecord
2
BYLAYER
70
0
0
ENDTAB
0
TABLE
2
LAYER
5
2
100
AcDbSymbolTable
70
2
0
LAYER
5
50
100
AcDbSymbolTableRecord
100
AcDbLayerTableRecord
2
0
70
0
6
CONTINUOUS
0
ENDTAB
0
TABLE
2
STYLE
5
3
100
AcDbSymbolTable
70
1
0
STYLE
5
11
100
AcDbSymbolTableRecord
100
AcDbTextStyleTableRecord
2
STANDARD
70
0
0
ENDTAB
0
TABLE
2
VIEW
5
6
100
AcDbSymbolTable
70
0
0
ENDTAB
0
TABLE
2
UCS
5
7
100
AcDbSymbolTable
70
0
0
ENDTAB
0
TABLE
2
APPID
5
9
100
AcDbSymbolTable
70
2
0
APPID
5
12
100
AcDbSymbolTableRecord
100
AcDbRegAppTableRecord
2
ACAD
70
0
0
ENDTAB
0
TABLE
2
DIMSTYLE
5
A
100
AcDbSymbolTable
70
1
0
ENDTAB
0
TABLE
2
BLOCK_RECORD
5
1
100
AcDbSymbolTable
70
1
0
BLOCK_RECORD
5
1F
100
AcDbSymbolTableRecord
100
AcDbBlockTableRecord
2
*MODEL_SPACE
0
BLOCK_RECORD
5
1B
100
AcDbSymbolTableRecord
100
AcDbBlockTableRecord
2
*PAPER_SPACE
0
ENDTAB
0
ENDSEC
0
SECTION
2
BLOCKS
0
BLOCK
5
20
100
AcDbEntity
100
AcDbBlockBegin
2
*MODEL_SPACE
0
ENDBLK
5
21
100
AcDbEntity
100
AcDbBlockEnd
0
BLOCK
5
1C
100
AcDbEntity
100
AcDbBlockBegin
2
*PAPER_SPACE
0
ENDBLK
5
1D
100
AcDbEntity
100
AcDbBlockEnd
0
ENDSEC
0
SECTION
2
ENTITIES
0
LINE
5
100
100
AcDbEntity
8
0
100
AcDbLine
10
524.39925251378577
20
-657.61082564118965
30
4.9960036108132044e-15
11
524.39925251378577
21
-683.96070593348099
31
3.3306690738754696e-15
0
ARC
5
101
100
AcDbEntity
8
0
100
AcDbCircle
10
533.39925251378577
20
-683.96070593348099
30
3.3306690738754696e-15
40
8.9999999999999858
210
0
220
0
230
1
100
AcDbArc
50
180
51
270
0
LINE
5
102
100
AcDbEntity
8
0
100
AcDbLine
10
533.39925251378577
20
-692.96070593348099
30
1.9984014443252818e-14
11
890.63800251378598
21
-692.96070593348099
31
3.3306690738754696e-15
0
ARC
5
103
100
AcDbEntity
8
0
100
AcDbCircle
10
890.63800251378598
20
-683.96070593348099
30
3.3306690738754696e-15
40
9.0000000000000568
210
0
220
0
230
1
100
AcDbArc
50
-90
51
0
0
LINE
5
104
100
AcDbEntity
8
0
100
AcDbLine
10
899.63800251378598
20
-683.96070593348099
30
3.3306690738754696e-15
11
899.6380025137862
21
-657.04125810963478
31
3.3306690738754696e-15
0
SPLINE
5
105
100
AcDbEntity
8
0
100
AcDbSpline
70
4
71
5
72
26
73
20
74
0
42
0.000000001
43
0.0000000001
44
0.0000000001
40
0
40
0
40
0
40
0
40
0
40
0
40
0.066666666666666666
40
0.13333333333333333
40
0.20000000000000001
40
0.26666666666666666
40
0.33333333333333331
40
0.39999999999999997
40
0.46666666666666662
40
0.53333333333333333
40
0.59999999999999998
40
0.66666666666666663
40
0.73333333333333328
40
0.79999999999999993
40
0.86666666666666659
40
0.93333333333333324
40
1
40
1
40
1
40
1
40
1
40
1
41
1
41
1
41
1
41
1
41
1
41
1
41
1
41
1
41
1
41
1
41
1
41
1
41
1
41
1
41
1
41
1
41
1
41
1
41
1
41
1
10
899.6380025137862
20
-657.04125810963478
30
3.3306690738754696e-15
10
899.00964453169206
20
-656.11373321170799
30
3.8857805861880479e-15
10
897.75428697019652
20
-654.35609546495607
30
3.8857805861880479e-15
10
895.87532728990095
20
-652.01187025251852
30
4.9960036108132044e-15
10
893.37824744184013
20
-649.47498942310403
30
5.5511151231257827e-15
10
890.27438169449215
20
-647.30463900975451
30
6.6613381477509392e-15
10
887.19866453149803
20
-646.14917445608194
30
7.7715611723760958e-15
10
884.17254797939233
20
-645.99923920846982
30
8.3266726846886741e-15
10
881.23083601981966
20
-646.80392506686076
30
9.4368957093138306e-15
10
878.42807234755219
20
-648.4420080772768
30
9.9920072216264089e-15
10
875.83360131864242
20
-650.71254225090343
30
1.0547118733938987e-14
10
873.50390098092419
20
-653.3688618829292
30
1.1102230246251565e-14
10
871.45800597171296
20
-656.14023953144067
30
1.1657341758564144e-14
10
869.65187734783569
20
-658.75563626775659
30
1.2212453270876722e-14
10
867.94596567090161
20
-660.96648883098396
30
1.27675647831893e-14
10
866.08565827090115
20
-662.56815758944504
30
1.27675647831893e-14
10
864.24776767187291
20
-663.23588762056306
30
1.3322676295501878e-14
10
862.56667237274655
20
-663.34502666860385
30
1.3877787807814457e-14
10
861.29722335623921
20
-663.2385106095461
30
1.3877787807814457e-14
10
860.6253164652644
20
-663.14043344077504
30
1.4432899320127035e-14
0
LINE
5
106
100
AcDbEntity
8
0
100
AcDbLine
10
860.6253164652644
20
-663.14043344077504
30
1.4432899320127035e-14
11
563.31626207143029
21
-663.62125869075317
31
0
0
SPLINE
5
107
100
AcDbEntity
8
0
100
AcDbSpline
70
4
71
5
72
26
73
20
74
0
42
0.000000001
43
0.0000000001
44
0.0000000001
40
0
40
0
40
0
40
0
40
0
40
0
40
0.066666666666666666
40
0.13333333333333333
40
0.20000000000000001
40
0.26666666666666666
40
0.33333333333333331
40
0.39999999999999997
40
0.46666666666666662
40
0.53333333333333333
40
0.59999999999999998
40
0.66666666666666663
40
0.73333333333333328
40
0.79999999999999993
40
0.86666666666666659
40
0.93333333333333324
40
1
40
1
40
1
40
1
40
1
40
1
41
1
41
1
41
1
41
1
41
1
41
1
41
1
41
1
41
1
41
1
41
1
41
1
41
1
41
1
41
1
41
1
41
1
41
1
41
1
41
1
10
524.39925251378577
20
-657.61082564118965
30
4.9960036108132044e-15
10
525.02005147363673
20
-656.68329150343629
30
4.9960036108132044e-15
10
526.26086936342313
20
-654.92558585145332
30
4.4408920985006262e-15
10
528.11975459106134
20
-652.58111043618885
30
3.3306690738754696e-15
10
530.5935643893813
20
-650.04359775058583
30
2.7755575615628914e-15
10
533.67427883262599
20
-647.87192095912815
30
1.1102230246251565e-15
10
536.73285253400968
20
-646.71450837261489
30
1.1102230246251565e-15
10
539.74774294214421
20
-646.56183063574406
30
5.5511151231257827e-16
10
542.68380627594843
20
-647.36274871880505
30
0
10
545.48566843239405
20
-648.99560203298984
30
-5.5511151231257827e-16
10
548.08290746701903
20
-651.2593903209895
30
0
10
550.41786625951625
20
-653.90767388441645
30
-5.5511151231257827e-16
10
552.47031422410839
20
-656.67009585859603
30
0
10
554.2831147015396
20
-659.27601812253192
30
0
10
555.99486513952252
20
-661.47721041681189
30
0
10
557.85910939885719
20
-663.06912962684703
30
0
10
559.6977188735342
20
-663.72893935503816
30
0
10
561.37759134119176
20
-663.83201959473286
30
0
10
562.64538948960092
20
-663.72140211750002
30
0
10
563.31626207143029
20
-663.62125869075317
30
0
0
CIRCLE
5
108
100
AcDbEntity
8
0
100
AcDbCircle
10
-534.89925251378577
20
-682.46070593348111
30
-3.8857805861880479e-15
40
2.5
210
0
220
0
230
-1
0
CIRCLE
5
109
100
AcDbEntity
8
0
100
AcDbCircle
10
-664.91596025747128
20
-682.46070593348111
30
-3.8857805861880479e-15
40
2.5
210
0
220
0
230
-1
0
CIRCLE
5
110
100
AcDbEntity
8
0
100
AcDbCircle
10
-758.62254477009833
20
-682.46070593348111
30
-3.8857805861880479e-15
40
2.5
210
0
220
0
230
-1
0
CIRCLE
5
111
100
AcDbEntity
8
0
100
AcDbCircle
10
-889.13800251378575
20
-682.46070593348099
30
-3.8857805861880479e-15
40
2.5
210
0
220
0
230
-1
0
CIRCLE
5
112
100
AcDbEntity
8
0
100
AcDbCircle
10
889.13800251378575
20
-682.46070593348099
30
0
40
2.5
210
0
220
0
230
1
0
CIRCLE
5
113
100
AcDbEntity
8
0
100
AcDbCircle
10
758.62254477009833
20
-682.46070593348111
30
0
40
2.5
210
0
220
0
230
1
0
CIRCLE
5
114
100
AcDbEntity
8
0
100
AcDbCircle
10
664.91596025747128
20
-682.46070593348111
30
0
40
2.5
210
0
220
0
230
1
0
CIRCLE
5
115
100
AcDbEntity
8
0
100
AcDbCircle
10
534.89925251378577
20
-682.46070593348111
30
0
40
2.5
210
0
220
0
230
1
0
ARC
5
116
100
AcDbEntity
8
0
100
AcDbCircle
10
533.39925251378565
20
-683.96070593348111
30
0
40
8.9999999999999147
210
0
220
0
230
1
100
AcDbArc
50
180
51
270.00000000000074
0
LINE
5
117
100
AcDbEntity
8
0
100
AcDbLine
10
890.63800251378598
20
-692.96070593348099
30
0
11
533.39925251378577
21
-692.96070593348099
31
0
0
ARC
5
118
100
AcDbEntity
8
0
100
AcDbCircle
10
890.63800251378575
20
-683.96070593348099
30
0
40
9.0000000000000568
210
0
220
0
230
1
100
AcDbArc
50
-89.999999999998579
51
0
0
LINE
5
119
100
AcDbEntity
8
0
100
AcDbLine
10
899.63800251378598
20
-657.04125810963478
30
5.5511151231257827e-16
11
899.63800251378586
21
-683.96070593348099
31
0
0
SPLINE
5
120
100
AcDbEntity
8
0
100
AcDbSpline
70
4
71
5
72
26
73
20
74
0
42
0.000000001
43
0.0000000001
44
0.0000000001
40
-1
40
-1
40
-1
40
-1
40
-1
40
-1
40
-0.93333333333333324
40
-0.86666666666666659
40
-0.79999999999999993
40
-0.73333333333333328
40
-0.66666666666666663
40
-0.59999999999999998
40
-0.53333333333333333
40
-0.46666666666666662
40
-0.39999999999999997
40
-0.33333333333333331
40
-0.26666666666666666
40
-0.20000000000000001
40
-0.13333333333333333
40
-0.066666666666666666
40
0
40
0
40
0
40
0
40
0
40
0
41
1
41
1
41
1
41
1
41
1
41
1
41
1
41
1
41
1
41
1
41
1
41
1
41
1
41
1
41
1
41
1
41
1
41
1
41
1
41
1
10
860.6253164652644
20
-663.14043344077504
30
0
10
861.29722335623921
20
-663.2385106095461
30
0
10
862.56667237274655
20
-663.34502666860385
30
0
10
864.24776767187291
20
-663.23588762056306
30
0
10
866.08565827090115
20
-662.56815758944504
30
0
10
867.94596567090161
20
-660.96648883098396
30
0
10
869.65187734783569
20
-658.75563626775659
30
0
10
871.45800597171296
20
-656.14023953144067
30
0
10
873.50390098092419
20
-653.3688618829292
30
0
10
875.83360131864242
20
-650.71254225090343
30
0
10
878.42807234755219
20
-648.4420080772768
30
0
10
881.23083601981966
20
-646.80392506686076
30
0
10
884.17254797939233
20
-645.99923920846982
30
0
10
887.19866453149803
20
-646.14917445608194
30
0
10
890.27438169449215
20
-647.30463900975451
30
0
10
893.37824744184013
20
-649.47498942310403
30
0
10
895.87532728990095
20
-652.01187025251852
30
0
10
897.75428697019652
20
-654.35609546495607
30
0
10
899.00964453169206
20
-656.11373321170799
30
0
10
899.6380025137862
20
-657.04125810963478
30
0
0
LINE
5
121
100
AcDbEntity
8
0
100
AcDbLine
10
563.31626207143029
20
-663.62125869075317
30
0
11
860.6253164652644
21
-663.14043344077504
31
0
0
SPLINE
5
122
100
AcDbEntity
8
0
100
AcDbSpline
70
4
71
5
72
26
73
20
74
0
42
0.000000001
43
0.0000000001
44
0.0000000001
40
0
40
0
40
0
40
0
40
0
40
0
40
0.066666666666666666
40
0.13333333333333333
40
0.20000000000000001
40
0.26666666666666666
40
0.33333333333333331
40
0.39999999999999997
40
0.46666666666666662
40
0.53333333333333333
40
0.59999999999999998
40
0.66666666666666663
40
0.73333333333333328
40
0.79999999999999993
40
0.86666666666666659
40
0.93333333333333324
40
1
40
1
40
1
40
1
40
1
40
1
41
1
41
1
41
1
41
1
41
1
41
1
41
1
41
1
41
1
41
1
41
1
41
1
41
1
41
1
41
1
41
1
41
1
41
1
41
1
41
1
10
524.39925251378577
20
-657.61082564118965
30
0
10
525.02005147363673
20
-656.68329150343629
30
0
10
526.26086936342313
20
-654.92558585145332
30
0
10
528.11975459106134
20
-652.58111043618885
30
0
10
530.5935643893813
20
-650.04359775058583
30
0
10
533.67427883262599
20
-647.87192095912815
30
0
10
536.73285253400968
20
-646.71450837261489
30
0
10
539.74774294214421
20
-646.56183063574406
30
0
10
542.68380627594843
20
-647.36274871880505
30
0
10
545.48566843239405
20
-648.99560203298984
30
0
10
548.08290746701903
20
-651.2593903209895
30
0
10
550.41786625951625
20
-653.90767388441645
30
0
10
552.47031422410839
20
-656.67009585859603
30
0
10
554.2831147015396
20
-659.27601812253192
30
0
10
555.99486513952252
20
-661.47721041681189
30
0
10
557.85910939885719
20
-663.06912962684703
30
0
10
559.6977188735342
20
-663.72893935503816
30
0
10
561.37759134119176
20
-663.83201959473286
30
0
10
562.64538948960092
20
-663.72140211750002
30
0
10
563.31626207143029
20
-663.62125869075317
30
0
0
LINE
5
123
100
AcDbEntity
8
0
100
AcDbLine
10
524.39925251378577
20
-683.96070593348099
30
0
11
524.39925251378577
21
-657.61082564118965
31
0
0
CIRCLE
5
124
100
AcDbEntity
8
0
100
AcDbCircle
10
889.13800251378575
20
-732.46070593348077
30
0
40
2.5
210
0
220
0
230
1
0
CIRCLE
5
125
100
AcDbEntity
8
0
100
AcDbCircle
10
758.62254477009833
20
-732.46070593348099
30
0
40
2.5
210
0
220
0
230
1
0
CIRCLE
5
126
100
AcDbEntity
8
0
100
AcDbCircle
10
664.91596025747128
20
-732.46070593348099
30
0
40
2.5
210
0
220
0
230
1
0
CIRCLE
5
127
100
AcDbEntity
8
0
100
AcDbCircle
10
534.89925251378577
20
-732.46070593348099
30
0
40
2.5
210
0
220
0
230
1
0
ARC
5
128
100
AcDbEntity
8
0
100
AcDbCircle
10
533.39925251378565
20
-733.96070593348111
30
0
40
8.9999999999999147
210
0
220
0
230
1
100
AcDbArc
50
180
51
270.00000000000074
0
LINE
5
129
100
AcDbEntity
8
0
100
AcDbLine
10
890.63800251378598
20
-742.96070593348099
30
0
11
533.39925251378577
21
-742.96070593348099
31
0
0
ARC
5
130
100
AcDbEntity
8
0
100
AcDbCircle
10
890.63800251378575
20
-733.96070593348099
30
0
40
9.0000000000000568
210
0
220
0
230
1
100
AcDbArc
50
-89.999999999998579
51
0
0
LINE
5
131
100
AcDbEntity
8
0
100
AcDbLine
10
899.63800251378598
20
-713.62489371364575
30
0
11
899.63800251378586
21
-733.96070593348099
31
0
0
SPLINE
5
132
100
AcDbEntity
8
0
100
AcDbSpline
70
4
71
5
72
26
73
20
74
0
42
0.000000001
43
0.0000000001
44
0.0000000001
40
-1
40
-1
40
-1
40
-1
40
-1
40
-1
40
-0.93333333333333324
40
-0.86666666666666659
40
-0.79999999999999993
40
-0.73333333333333328
40
-0.66666666666666663
40
-0.59999999999999998
40
-0.53333333333333333
40
-0.46666666666666662
40
-0.39999999999999997
40
-0.33333333333333331
40
-0.26666666666666666
40
-0.20000000000000001
40
-0.13333333333333333
40
-0.066666666666666666
40
0
40
0
40
0
40
0
40
0
40
0
41
1
41
1
41
1
41
1
41
1
41
1
41
1
41
1
41
1
41
1
41
1
41
1
41
1
41
1
41
1
41
1
41
1
41
1
41
1
41
1
10
863.93782267862605
20
-717.69081069047502
30
0
10
864.43598646889336
20
-717.6448618721779
30
0
10
865.42086118018108
20
-717.49904670508784
30
0
10
866.86381255921174
20
-717.11856044485671
30
0
10
868.71854463181648
20
-716.2854601599347
30
0
10
870.92205759813578
20
-714.70531503542043
30
0
10
873.01767770909009
20
-712.62608039835811
30
0
10
875.02326913343654
20
-710.14503544847366
30
0
10
876.97488112647102
20
-707.45490220653301
30
0
10
878.92349221018219
20
-704.82652273904421
30
0
10
880.92608941995559
20
-702.56196872443161
30
0
10
883.03842732851751
20
-700.95610890637272
30
0
10
885.3077351445736
20
-700.25787014427976
30
0
10
887.76301201187903
20
-700.6182396753934
30
0
10
890.41753311488026
20
-702.10411892313516
30
0
10
893.27498025227828
20
-704.731626444629
30
0
10
895.72171673695505
20
-707.73638671539743
30
0
10
897.64557541819556
20
-710.48826506506771
30
0
10
898.96732973224232
20
-712.54270744575729
30
0
10
899.6380025137862
20
-713.62489371364575
30
0
0
LINE
5
133
100
AcDbEntity
8
0
100
AcDbLine
10
560.01849140938748
20
-718.18232645923842
30
0
11
863.93782267862605
21
-717.69081069047502
31
0
0
SPLINE
5
134
100
AcDbEntity
8
0
100
AcDbSpline
70
4
71
5
72
26
73
20
74
0
42
0.000000001
43
0.0000000001
44
0.0000000001
40
0
40
0
40
0
40
0
40
0
40
0
40
0.066666666666666666
40
0.13333333333333333
40
0.20000000000000001
40
0.26666666666666666
40
0.33333333333333331
40
0.39999999999999997
40
0.46666666666666662
40
0.53333333333333333
40
0.59999999999999998
40
0.66666666666666663
40
0.73333333333333328
40
0.79999999999999993
40
0.86666666666666659
40
0.93333333333333324
40
1
40
1
40
1
40
1
40
1
40
1
41
1
41
1
41
1
41
1
41
1
41
1
41
1
41
1
41
1
41
1
41
1
41
1
41
1
41
1
41
1
41
1
41
1
41
1
41
1
41
1
10
524.39925251378577
20
-714.05488643520357
30
0
10
525.06366839585917
20
-712.98059586838747
30
0
10
526.37337808989537
20
-710.94144379028216
30
0
10
528.28057738849861
20
-708.21099743808145
30
0
10
530.70793682993201
20
-705.23178576576765
30
0
10
533.54599204757289
20
-702.63099600445594
30
0
10
536.18604260578513
20
-701.166355663888
30
0
10
538.63178305041583
20
-700.82136236719464
30
0
10
540.89632066458546
20
-701.52875794432714
30
0
10
543.00823754263274
20
-703.13697011604904
30
0
10
545.01382122845212
20
-705.39751166205883
30
0
10
546.96757143691502
20
-708.01680188951832
30
0
10
548.92511364471659
20
-710.69450403358303
30
0
10
550.93614436692621
20
-713.16166427028804
30
0
10
553.03571522683785
20
-715.22736180487641
30
0
10
555.24117078494533
20
-716.79531752585035
30
0
10
557.09567310793693
20
-717.62011594385569
30
0
10
558.53743248556907
20
-717.99524621166825
30
0
10
559.52106248148095
20
-718.13787486583351
30
0
10
560.01849140938748
20
-718.18232645923842
30
0
0
LINE
5
135
100
AcDbEntity
8
0
100
AcDbLine
10
524.39925251378577
20
-733.96070593348099
30
0
11
524.39925251378577
21
-714.05488643520357
31
0
0
CIRCLE
5
136
100
AcDbEntity
8
0
100
AcDbCircle
10
889.13800251378575
20
-782.46070593348099
30
0
40
2.5
210
0
220
0
230
1
0
CIRCLE
5
137
100
AcDbEntity
8
0
100
AcDbCircle
10
758.62254477009833
20
-782.46070593348111
30
0
40
2.5
210
0
220
0
230
1
0
CIRCLE
5
138
100
AcDbEntity
8
0
100
AcDbCircle
10
664.91596025747128
20
-782.46070593348111
30
0
40
2.5
210
0
220
0
230
1
0
CIRCLE
5
139
100
AcDbEntity
8
0
100
AcDbCircle
10
534.89925251378577
20
-782.46070593348111
30
0
40
2.5
210
0
220
0
230
1
0
ARC
5
140
100
AcDbEntity
8
0
100
AcDbCircle
10
533.39925251378565
20
-783.96070593348111
30
0
40
8.9999999999999147
210
0
220
0
230
1
100
AcDbArc
50
180
51
270.00000000000074
0
LINE
5
141
100
AcDbEntity
8
0
100
AcDbLine
10
890.63800251378598
20
-792.96070593348099
30
0
11
533.39925251378577
21
-792.96070593348099
31
0
0
ARC
5
142
100
AcDbEntity
8
0
100
AcDbCircle
10
890.63800251378575
20
-783.96070593348099
30
0
40
9.0000000000000568
210
0
220
0
230
1
100
AcDbArc
50
-89.999999999998579
51
0
0
LINE
5
143
100
AcDbEntity
8
0
100
AcDbLine
10
899.63800251378598
20
-770.41426793028222
30
5.5511151231257827e-16
11
899.63800251378586
21
-783.96070593348099
31
0
0
SPLINE
5
144
100
AcDbEntity
8
0
100
AcDbSpline
70
4
71
5
72
26
73
20
74
0
42
0.000000001
43
0.0000000001
44
0.0000000001
40
-1
40
-1
40
-1
40
-1
40
-1
40
-1
40
-0.93333333333333324
40
-0.86666666666666659
40
-0.79999999999999993
40
-0.73333333333333328
40
-0.66666666666666663
40
-0.59999999999999998
40
-0.53333333333333333
40
-0.46666666666666662
40
-0.39999999999999997
40
-0.33333333333333331
40
-0.26666666666666666
40
-0.20000000000000001
40
-0.13333333333333333
40
-0.066666666666666666
40
0
40
0
40
0
40
0
40
0
40
0
41
1
41
1
41
1
41
1
41
1
41
1
41
1
41
1
41
1
41
1
41
1
41
1
41
1
41
1
41
1
41
1
41
1
41
1
41
1
41
1
10
864.07088787174098
20
-771.97594603216749
30
0
10
864.71696059103419
20
-771.94946158447806
30
0
10
865.98266450116739
20
-771.84142215932548
30
0
10
867.80189363641216
20
-771.51414406503591
30
0
10
870.06774405044314
20
-770.74499609747522
30
0
10
872.63164088454334
20
-769.23225184950013
30
0
10
874.93347795272462
20
-767.2051633928811
30
0
10
876.99541298152167
20
-764.75699277817682
30
0
10
878.86653869374072
20
-762.07136292476207
30
0
10
880.62670432713912
20
-759.43230104247834
30
0
10
882.36945670707314
20
-757.16734351233777
30
0
10
884.18908161802869
20
-755.60225681233999
30
0
10
886.16751728955808
20
-755.01516518389667
30
0
10
888.35781699682775
20
-755.57598058654753
30
0
10
890.78738595150207
20
-757.36095235600931
30
0
10
893.46729008446164
20
-760.389668238578
30
0
10
895.81205033900903
20
-763.79690844552078
30
0
10
897.6820203954087
20
-766.89578683432478
30
0
10
898.97781671432062
20
-769.20147817467978
30
0
10
899.6380025137862
20
-770.41426793028222
30
0
0
LINE
5
145
100
AcDbEntity
8
0
100
AcDbLine
10
559.89928720924286
20
-772.46786978545833
30
0
11
864.07088787174098
21
-771.97594603216749
31
0
0
SPLINE
5
146
100
AcDbEntity
8
0
100
AcDbSpline
70
4
71
5
72
26
73
20
74
0
42
0.000000001
43
0.0000000001
44
0.0000000001
40
0
40
0
40
0
40
0
40
0
40
0
40
0.066666666666666666
40
0.13333333333333333
40
0.20000000000000001
40
0.26666666666666666
40
0.33333333333333331
40
0.39999999999999997
40
0.46666666666666662
40
0.53333333333333333
40
0.59999999999999998
40
0.66666666666666663
40
0.73333333333333328
40
0.79999999999999993
40
0.86666666666666659
40
0.93333333333333324
40
1
40
1
40
1
40
1
40
1
40
1
41
1
41
1
41
1
41
1
41
1
41
1
41
1
41
1
41
1
41
1
41
1
41
1
41
1
41
1
41
1
41
1
41
1
41
1
41
1
41
1
10
524.39925251378577
20
-770.88867967313024
30
0
10
525.05311533628128
20
-769.68113255788251
30
0
10
526.3367683214243
20
-767.38560692826354
30
0
10
528.19003125305426
20
-764.30101825375016
30
0
10
530.51555288244333
20
-760.91090059043324
30
0
10
533.17658076193027
20
-757.90024247596591
30
0
10
535.59253876198477
20
-756.12976850337031
30
0
10
537.77449695051462
20
-755.57953702146256
30
0
10
539.74966215916356
20
-756.17291204112553
30
0
10
541.57061867538903
20
-757.73930564880197
30
0
10
543.31823756198105
20
-760.00069898016886
30
0
10
545.08538037285325
20
-762.632129554622
30
0
10
546.9640702360748
20
-765.30721846590427
30
0
10
549.03273183718102
20
-767.74331265182877
30
0
10
551.33943940048073
20
-769.75802423790913
30
0
10
553.90584101800277
20
-771.25872819239407
30
0
10
556.17162950073737
20
-772.01877676866786
30
0
10
557.98963810966802
20
-772.33956910757752
30
0
10
559.25401003951242
20
-772.44343474924017
30
0
10
559.89928720924286
20
-772.46786978545833
30
0
0
LINE
5
147
100
AcDbEntity
8
0
100
AcDbLine
10
524.39925251378577
20
-783.96070593348099
30
0
11
524.39925251378577
21
-770.88867967313024
31
0
0
CIRCLE
5
148
100
AcDbEntity
8
0
100
AcDbCircle
10
889.13800251378575
20
-832.46070593348099
30
0
40
1.5500000000000114
210
0
220
0
230
1
0
CIRCLE
5
149
100
AcDbEntity
8
0
100
AcDbCircle
10
758.62254477009833
20
-832.46070593348122
30
0
40
1.5500000000000114
210
0
220
0
230
1
0
CIRCLE
5
150
100
AcDbEntity
8
0
100
AcDbCircle
10
664.91596025747128
20
-832.46070593348122
30
0
40
1.5500000000000114
210
0
220
0
230
1
0
CIRCLE
5
151
100
AcDbEntity
8
0
100
AcDbCircle
10
534.89925251378577
20
-832.46070593348122
30
0
40
1.5500000000000114
210
0
220
0
230
1
0
LINE
5
152
100
AcDbEntity
8
0
100
AcDbLine
10
524.39925251378577
20
-833.96070593348111
30
0
11
524.39925251378577
21
-829.87719188665596
31
-1.0175038069601953e-16
0
ARC
5
153
100
AcDbEntity
8
0
100
AcDbCircle
10
533.39925251378577
20
-833.96070593348111
30
0
40
8.9999999999999858
210
0
220
0
230
1
100
AcDbArc
50
180
51
270
0
LINE
5
154
100
AcDbEntity
8
0
100
AcDbLine
10
890.63800251378598
20
-842.96070593348099
30
0
11
533.39925251378577
21
-842.96070593348099
31
0
0
ARC
5
155
100
AcDbEntity
8
0
100
AcDbCircle
10
890.63800251378564
20
-833.96070593348088
30
0
40
9.000000000000199
210
0
220
0
230
1
100
AcDbArc
50
270.0000000000021
51
360
0
LINE
5
156
100
AcDbEntity
8
0
100
AcDbLine
10
899.63800251378598
20
-828.90098570107784
30
0
11
899.63800251378598
21
-833.96070593348111
31
0
0
SPLINE
5
157
100
AcDbEntity
8
0
100
AcDbSpline
70
4
71
5
72
26
73
20
74
0
42
0.000000001
43
0.0000000001
44
0.0000000001
40
-1
40
-1
40
-1
40
-1
40
-1
40
-1
40
-0.93333333333333324
40
-0.86666666666666659
40
-0.79999999999999993
40
-0.73333333333333328
40
-0.66666666666666663
40
-0.59999999999999998
40
-0.53333333333333333
40
-0.46666666666666662
40
-0.39999999999999997
40
-0.33333333333333331
40
-0.26666666666666666
40
-0.20000000000000001
40
-0.13333333333333333
40
-0.066666666666666666
40
0
40
0
40
0
40
0
40
0
40
0
41
1
41
1
41
1
41
1
41
1
41
1
41
1
41
1
41
1
41
1
41
1
41
1
41
1
41
1
41
1
41
1
41
1
41
1
41
1
41
1
10
863.8014665081904
20
-826.32123841887824
30
0
10
864.63042837464684
20
-826.28277101617164
30
0
10
866.23560753978973
20
-826.15706586282045
30
0
10
868.4851444740035
20
-825.8221979151765
30
0
10
871.1746917874566
20
-825.07889512437464
30
0
10
874.06218673867204
20
-823.64810777358434
30
0
10
876.53659625069065
20
-821.73789210044049
30
0
10
878.67430188494973
20
-819.42732705070762
30
0
10
880.56367385690112
20
-816.88221018391823
30
0
10
882.30313459722356
20
-814.388282089825
30
0
10
883.99214055169625
20
-812.29401626093454
30
0
10
885.72212201486548
20
-810.9516113168371
30
0
10
887.56825108854957
20
-810.66241121055214
30
0
10
889.5785687638504
20
-811.60633439978005
30
0
10
891.77890117130562
20
-813.86471420564465
30
0
10
894.18025739798566
20
-817.45786947723445
30
0
10
896.26347202987245
20
-821.38855715944237
30
0
10
897.91596159777157
20
-824.91966322046892
30
0
10
899.05736485733405
20
-827.53099996124115
30
0
10
899.6380025137862
20
-828.90098570107796
30
0
0
LINE
5
158
100
AcDbEntity
8
0
100
AcDbLine
10
560.18276203868095
20
-826.81226799674369
30
0
11
863.8014665081904
21
-826.32123841887824
31
0
0
SPLINE
5
159
100
AcDbEntity
8
0
100
AcDbSpline
70
4
71
5
72
26
73
20
74
0
42
0.000000001
43
0.0000000001
44
0.0000000001
40
0
40
0
40
0
40
0
40
0
40
0
40
0.066666666666666666
40
0.13333333333333333
40
0.20000000000000001
40
0.26666666666666666
40
0.33333333333333331
40
0.39999999999999997
40
0.46666666666666662
40
0.53333333333333333
40
0.59999999999999998
40
0.66666666666666663
40
0.73333333333333328
40
0.79999999999999993
40
0.86666666666666659
40
0.93333333333333324
40
1
40
1
40
1
40
1
40
1
40
1
41
1
41
1
41
1
41
1
41
1
41
1
41
1
41
1
41
1
41
1
41
1
41
1
41
1
41
1
41
1
41
1
41
1
41
1
41
1
41
1
10
524.39925251378577
20
-829.87719188665596
30
0
10
524.96960767089081
20
-828.48475949605984
30
0
10
526.09138435977741
20
-825.82982648042616
30
0
10
527.71724926112245
20
-822.23721736929463
30
0
10
529.77063647071725
20
-818.23236246627198
30
0
10
532.14431600024875
20
-814.55991807876273
30
0
10
534.32662129361995
20
-812.23610021199784
30
0
10
536.32826711411258
20
-811.24105445819623
30
0
10
538.17427405094509
20
-811.49355496190526
30
0
10
539.91096671774449
20
-812.81375655973261
30
0
10
541.61102767219393
20
-814.89828102121237
30
0
10
543.36333161227151
20
-817.39106694018938
30
0
10
545.26511498824243
20
-819.93925666539076
30
0
10
547.41346271587656
20
-822.25273150480825
30
0
10
549.89672705565545
20
-824.16297628533755
30
0
10
552.79206327947077
20
-825.58991800290096
30
0
10
555.48797705807397
20
-826.32697900988603
30
0
10
557.74280753072128
20
-826.65556110550574
30
0
10
559.35181282895189
20
-826.77640148060345
30
0
10
560.18276203868095
20
-826.81226799674369
30
0
0
ENDSEC
0
SECTION
2
OBJECTS
0
DICTIONARY
5
C
100
AcDbDictionary
3
ACAD_GROUP
350
D
3
ACAD_MLINESTYLE
350
17
0
DICTIONARY
5
D
100
AcDbDictionary
0
DICTIONARY
5
1A
330
C
100
AcDbDictionary
0
DICTIONARY
5
17
100
AcDbDictionary
0
ENDSEC
0
EOF
